<svg xmlns="http://www.w3.org/2000/svg" viewBox="0 0 500 500"><g id="freepik--background-complete--inject-2"><path d="M293.22,303c9,0,159.87,1,169.35.69.69,0,1.05-1,.37-1.36-6-3-12.76-2.36-19-4.46-3.65-1.23-5.9-3.62-8.43-6.36a17.59,17.59,0,0,0-7.86-5.13,16.64,16.64,0,0,0-8.55-.26c-3.06.73-5.72,2.48-8.64,3.58-7.25,2.74-14.29.14-19.47-5.22-4.27-4.43-8.46-8.6-14.27-11-4.86-2-10.25-2.41-15.11-.21-5.54,2.51-9.34,7.55-14.54,10.59-6.16,3.6-13.53,2.75-20.34,3.83s-12,6.82-18,10.12a12.75,12.75,0,0,1-6.51,2,38.1,38.1,0,0,1-4-.56c-2.06-.25-4-.19-5.39,1.52C292.56,301.26,292.63,303,293.22,303Z" style="fill:#ebebeb"></path><path d="M326.53,128.73c6.54,0,116.72.72,123.64.5.5,0,.77-.75.27-1-4.36-2.16-9.32-1.73-13.85-3.26-2.67-.9-4.31-2.64-6.16-4.64a12.87,12.87,0,0,0-5.73-3.75,12.16,12.16,0,0,0-6.25-.19c-2.23.53-4.17,1.81-6.3,2.62-5.3,2-10.44.1-14.22-3.82-3.12-3.23-6.18-6.27-10.42-8a13.79,13.79,0,0,0-11-.15c-4,1.83-6.82,5.51-10.61,7.72-4.5,2.63-9.88,2-14.85,2.81s-8.79,5-13.15,7.38a9.29,9.29,0,0,1-4.75,1.48c-1,0-1.93-.29-2.89-.41-1.5-.19-2.93-.14-3.94,1.11C326.05,127.43,326.1,128.73,326.53,128.73Z" style="fill:#ebebeb"></path><path d="M135.51,172.82c6.55,0,116.72.72,123.64.5a.53.53,0,0,0,.27-1c-4.36-2.16-9.31-1.73-13.85-3.25-2.67-.9-4.31-2.65-6.16-4.65a12.71,12.71,0,0,0-5.73-3.74,12,12,0,0,0-6.24-.2c-2.24.53-4.18,1.81-6.31,2.62-5.29,2-10.44.1-14.22-3.82-3.11-3.22-6.18-6.27-10.41-8a13.81,13.81,0,0,0-11-.15c-4,1.83-6.81,5.51-10.61,7.73-4.5,2.63-9.88,2-14.85,2.8s-8.79,5-13.15,7.39a9.34,9.34,0,0,1-4.75,1.47c-1,0-1.93-.29-2.89-.41-1.5-.18-2.93-.14-3.94,1.11C135,171.52,135.08,172.82,135.51,172.82Z" style="fill:#ebebeb"></path><path d="M40.75,242.71c.13.37,173.65,0,171.46,0-1,0,1.51-1.5.54-2-5.65-2.8-11.83-2.88-18-3.44-3.59-.33-7.28-.85-10.51-2.55s-5.3-4.69-7.63-7.43A32.59,32.59,0,0,0,147,216.08c-12.33,1.93-22.06,11.33-34.42,13.06-7.42,1-14.45-1.83-21.7-2.85-6-.83-10.95.34-16.3,3-3.91,1.94-7.53,3.58-11.95,3.88-3.4.24-6.81-.15-10.22-.18a22.87,22.87,0,0,0-15,6C36.83,239.46,35.09,242.71,40.75,242.71Z" style="fill:#ebebeb"></path><polygon points="142.96 330.76 146.26 435.82 136.56 435.82 139.86 330.76 142.96 330.76" style="fill:#dbdbdb"></polygon><polygon points="142.96 330.76 146.26 435.82 136.56 435.82 139.86 330.76 142.96 330.76" style="fill:#fff;opacity:0.5"></polygon><polygon points="143.03 333.22 139.77 333.57 139.86 330.76 142.96 330.76 143.03 333.22" style="fill:#dbdbdb"></polygon><polygon points="145.18 401.62 137.63 401.62 137.76 397.75 145.06 397.75 145.18 401.62" style="fill:#dbdbdb"></polygon><polygon points="145 395.92 137.81 395.92 137.87 393.98 144.94 393.98 145 395.92" style="fill:#dbdbdb"></polygon><polygon points="141.4 435.82 141.4 330.76 142.96 330.76 146.26 435.82 141.4 435.82" style="fill:#fff;opacity:0.5"></polygon><polygon points="132.72 329.47 133.55 332.55 144.38 332.55 144.38 326.39 133.55 326.39 133.15 327.87 132.72 329.47" style="fill:#dbdbdb"></polygon><polygon points="132.72 329.47 133.55 332.55 144.38 332.55 144.38 326.39 133.55 326.39 133.15 327.87 132.72 329.47" style="fill:#fff;opacity:0.30000000000000004"></polygon><polygon points="132.72 329.47 144.38 329.47 144.38 327.87 133.15 327.87 132.72 329.47" style="fill:#fff;opacity:0.5"></polygon><polygon points="147.95 328.95 182.33 296.02 181.34 295.48 146.07 326.99 147.95 328.95" style="fill:#dbdbdb"></polygon><polygon points="147.95 328.95 182.33 296.02 181.34 295.48 146.07 326.99 147.95 328.95" style="fill:#fff;opacity:0.5"></polygon><polygon points="151.83 325.23 182.33 296.02 182.4 297.12 154.87 326.53 151.83 325.23" style="fill:#dbdbdb"></polygon><polygon points="151.83 325.23 182.33 296.02 182.4 297.12 154.87 326.53 151.83 325.23" style="fill:#fff;opacity:0"></polygon><polygon points="173.11 307.05 170.94 304.77 172 303.82 174.09 306 173.11 307.05" style="fill:#dbdbdb"></polygon><polygon points="143.51 327.29 99.28 315.52 99.27 316.68 142.66 329.98 143.51 327.29" style="fill:#dbdbdb"></polygon><polygon points="143.51 327.29 99.28 315.52 99.27 316.68 142.66 329.98 143.51 327.29" style="fill:#fff;opacity:0.5"></polygon><polygon points="138.52 325.96 99.28 315.52 100.21 314.85 138.27 322.61 138.52 325.96" style="fill:#dbdbdb"></polygon><polygon points="138.52 325.96 99.28 315.52 100.21 314.85 138.27 322.61 138.52 325.96" style="fill:#fff;opacity:0"></polygon><polygon points="113.05 317.47 112.07 320.6 110.76 320.2 111.71 317.2 113.05 317.47" style="fill:#dbdbdb"></polygon><polygon points="144.08 332.03 153.93 376.73 154.94 376.11 146.81 331.3 144.08 332.03" style="fill:#dbdbdb"></polygon><polygon points="144.08 332.03 153.93 376.73 154.94 376.11 146.81 331.3 144.08 332.03" style="fill:#fff;opacity:0.5"></polygon><polygon points="145.19 337.07 153.93 376.73 152.93 376.29 142.4 339.12 145.19 337.07" style="fill:#dbdbdb"></polygon><polygon points="145.19 337.07 153.93 376.73 152.93 376.29 142.4 339.12 145.19 337.07" style="fill:#fff;opacity:0"></polygon><polygon points="149.38 363.74 152.54 362.89 152.79 364.24 149.75 365.06 149.38 363.74" style="fill:#dbdbdb"></polygon><circle cx="144.76" cy="329.47" r="3.08" style="fill:#dbdbdb"></circle><path d="M142.44,329.47a2.61,2.61,0,0,0,2.6,2.61c1.44,0,4.45-1.87,4.45-2.61s-3-2.6-4.45-2.6A2.6,2.6,0,0,0,142.44,329.47Z" style="fill:#dbdbdb"></path><path d="M142.44,329.47a2.61,2.61,0,0,0,2.6,2.61c1.44,0,4.45-1.87,4.45-2.61s-3-2.6-4.45-2.6A2.6,2.6,0,0,0,142.44,329.47Z" style="fill:#fff;opacity:0.5"></path><path d="M139.52,334.1a7,7,0,0,1-1.66-3.76,7.24,7.24,0,0,1,3.43-7.17,7.15,7.15,0,0,1,4-1.07,7.85,7.85,0,0,0-3.89,1.22,7.17,7.17,0,0,0-2.64,3,7.36,7.36,0,0,0-.71,4A7.81,7.81,0,0,0,139.52,334.1Z" style="fill:#c7c7c7"></path><path d="M152.63,329.47a7.77,7.77,0,0,1-.25,2.09,7.09,7.09,0,0,1-.85,1.93,7.25,7.25,0,0,1-7.32,3.36,7.07,7.07,0,0,1-3.76-1.79,7.85,7.85,0,0,0,3.79,1.63,7.34,7.34,0,0,0,4-.64,7.23,7.23,0,0,0,3.12-2.65A7.79,7.79,0,0,0,152.63,329.47Z" style="fill:#c7c7c7"></path><path d="M146.64,322.23a6.32,6.32,0,0,1,3.08,1.22,7.06,7.06,0,0,1,1.21,1.17,7.93,7.93,0,0,1,.85,1.43,16.16,16.16,0,0,0-1-1.31,7.3,7.3,0,0,0-1.21-1.08A8.69,8.69,0,0,0,146.64,322.23Z" style="fill:#c7c7c7"></path><path d="M154.45,333.17a9.58,9.58,0,0,1-3.23,4.31,9.76,9.76,0,0,1-10.39.95,9.73,9.73,0,0,1-4-3.67,10.6,10.6,0,0,0,4,3.52,9.88,9.88,0,0,0,5.24.93,9.7,9.7,0,0,0,5-1.86A10.4,10.4,0,0,0,154.45,333.17Z" style="fill:#c7c7c7"></path><path d="M151.56,321.83a8.84,8.84,0,0,1,3.6,7.64,11.19,11.19,0,0,0-3.6-7.64Z" style="fill:#c7c7c7"></path><path d="M135.71,332.13a9.56,9.56,0,0,1-.27-4.54,9.67,9.67,0,0,1,5.38-7.06,9.73,9.73,0,0,1,2.16-.76,10.29,10.29,0,0,1,2.28-.2,10.51,10.51,0,0,0-4.37,1.11,9.8,9.8,0,0,0-3.42,2.88,9.66,9.66,0,0,0-1.86,4.06A10.56,10.56,0,0,0,135.71,332.13Z" style="fill:#c7c7c7"></path><path d="M139.71,323.16a8.43,8.43,0,0,1,12.52,11.14,8.31,8.31,0,0,1-7,3.58,8.51,8.51,0,0,0,6.84-3.67,8.37,8.37,0,0,0-4.82-12.81A8.5,8.5,0,0,0,139.71,323.16Z" style="fill:#c7c7c7"></path><path d="M142.3,337.34a11.32,11.32,0,0,1-1.55-.7,8.26,8.26,0,0,1-3.33-3.8,8.16,8.16,0,0,1-.66-3.34,8,8,0,0,1,.75-3.3,8.8,8.8,0,0,0,.14,6.54,8.45,8.45,0,0,0,1.87,2.74A9.22,9.22,0,0,0,142.3,337.34Z" style="fill:#c7c7c7"></path><polygon points="223.98 330.76 227.28 435.82 217.58 435.82 220.88 330.76 223.98 330.76" style="fill:#dbdbdb"></polygon><polygon points="223.98 330.76 227.28 435.82 217.58 435.82 220.88 330.76 223.98 330.76" style="fill:#fff;opacity:0.5"></polygon><polygon points="224.06 333.22 220.79 333.57 220.88 330.76 223.98 330.76 224.06 333.22" style="fill:#dbdbdb"></polygon><polygon points="226.2 401.62 218.66 401.62 218.78 397.75 226.08 397.75 226.2 401.62" style="fill:#dbdbdb"></polygon><polygon points="226.02 395.92 218.83 395.92 218.89 393.98 225.96 393.98 226.02 395.92" style="fill:#dbdbdb"></polygon><polygon points="222.42 435.82 222.42 330.76 223.98 330.76 227.28 435.82 222.42 435.82" style="fill:#fff;opacity:0.5"></polygon><polygon points="213.74 329.47 214.57 332.55 225.41 332.55 225.41 326.39 214.57 326.39 214.17 327.87 213.74 329.47" style="fill:#dbdbdb"></polygon><polygon points="213.74 329.47 214.57 332.55 225.41 332.55 225.41 326.39 214.57 326.39 214.17 327.87 213.74 329.47" style="fill:#fff;opacity:0.30000000000000004"></polygon><polygon points="213.74 329.47 225.41 329.47 225.41 327.87 214.17 327.87 213.74 329.47" style="fill:#fff;opacity:0.5"></polygon><polygon points="227.19 326.93 216.3 280.58 215.33 281.17 224.55 327.55 227.19 326.93" style="fill:#dbdbdb"></polygon><polygon points="227.19 326.93 216.3 280.58 215.33 281.17 224.55 327.55 227.19 326.93" style="fill:#fff;opacity:0.5"></polygon><polygon points="225.96 321.7 216.3 280.58 217.29 281.08 228.63 319.74 225.96 321.7" style="fill:#dbdbdb"></polygon><polygon points="225.96 321.7 216.3 280.58 217.29 281.08 228.63 319.74 225.96 321.7" style="fill:#fff;opacity:0"></polygon><polygon points="221.11 294.13 218.05 294.85 217.77 293.45 220.71 292.76 221.11 294.13" style="fill:#dbdbdb"></polygon><polygon points="223.51 329.91 190.9 362.02 191.89 362.63 225.39 332.01 223.51 329.91" style="fill:#dbdbdb"></polygon><polygon points="223.51 329.91 190.9 362.02 191.89 362.63 225.39 332.01 223.51 329.91" style="fill:#fff;opacity:0.5"></polygon><polygon points="219.83 333.53 190.9 362.02 190.79 360.88 216.82 332.05 219.83 333.53" style="fill:#dbdbdb"></polygon><polygon points="219.83 333.53 190.9 362.02 190.79 360.88 216.82 332.05 219.83 333.53" style="fill:#fff;opacity:0"></polygon><polygon points="199.58 351.15 201.77 353.59 200.76 354.52 198.65 352.18 199.58 351.15" style="fill:#dbdbdb"></polygon><polygon points="227.88 331.82 271.38 346.06 271.36 344.87 228.63 329.11 227.88 331.82" style="fill:#dbdbdb"></polygon><polygon points="227.88 331.82 271.38 346.06 271.36 344.87 228.63 329.11 227.88 331.82" style="fill:#fff;opacity:0.5"></polygon><polygon points="232.79 333.43 271.38 346.06 270.49 346.7 233.13 336.88 232.79 333.43" style="fill:#dbdbdb"></polygon><polygon points="232.79 333.43 271.38 346.06 270.49 346.7 233.13 336.88 232.79 333.43" style="fill:#fff;opacity:0"></polygon><polygon points="257.88 343.38 258.76 340.22 260.05 340.7 259.21 343.73 257.88 343.38" style="fill:#dbdbdb"></polygon><circle cx="225.79" cy="329.47" r="3.08" style="fill:#dbdbdb"></circle><path d="M223.46,329.47a2.61,2.61,0,0,0,2.61,2.61c1.43,0,4.44-1.87,4.44-2.61s-3-2.6-4.44-2.6A2.6,2.6,0,0,0,223.46,329.47Z" style="fill:#dbdbdb"></path><path d="M223.46,329.47a2.61,2.61,0,0,0,2.61,2.61c1.43,0,4.44-1.87,4.44-2.61s-3-2.6-4.44-2.6A2.6,2.6,0,0,0,223.46,329.47Z" style="fill:#fff;opacity:0.5"></path><path d="M220.55,334.1a7,7,0,0,1-1.67-3.76,7.24,7.24,0,0,1,3.43-7.17,7.15,7.15,0,0,1,4-1.07,7.79,7.79,0,0,0-3.88,1.22,7.13,7.13,0,0,0-2.65,3,7.36,7.36,0,0,0-.71,4A7.72,7.72,0,0,0,220.55,334.1Z" style="fill:#c7c7c7"></path><path d="M233.65,329.47a8.18,8.18,0,0,1-.24,2.09,7.44,7.44,0,0,1-.86,1.93,7.24,7.24,0,0,1-7.31,3.36,7.06,7.06,0,0,1-3.77-1.79,7.85,7.85,0,0,0,3.79,1.63,7.39,7.39,0,0,0,4-.64,7.2,7.2,0,0,0,3.11-2.65A7.79,7.79,0,0,0,233.65,329.47Z" style="fill:#c7c7c7"></path><path d="M227.66,322.23a6.32,6.32,0,0,1,3.08,1.22,7.06,7.06,0,0,1,1.21,1.17,8.61,8.61,0,0,1,.86,1.43c-.35-.44-.63-.91-1-1.31a6.92,6.92,0,0,0-1.21-1.08A8.69,8.69,0,0,0,227.66,322.23Z" style="fill:#c7c7c7"></path><path d="M235.48,333.17a9.67,9.67,0,0,1-3.24,4.31,9.76,9.76,0,0,1-10.39.95,9.64,9.64,0,0,1-3.95-3.67,10.45,10.45,0,0,0,4,3.52,9.83,9.83,0,0,0,5.23.93,9.7,9.7,0,0,0,5-1.86A10.51,10.51,0,0,0,235.48,333.17Z" style="fill:#c7c7c7"></path><path d="M232.58,321.83a8.87,8.87,0,0,1,3.61,7.64,11.51,11.51,0,0,0-1.06-4.17A11.26,11.26,0,0,0,232.58,321.83Z" style="fill:#c7c7c7"></path><path d="M216.73,332.13a9.43,9.43,0,0,1-.26-4.54,9.87,9.87,0,0,1,7.53-7.82,10.29,10.29,0,0,1,2.28-.2,10.51,10.51,0,0,0-4.37,1.11,10.21,10.21,0,0,0-5.28,6.94A10.56,10.56,0,0,0,216.73,332.13Z" style="fill:#c7c7c7"></path><path d="M220.73,323.16a8.44,8.44,0,0,1,12.53,11.14,8.34,8.34,0,0,1-7,3.58,8.5,8.5,0,0,0,6.84-3.67,8.37,8.37,0,0,0-4.82-12.81A8.5,8.5,0,0,0,220.73,323.16Z" style="fill:#c7c7c7"></path><path d="M223.32,337.34a11.32,11.32,0,0,1-1.55-.7,8.26,8.26,0,0,1-3.33-3.8,8.16,8.16,0,0,1-.66-3.34,8,8,0,0,1,.75-3.3,8.8,8.8,0,0,0,.14,6.54,8.45,8.45,0,0,0,1.87,2.74A9.22,9.22,0,0,0,223.32,337.34Z" style="fill:#c7c7c7"></path><polygon points="301.06 330.76 304.36 435.82 294.66 435.82 297.96 330.76 301.06 330.76" style="fill:#dbdbdb"></polygon><polygon points="301.06 330.76 304.36 435.82 294.66 435.82 297.96 330.76 301.06 330.76" style="fill:#fff;opacity:0.5"></polygon><polygon points="301.15 333.7 297.74 337.75 297.96 330.76 301.06 330.76 301.15 333.7" style="fill:#dbdbdb"></polygon><polygon points="303.28 401.62 295.74 401.62 295.86 397.75 303.16 397.75 303.28 401.62" style="fill:#dbdbdb"></polygon><polygon points="303.11 395.92 295.92 395.92 295.98 393.98 303.05 393.98 303.11 395.92" style="fill:#dbdbdb"></polygon><polygon points="301.06 330.76 304.36 435.82 299.45 435.82 299.51 330.76 301.06 330.76" style="fill:#fff;opacity:0.5"></polygon><polygon points="290.82 329.47 291.65 332.55 302.49 332.55 302.49 326.39 291.65 326.39 291.26 327.87 290.82 329.47" style="fill:#dbdbdb"></polygon><polygon points="290.82 329.47 291.65 332.55 302.49 332.55 302.49 326.39 291.65 326.39 291.26 327.87 290.82 329.47" style="fill:#fff;opacity:0.30000000000000004"></polygon><polygon points="290.82 329.47 302.49 329.47 302.49 327.87 291.26 327.87 290.82 329.47" style="fill:#fff;opacity:0.5"></polygon><polygon points="300.11 331.63 287.98 377.67 289.12 377.61 302.73 332.32 300.11 331.63" style="fill:#dbdbdb"></polygon><polygon points="300.11 331.63 287.98 377.67 289.12 377.61 302.73 332.32 300.11 331.63" style="fill:#fff;opacity:0.5"></polygon><polygon points="298.74 336.83 287.98 377.67 287.34 376.76 295.46 337.31 298.74 336.83" style="fill:#dbdbdb"></polygon><polygon points="298.74 336.83 287.98 377.67 287.34 376.76 295.46 337.31 298.74 336.83" style="fill:#fff;opacity:0"></polygon><polygon points="290.09 363.45 293.13 364.25 292.72 365.62 289.8 364.85 290.09 363.45" style="fill:#dbdbdb"></polygon><polygon points="304.76 330.73 348.62 317.67 348.03 316.67 304.08 327.99 304.76 330.73" style="fill:#dbdbdb"></polygon><polygon points="304.76 330.73 348.62 317.67 348.03 316.67 304.08 327.99 304.76 330.73" style="fill:#fff;opacity:0.5"></polygon><polygon points="309.71 329.25 348.62 317.67 348.18 318.72 311.67 331.98 309.71 329.25" style="fill:#dbdbdb"></polygon><polygon points="309.71 329.25 348.62 317.67 348.18 318.72 311.67 331.98 309.71 329.25" style="fill:#fff;opacity:0"></polygon><polygon points="335.86 323.19 335.07 320.01 336.39 319.67 337.15 322.72 335.86 323.19" style="fill:#dbdbdb"></polygon><polygon points="301.8 326.98 270.06 294.01 269.51 295.06 299.86 329.03 301.8 326.98" style="fill:#dbdbdb"></polygon><polygon points="301.8 326.98 270.06 294.01 269.51 295.06 299.86 329.03 301.8 326.98" style="fill:#fff;opacity:0.5"></polygon><polygon points="298.21 323.26 270.06 294.01 271.14 293.86 299.52 320.06 298.21 323.26" style="fill:#dbdbdb"></polygon><polygon points="298.21 323.26 270.06 294.01 271.14 293.86 299.52 320.06 298.21 323.26" style="fill:#fff;opacity:0"></polygon><polygon points="280.72 302.7 278.46 305.08 277.55 304.06 279.71 301.77 280.72 302.7" style="fill:#dbdbdb"></polygon><circle cx="302.87" cy="329.47" r="3.08" style="fill:#dbdbdb"></circle><path d="M300.54,329.47a2.61,2.61,0,0,0,2.61,2.61c1.43,0,4.44-1.87,4.44-2.61s-3-2.6-4.44-2.6A2.6,2.6,0,0,0,300.54,329.47Z" style="fill:#dbdbdb"></path><path d="M300.54,329.47a2.61,2.61,0,0,0,2.61,2.61c1.43,0,4.44-1.87,4.44-2.61s-3-2.6-4.44-2.6A2.6,2.6,0,0,0,300.54,329.47Z" style="fill:#fff;opacity:0.5"></path><path d="M303.22,322.11a7,7,0,0,1,4,.92,7.25,7.25,0,0,1,3.68,7,7.08,7.08,0,0,1-1.53,3.82,7.74,7.74,0,0,0,1.36-3.83,7.18,7.18,0,0,0-.84-3.94,7.39,7.39,0,0,0-2.76-2.95A7.76,7.76,0,0,0,303.22,322.11Z" style="fill:#c7c7c7"></path><path d="M299.07,335.37a7.79,7.79,0,0,1-1.53-1.45,7.24,7.24,0,0,1-1-1.84,7.4,7.4,0,0,1-.34-4.19,7.51,7.51,0,0,1,2-3.68,7,7,0,0,1,3.69-1.93,7.76,7.76,0,0,0-3.58,2.05,7.55,7.55,0,0,0-1.66,7.69A7.87,7.87,0,0,0,299.07,335.37Z" style="fill:#c7c7c7"></path><path d="M308.45,334.92a6.29,6.29,0,0,1-2.83,1.73,6.19,6.19,0,0,1-1.65.27,7.73,7.73,0,0,1-1.66-.17,15.11,15.11,0,0,0,1.65,0,7.12,7.12,0,0,0,1.59-.32A8.7,8.7,0,0,0,308.45,334.92Z" style="fill:#c7c7c7"></path><path d="M295,334.62a9.59,9.59,0,0,1-1.52-5.18,9.77,9.77,0,0,1,5.47-8.88,9.69,9.69,0,0,1,5.31-1,10.28,10.28,0,0,0-5.23,1.11,10,10,0,0,0-5.38,8.73A10.38,10.38,0,0,0,295,334.62Z" style="fill:#c7c7c7"></path><path d="M305.82,339.1a8.9,8.9,0,0,1-8.28-1.7,11.23,11.23,0,0,0,8.28,1.7Z" style="fill:#c7c7c7"></path><path d="M307.09,320.24a9.54,9.54,0,0,1,3.79,2.51,9.68,9.68,0,0,1,2.43,8.54,9.9,9.9,0,0,1-.7,2.18,10.14,10.14,0,0,1-1.2,1.94,10.46,10.46,0,0,0,1.73-4.15,9.93,9.93,0,0,0-.25-4.47,9.75,9.75,0,0,0-2.14-3.93A10.51,10.51,0,0,0,307.09,320.24Z" style="fill:#c7c7c7"></path><path d="M311.86,328.82a8.25,8.25,0,0,1-3,7.24,8.43,8.43,0,0,1-13.4-3.9,8.31,8.31,0,0,1,1.32-7.73,8.5,8.5,0,0,0-1.16,7.68,8.38,8.38,0,0,0,13.14,3.82A8.5,8.5,0,0,0,311.86,328.82Z" style="fill:#c7c7c7"></path><path d="M299,322.39a10.8,10.8,0,0,1,1.49-.82,8.56,8.56,0,0,1,1.64-.48,8.11,8.11,0,0,1,6.47,1.57,7.88,7.88,0,0,1,2.19,2.58,8.73,8.73,0,0,0-5.32-3.81,8.39,8.39,0,0,0-3.31-.15A9,9,0,0,0,299,322.39Z" style="fill:#c7c7c7"></path><path d="M42.91,453s75.57-51.88,122.43-51.88c56.28,0,111,23.12,131.7,30.75,54.49,20.06,160,21.13,160,21.13Z" style="fill:#dbdbdb"></path><path d="M457.09,453s-42.91-30.18-91.38-30.18c-33.84,0-82.4,6.25-128.13,16.49C220.16,443.25,129.51,453,129.51,453Z" style="fill:#c7c7c7"></path></g><g id="freepik--Trees--inject-2"><path d="M129.29,443.43c-.72.71-9,1-12,1s-11.31-.32-12-1,9.33-55.82,12-55.82S130,442.72,129.29,443.43Z" style="fill:#455a64"></path><path d="M129.45,429.39c-2,.78-9.63,3.87-11.27,4.77,0-.34,0-.69,0-1q2.74-1.62,5.51-3.21a66.39,66.39,0,0,0,5.92-3.52c.09-.07,0-.25-.08-.2a48.17,48.17,0,0,0-5.8,3.2c-1.86,1.09-3.71,2.22-5.55,3.36,0-2.65,0-5.29,0-7.93a62.7,62.7,0,0,0,8.65-4.39c.09-.06,0-.23-.08-.19a62.54,62.54,0,0,0-8.57,4.23l0-4.12c-.08-7.07-.09-14.15-.27-21.22,1.8-.91,3.65-1.71,5.45-2.62.11-.06,0-.27-.09-.22-1.83.71-3.59,1.56-5.38,2.34-.09-3.64-.23-7.29-.46-10.93a.09.09,0,1,0-.18,0c-.26,6.77-.24,13.55-.15,20.33-1.86-1.49-3.85-2.81-5.75-4.25-.07-.05-.14.07-.07.13,2,1.5,3.84,3.18,5.83,4.68,0,.38,0,.77,0,1.15-2-.92-4.07-1.78-6.11-2.66-.16-.07-.31.16-.14.24,2.08,1,4.15,2,6.26,3l.15,10.07c.07,5.86.2,11.72.33,17.59q-5.73-2.9-11.53-5.63a.13.13,0,0,0-.13.22,120,120,0,0,0,11.67,5.86c.1,4.87.2,9.74.26,14.61a.23.23,0,0,0,.46,0c-.06-6.21-.07-12.42-.09-18.64a113.68,113.68,0,0,0,11.42-4.64C129.78,429.64,129.65,429.31,129.45,429.39Z" style="fill:#37474f"></path><path d="M392.64,443.43c-.71.71-9,1-12,1s-11.3-.32-12-1,9.32-55.82,12-55.82S393.35,442.72,392.64,443.43Z" style="fill:#455a64"></path><path d="M392.81,429.39c-2.05.78-9.64,3.87-11.28,4.77v-1q2.75-1.62,5.5-3.21A65,65,0,0,0,393,426.4c.09-.07,0-.25-.08-.2a48.17,48.17,0,0,0-5.8,3.2c-1.86,1.09-3.71,2.22-5.54,3.36q0-4,0-7.93a62.7,62.7,0,0,0,8.65-4.39c.09-.06,0-.23-.08-.19a63.7,63.7,0,0,0-8.57,4.23l0-4.12c-.08-7.07-.09-14.15-.27-21.22,1.8-.91,3.65-1.71,5.45-2.62.12-.06,0-.27-.09-.22-1.83.71-3.58,1.56-5.37,2.34-.1-3.64-.24-7.29-.46-10.93a.1.1,0,0,0-.19,0c-.25,6.77-.23,13.55-.15,20.33-1.86-1.49-3.85-2.81-5.74-4.25-.08-.05-.15.07-.08.13,2,1.5,3.84,3.18,5.83,4.68,0,.38,0,.77,0,1.15-2-.92-4.07-1.78-6.11-2.66-.16-.07-.3.16-.14.24,2.08,1,4.16,2,6.26,3,0,3.35.11,6.71.15,10.07.08,5.86.21,11.72.33,17.59q-5.72-2.9-11.53-5.63a.13.13,0,0,0-.13.22,122.31,122.31,0,0,0,11.67,5.86c.1,4.87.21,9.74.27,14.61a.23.23,0,0,0,.46,0c-.07-6.21-.08-12.42-.1-18.64A113.68,113.68,0,0,0,393,429.73C393.14,429.64,393,429.31,392.81,429.39Z" style="fill:#37474f"></path><path d="M63.07,444.82c-.61.61-7.72.89-10.31.89s-9.7-.28-10.31-.89,8-47.9,10.31-47.9S63.68,444.21,63.07,444.82Z" style="fill:#455a64"></path><path d="M63.22,432.77c-1.76.67-8.27,3.32-9.68,4.1V436c1.57-.93,3.14-1.84,4.72-2.76a55.23,55.23,0,0,0,5.08-3c.08-.05,0-.21-.07-.17a43,43,0,0,0-5,2.75q-2.4,1.41-4.77,2.88c0-2.27,0-4.53,0-6.8a55.59,55.59,0,0,0,7.42-3.77c.08,0,0-.2-.07-.16a54,54,0,0,0-7.36,3.63c0-1.18,0-2.36,0-3.54-.07-6.07-.08-12.14-.23-18.21,1.54-.78,3.13-1.47,4.67-2.25.11-.05,0-.23-.07-.18-1.57.61-3.08,1.33-4.61,2-.09-3.13-.21-6.26-.4-9.39a.08.08,0,0,0-.16,0c-.22,5.81-.2,11.63-.13,17.45-1.6-1.28-3.3-2.41-4.93-3.65-.06,0-.12.06-.06.11,1.7,1.3,3.29,2.73,5,4,0,.33,0,.66,0,1-1.73-.8-3.49-1.53-5.24-2.28-.14-.06-.26.13-.12.2,1.78.86,3.56,1.73,5.37,2.54,0,2.88.09,5.76.13,8.64.06,5,.17,10.06.28,15.09-3.27-1.65-6.57-3.27-9.89-4.83-.13-.06-.24.12-.11.19a100.66,100.66,0,0,0,10,5q.14,6.27.23,12.54a.19.19,0,0,0,.39,0c-.06-5.33-.06-10.66-.08-16a97.57,97.57,0,0,0,9.8-4A.16.16,0,0,0,63.22,432.77Z" style="fill:#37474f"></path><path d="M267.33,446.15c.52.52,6.51.74,8.69.74s8.17-.22,8.68-.74S278,405.81,276,405.81,266.82,445.64,267.33,446.15Z" style="fill:#37474f"></path><path d="M267.21,436c1.48.57,7,2.8,8.15,3.45v-.75l-4-2.32a48.2,48.2,0,0,1-4.28-2.54c-.07,0,0-.18.06-.15a36.48,36.48,0,0,1,4.19,2.32q2,1.19,4,2.42c0-1.9,0-3.81,0-5.72a45.31,45.31,0,0,1-6.25-3.18.07.07,0,0,1,.06-.13,45.56,45.56,0,0,1,6.19,3.05c0-1,0-2,0-3,.06-5.11.07-10.23.2-15.34-1.3-.66-2.64-1.24-3.94-1.89-.09-.05,0-.2.07-.16,1.31.51,2.58,1.12,3.88,1.69.07-2.63.17-5.27.33-7.9a.07.07,0,0,1,.14,0c.18,4.89.16,9.79.1,14.69,1.35-1.07,2.78-2,4.16-3.07,0,0,.1.05,0,.09-1.44,1.09-2.78,2.3-4.21,3.39,0,.28,0,.55,0,.83,1.46-.67,2.94-1.29,4.41-1.92.12-.05.22.11.11.17-1.51.72-3,1.46-4.53,2.14,0,2.42-.08,4.85-.11,7.28-.05,4.23-.14,8.47-.24,12.71q4.14-2.1,8.34-4.07c.1-.05.2.1.09.16a88.47,88.47,0,0,1-8.43,4.23q-.12,5.28-.2,10.56a.17.17,0,1,1-.33,0c0-4.49.06-9,.07-13.47a84.74,84.74,0,0,1-8.25-3.35C267,436.18,267.07,436,267.21,436Z" style="fill:#455a64"></path><path d="M60.4,446.15c.51.52,6.5.74,8.68.74s8.17-.22,8.69-.74S71,405.81,69.08,405.81,59.88,445.64,60.4,446.15Z" style="fill:#37474f"></path><path d="M60.28,436c1.48.57,7,2.8,8.14,3.45,0-.25,0-.5,0-.75q-2-1.17-4-2.32a49.67,49.67,0,0,1-4.28-2.54c-.06,0,0-.18.06-.15A35.66,35.66,0,0,1,64.42,436c1.35.79,2.68,1.6,4,2.42,0-1.9,0-3.81,0-5.72a45.88,45.88,0,0,1-6.25-3.18c-.06,0,0-.16.06-.13a45.67,45.67,0,0,1,6.2,3.05c0-1,0-2,0-3,0-5.11.06-10.23.19-15.34-1.3-.66-2.64-1.24-3.94-1.89-.08-.05,0-.2.07-.16,1.32.51,2.59,1.12,3.88,1.69.07-2.63.17-5.27.33-7.9a.07.07,0,0,1,.14,0c.18,4.89.17,9.79.1,14.69,1.35-1.07,2.79-2,4.16-3.07,0,0,.1.05,0,.09-1.43,1.09-2.77,2.3-4.21,3.39,0,.28,0,.55,0,.83,1.46-.67,2.94-1.29,4.42-1.92.11-.05.22.11.1.17-1.51.72-3,1.46-4.53,2.14,0,2.42-.07,4.85-.1,7.28-.06,4.23-.15,8.47-.24,12.71q4.13-2.1,8.33-4.07c.11-.05.2.1.09.16a87.3,87.3,0,0,1-8.43,4.23c-.07,3.52-.15,7-.19,10.56a.17.17,0,1,1-.33,0c0-4.49,0-9,.06-13.47a84.74,84.74,0,0,1-8.25-3.35A.14.14,0,0,1,60.28,436Z" style="fill:#455a64"></path><path d="M197.89,444.19c-.65.66-8.3.95-11.09.95s-10.43-.29-11.09-.95,8.61-51.51,11.09-51.51S198.55,443.53,197.89,444.19Z" style="fill:#37474f"></path><path d="M198.05,431.23c-1.89.72-8.89,3.57-10.41,4.4v-.95c1.69-1,3.38-2,5.08-3a58.53,58.53,0,0,0,5.46-3.24c.09-.06,0-.23-.07-.19a45.71,45.71,0,0,0-5.35,3c-1.72,1-3.43,2.05-5.12,3.1l0-7.32a57.47,57.47,0,0,0,8-4c.08-.05,0-.21-.07-.17a57.59,57.59,0,0,0-7.92,3.9c0-1.27,0-2.54,0-3.81-.07-6.52-.09-13.05-.25-19.58,1.66-.84,3.37-1.58,5-2.42.11-.05,0-.24-.09-.2-1.68.66-3.3,1.44-5,2.17-.08-3.37-.21-6.74-.42-10.1a.09.09,0,0,0-.17,0c-.23,6.25-.22,12.51-.14,18.77-1.72-1.38-3.55-2.59-5.3-3.92-.07-.06-.14.06-.07.11,1.83,1.39,3.54,2.94,5.38,4.32,0,.36,0,.71,0,1.06-1.86-.85-3.75-1.64-5.64-2.45-.15-.06-.28.15-.13.22,1.92.92,3.84,1.86,5.78,2.73,0,3.1.1,6.2.14,9.29.07,5.42.19,10.83.3,16.23q-5.28-2.67-10.64-5.19c-.13-.06-.25.13-.12.2a108.36,108.36,0,0,0,10.77,5.41q.15,6.75.25,13.49a.21.21,0,0,0,.42,0c-.06-5.74-.07-11.47-.09-17.2a106.64,106.64,0,0,0,10.54-4.29C198.35,431.46,198.23,431.16,198.05,431.23Z" style="fill:#455a64"></path><path d="M457.22,444.19c-.66.66-8.31.95-11.09.95s-10.44-.29-11.09-.95,8.6-51.51,11.09-51.51S457.87,443.53,457.22,444.19Z" style="fill:#37474f"></path><path d="M457.37,431.23c-1.89.72-8.89,3.57-10.41,4.4v-.95c1.69-1,3.38-2,5.08-3a58.53,58.53,0,0,0,5.46-3.24c.09-.06,0-.23-.07-.19a45.71,45.71,0,0,0-5.35,3c-1.72,1-3.42,2.05-5.12,3.1l0-7.32a57.47,57.47,0,0,0,8-4c.09-.05,0-.21-.07-.17a57.47,57.47,0,0,0-7.91,3.9l0-3.81c-.07-6.52-.08-13.05-.25-19.58,1.66-.84,3.37-1.58,5-2.42.11-.05,0-.24-.08-.2-1.69.66-3.31,1.44-5,2.17-.09-3.37-.22-6.74-.43-10.1a.09.09,0,0,0-.17,0c-.23,6.25-.21,12.51-.14,18.77-1.72-1.38-3.55-2.59-5.3-3.92-.07-.06-.13.06-.07.11,1.83,1.39,3.55,2.94,5.38,4.32,0,.36,0,.71,0,1.06-1.86-.85-3.75-1.64-5.64-2.45-.15-.06-.28.15-.13.22,1.92.92,3.84,1.86,5.78,2.73q.07,4.65.14,9.29c.07,5.42.19,10.83.3,16.23q-5.28-2.67-10.64-5.19c-.13-.06-.25.13-.12.2a109.45,109.45,0,0,0,10.77,5.41q.15,6.75.25,13.49c0,.27.43.27.42,0-.06-5.74-.07-11.47-.09-17.2a105.66,105.66,0,0,0,10.54-4.29C457.67,431.46,457.55,431.16,457.37,431.23Z" style="fill:#455a64"></path><path d="M306,446.91c.46.46,5.81.67,7.75.67s7.3-.21,7.75-.67-6-36-7.75-36S305.51,446.45,306,446.91Z" style="fill:#455a64"></path><path d="M305.86,437.86c1.33.5,6.22,2.49,7.28,3.07v-.66l-3.55-2.08a40.85,40.85,0,0,1-3.82-2.27c-.06,0,0-.16.05-.12a31.63,31.63,0,0,1,3.74,2.06c1.2.71,2.39,1.43,3.58,2.17,0-1.71,0-3.41,0-5.11a41.21,41.21,0,0,1-5.58-2.84.07.07,0,0,1,.06-.12,41,41,0,0,1,5.52,2.73c0-.89,0-1.77,0-2.66.05-4.56.06-9.13.18-13.69-1.16-.58-2.36-1.1-3.52-1.69-.07,0,0-.17.06-.14,1.18.46,2.31,1,3.47,1.51.06-2.35.15-4.7.29-7a.06.06,0,1,1,.12,0c.17,4.37.15,8.74.1,13.11,1.2-1,2.48-1.8,3.71-2.74,0,0,.09.05,0,.08-1.28,1-2.47,2.06-3.76,3,0,.24,0,.49,0,.74,1.31-.6,2.63-1.15,3.95-1.72.1,0,.19.11.09.16-1.34.64-2.68,1.3-4,1.9,0,2.17-.07,4.34-.1,6.5-.05,3.78-.13,7.56-.21,11.34q3.69-1.86,7.44-3.63c.09,0,.17.09.08.14a75.65,75.65,0,0,1-7.53,3.78c-.06,3.15-.13,6.29-.17,9.43,0,.19-.3.19-.29,0,0-4,.05-8,.06-12a72.88,72.88,0,0,1-7.37-3C305.65,438,305.74,437.81,305.86,437.86Z" style="fill:#37474f"></path><path d="M414.13,446.91c.46.46,5.81.67,7.75.67s7.29-.21,7.75-.67-6-36-7.75-36S413.67,446.45,414.13,446.91Z" style="fill:#455a64"></path><path d="M414,437.86c1.32.5,6.22,2.49,7.28,3.07v-.66l-3.55-2.08a39.6,39.6,0,0,1-3.82-2.27c-.06,0,0-.16.05-.12a31.63,31.63,0,0,1,3.74,2.06c1.2.71,2.39,1.43,3.58,2.17,0-1.71,0-3.41,0-5.11a41.21,41.21,0,0,1-5.58-2.84c-.06,0,0-.15.05-.12a40.56,40.56,0,0,1,5.53,2.73c0-.89,0-1.77,0-2.66.05-4.56.06-9.13.18-13.69-1.16-.58-2.36-1.1-3.52-1.69a.08.08,0,0,1,.06-.14c1.18.46,2.31,1,3.47,1.51.06-2.35.15-4.7.29-7a.06.06,0,1,1,.12,0c.17,4.37.15,8.74.1,13.11,1.2-1,2.48-1.8,3.7-2.74.05,0,.1.05.05.08-1.28,1-2.47,2.06-3.76,3,0,.24,0,.49,0,.74,1.31-.6,2.63-1.15,4-1.72.1,0,.19.11.09.16-1.35.64-2.68,1.3-4,1.9,0,2.17-.07,4.34-.1,6.5-.05,3.78-.13,7.56-.21,11.34q3.69-1.86,7.44-3.63c.09,0,.17.09.08.14a75.65,75.65,0,0,1-7.53,3.78c-.06,3.15-.13,6.29-.17,9.43a.15.15,0,0,1-.3,0c0-4,0-8,.07-12a72.88,72.88,0,0,1-7.37-3C413.81,438,413.9,437.81,414,437.86Z" style="fill:#37474f"></path></g><g id="freepik--Wind--inject-2"><path d="M148.25,145.31a11.05,11.05,0,0,0,4.67-1.31c1.47-.72,2.86-1.58,4.38-2.22a9.69,9.69,0,0,1,2.38-.68,7.44,7.44,0,0,1,2.49.1,16.09,16.09,0,0,1,4.47,2.06,12.18,12.18,0,0,0,4.45,1.8,6.93,6.93,0,0,0,2.36-.12,8.66,8.66,0,0,0,2.2-.93,31.77,31.77,0,0,1,4.25-2.49,7.85,7.85,0,0,1,4.95-.34,18.58,18.58,0,0,1,4.44,2.2,12,12,0,0,0,4.5,1.61,9.58,9.58,0,0,0,2.39.06,9.45,9.45,0,0,0,2.3-.67c1.5-.61,2.92-1.42,4.41-2.12a10,10,0,0,1,4.77-1.22,12.7,12.7,0,0,1,4.64,1.65,25.35,25.35,0,0,0,4.49,1.91,17.84,17.84,0,0,0,4.82.71,18.17,18.17,0,0,1-4.86-.59,26.73,26.73,0,0,1-4.56-1.81,12.36,12.36,0,0,0-4.55-1.58,9.87,9.87,0,0,0-4.61,1.23c-1.47.7-2.88,1.53-4.41,2.17a9.75,9.75,0,0,1-2.38.71,6.69,6.69,0,0,1-1.26.06,8.52,8.52,0,0,1-1.24-.1,12.32,12.32,0,0,1-4.68-1.62,18.28,18.28,0,0,0-4.33-2.12,7.44,7.44,0,0,0-4.66.28,33.16,33.16,0,0,0-4.21,2.43,9,9,0,0,1-2.31,1,7.57,7.57,0,0,1-2.51.1,12.43,12.43,0,0,1-4.57-1.88,15.76,15.76,0,0,0-4.37-2.07,6.81,6.81,0,0,0-2.38-.11,9.6,9.6,0,0,0-2.33.64c-1.51.59-2.93,1.42-4.42,2.1A11.11,11.11,0,0,1,148.25,145.31Z" style="fill:#263238"></path><path d="M45,207.62c4.46-.08,7.58-4,12.1-4.33a7.5,7.5,0,0,1,3.24.6,22.62,22.62,0,0,1,2.89,1.51c1.82,1.09,3.79,2.11,5.9,1.94a7,7,0,0,0,3-.89c.93-.51,1.81-1.14,2.74-1.7a10.16,10.16,0,0,1,3-1.3,7.77,7.77,0,0,1,3.29,0c2.19.45,4,1.79,5.9,2.69a14.64,14.64,0,0,0,6.21,1.5,14.62,14.62,0,0,1-6.31-1.28c-2-.87-3.78-2.16-5.87-2.53a7.85,7.85,0,0,0-3.13.06A9.69,9.69,0,0,0,75,205.14c-.91.56-1.79,1.2-2.75,1.73a7.57,7.57,0,0,1-3.16,1c-4.73.3-7.68-4.37-12-4.16-2.12,0-4.07,1.13-6,2.09A13.55,13.55,0,0,1,45,207.62Z" style="fill:#263238"></path><path d="M68.73,201.63c4.47-.08,7.59-4,12.11-4.33a7.5,7.5,0,0,1,3.24.6A22.62,22.62,0,0,1,87,199.41c1.82,1.09,3.79,2.11,5.9,1.94a7,7,0,0,0,3-.89c.93-.5,1.81-1.13,2.74-1.7a10.16,10.16,0,0,1,3-1.3,7.77,7.77,0,0,1,3.29,0c2.19.45,4,1.8,5.9,2.69a14.49,14.49,0,0,0,6.21,1.5,14.76,14.76,0,0,1-6.31-1.27c-2-.87-3.78-2.17-5.87-2.54a8,8,0,0,0-3.13.06,9.86,9.86,0,0,0-2.88,1.27c-.9.56-1.78,1.2-2.74,1.73a7.43,7.43,0,0,1-3.16,1c-4.73.3-7.68-4.36-12-4.16-2.12.06-4.07,1.13-6,2.09A13.56,13.56,0,0,1,68.73,201.63Z" style="fill:#263238"></path><path d="M117.56,260.8c4.46-.07,7.58-4,12.1-4.32a7.62,7.62,0,0,1,3.24.59,24,24,0,0,1,2.89,1.52c1.82,1.09,3.79,2.11,5.9,1.94a7.11,7.11,0,0,0,3-.89c.93-.51,1.81-1.14,2.74-1.7a9.9,9.9,0,0,1,3-1.3,7.77,7.77,0,0,1,3.29,0c2.2.45,4,1.79,5.9,2.69a14.48,14.48,0,0,0,6.21,1.49,14.61,14.61,0,0,1-6.31-1.27c-2-.87-3.78-2.16-5.87-2.53a7.62,7.62,0,0,0-3.12.06,9.38,9.38,0,0,0-2.88,1.27c-.91.55-1.78,1.19-2.75,1.73a7.72,7.72,0,0,1-3.16,1c-4.73.3-7.68-4.37-12-4.17-2.12.06-4.07,1.14-6,2.09A13.31,13.31,0,0,1,117.56,260.8Z" style="fill:#263238"></path><path d="M334,222c4.47-.07,7.59-4,12.11-4.32a7.49,7.49,0,0,1,3.24.59,22.67,22.67,0,0,1,2.89,1.52c1.82,1.09,3.79,2.11,5.9,1.94a7.13,7.13,0,0,0,3-.9c.93-.5,1.81-1.13,2.74-1.69a9.9,9.9,0,0,1,3-1.3,7.77,7.77,0,0,1,3.29,0c2.19.44,4,1.79,5.9,2.69a14.48,14.48,0,0,0,6.21,1.49,14.61,14.61,0,0,1-6.31-1.27c-2-.87-3.78-2.16-5.87-2.53a7.67,7.67,0,0,0-3.13.06,9.6,9.6,0,0,0-2.88,1.27c-.9.55-1.78,1.19-2.74,1.72a7.59,7.59,0,0,1-3.16,1c-4.73.3-7.68-4.37-12-4.17-2.12.06-4.07,1.13-6,2.09A13.32,13.32,0,0,1,334,222Z" style="fill:#263238"></path><path d="M172.28,152.74c4.47-.08,7.58-4,12.11-4.33a7.5,7.5,0,0,1,3.24.6,22.49,22.49,0,0,1,2.88,1.51c1.83,1.09,3.8,2.11,5.9,1.94a7,7,0,0,0,3-.89c.93-.5,1.8-1.13,2.74-1.7a10.1,10.1,0,0,1,3-1.3,7.81,7.81,0,0,1,3.3,0c2.19.45,4,1.8,5.9,2.69a14.45,14.45,0,0,0,6.2,1.5,14.79,14.79,0,0,1-6.31-1.27c-2-.87-3.77-2.17-5.87-2.54a8,8,0,0,0-3.12.06,9.86,9.86,0,0,0-2.88,1.27c-.91.56-1.78,1.2-2.74,1.73a7.48,7.48,0,0,1-3.16,1c-4.73.3-7.69-4.36-12-4.16-2.12.06-4.06,1.13-6,2.09A13.56,13.56,0,0,1,172.28,152.74Z" style="fill:#263238"></path><path d="M287.68,229.47a11.05,11.05,0,0,0,4.67-1.31c1.47-.72,2.86-1.58,4.38-2.22a9.69,9.69,0,0,1,2.38-.68,7.44,7.44,0,0,1,2.49.1,16.09,16.09,0,0,1,4.47,2.06,12.18,12.18,0,0,0,4.45,1.8,6.93,6.93,0,0,0,2.36-.12,8.66,8.66,0,0,0,2.2-.93,31.77,31.77,0,0,1,4.25-2.49,7.85,7.85,0,0,1,4.95-.34,18.58,18.58,0,0,1,4.44,2.2,12,12,0,0,0,4.5,1.61,9.59,9.59,0,0,0,2.39.06,9.45,9.45,0,0,0,2.3-.67c1.5-.61,2.92-1.43,4.41-2.12a10,10,0,0,1,4.77-1.22,12.52,12.52,0,0,1,4.64,1.65,25.35,25.35,0,0,0,4.49,1.91,17.84,17.84,0,0,0,4.82.71,18.17,18.17,0,0,1-4.86-.59,26.73,26.73,0,0,1-4.56-1.81,12.3,12.3,0,0,0-4.55-1.58,9.87,9.87,0,0,0-4.61,1.23c-1.47.7-2.88,1.53-4.41,2.17a9.75,9.75,0,0,1-2.38.71,6.69,6.69,0,0,1-1.26.06,8.52,8.52,0,0,1-1.24-.1,12.32,12.32,0,0,1-4.68-1.62,18.28,18.28,0,0,0-4.33-2.12,7.44,7.44,0,0,0-4.66.28,32,32,0,0,0-4.21,2.43,8.66,8.66,0,0,1-2.31.95,7.32,7.32,0,0,1-2.51.11,12.38,12.38,0,0,1-4.56-1.88,16,16,0,0,0-4.38-2.07,6.81,6.81,0,0,0-2.38-.11,10.05,10.05,0,0,0-2.33.63c-1.51.6-2.93,1.43-4.42,2.11A11.07,11.07,0,0,1,287.68,229.47Z" style="fill:#263238"></path><path d="M287.77,236.9c4.47-.08,7.59-4,12.11-4.33a7.5,7.5,0,0,1,3.24.6,22.62,22.62,0,0,1,2.89,1.51c1.82,1.09,3.79,2.11,5.9,1.94a7,7,0,0,0,3-.89c.93-.51,1.81-1.14,2.74-1.7a10.16,10.16,0,0,1,3-1.3,7.77,7.77,0,0,1,3.29,0c2.19.45,4,1.8,5.9,2.69a14.64,14.64,0,0,0,6.21,1.5,14.62,14.62,0,0,1-6.31-1.28c-2-.86-3.78-2.16-5.87-2.53a8,8,0,0,0-3.13.06,9.69,9.69,0,0,0-2.87,1.27c-.91.56-1.79,1.2-2.75,1.73a7.43,7.43,0,0,1-3.16,1c-4.73.3-7.68-4.37-12-4.16-2.12,0-4.07,1.13-6,2.09A13.56,13.56,0,0,1,287.77,236.9Z" style="fill:#263238"></path></g><g id="freepik--wind-turbines--inject-2"><polygon points="125.57 216.91 132.99 453.04 111.19 453.04 118.61 216.91 125.57 216.91" style="fill:#FFC727"></polygon><polygon points="125.57 216.91 132.99 453.04 111.19 453.04 118.61 216.91 125.57 216.91" style="fill:#fff;opacity:0.5"></polygon><polygon points="125.74 222.44 118.41 223.21 118.6 216.9 125.57 216.9 125.74 222.44" style="fill:#FFC727"></polygon><polygon points="130.56 376.18 113.61 376.18 113.88 367.48 130.29 367.48 130.56 376.18" style="fill:#FFC727"></polygon><polygon points="130.17 363.35 114 363.35 114.14 359 130.03 359 130.17 363.35" style="fill:#FFC727"></polygon><polygon points="122.07 453.04 122.07 216.91 125.57 216.91 132.99 453.04 122.07 453.04" style="fill:#fff;opacity:0.5"></polygon><polygon points="102.56 214.01 104.43 220.93 128.78 220.93 128.78 207.08 104.43 207.08 103.53 210.4 102.56 214.01" style="fill:#FFC727"></polygon><polygon points="102.56 214.01 104.43 220.93 128.78 220.93 128.78 207.08 104.43 207.08 103.53 210.4 102.56 214.01" style="fill:#fff;opacity:0.30000000000000004"></polygon><polygon points="102.56 214.01 128.78 214.01 128.78 210.4 103.53 210.4 102.56 214.01" style="fill:#fff;opacity:0.5"></polygon><polygon points="133.78 208.78 133.78 101.77 131.36 102.55 127.7 208.78 133.78 208.78" style="fill:#FFC727"></polygon><polygon points="133.78 208.78 133.78 101.77 131.36 102.55 127.7 208.78 133.78 208.78" style="fill:#fff;opacity:0.5"></polygon><polygon points="133.78 196.7 133.78 101.77 135.69 103.37 140.63 193.78 133.78 196.7" style="fill:#FFC727"></polygon><polygon points="133.78 196.7 133.78 101.77 135.69 103.37 140.63 193.78 133.78 196.7" style="fill:#fff;opacity:0"></polygon><polygon points="137.36 133.88 130.28 133.88 130.39 130.68 137.19 130.68 137.36 133.88" style="fill:#FFC727"></polygon><polygon points="124.2 213.4 36.34 266.9 38.19 268.73 127.25 218.96 124.2 213.4" style="fill:#FFC727"></polygon><polygon points="124.2 213.4 36.34 266.9 38.19 268.73 127.25 218.96 124.2 213.4" style="fill:#fff;opacity:0.5"></polygon><polygon points="114.28 219.44 36.34 266.9 36.7 264.36 108.46 214.65 114.28 219.44" style="fill:#FFC727"></polygon><polygon points="114.28 219.44 36.34 266.9 36.7 264.36 108.46 214.65 114.28 219.44" style="fill:#fff;opacity:0"></polygon><polygon points="60.92 247.58 64.46 254.05 61.77 255.55 58.37 249.34 60.92 247.58" style="fill:#FFC727"></polygon><polygon points="132.78 219.84 220.64 273.35 221.22 270.75 135.83 214.28 132.78 219.84" style="fill:#FFC727"></polygon><polygon points="132.78 219.84 220.64 273.35 221.22 270.75 135.83 214.28 132.78 219.84" style="fill:#fff;opacity:0.5"></polygon><polygon points="142.7 225.88 220.64 273.35 218.37 274.29 141.68 233.6 142.7 225.88" style="fill:#FFC727"></polygon><polygon points="142.7 225.88 220.64 273.35 218.37 274.29 141.68 233.6 142.7 225.88" style="fill:#fff;opacity:0"></polygon><polygon points="192.49 260.56 196.03 254.09 198.61 255.8 195.21 262 192.49 260.56" style="fill:#FFC727"></polygon><circle cx="129.63" cy="214.01" r="6.93" style="fill:#FFC727"></circle><path d="M124.41,214a5.85,5.85,0,0,0,5.85,5.85c3.23,0,10-4.19,10-5.85s-6.76-5.86-10-5.86A5.85,5.85,0,0,0,124.41,214Z" style="fill:#FFC727"></path><path d="M124.41,214a5.85,5.85,0,0,0,5.85,5.85c3.23,0,10-4.19,10-5.85s-6.76-5.86-10-5.86A5.85,5.85,0,0,0,124.41,214Z" style="fill:#fff;opacity:0.5"></path><path d="M117.85,224.41a16.2,16.2,0,0,1-3.64-8.46,14.06,14.06,0,0,1-.11-2.34l.06-1.17c0-.39.1-.77.15-1.16a17.9,17.9,0,0,1,.52-2.28,17.07,17.07,0,0,1,.87-2.18,15.33,15.33,0,0,1,2.6-3.88,15.81,15.81,0,0,1,3.57-3,16.14,16.14,0,0,1,4.26-1.9,18,18,0,0,1,4.61-.6,17.12,17.12,0,0,0-8.78,2.64,16.4,16.4,0,0,0-6,6.85,18.09,18.09,0,0,0-.87,2.14,15.65,15.65,0,0,0-.53,2.25c0,.38-.13.76-.17,1.14l-.06,1.16a13.73,13.73,0,0,0,.08,2.31A16.87,16.87,0,0,0,117.85,224.41Z" style="fill:#c7c7c7"></path><path d="M147.3,214a17.56,17.56,0,0,1-.61,4.67,16.72,16.72,0,0,1-9,10.49,16,16,0,0,1-4.55,1.31,16.31,16.31,0,0,1-13.21-3.92,17,17,0,0,0,8.5,3.77,16.67,16.67,0,0,0,4.68-.05,16,16,0,0,0,4.48-1.34,16.43,16.43,0,0,0,7-6A17,17,0,0,0,147.3,214Z" style="fill:#c7c7c7"></path><path d="M133.86,197.74a15.4,15.4,0,0,1,6.82,2.87,15.66,15.66,0,0,1,2.71,2.56,20.72,20.72,0,0,1,2,3.14,28.34,28.34,0,0,0-2.16-3,16.45,16.45,0,0,0-2.72-2.49A17.74,17.74,0,0,0,133.86,197.74Z" style="fill:#c7c7c7"></path><path d="M151.41,222.31a22.29,22.29,0,0,1-18.65,14,22.22,22.22,0,0,1-20.86-10.42,22.89,22.89,0,0,0,9,8A22.43,22.43,0,0,0,144,231.8,22.88,22.88,0,0,0,151.41,222.31Z" style="fill:#c7c7c7"></path><path d="M144.9,196.82A21.18,21.18,0,0,1,153,214a23.51,23.51,0,0,0-8.11-17.19Z" style="fill:#c7c7c7"></path><path d="M109.28,220a21.86,21.86,0,0,1-.49-10.17,22.08,22.08,0,0,1,12-15.81,22,22,0,0,1,4.84-1.72,24.17,24.17,0,0,1,5.09-.53,23.14,23.14,0,0,0-9.85,2.4A22.64,22.64,0,0,0,109,209.83,23,23,0,0,0,109.28,220Z" style="fill:#c7c7c7"></path><path d="M118.28,199.81a18.79,18.79,0,0,1,17.06-4.21,18.91,18.91,0,0,1,11,29.2,18.87,18.87,0,0,1-15.6,8.1,19,19,0,0,0,15.46-8.2,18.85,18.85,0,0,0-10.9-28.94A19,19,0,0,0,118.28,199.81Z" style="fill:#c7c7c7"></path><path d="M124.09,231.69a25.68,25.68,0,0,1-3.43-1.64,18.42,18.42,0,0,1-3-2.33,18.92,18.92,0,0,1-4.37-6.21,18.72,18.72,0,0,1-1.5-7.45,18.15,18.15,0,0,1,1.56-7.41,19.17,19.17,0,0,0,.17,14.76,18.7,18.7,0,0,0,4.25,6.19A20.13,20.13,0,0,0,124.09,231.69Z" style="fill:#c7c7c7"></path><polygon points="387.95 216.91 395.37 453.04 373.57 453.04 380.99 216.91 387.95 216.91" style="fill:#FFC727"></polygon><polygon points="387.95 216.91 395.37 453.04 373.57 453.04 380.99 216.91 387.95 216.91" style="fill:#fff;opacity:0.5"></polygon><polygon points="388.16 223.51 380.49 232.61 380.98 216.9 387.95 216.9 388.16 223.51" style="fill:#FFC727"></polygon><polygon points="392.94 376.18 375.99 376.18 376.26 367.48 392.67 367.48 392.94 376.18" style="fill:#FFC727"></polygon><polygon points="392.55 363.35 376.38 363.35 376.52 359 392.41 359 392.55 363.35" style="fill:#FFC727"></polygon><polygon points="387.95 216.91 395.37 453.04 384.32 453.04 384.47 216.91 387.95 216.91" style="fill:#fff;opacity:0.5"></polygon><polygon points="364.94 214.01 366.81 220.93 391.16 220.93 391.16 207.08 366.81 207.08 365.91 210.4 364.94 214.01" style="fill:#FFC727"></polygon><polygon points="364.94 214.01 366.81 220.93 391.16 220.93 391.16 207.08 366.81 207.08 365.91 210.4 364.94 214.01" style="fill:#fff;opacity:0.30000000000000004"></polygon><polygon points="364.94 214.01 391.16 214.01 391.16 210.4 365.91 210.4 364.94 214.01" style="fill:#fff;opacity:0.5"></polygon><polygon points="391.55 221.27 431.05 320.72 433.01 319.1 397.2 219.02 391.55 221.27" style="fill:#FFC727"></polygon><polygon points="391.55 221.27 431.05 320.72 433.01 319.1 397.2 219.02 391.55 221.27" style="fill:#fff;opacity:0.5"></polygon><polygon points="396 232.49 431.05 320.72 428.68 319.94 390.72 237.74 396 232.49" style="fill:#FFC727"></polygon><polygon points="396 232.49 431.05 320.72 428.68 319.94 390.72 237.74 396 232.49" style="fill:#fff;opacity:0"></polygon><polygon points="415.87 292.2 422.45 289.58 423.53 292.6 417.22 295.11 415.87 292.2" style="fill:#FFC727"></polygon><polygon points="398.75 213.44 460.65 131.28 458.26 130.26 393.87 209.39 398.75 213.44" style="fill:#FFC727"></polygon><polygon points="398.75 213.44 460.65 131.28 458.26 130.26 393.87 209.39 398.75 213.44" style="fill:#fff;opacity:0.5"></polygon><polygon points="405.74 204.16 460.65 131.28 461.26 133.78 412.92 206.47 405.74 204.16" style="fill:#FFC727"></polygon><polygon points="405.74 204.16 460.65 131.28 461.26 133.78 412.92 206.47 405.74 204.16" style="fill:#fff;opacity:0"></polygon><polygon points="444.94 158.31 439.27 153.6 441.21 151.22 446.66 155.73 444.94 158.31" style="fill:#FFC727"></polygon><polygon points="388.39 210.62 286.99 193.32 287.41 195.95 387.62 216.91 388.39 210.62" style="fill:#FFC727"></polygon><polygon points="388.39 210.62 286.99 193.32 287.41 195.95 387.62 216.91 388.39 210.62" style="fill:#fff;opacity:0.5"></polygon><polygon points="376.94 208.66 286.99 193.32 288.75 191.61 375.05 201.12 376.94 208.66" style="fill:#FFC727"></polygon><polygon points="376.94 208.66 286.99 193.32 288.75 191.61 375.05 201.12 376.94 208.66" style="fill:#fff;opacity:0"></polygon><polygon points="317.87 194.82 316.97 202.13 313.95 201.5 314.81 194.48 317.87 194.82" style="fill:#FFC727"></polygon><circle cx="392.01" cy="214.01" r="6.93" style="fill:#FFC727"></circle><path d="M386.79,214a5.85,5.85,0,0,0,5.85,5.85c3.23,0,10-4.19,10-5.85s-6.77-5.86-10-5.86A5.85,5.85,0,0,0,386.79,214Z" style="fill:#FFC727"></path><path d="M386.79,214a5.85,5.85,0,0,0,5.85,5.85c3.23,0,10-4.19,10-5.85s-6.77-5.86-10-5.86A5.85,5.85,0,0,0,386.79,214Z" style="fill:#fff;opacity:0.5"></path><path d="M392.8,197.45a16.2,16.2,0,0,1,9,2.16,13.43,13.43,0,0,1,1.93,1.32l.91.74c.29.26.55.55.83.83a17.2,17.2,0,0,1,1.52,1.78,17.8,17.8,0,0,1,1.22,2,15.76,15.76,0,0,1,1.55,4.41,16.12,16.12,0,0,1,.26,4.65,16.45,16.45,0,0,1-1,4.55,17.94,17.94,0,0,1-2.28,4.05,17,17,0,0,0,3.15-8.61,16.52,16.52,0,0,0-1.86-8.94,17.31,17.31,0,0,0-1.19-2,16.52,16.52,0,0,0-1.48-1.77c-.27-.27-.53-.56-.82-.82l-.88-.74a13.72,13.72,0,0,0-1.9-1.32A17,17,0,0,0,392.8,197.45Z" style="fill:#c7c7c7"></path><path d="M383.47,227.26a17.55,17.55,0,0,1-3.37-3.3,15.93,15.93,0,0,1-2.28-4.14,16.71,16.71,0,0,1-.72-9.34,15.64,15.64,0,0,1,1.68-4.43,16.33,16.33,0,0,1,11.06-8.22,17,17,0,0,0-8.11,4.54,16.28,16.28,0,0,0-2.77,3.78,15.59,15.59,0,0,0-1.61,4.38,16.45,16.45,0,0,0,.62,9.24A17.19,17.19,0,0,0,383.47,227.26Z" style="fill:#c7c7c7"></path><path d="M404.55,226.26a15.47,15.47,0,0,1-6.39,3.74,15.75,15.75,0,0,1-3.68.63,20,20,0,0,1-3.71-.27,28.61,28.61,0,0,0,3.7.08,17,17,0,0,0,3.62-.68A17.91,17.91,0,0,0,404.55,226.26Z" style="fill:#c7c7c7"></path><path d="M374.36,225.57a22.19,22.19,0,0,1,20.84-33.76,23,23,0,0,0-11.82,2.4,22.24,22.24,0,0,0-8.82,8.17,22,22,0,0,0-3.33,11.55A22.84,22.84,0,0,0,374.36,225.57Z" style="fill:#c7c7c7"></path><path d="M398.66,235.65a21.59,21.59,0,0,1-9.76.29,21.34,21.34,0,0,1-8.85-4.11,23.54,23.54,0,0,0,18.61,3.82Z" style="fill:#c7c7c7"></path><path d="M401.5,193.26a21.87,21.87,0,0,1,8.43,5.7,22.08,22.08,0,0,1,5.44,19.1,21.42,21.42,0,0,1-1.52,4.9,24.16,24.16,0,0,1-2.63,4.4,23.07,23.07,0,0,0,4-9.33,22.68,22.68,0,0,0-5.4-19A23.07,23.07,0,0,0,401.5,193.26Z" style="fill:#c7c7c7"></path><path d="M412.24,212.55a18.92,18.92,0,1,1-34-9.87A19,19,0,0,0,375.57,220a18.85,18.85,0,0,0,29.7,8.64A19,19,0,0,0,412.24,212.55Z" style="fill:#c7c7c7"></path><path d="M383.24,198.08a24.5,24.5,0,0,1,3.37-1.76,18.7,18.7,0,0,1,3.67-1,18.46,18.46,0,0,1,14.45,3.5,18,18,0,0,1,5,5.7,19.11,19.11,0,0,0-11.9-8.72,18.82,18.82,0,0,0-7.51-.31A20,20,0,0,0,383.24,198.08Z" style="fill:#c7c7c7"></path><polygon points="254.5 148.09 264.08 453.04 235.92 453.04 245.5 148.09 254.5 148.09" style="fill:#FFC727"></polygon><polygon points="254.5 148.09 264.08 453.04 235.92 453.04 245.5 148.09 254.5 148.09" style="fill:#fff;opacity:0.5"></polygon><polygon points="255.3 173.66 245.25 156.23 245.5 148.09 254.5 148.09 255.3 173.66" style="fill:#FFC727"></polygon><polygon points="260.95 353.77 239.05 353.77 239.4 342.54 260.6 342.54 260.95 353.77" style="fill:#FFC727"></polygon><polygon points="260.44 337.21 239.56 337.21 239.74 331.6 260.26 331.6 260.44 337.21" style="fill:#FFC727"></polygon><polygon points="250.27 453.13 250.27 148.09 254.5 148.09 264.08 453.04 250.27 453.13" style="fill:#fff;opacity:0.5"></polygon><polygon points="223.85 144.34 226.26 153.29 257.71 153.29 257.71 135.4 226.26 135.4 225.1 139.69 223.85 144.34" style="fill:#FFC727"></polygon><polygon points="223.85 144.34 226.26 153.29 257.71 153.29 257.71 135.4 226.26 135.4 225.1 139.69 223.85 144.34" style="fill:#fff;opacity:0.30000000000000004"></polygon><polygon points="223.85 144.34 257.71 144.34 257.71 139.69 225.1 139.69 223.85 144.34" style="fill:#fff;opacity:0.5"></polygon><polygon points="268.02 147.93 403.46 120.47 401.86 117.6 266.46 140.22 268.02 147.93" style="fill:#FFC727"></polygon><polygon points="268.02 147.93 403.46 120.47 401.86 117.6 266.46 140.22 268.02 147.93" style="fill:#fff;opacity:0.5"></polygon><polygon points="283.31 144.83 403.46 120.47 401.92 123.3 288.77 152.74 283.31 144.83" style="fill:#FFC727"></polygon><polygon points="283.31 144.83 403.46 120.47 401.92 123.3 288.77 152.74 283.31 144.83" style="fill:#fff;opacity:0"></polygon><polygon points="363.74 133.23 361.92 124.27 366 123.59 367.75 132.19 363.74 133.23" style="fill:#FFC727"></polygon><polygon points="259.72 136.99 169.45 39.52 167.61 42.33 253.46 142.27 259.72 136.99" style="fill:#FFC727"></polygon><polygon points="259.72 136.99 169.45 39.52 167.61 42.33 253.46 142.27 259.72 136.99" style="fill:#fff;opacity:0.5"></polygon><polygon points="249.53 125.98 169.45 39.52 172.76 39.32 254.09 117.38 249.53 125.98" style="fill:#FFC727"></polygon><polygon points="249.53 125.98 169.45 39.52 172.76 39.32 254.09 117.38 249.53 125.98" style="fill:#fff;opacity:0"></polygon><polygon points="200.21 65.67 192.94 71.8 190.35 68.79 197.33 62.9 200.21 65.67" style="fill:#FFC727"></polygon><polygon points="253.76 149.5 208.59 274.44 212.03 274.5 261.58 151.93 253.76 149.5" style="fill:#FFC727"></polygon><polygon points="253.76 149.5 208.59 274.44 212.03 274.5 261.58 151.93 253.76 149.5" style="fill:#fff;opacity:0.5"></polygon><polygon points="248.66 163.6 208.59 274.44 206.81 271.81 238.64 164.29 248.66 163.6" style="fill:#FFC727"></polygon><polygon points="248.66 163.6 208.59 274.44 206.81 271.81 238.64 164.29 248.66 163.6" style="fill:#fff;opacity:0"></polygon><polygon points="217.56 235.53 226.65 238.34 225.15 242.04 216.42 239.33 217.56 235.53" style="fill:#FFC727"></polygon><circle cx="258.81" cy="144.34" r="8.95" style="fill:#FFC727"></circle><path d="M252.06,144.34a7.55,7.55,0,0,0,7.56,7.56c4.17,0,12.9-5.4,12.9-7.56,0-2-8.73-7.55-12.9-7.55A7.55,7.55,0,0,0,252.06,144.34Z" style="fill:#FFC727"></path><path d="M252.06,144.34a7.55,7.55,0,0,0,7.56,7.56c4.17,0,12.9-5.4,12.9-7.56,0-2-8.73-7.55-12.9-7.55A7.55,7.55,0,0,0,252.06,144.34Z" style="fill:#fff;opacity:0.5"></path><path d="M246.86,129.37a18.74,18.74,0,0,1,9.84-4.22,16.4,16.4,0,0,1,2.71-.13l1.36.07c.45,0,.9.12,1.35.18a20.28,20.28,0,0,1,2.65.6,21.17,21.17,0,0,1,2.53,1,17.93,17.93,0,0,1,4.5,3,18.23,18.23,0,0,1,3.49,4.14A19.21,19.21,0,0,1,277.5,139a20.7,20.7,0,0,1,.7,5.36,19.79,19.79,0,0,0-3.05-10.21,19.23,19.23,0,0,0-8-7,20,20,0,0,0-2.49-1,18.11,18.11,0,0,0-2.62-.61c-.44-.07-.88-.16-1.33-.2l-1.34-.07a16.1,16.1,0,0,0-2.69.1A19.48,19.48,0,0,0,246.86,129.37Z" style="fill:#c7c7c7"></path><path d="M259,163.59a20.82,20.82,0,0,1-5.43-.72,19.4,19.4,0,0,1-12.16-10.46,18.41,18.41,0,0,1-1.54-5.28,22.82,22.82,0,0,1-.21-2.75,20.92,20.92,0,0,1,.2-2.74,19,19,0,0,1,4.55-9.86,19.71,19.71,0,0,0-4.39,9.88,18.6,18.6,0,0,0,.06,5.44,18.21,18.21,0,0,0,1.55,5.21,19.29,19.29,0,0,0,7,8.15A19.75,19.75,0,0,0,259,163.59Z" style="fill:#c7c7c7"></path><path d="M277.86,148a18.34,18.34,0,0,1-3.35,7.92,19,19,0,0,1-3,3.15,16.94,16.94,0,0,1-3.62,2.36,21.22,21.22,0,0,0,3.51-2.49,18.48,18.48,0,0,0,2.9-3.16,19.09,19.09,0,0,0,2.19-3.69A22.31,22.31,0,0,0,277.86,148Z" style="fill:#c7c7c7"></path><path d="M249.31,168.36a25.92,25.92,0,0,1-16.25-21.67,25.82,25.82,0,0,1,12.09-24.24,26.7,26.7,0,0,0-9.32,10.46,26,26,0,0,0,2.44,26.82A26.46,26.46,0,0,0,249.31,168.36Z" style="fill:#c7c7c7"></path><path d="M278.92,160.8a24.73,24.73,0,0,1-20,9.42,27.05,27.05,0,0,0,20-9.42Z" style="fill:#c7c7c7"></path><path d="M252,119.4a25.55,25.55,0,0,1,11.82-.56,26.16,26.16,0,0,1,10.84,4.81,26.07,26.07,0,0,1,7.52,9.16,25.52,25.52,0,0,1,2,5.61,28.15,28.15,0,0,1,.63,5.92,26.62,26.62,0,0,0-2.78-11.46,26,26,0,0,0-7.52-9,25.13,25.13,0,0,0-5.08-3,25.77,25.77,0,0,0-5.64-1.81A26.83,26.83,0,0,0,252,119.4Z" style="fill:#c7c7c7"></path><path d="M275.45,129.86a21.82,21.82,0,0,1,4.9,9.3,22,22,0,0,1-33.93,23.3A21.9,21.9,0,0,1,237,144.34a21.93,21.93,0,1,0,38.45-14.48Z" style="fill:#c7c7c7"></path><path d="M238.4,136.61a29.73,29.73,0,0,1,1.92-4,21.85,21.85,0,0,1,2.7-3.51,22.09,22.09,0,0,1,7.22-5.06,21.82,21.82,0,0,1,8.65-1.75,21.24,21.24,0,0,1,8.61,1.8,22.92,22.92,0,0,0-8.61-1.64,22.41,22.41,0,0,0-15.75,6.77,22.08,22.08,0,0,0-2.72,3.45A31.53,31.53,0,0,0,238.4,136.61Z" style="fill:#c7c7c7"></path></g><g id="freepik--Floor--inject-2"><polygon points="37.28 453.13 90.46 452.88 143.64 452.8 250 452.63 356.36 452.8 409.54 452.88 462.71 453.13 409.54 453.37 356.36 453.46 250 453.63 143.64 453.46 90.46 453.37 37.28 453.13" style="fill:#263238"></polygon></g></svg>