<svg xmlns="http://www.w3.org/2000/svg" viewBox="0 0 500 500"><g id="freepik--background-complete--inject-2"><path d="M456.5,47.39c-11.27.21-22.53.31-33.79.39l-33.79.11-33.8-.11-16.89-.14-16.9-.25,16.9-.24L355.12,47l33.8-.12,33.79.12C434,47.09,445.23,47.19,456.5,47.39Z" style="fill:#ebebeb"></path><path d="M471.8,65.71c-11.6.21-23.21.3-34.82.38l-34.81.12-34.82-.12L349.94,66l-17.4-.24,17.4-.25,17.41-.14,34.82-.11,34.81.12C448.59,65.41,460.2,65.5,471.8,65.71Z" style="fill:#ebebeb"></path><path d="M442.5,47.39a72.21,72.21,0,0,1,.5,9.16,72.11,72.11,0,0,1-.5,9.16,76,76,0,0,1-.5-9.16A76.11,76.11,0,0,1,442.5,47.39Z" style="fill:#ebebeb"></path><path d="M374.33,47.39a72.21,72.21,0,0,1,.5,9.16,72.11,72.11,0,0,1-.5,9.16,76,76,0,0,1-.5-9.16A76.11,76.11,0,0,1,374.33,47.39Z" style="fill:#ebebeb"></path><path d="M408.42,65.63a76,76,0,0,1,.5,9.16,76.11,76.11,0,0,1-.5,9.16,72.21,72.21,0,0,1-.5-9.16A76,76,0,0,1,408.42,65.63Z" style="fill:#ebebeb"></path><path d="M409.24,322c-11.26.2-22.53.3-33.79.38l-33.79.12-33.79-.12-16.9-.14L274.08,322l16.89-.25,16.9-.14,33.79-.11,33.79.12C386.71,321.69,398,321.78,409.24,322Z" style="fill:#ebebeb"></path><path d="M441.65,340.3c-11.61.21-23.21.31-34.82.39L372,340.8l-34.82-.11-17.41-.14-17.4-.25,17.4-.24,17.41-.14L372,339.8l34.81.12C418.44,340,430,340.1,441.65,340.3Z" style="fill:#ebebeb"></path><path d="M279.5,303.8c-7.23.21-14.46.3-21.68.38l-21.68.12-21.68-.12L203.62,304c-3.61-.08-7.22-.13-10.84-.24,3.62-.11,7.23-.16,10.84-.25l10.84-.14,21.68-.11,21.68.12C265,303.5,272.27,303.59,279.5,303.8Z" style="fill:#ebebeb"></path><path d="M248.81,322c-7.23.2-14.45.3-21.68.38l-21.68.12-21.68-.12-10.84-.14c-3.61-.08-7.22-.13-10.84-.24,3.62-.11,7.23-.16,10.84-.25l10.84-.14,21.68-.11,21.68.12C234.36,321.69,241.58,321.78,248.81,322Z" style="fill:#ebebeb"></path><path d="M374.3,322a84.06,84.06,0,0,1,0,18.31,84.06,84.06,0,0,1,0-18.31Z" style="fill:#ebebeb"></path><path d="M306.1,322a84.06,84.06,0,0,1,0,18.31,84.06,84.06,0,0,1,0-18.31Z" style="fill:#ebebeb"></path><path d="M237.9,322a73.9,73.9,0,0,1,.5,9.16,72,72,0,0,1-.5,9.15,84.06,84.06,0,0,1,0-18.31Z" style="fill:#ebebeb"></path><path d="M169.7,322a75.89,75.89,0,0,1,.5,9.16,72,72,0,0,1-.5,9.15,84.06,84.06,0,0,1,0-18.31Z" style="fill:#ebebeb"></path><path d="M408.42,340.23a84.06,84.06,0,0,1,0,18.31,72,72,0,0,1-.5-9.16A75.83,75.83,0,0,1,408.42,340.23Z" style="fill:#ebebeb"></path><path d="M340.11,340.23a84.06,84.06,0,0,1,0,18.31,84.06,84.06,0,0,1,0-18.31Z" style="fill:#ebebeb"></path><path d="M203.48,303.29a84.06,84.06,0,0,1,0,18.31,84.06,84.06,0,0,1,0-18.31Z" style="fill:#ebebeb"></path><path d="M403.49,154.69c-11.61.21-23.21.3-34.82.38l-34.81.12L299,155.08l-17.41-.14-17.4-.25,17.4-.24,17.41-.14,34.82-.12,34.81.12C380.28,154.39,391.88,154.49,403.49,154.69Z" style="fill:#ebebeb"></path><path d="M355.27,173c-7.79.2-15.59.3-23.39.38l-23.4.12-23.4-.12-11.7-.14-11.7-.24,11.7-.25,11.7-.14,23.4-.11,23.4.11C339.68,172.7,347.48,172.8,355.27,173Z" style="fill:#ebebeb"></path><path d="M306,136.38a73.84,73.84,0,0,1,.5,9.15,72,72,0,0,1-.5,9.16,84.06,84.06,0,0,1,0-18.31Z" style="fill:#ebebeb"></path><path d="M340.11,154.69a84.16,84.16,0,0,1,0,18.32,84.16,84.16,0,0,1,0-18.32Z" style="fill:#ebebeb"></path><path d="M271.94,154.69a84.16,84.16,0,0,1,0,18.32,84.16,84.16,0,0,1,0-18.32Z" style="fill:#ebebeb"></path><path d="M424.52,226c-4.82.21-9.65.31-14.48.39s-9.65.07-14.48.11-9.66,0-14.49-.11l-7.24-.14c-2.41-.08-4.82-.13-7.24-.25,2.42-.11,4.83-.16,7.24-.24l7.24-.14c4.83-.08,9.66-.08,14.49-.11s9.65,0,14.48.11S419.7,225.81,424.52,226Z" style="fill:#ebebeb"></path><path d="M438.07,244.33c-7.8.21-15.6.3-23.4.38l-23.39.12-23.4-.12-11.7-.14-11.7-.24,11.7-.25,11.7-.13,23.4-.12,23.39.12C422.47,244,430.27,244.12,438.07,244.33Z" style="fill:#ebebeb"></path><path d="M408.39,207.7a84.06,84.06,0,0,1,0,18.31,72,72,0,0,1-.5-9.15A75.89,75.89,0,0,1,408.39,207.7Z" style="fill:#ebebeb"></path><path d="M374.3,226a84.16,84.16,0,0,1,0,18.32,84.16,84.16,0,0,1,0-18.32Z" style="fill:#ebebeb"></path><path d="M67.9,47.81V287.69H236.82V47.81ZM230.58,281.46H74.14V54.05H230.58Z" style="fill:#ebebeb"></path><rect x="74.14" y="54.05" width="156.45" height="227.41" style="fill:#fff"></rect><rect x="74.13" y="154.63" width="156.45" height="6.23" transform="translate(304.71 315.5) rotate(180)" style="fill:#ebebeb"></rect><rect x="56.42" y="287.69" width="191.87" height="17.89" transform="translate(304.71 593.26) rotate(180)" style="fill:#dbdbdb"></rect><path d="M74.13,54H230.58V194.11H74.13Zm150.68,5.77H79.9V188.34H224.81Z" style="fill:#dbdbdb"></path><rect x="177.53" y="54.04" width="3.12" height="134.3" style="fill:#dbdbdb"></rect><rect x="124.06" y="54.04" width="3.12" height="134.3" style="fill:#dbdbdb"></rect></g><g id="freepik--Table--inject-2"><polygon points="443.05 402.05 394.78 402.29 346.52 402.38 250 402.55 153.48 402.38 105.22 402.29 56.95 402.05 105.22 401.8 153.48 401.71 250 401.55 346.52 401.71 394.78 401.8 443.05 402.05" style="fill:#263238"></polygon></g><g id="freepik--character-2--inject-2"><path d="M315.32,222.26c-47.75,38.17-97.07,102.32-97.11,138.81-.05,36,25.37,26.37,28.75,25.24,35.8-11.91,72-107,87.29-148C349.4,197.6,327.13,212.82,315.32,222.26Z" style="fill: rgb(119, 68, 66);"></path><path d="M240.91,298.45l57.67,29.37s33.58-66.23,40.9-96.71-4.81-29.27-30.92-5S240.91,298.45,240.91,298.45Z" style="fill:#FFC727"></path><path d="M302.37,320.21c-.33.66-.63,1.28-.91,1.86l-55.91-28.93-2.41-1.25,1-1.84,2.86,1.48Zm-46.32-38.95-1.42,1.6,52.65,27.24.89-1.87ZM265.24,271c-.48.54-1,1.06-1.44,1.58L313,298.07l.87-1.88Zm9.31-10.17-1.46,1.59L318.52,286c.28-.63.57-1.26.85-1.9ZM284,250.78l-1.48,1.57,41.4,21.42.81-1.9Zm9.62-10c-.51.51-1,1-1.51,1.55l37,19.13c.26-.65.52-1.29.77-1.93Zm9.89-9.86-1.57,1.52L333.86,249c.25-.66.49-1.31.71-2Zm10.38-9.6c-.55.47-1.11,1-1.67,1.47l25.91,13.41c.21-.69.4-1.37.58-2Zm11.6-9q-.95.61-2,1.32l17.6,9.11q.17-1.14.27-2.19Z" style="opacity:0.1"></path><path d="M339.48,231.12c-7.33,30.47-40.9,96.7-40.9,96.7l-35.3-18,77.62-98C342.13,215.51,341.7,221.85,339.48,231.12Z" style="opacity:0.1"></path><path d="M252.37,289.43c22.32,14.23,43.82,23.3,48.14,25.63.2.11.36-.23.15-.33-4.36-2.07-28.08-16-48.13-25.67C252.3,289,252.16,289.29,252.37,289.43Z" style="fill:#263238"></path><path d="M272.25,401.54l168.47.51c-.42-3.47-25.52-168.58-59.23-196.6-14.37-11.94-40.78-3.18-44.14-.43C304.75,231.63,269.79,399.51,272.25,401.54Z" style="fill:#FFC727"></path><path d="M439.86,396.4H272.58c.09-.64.19-1.33.31-2.07H439.53Q439.71,395.44,439.86,396.4ZM437.3,381h-162c-.14.71-.27,1.4-.4,2.07H437.66Q437.48,382.08,437.3,381Zm-2.37-13.31H278.08q-.22,1-.45,2.07H435.3C435.18,369.11,435.05,368.42,434.93,367.72Zm-2.52-13.3H281.07q-.24,1.05-.48,2.07H432.81C432.68,355.81,432.54,355.12,432.41,354.42Zm-2.66-13.3H284.24q-.27,1-.51,2.07H430.17Zm-2.81-13.3H287.57c-.17.69-.35,1.38-.53,2.07H427.38C427.24,329.2,427.09,328.51,426.94,327.82Zm-3-13.3H291.1c-.19.69-.38,1.38-.56,2.07H424.43Zm-3.18-13.3H294.83c-.21.69-.4,1.38-.6,2.07h127Zm-3.42-13.31H298.78l-.63,2.07H417.91C417.72,289.29,417.54,288.6,417.35,287.91Zm-3.69-13.3H303c-.23.69-.45,1.38-.68,2.07H414.26Zm-4.05-13.3H307.55l-.73,2.07H410.27ZM405.09,248H312.55l-.82,2.07h94.1C405.58,249.38,405.34,248.69,405.09,248Zm-5.22-13.3H318.18q-.46,1-.93,2.07h83.49Q400.3,235.73,399.87,234.71Zm-6.4-13.3H324.88c-.38.67-.77,1.36-1.15,2.07h70.85Q394,222.42,393.47,221.41Zm-9.2-13.31H334.13c-.6.64-1.19,1.34-1.79,2.07h53.75C385.49,209.44,384.88,208.75,384.27,208.1Z" style="opacity:0.1"></path><path d="M395.23,217.88c48,50.79,75,92.66,71,128.93-4,35.81-39,17.69-41.55,15.21-16-15.52-39.44-87.86-50-130.31C364.12,189.56,384.84,206.89,395.23,217.88Z" style="fill: rgb(119, 68, 66);"></path><path d="M462.92,300.09l-60,24.25s-27.71-68.89-32.36-99.89,7.33-28.74,31.24-2.32S462.92,300.09,462.92,300.09Z" style="fill:#FFC727"></path><path d="M452.28,290.1c-23.46,12.25-45.67,19.41-50.17,21.37-.22.09-.34-.26-.12-.35,4.52-1.68,29.35-13.46,50.17-21.4C452.4,289.63,452.51,290,452.28,290.1Z" style="fill:#263238"></path><path d="M406.8,322.64a30.47,30.47,0,0,0-3.56,1.05c-3.95-11.37-3.3-8.8-7.36-20.14q-3-8.32-6-16.67c-2.06-5.78-3.8-11.75-6.17-17.41a.14.14,0,0,0-.26.09c1.1,5.37,2.85,10.65,4.48,15.9-.41-.84-.78-1.68-1.23-2.5-1-1.82-2-3.63-2.87-5.53-.13-.29-.61-.13-.47.17.82,1.8,1.52,3.64,2.2,5.51s1.48,3.67,2.3,5.48,1.68,3.44,2.59,5.13l.33.62c1.05,3.29,2.06,6.59,3.18,9.86,3.94,11.43,8.36,20.59,8.56,20.57a29.75,29.75,0,0,0,4.35-1.81C407.08,322.86,407,322.64,406.8,322.64Z" style="fill:#263238"></path><path d="M458.74,294.35l-58,24.39c-.23-.6-.48-1.25-.75-1.93l57.52-24.18Zm-9.42-12.72L395.2,304.38l.73,1.94,54.67-23Zm-8.25-11-50.48,21.22c.23.65.47,1.3.71,1.94l51.05-21.45Zm-8.37-10.9-46.57,19.56c.22.66.45,1.31.68,2L434,261.45Zm-8.52-10.86L381.85,266.7c.22.65.44,1.31.65,2l43-18.08Zm-8.69-10.77L377.83,254l.6,2,38.43-16.15C416.41,239.25,416,238.69,415.49,238.14Zm-9-10.66-32.36,13.6c.17.66.35,1.34.54,2l33.24-14C407.47,228.57,407,228,406.52,227.48ZM397,217l-25.9,10.89c.13.67.26,1.37.41,2.07l27-11.36Zm-10.72-9.92-16.73,7c0,.7,0,1.44.08,2.21l18.48-7.76C387.52,208.07,386.92,207.57,386.32,207.11Z" style="opacity:0.1"></path><path d="M341.88,234.1c10,.42,23.58-17.32,27.79-30.4.28-.9-2.6-9.21-5.63-19.47-1.81-6.24-3.68-13.23-4.93-19.72-.25-1.34-38.86,17.72-38.86,17.72s6.62,12.86,8.73,24.2a15.29,15.29,0,0,1,.23,2.72,3.91,3.91,0,0,0,0,.45C329.38,214.83,332.23,233.68,341.88,234.1Z" style="fill: rgb(119, 68, 66);"></path><path d="M356.63,165.16c.22,11.35-1.51,39.2-23.17,43.87a25.21,25.21,0,0,1-4.21.58,2,2,0,0,1,0-.46,16,16,0,0,0-.22-2.71c-2.11-11.37-8.74-24.22-8.74-24.22S348.1,168.47,356.63,165.16Z" style="fill:#263238"></path><path d="M361.17,116.22c5.58,14.34,1,57.31-8.71,67.55-14.11,14.84-38.78,18-51.79.69-12.61-16.79-5.66-72.69,5.35-82.15C322.24,88.37,352.93,95,361.17,116.22Z" style="fill: rgb(119, 68, 66);"></path><path d="M323.84,145.17c0-.11.21.16.19.28-.4,2.88-.37,6.25,2.14,7.49.08,0,.06.19,0,.16C323,152.31,323,147.84,323.84,145.17Z" style="fill:#263238"></path><path d="M326.75,142.42c4.69.15,4.06,9.52-.29,9.39S322.81,142.3,326.75,142.42Z" style="fill:#263238"></path><path d="M307.1,144.27c0-.11-.23.12-.24.24-.1,2.91-.71,6.23-3.41,7-.08,0-.08.18,0,.17C306.7,151.45,307.47,147,307.1,144.27Z" style="fill:#263238"></path><path d="M304.71,141.06c-4.64-.67-5.64,8.68-1.34,9.3S308.61,141.62,304.71,141.06Z" style="fill:#263238"></path><path d="M331.14,136.56a34.21,34.21,0,0,1-3.76-.88c-1.44-.35-2.62-.48-3.66-1.62a2,2,0,0,1,0-2.43c1.27-1.39,3.14-1.4,4.88-1a7.21,7.21,0,0,1,4.49,2.65A2.12,2.12,0,0,1,331.14,136.56Z" style="fill:#263238"></path><path d="M300.88,133.93a37.76,37.76,0,0,0,3.79-.72c1.45-.29,2.63-.37,3.72-1.46a2,2,0,0,0,.05-2.43c-1.2-1.45-3.07-1.53-4.83-1.26a7.29,7.29,0,0,0-4.6,2.47C297.76,131.92,299.14,134.09,300.88,133.93Z" style="fill:#263238"></path><path d="M324.47,172.09c-.74.63-1.5,1.52-2.56,1.54a7.67,7.67,0,0,1-3.07-.94.1.1,0,0,0-.14.14,3.92,3.92,0,0,0,3.58,1.82,3.1,3.1,0,0,0,2.46-2.41C324.8,172.07,324.58,172,324.47,172.09Z" style="fill:#263238"></path><path d="M322,163.19a9.93,9.93,0,0,1-6.9,3.95,12.58,12.58,0,0,1-3.57-.08,3.46,3.46,0,0,1-.67-.12l-.63-.14a.72.72,0,0,1-.54-.69v0a1.57,1.57,0,0,1,.05-.3v0l0-.25c.09-2.24.54-5.63.54-5.63-.85.35-5.14,2-5,.78,1.23-9.63,2.6-20.34,5.86-29.67a.27.27,0,0,1,.52.11c-.82,9.31-3.26,18.41-4.23,27.74,1.36-.42,3.59-1.21,4.76-1.1.31.11-1,6.53-.94,7.54a.67.67,0,0,0,0,.1c3.73.74,6.63-.21,10.45-2.48C322,162.76,322.2,163,322,163.19Z" style="fill:#263238"></path><path d="M312.94,166a11.75,11.75,0,0,0,4.45,4,5.29,5.29,0,0,0,3.19.41c2.36-.45,2.56-2.57,2.26-4.42a12.32,12.32,0,0,0-.85-2.86A15.23,15.23,0,0,1,312.94,166Z" style="fill:#263238"></path><path d="M317.39,170a5.29,5.29,0,0,0,3.19.41c2.36-.45,2.56-2.57,2.26-4.42C320.34,166.05,317.76,167.57,317.39,170Z" style="fill:#ff98b9"></path><path d="M362,155.58c-6.56,1-10.95-9.1-12.08-13.25s2.58-21.82.24-28.14-8.52-10.42-13.92-9.53-13,6.9-16.82,6.06-3.68-9.28-6.36-9.62c-5.9-.74-13.3,12.51-15.17,18.85,0,0,.63-26.16,31.21-26.19,27.31,0,35,15.6,36.22,25.86C367.34,136.19,362,155.58,362,155.58Z" style="fill:#263238"></path><path d="M354.7,151.45s8.85-14.26,15.27-11.17.29,23.37-6.88,26.49a7.44,7.44,0,0,1-10.18-3.45Z" style="fill: rgb(119, 68, 66);"></path><path d="M368.07,146.05c.11,0,.14.14,0,.19-5,2.36-7.45,7.26-9.07,12.3,1.42-2,3.44-3.14,6.08-1.46.14.08,0,.3-.12.28a4.58,4.58,0,0,0-4.95,1.87,21.81,21.81,0,0,0-2.18,4.21c-.22.47-1.06.27-.91-.27l0-.12C356.5,156.52,361.08,147.09,368.07,146.05Z" style="fill:#263238"></path><path d="M294.6,193.37s-31.13-3-36.88-19.61,25.33-39.32,20.83-52.27-22.32-15.3-22.32-15.3,26.81-.13,32.5,16.24-13.39,35.45-12,46.64C278.75,184.6,294.6,193.37,294.6,193.37Z" style="fill:#ebebeb;opacity:0.5"></path><path d="M293.27,193.83s23.46-19,18.93-32.07-42.24-9.32-45.77-19.5S276,120.81,276,120.81s-21.73,14.77-17.26,27.65,33.9,12.58,39.41,22.39C303.55,180.47,293.27,193.83,293.27,193.83Z" style="fill:#ebebeb;opacity:0.5"></path><path d="M355.11,234A16.18,16.18,0,0,1,339,240.87a16.41,16.41,0,0,1-2.89-.83,21.27,21.27,0,0,1-4-2.12l3.63-5.38a13.58,13.58,0,0,0,2.14,1.22c6.79,3.08,11.1-2.28,11.94-3.5,3.91-5.5,5.31-18,1.35-22.88-.26-.36-1.41-.92-6,.05-.85.19-1.81.41-2.9.71a11.39,11.39,0,0,1-2.61.56l-.11-3.23-.32-3.22c.3-.05.76-.18,1.36-.35a41.25,41.25,0,0,1,6.49-1.35c3.38-.35,6.93,0,9.1,2.72C362.62,211.16,360,227.11,355.11,234Z" style="fill:#455a64"></path><path d="M335.74,232.54a13.58,13.58,0,0,0,2.14,1.22L336.15,240a21.27,21.27,0,0,1-4-2.12Z" style="fill:#37474f"></path><path d="M347.08,200.55l-1.91,6.88c-.85.19-1.81.41-2.9.71a11.39,11.39,0,0,1-2.61.56l-.11-3.23-.32-3.22c.3-.05.76-.18,1.36-.35A41.25,41.25,0,0,1,347.08,200.55Z" style="fill:#37474f"></path><rect x="291.69" y="253.6" width="28.53" height="4.45" style="fill:#455a64"></rect><rect x="291.69" y="253.6" width="28.53" height="2.94" style="fill:#37474f"></rect><path d="M268,188.36s3.43,35.17,9.34,50,14.16,16.44,19.29,16.44h18.65c5.13,0,13.38-1.65,19.29-16.44s9.34-50,9.34-50Z" style="fill:#455a64"></path><path d="M434.38,366.2c-13.16-4.9-19.53-6.8-48.66-66.1-4-8.21,41.32-53.26,47.25-45.49s27.47,52.8,28.4,76.7C463,372.24,448.56,371.49,434.38,366.2Z" style="fill: rgb(119, 68, 66);"></path><path d="M436,260S423.41,237,413,227c-13.89-13.38-31.39-19.22-38.87-21.22-15.61-4.18-56.26-3.5-58.1,8.24-1.67,10.63,39.84,7.83,39.84,7.83s-42.8-4.13-42.45,9,48.34,7.18,48.34,7.18-44.06-3.26-41.56,10.26c1.89,10.22,45.67,7.24,45.67,7.24s-37.9-2.53-36.41,8.06c1.65,11.7,42.24,11.49,42.24,11.49,8.32,26.29,23,35.4,34.27,40.64C408.74,317.05,436,260,436,260Z" style="fill: rgb(119, 68, 66);"></path><path d="M370.8,222.35c-5-.66-10.07-1.37-15.13-1.59s-10.11-.26-15.16,0c-12.38.61-20,2.94-19.55,2.85,11.55-2.18,29.65-1.67,34.7-1.45s10.1.18,15.14.4C370.93,222.55,370.92,222.37,370.8,222.35Z" style="fill:#263238"></path><path d="M370.34,240.61c-6.43-.58-12.8-1.38-19.26-1.67s-12.55,0-19,.15c-.49,0-.32.27.18.28,6.43.1,12.37.7,18.8.87s12.87.11,19.27.52C370.44,240.77,370.44,240.62,370.34,240.61Z" style="fill:#263238"></path><path d="M372.76,256.35c-9.78-1.39-19.81-1-29.64-.31-.49,0-.24.35.27.35,9.85-.09,17.58-.23,29.33.3C372.9,256.7,373,256.38,372.76,256.35Z" style="fill:#263238"></path><path d="M461.88,354.19c-.06-2.09,0-4.16-.14-6.23,0-2.07-.23-4.14-.38-6.2-.42-4.12-.91-8.22-1.54-12.31s-1.36-8.17-2.1-12.25c-.37-2-.78-4.07-1.21-6.11s-.83-4.07-1.24-6.12A102,102,0,0,1,459,316.91c1.06,4,1.86,8.15,2.52,12.28a109,109,0,0,1,1.15,12.49A66.22,66.22,0,0,1,461.88,354.19Z" style="fill:#263238"></path><path d="M240.54,387.39c14.88-6.57,16-28.16,32.54-90.47,2.28-8.62-54.22-41.13-57.14-32-3.67,11.43-15.44,56.62-15.88,60C196.32,353.7,219.6,396.64,240.54,387.39Z" style="fill: rgb(119, 68, 66);"></path><path d="M213.08,290.88s-1.58-25.5,1.74-39.16c4.44-18.28,15.81-32.24,20.92-37.8,10.68-11.6,44.52-32.29,52.18-23.58,6.93,7.88-28.73,27.28-28.73,27.28s33.09-25.78,39.69-14.75-36.07,31.18-36.07,31.18,34.6-25.72,39.61-13.27c3.78,9.4-33.84,29.84-33.84,29.84s29.89-21.9,34.2-12.4c4.76,10.51-28.78,31.55-28.78,31.55,6.89,26-.47,41.21-7,51.4C265.43,323.63,213.08,290.88,213.08,290.88Z" style="fill: rgb(119, 68, 66);"></path><path d="M247.17,225.8c3.78-3.17,7.58-6.4,11.63-9.23s8.19-5.5,12.48-7.93c10.53-6,18.05-8.06,17.6-7.88-10.66,4.25-25.3,14.13-29.35,17s-8.22,5.43-12.26,8.25C247.17,226,247.08,225.87,247.17,225.8Z" style="fill:#263238"></path><path d="M257.09,240.59c5-3.83,9.83-7.82,15-11.44s10.34-6.57,15.72-9.8c.41-.25.41.05,0,.32-5.24,3.45-9.83,7-15,10.55s-10.55,6.82-15.6,10.5C257.1,240.78,257,240.65,257.09,240.59Z" style="fill:#263238"></path><path d="M263.33,254.83c7.34-6.26,15.82-11.15,24.26-15.75.42-.23.37.16,0,.42-8.17,5.08-14.61,9-24,15.58C263.4,255.18,263.17,255,263.33,254.83Z" style="fill:#263238"></path><path d="M270.78,314.63a16.24,16.24,0,0,1-3.49,6.8l.1-.18c-.87,4.73-1.77,9.45-2.85,14.14s-2.23,9.35-3.53,14-2.71,9.23-4.36,13.76a71.09,71.09,0,0,1-6,13.15,112.2,112.2,0,0,0,4.82-13.53c1.35-4.59,2.67-9.19,3.9-13.82L263.06,335l3.56-13.94,0-.12.06-.07a17.39,17.39,0,0,0,2.36-2.9A15.45,15.45,0,0,0,270.78,314.63Z" style="fill:#263238"></path></g><g id="freepik--character-1--inject-2"><path d="M149.81,296.68c27.66,42.53,67.13,89.07,84.43,86.28,19.27-3.11-8.28-64.25-10.53-66.18-3.32-2.83-26.16-21.6-56.37-43.73C138.26,251.74,134.45,273.05,149.81,296.68Z" style="fill: rgb(201, 95, 80);"></path><path d="M181.33,347.06l33.35-42.65s-29.59-23-56.49-38.46-28.38.55-15.57,24.14S181.33,347.06,181.33,347.06Z" style="fill:#455a64"></path><path d="M205.48,301.09a436.61,436.61,0,0,0-27.87,35.72c-.13.19.17.4.32.23a435.43,435.43,0,0,0,27.9-35.7C206,301.14,205.64,300.9,205.48,301.09Z" style="fill:#263238"></path><path d="M202.41,320.1l-6.67,8.53-.8,1-13.61,17.41s-25.9-33.39-38.7-57c-1.4-2.57-2.62-5-3.67-7.41l-.09-.21c-5.33-12.16-5.74-21.05.79-22.42Z" style="opacity:0.1"></path><path d="M59.8,401.84H186.22c1.85-1.39-15.27-101.54-37-136.12-4.07-6.47-25.1-16-36.44-.42C74.87,317.27,58.07,399.62,59.8,401.84Z" style="fill:#455a64"></path><path d="M93.73,283.5C59.29,320.76,32.88,363.65,41.18,388c6.3,18.47,49.91-25.3,51.22-28,1.93-3.91,14.52-30.66,28.55-65.38C134.45,261.26,112.86,262.8,93.73,283.5Z" style="fill: rgb(201, 95, 80);"></path><path d="M53.86,323.66,103.62,345s14.7-34.49,22.72-64.44-7.79-27.3-27.31-8.88S53.86,323.66,53.86,323.66Z" style="fill:#455a64"></path><path d="M120.88,306.49a.11.11,0,0,0-.19-.11l-2.82,4.83c1-3.31,2-6.64,2.94-10,0-.11-.14-.18-.18-.07q-4.29,10.78-8.44,21.64c-2.74,7.24-5.83,14.37-8.5,21.64-1.45-.36-2.22-.62-3.3-.85-.24-.05-.42.22-.19.35,1.34.75,4,1.92,4.08,1.74,3.5-6.91,6.42-14.71,9.21-21.93,1.38-3.56,2.64-7.14,3.82-10.75A67.06,67.06,0,0,0,120.88,306.49Z" style="fill:#263238"></path><path d="M104.48,335.24a437.76,437.76,0,0,0-41.66-17.8c-.22-.07-.34.27-.15.37a437.88,437.88,0,0,0,41.65,17.84C104.55,335.73,104.7,335.35,104.48,335.24Z" style="fill:#263238"></path><path d="M124.8,262.29c.55,2.35,11.79,17.61,22.54,17.1,3.5-.17,3.41-19.32,3.41-19.32l.32-1.42,4.42-19.81-26.64-16.9S124.58,261.29,124.8,262.29Z" style="fill: rgb(201, 95, 80);"></path><path d="M155.49,238.85l-4.43,19.8-.31,1.42s0,3.47-.24,7.46c-14.65-2.17-21.37-13.17-24.29-20.77,1.16-11.36,2.63-24.81,2.63-24.81Z" style="fill:#263238"></path><path d="M182.8,200.27c11.33,42-12.54,53.52-21.6,56-8.22,2.21-36.5,8.68-52.11-31.91s.34-59.14,18.88-65.19S171.47,158.27,182.8,200.27Z" style="fill: rgb(201, 95, 80);"></path><path d="M176,200.1c-1,.08-2,0-3,0a4.89,4.89,0,0,1-3.06-.63,1.54,1.54,0,0,1-.36-1.85,3.84,3.84,0,0,1,3.54-1.61,5.68,5.68,0,0,1,3.86,1.27A1.65,1.65,0,0,1,176,200.1Z" style="fill:#263238"></path><path d="M148.28,207.54a28.4,28.4,0,0,0,2.2-2,4.88,4.88,0,0,0,1.86-2.51,1.55,1.55,0,0,0-1-1.62c-1.4-.46-2.66.26-3.71,1.17a5.58,5.58,0,0,0-2,3.53A1.65,1.65,0,0,0,148.28,207.54Z" style="fill:#263238"></path><path d="M158.65,238.18c.79.59,1.62,1.44,2.7,1.39a7.73,7.73,0,0,0,3.05-1.16.11.11,0,0,1,.15.14,4,4,0,0,1-3.51,2.09,3.18,3.18,0,0,1-2.66-2.29C158.32,238.18,158.53,238.09,158.65,238.18Z" style="fill:#263238"></path><path d="M168.62,224.39s1.44,4.22,1.83,6.27c0,.2-.44.38-1.13.56,0,0,0,0-.08,0-3.51,1.26-6.28,1.46-9-1.07-.18-.17,0-.4.25-.34a16.76,16.76,0,0,0,8.27.09c0-.59-2.71-7.24-2.38-7.25,1.41,0,3.92.12,4.85.16-.86-2.76-3.72-10.5-5.3-15.54-.09-.32.38-.52.51-.24a138.22,138.22,0,0,1,7.23,17.13C173.79,224.63,169.51,224.58,168.62,224.39Z" style="fill:#263238"></path><path d="M161.28,221.8a10.56,10.56,0,0,1,1,4.72,9.46,9.46,0,0,1-1.33,4.79,8.64,8.64,0,0,1-3.7,3.34l-.55.28-.59.19-1.17.36a19.42,19.42,0,0,1-2.39.27c.73-.37,1.46-.63,2.15-1l1-.55.49-.26.46-.34.9-.64.79-.75a6.14,6.14,0,0,0,.71-.82l.34-.42.26-.47a10.92,10.92,0,0,0,1.46-4.11A22.06,22.06,0,0,0,161.28,221.8Z" style="fill:#263238"></path><path d="M171.76,210.33c0-.12.26.08.28.2.57,2.85,1.7,6,4.48,6.38.09,0,.11.15,0,.16C173.3,217.35,171.84,213.12,171.76,210.33Z" style="fill:#263238"></path><path d="M173.61,206.78c4.48-1.41,7,7.66,2.81,9S169.85,208,173.61,206.78Z" style="fill:#263238"></path><path d="M155.12,214.31c-.05-.11-.2.17-.18.29.62,2.85.84,6.21-1.58,7.64-.07,0,0,.18.06.15C156.5,221.37,156.16,216.91,155.12,214.31Z" style="fill:#263238"></path><path d="M152,211.78c-4.67.5-3.34,9.8,1,9.34S155.93,211.37,152,211.78Z" style="fill:#263238"></path><path d="M115,235c8.18-3,3.57-24.46,3.57-24.46s9.64-6.31,8.62-26.49c0,0,11.48,17.53,45.59,5.42,0,0,.18-8.75-6.66-17.7a130.27,130.27,0,0,1,13.09,16.91s1.84-31-25.35-35.73c-10.82-1.86-25.68,2.35-46,18.79,0,0-7.46-12.72-9.69-10.33s5.72,14.05,5.72,14.05-10.75-.85-12,1.63c-1.05,2.13,9.2,2.5,9.2,2.5S86.86,188,93.4,205.13C99.4,220.87,111,236.55,115,235Z" style="fill:#263238"></path><path d="M103.86,178.76a18.63,18.63,0,0,0-15.12,19.51c.39,5.18,2.86,10.3,5.52,14.68a65.28,65.28,0,0,0,10.64,12.63c.22.22.52-.16.3-.38a49,49,0,0,1-9-12.14c-2.28-4.13-4.52-8.76-5.36-13.43A17.9,17.9,0,0,1,104,179.27C104.27,179.19,104.15,178.71,103.86,178.76Z" style="fill:#263238"></path><path d="M132.77,152.64A72.33,72.33,0,0,0,117,162.81c-4.57,3.79-8.93,8-12,13.11a.24.24,0,0,0,.38.29c7.34-8.6,17.1-15.29,27-20.67,9.25-5,20.95-7.66,30.28-1.31a.14.14,0,0,0,.17-.23C154.21,147.08,142.25,148.31,132.77,152.64Z" style="fill:#263238"></path><path d="M120.93,225.74s-11.73-11.7-17.2-7.28,5,22.53,12.62,23.91a7.35,7.35,0,0,0,9-5.63Z" style="fill: rgb(201, 95, 80);"></path><path d="M106.87,223.58a.1.1,0,0,0,0,.19c5.36,1.13,8.81,5.29,11.51,9.76-1.81-1.58-4-2.23-6.17,0-.12.12,0,.3.18.24a4.53,4.53,0,0,1,5.18.68,21.64,21.64,0,0,1,3,3.55c.32.4,1.08,0,.82-.47l-.06-.11C120.35,231,113.82,223,106.87,223.58Z" style="fill:#263238"></path><path d="M46.64,392.56C54.77,394,77.05,396,108,356c4.7-6.08-22.67-54-28.76-48.51-7.66,6.94-24.11,28.42-25.91,30.78C38.08,358.09,37.28,391,46.64,392.56Z" style="fill: rgb(201, 95, 80);"></path><path d="M196.64,317.77l-61-8.1,6-45.29c-2.68-.57-4.42-3.79-4.05-6.56A18,18,0,0,1,143.25,247a5.39,5.39,0,0,0,3.2,2.32,1,1,0,0,0,.28,0,5.29,5.29,0,0,0,2.8-.15,5.43,5.43,0,0,0,8.51,1.07,5.27,5.27,0,0,0,.7.25,5.42,5.42,0,0,0,6.59-3.9,1.55,1.55,0,0,0,.06-.31.88.88,0,0,0,.05-.29,5.31,5.31,0,0,0,2.78-2.38l24.48,3.25a18.1,18.1,0,0,1,15.57,20.34c-.18,1.45-2,5.73-5.61,5.25Z" style="fill:#FFC727"></path><path d="M196.64,317.77l-61-8.1,6-45.29c-2.68-.57-4.42-3.79-4.05-6.56A18,18,0,0,1,143.25,247a5.39,5.39,0,0,0,3.2,2.32,1,1,0,0,0,.28,0,5.29,5.29,0,0,0,2.8-.15,5.43,5.43,0,0,0,8.51,1.07,5.27,5.27,0,0,0,.7.25,5.42,5.42,0,0,0,6.59-3.9,1.55,1.55,0,0,0,.06-.31.88.88,0,0,0,.05-.29,5.31,5.31,0,0,0,2.78-2.38l24.48,3.25a18.1,18.1,0,0,1,15.57,20.34c-.18,1.45-2,5.73-5.61,5.25Z" style="fill:#FFC727"></path><path d="M193.8,313.52l-54.27-7.2,5.64-42.51c-2.39-.5-3.93-3.37-3.61-5.83.53-4,2.37-6.37,5.17-8.66a5.29,5.29,0,0,0,2.8-.15,5.43,5.43,0,0,0,8.51,1.07,5.27,5.27,0,0,0,.7.25,5.42,5.42,0,0,0,6.59-3.9,1.55,1.55,0,0,0,.06-.31l25,3.32c8.83,1.17,15.22,7.89,14,16.72-.17,1.29-1.78,5.11-5,4.68Z" style="fill:#FFC727"></path><path d="M193.8,313.52l-54.27-7.2,5.64-42.51c-2.39-.5-3.93-3.37-3.61-5.83.53-4,2.37-6.37,5.17-8.66a5.29,5.29,0,0,0,2.8-.15,5.43,5.43,0,0,0,8.51,1.07,5.27,5.27,0,0,0,.7.25,5.42,5.42,0,0,0,6.59-3.9,1.55,1.55,0,0,0,.06-.31l25,3.32c8.83,1.17,15.22,7.89,14,16.72-.17,1.29-1.78,5.11-5,4.68Z" style="fill:#fff;opacity:0.7000000000000001"></path><path d="M193.2,280.9v0c0-.05-.06-.1-.08-.15a.41.41,0,0,0-.07-.11,1.42,1.42,0,0,0-.53-.53,1.47,1.47,0,1,0,.69.82Z" style="fill:#FFC727"></path><path d="M183.76,264.18h0a.76.76,0,0,0-.73.26h0l0,0,0,.06a1,1,0,1,0,.86-.35Z" style="fill:#FFC727"></path><path d="M161.46,259.64h0l.17,0a.61.61,0,0,0,.13,0,1.41,1.41,0,0,0,.67-.33,1.47,1.47,0,1,0-1,.39Z" style="fill:#FFC727"></path><path d="M154.27,259.56s0,0,0,0a.75.75,0,0,0,0-.78h0s0,0,0,0a.43.43,0,0,0,0-.07,1,1,0,1,0,.05.93Z" style="fill:#FFC727"></path><path d="M172.33,302.89v0a.74.74,0,0,0-.34-.71h0l0,0-.07,0a1,1,0,1,0,.45.81Z" style="fill:#FFC727"></path><path d="M70.5,320.26s9.85-19.73,18.24-28.5c11.23-11.73,25.76-17.24,32-19.19,13-4.05,47.24-4.86,49.19,5,1.77,8.89-33.26,8-33.26,8s35.87-4.94,36,6.15-40.45,7.7-40.45,7.7,37-4.25,35.34,7.21c-1.25,8.67-38.2,7.66-38.2,7.66s31.81-3.43,30.92,5.54c-1,9.91-35.16,11.11-35.16,11.11C119,353.26,107,361.44,97.68,366.23,95.44,367.39,70.5,320.26,70.5,320.26Z" style="fill: rgb(201, 95, 80);"></path><path d="M124.13,286.39c4.19-.73,8.43-1.5,12.68-1.86s8.5-.56,12.76-.53c10.44.1,17,1.79,16.55,1.73-9.8-1.43-25-.39-29.26,0s-8.49.5-12.72.85C124,286.56,124,286.41,124.13,286.39Z" style="fill:#263238"></path><path d="M125.14,301.74c5.39-.7,10.72-1.6,16.15-2.07s10.57-.43,16-.52c.42,0,.28.22-.14.25-5.41.3-10.39,1-15.79,1.38s-10.83.53-16.2,1.09C125.06,301.88,125.06,301.75,125.14,301.74Z" style="fill:#263238"></path><path d="M123.64,315.07c8.19-1.5,16.65-1.48,24.94-1.27.41,0,.21.28-.21.3-8.3.26-14.81.41-24.68,1.26C123.54,315.37,123.47,315.1,123.64,315.07Z" style="fill:#263238"></path><path d="M73.67,313.48l-10,13.09c-1.68,2.18-3.34,4.36-5,6.57s-3.25,4.41-4.74,6.67c-.39.56-.75,1.13-1.09,1.7s-.67,1.16-1,1.76l-.95,1.79-.9,1.83c-1.16,2.44-2.23,4.94-3.16,7.49s-1.76,5.14-2.48,7.77a77,77,0,0,0-1.77,8,52.5,52.5,0,0,1,2.58-16.37,58.89,58.89,0,0,1,7.17-15.07c3.18-4.56,6.68-8.81,10.24-13S69.86,317.46,73.67,313.48Z" style="fill:#263238"></path><path d="M238.36,383.33c7-4.39,18.23-14.65,14.47-65.06-.57-7.66-52.21-23.4-53.05-15.24-1.06,10.29,1.06,37.26,1.29,40.22C203,368.16,230.32,388.38,238.36,383.33Z" style="fill: rgb(201, 95, 80);"></path><path d="M250.38,327.17s8.1-22.46,6.06-40.36c-1.41-12.39-7.48-39-41.46-54.13-8-3.6-22.08-3-11,7.65,7.83,7.56,15.08,10,18.84,15.22,0,0-17.76,2.87-21,11.09a163.27,163.27,0,0,0-7.06,22.07,34.5,34.5,0,0,0,4,1.69s-2.83,7.79,2.61,19.17Z" style="fill: rgb(201, 95, 80);"></path><path d="M253.21,275.2c-4.83-4.4-15.21-13.56-26.31-18.1-12.33-5-37.44-11.43-41.06-2.29-2.66,6.7,6.71,10,6.71,10s-10.94-.46-12,6.12c-1,6,6.42,8.1,6.42,8.1s-6.68.87-6.51,6.82c.2,7.17,14.17,4.18,20.64,11.26C202.53,298.69,253.21,275.2,253.21,275.2Z" style="fill: rgb(201, 95, 80);"></path><path d="M223.75,271c-5.22-3.4-19.05-8.07-31-6.4-.27,0-.38.26-.13.28a131,131,0,0,1,31.07,6.23C223.77,271.16,223.81,271.06,223.75,271Z" style="fill:#263238"></path><path d="M218.3,283.32c-4.81-2.47-19.27-6.65-31.31-4.54-.27.05-.37.28-.12.29a139.81,139.81,0,0,1,31.39,4.37A.06.06,0,0,0,218.3,283.32Z" style="fill:#263238"></path><path d="M199.48,308.92c.54,3.51.91,7,1.23,10.54s.55,7,.77,10.56.38,7,.5,10.56.22,7,.41,10.58a65.43,65.43,0,0,1-2-10.45c-.44-3.52-.71-7-.94-10.57s-.33-7.07-.34-10.6S199.2,312.46,199.48,308.92Z" style="fill:#263238"></path></g><g id="freepik--Food--inject-2"><path d="M113.59,434c-6.28,2-9.85-1.53-10.37-2.06,0,0-2.28,5.1-9.35,5s-19.43-12.84-20-27.29,10.14-22.12,23.58-16c11-9.79,23.48-5.59,27.17,8.39S120.33,431.81,113.59,434Z" style="fill:#FFC727"></path><path d="M108.18,388.41a18.85,18.85,0,0,0-9.54,4.28,8,8,0,0,1,.87.36A18.7,18.7,0,0,1,108.18,388.41Z" style="opacity:0.1"></path><path d="M73.92,409.63c.52,14.45,12.88,27.2,20,27.3s9.36-5,9.36-5c.51.51,4.07,4,10.36,2.05s13.92-16.26,11.58-29.61c1.41,11.83-5.24,24-10.87,25.77s-9-1.42-9.52-1.89c0,0-2.1,4.68-8.61,4.6S78.31,421,77.83,407.74c-.34-8.59,3.68-14.58,9.89-16.21C79.25,392,73.5,398.93,73.92,409.63Z" style="opacity:0.1"></path><path d="M87.72,391.53a21,21,0,0,1,9.78,2.12c.38-.34.76-.67,1.14-1A17.14,17.14,0,0,0,87.72,391.53Z" style="fill:#FFC727"></path><path d="M102.71,374.86a20.45,20.45,0,0,0-7.52,19.8c.62,3.39,5.92,2.61,5.3-.79-1-5.7,2.56-9.84,7.11-13.42C110.32,378.32,105.43,372.73,102.71,374.86Z" style="fill:#37474f"></path><path d="M98.82,396.57S92.11,382.36,77.33,386A21.71,21.71,0,0,0,98.82,396.57Z" style="fill:#37474f"></path><g style="opacity:0.30000000000000004"><path d="M121.55,400.11c2.37,3.4-.8,11.53-4.42,10.67-3-.7-4.24-4.31-4.25-6.59s1.22-5.2,3.54-5.79A5.23,5.23,0,0,1,121.55,400.11Z" style="fill:#fff"></path><path d="M114.25,392.67c1,1.08-.23,3.67-1.77,3.95s-2.79-1.73-2.36-2.84S113.31,391.69,114.25,392.67Z" style="fill:#fff"></path></g><polygon points="232.82 425.46 153.8 425.46 132.84 383.77 253.79 383.77 232.82 425.46" style="fill:#dbdbdb"></polygon><rect x="153.8" y="425.46" width="78.82" height="2.39" style="fill:#c7c7c7"></rect><polygon points="426.84 437.08 326.9 437.08 318.45 430.06 435.29 430.06 426.84 437.08" style="fill:#dbdbdb"></polygon><rect x="326.9" y="437.08" width="99.76" height="2.11" style="fill:#c7c7c7"></rect><rect x="338.1" y="423.62" width="86.56" height="6.43" style="fill:#FFC727"></rect><polygon points="172.47 437.08 72.54 437.08 64.09 430.06 180.92 430.06 172.47 437.08" style="fill:#dbdbdb"></polygon><rect x="72.54" y="437.08" width="99.76" height="2.11" style="fill:#c7c7c7"></rect></g><g id="freepik--Milk--inject-2"><rect x="256.19" y="350.89" width="43.69" height="113.78" transform="translate(556.07 815.56) rotate(180)" style="fill:#37474f"></rect><rect x="223.72" y="350.86" width="32.47" height="113.81" transform="translate(479.91 815.53) rotate(180)" style="fill:#455a64"></rect><polygon points="256.19 350.86 278.03 332.62 299.88 350.89 256.19 350.86" style="fill:#455a64"></polygon><polygon points="245.57 332.59 278.03 332.59 256.19 350.86 223.72 350.86 245.57 332.59" style="fill:#37474f"></polygon><path d="M256.19,464.67V391.72a16.8,16.8,0,0,0-13.14,2.55l-1.56,1.06-.87.59a16.22,16.22,0,0,1-16.9,0v68.78Z" style="fill:#fff"></path><path d="M299.88,464.67l0-72.95a29.08,29.08,0,0,0-17.66,2.54l-2.1,1.06-1.17.59c-11.84,5.44-17.3-2.13-22.72-4.19l0,73Z" style="fill:#ebebeb"></path><path d="M233.61,377.62v6.76a.63.63,0,0,1-.59.63.61.61,0,0,1-.58-.63v-4.83l-1.52,2.29a.54.54,0,0,1-.47.27h0a.58.58,0,0,1-.49-.27l-1.51-2.29v4.83a.59.59,0,1,1-1.17,0v-6.76a.61.61,0,0,1,.58-.63h0a.57.57,0,0,1,.46.26l2.1,3.16,2.09-3.16A.58.58,0,0,1,233,377h0A.63.63,0,0,1,233.61,377.62Z" style="fill:#fff"></path><path d="M236.24,377.62a.59.59,0,0,1,.58-.63.61.61,0,0,1,.59.63v6.76a.62.62,0,0,1-.59.63.6.6,0,0,1-.58-.63Z" style="fill:#fff"></path><path d="M239.38,384.38v-6.76A.6.6,0,0,1,240,377a.61.61,0,0,1,.59.63v6.11h2.86a.64.64,0,0,1,0,1.28H240A.61.61,0,0,1,239.38,384.38Z" style="fill:#fff"></path><path d="M245.32,384.38v-6.71a.61.61,0,0,1,.58-.63.62.62,0,0,1,.58.63V381l3.41-3.72a.54.54,0,0,1,.82,0,.68.68,0,0,1,0,.89l-2.32,2.51,2.34,3.34a.65.65,0,0,1-.08.88.53.53,0,0,1-.37.15.54.54,0,0,1-.43-.23l-2.28-3.25-1.09,1.22v1.63a.61.61,0,0,1-.58.63A.61.61,0,0,1,245.32,384.38Z" style="fill:#fff"></path><rect x="266.1" y="404.14" width="23.89" height="1.56" transform="translate(555.81 810.04) rotate(-179.96)" style="fill:#c7c7c7"></rect><rect x="266.1" y="410.2" width="23.89" height="1.56" transform="translate(555.8 822.16) rotate(-179.96)" style="fill:#c7c7c7"></rect><rect x="266.09" y="416.26" width="23.89" height="1.56" transform="translate(555.78 834.28) rotate(-179.96)" style="fill:#c7c7c7"></rect><rect x="266.08" y="428.39" width="23.89" height="1.56" transform="matrix(-1, 0, 0, -1, 555.76, 858.53)" style="fill:#c7c7c7"></rect><rect x="266.08" y="441.46" width="23.89" height="1.56" transform="translate(555.73 884.68) rotate(-179.96)" style="fill:#c7c7c7"></rect><rect x="266.07" y="446.57" width="23.89" height="1.56" transform="translate(555.72 894.9) rotate(-179.96)" style="fill:#c7c7c7"></rect><rect x="245.58" y="326.52" width="32.46" height="6.07" transform="translate(523.61 659.12) rotate(180)" style="fill:#455a64"></rect><polygon points="278.03 332.59 278.03 350.87 299.88 350.89 278.03 332.59" style="opacity:0.1"></polygon><rect x="236.37" y="331.2" width="14.51" height="4.62" transform="translate(487.24 667.03) rotate(180)" style="fill:#FFC727"></rect><rect x="238.02" y="335.81" width="11.19" height="6.99" transform="translate(487.22 678.62) rotate(180)" style="fill:#455a64"></rect><rect x="238.02" y="335.81" width="3.23" height="6.99" transform="translate(479.27 678.62) rotate(180)" style="fill:#37474f"></rect></g><g id="freepik--Drinks--inject-2"><polygon points="352.39 464.71 316.55 464.71 311.72 378.23 357.22 378.23 352.39 464.71" style="fill:#ebebeb;opacity:0.6000000000000001"></polygon><polygon points="357.22 378.23 352.39 464.71 316.55 464.71 311.72 378.23 315.14 378.23 319.98 458.69 348.96 458.69 353.79 378.23 357.22 378.23" style="fill:#ebebeb"></polygon><polygon points="316.36 461.29 352.58 461.29 352.39 464.7 316.55 464.7 316.36 461.29" style="fill:#ebebeb"></polygon><polygon points="352.52 399.35 348.96 458.69 319.98 458.69 316.41 399.35 352.52 399.35" style="fill:#FFC727;opacity:0.8"></polygon><polygon points="327.7 443.08 322.08 443.08 318.89 378.23 324.52 378.23 327.7 443.08" style="fill:#fff;opacity:0.4"></polygon><polygon points="185.35 464.71 149.51 464.71 144.68 378.23 190.19 378.23 185.35 464.71" style="fill:#ebebeb;opacity:0.6000000000000001"></polygon><polygon points="190.19 378.23 185.35 464.71 149.51 464.71 144.68 378.23 148.11 378.23 152.94 458.69 181.92 458.69 186.76 378.23 190.19 378.23" style="fill:#ebebeb"></polygon><polygon points="184.51 415.67 181.92 458.69 152.94 458.69 150.36 415.67 184.51 415.67" style="fill:#FFC727;opacity:0.8"></polygon><polygon points="160.67 443.08 155.04 443.08 151.86 378.23 157.48 378.23 160.67 443.08" style="fill:#fff;opacity:0.4"></polygon></g></svg>