<svg xmlns="http://www.w3.org/2000/svg" viewBox="0 0 500 500"><g id="freepik--background-complete--inject-2"><polygon points="188.1 477.85 243.2 477.85 232.6 421.05 232.6 396.28 198.69 396.28 198.69 421.05 188.1 477.85" style="fill:#dbdbdb"></polygon><rect x="197.21" y="393.03" width="36.87" height="3.25" transform="translate(431.3 789.32) rotate(180)" style="fill:#c7c7c7"></rect><g id="freepik--grupo--inject-2"><path d="M215.66,421a7.53,7.53,0,0,0,7.63-7.67,7.64,7.64,0,0,0-15.28,0A7.54,7.54,0,0,0,215.66,421Z" style="fill:#fff"></path><path d="M218.9,418.87l-.87-1.61-1-1.82a2.58,2.58,0,0,1-2.75,0l-1.87,3.42a6.62,6.62,0,0,0,6.49,0Z" style="fill:#c7c7c7"></path><path d="M214.39,411.13l-2-3.3h0a6.48,6.48,0,0,0-3.17,5.4h3.85A2.67,2.67,0,0,1,214.39,411.13Z" style="fill:#c7c7c7"></path><path d="M222,413.17a6.46,6.46,0,0,0-3.22-5.37l-2,3.3a2.65,2.65,0,0,1,1.32,2.07Z" style="fill:#c7c7c7"></path><path d="M215.65,415a1.66,1.66,0,0,0,1.68-1.69,1.69,1.69,0,0,0-3.37,0A1.66,1.66,0,0,0,215.65,415Z" style="fill:#c7c7c7"></path></g><polygon points="127.26 477.85 182.37 477.85 171.77 421.05 171.77 396.28 137.86 396.28 137.86 421.05 127.26 477.85" style="fill:#dbdbdb"></polygon><rect x="136.38" y="393.03" width="36.87" height="3.25" transform="translate(309.63 789.32) rotate(180)" style="fill:#c7c7c7"></rect><g id="freepik--grupo--inject-2"><path d="M154.82,421a7.53,7.53,0,0,0,7.63-7.67,7.64,7.64,0,0,0-15.27,0A7.53,7.53,0,0,0,154.82,421Z" style="fill:#fff"></path><path d="M158.07,418.87c-.29-.54-.58-1.08-.88-1.61s-.65-1.2-1-1.82a2.58,2.58,0,0,1-2.75,0l-1.88,3.42a6.64,6.64,0,0,0,6.5,0Z" style="fill:#c7c7c7"></path><path d="M153.56,411.13c-.67-1.12-1.32-2.21-2-3.3h0a6.46,6.46,0,0,0-3.17,5.4h3.85A2.67,2.67,0,0,1,153.56,411.13Z" style="fill:#c7c7c7"></path><path d="M161.2,413.17A6.45,6.45,0,0,0,158,407.8l-2,3.3a2.64,2.64,0,0,1,1.31,2.07Z" style="fill:#c7c7c7"></path><path d="M154.82,415a1.66,1.66,0,0,0,1.68-1.69,1.69,1.69,0,0,0-3.37,0A1.66,1.66,0,0,0,154.82,415Z" style="fill:#c7c7c7"></path></g><path d="M334.54,353.45V319.56c0-7.7,6.48-16.9,7.88-22.49s-1.1-16.55,5.6-21.47,11.53-1.33,18.31-8.12,21.37-16.1,31.17-6.4-4.17,23-6.17,25.8-.08,9.47-5.69,15c-3.91,3.84-11.89,2.26-16.67,6.18-3.69,3-5,10.64-10.76,13.24s-12.21,1.56-15.29,4.48c-7.56,7.17-7.05,25.57-7.05,27.71Z" style="fill:#ebebeb;opacity:0.5"></path><path d="M372.51,353.45V336.77c0-7.69,9.19-7.81,10.59-13.4s1.78-12.27,8.38-17.32,12-3.82,14.95-6.59c3.94-3.72,5.06-7.46,9-12.3,5-6.12,14.17-5.48,17-.58,4.08,7.16-3.94,12.62-5.94,15.46s2.75,11.53-2.86,17c-3.91,3.83-11.89,2.26-16.67,6.18-3.69,3-3.46,7.74-9.26,10.34s-10.38-1.72-16.87,1.38c-4.58,2.19-7,14.35-7,16.49Z" style="fill:#ebebeb;opacity:0.5"></path><rect x="333.2" y="398.19" width="61.98" height="79.66" style="fill:#dbdbdb"></rect><rect x="333.2" y="398.19" width="61.98" height="79.66" style="fill:#fff;opacity:0.4"></rect><rect x="333.2" y="398.19" width="61.98" height="2.13" style="fill:#dbdbdb"></rect><rect x="339.01" y="403.44" width="8.89" height="7.17" style="fill:#dbdbdb"></rect><rect x="352.83" y="403.44" width="8.89" height="7.17" style="fill:#dbdbdb"></rect><rect x="366.66" y="403.44" width="8.89" height="7.17" style="fill:#dbdbdb"></rect><rect x="380.48" y="403.44" width="8.89" height="7.17" style="fill:#dbdbdb"></rect><polygon points="389.36 404 389.36 407.51 385.51 410.61 381.17 410.61 389.36 404" style="fill:#fff"></polygon><polygon points="361.72 403.44 361.72 403.52 352.94 410.61 352.84 410.61 352.84 408.94 359.65 403.44 361.72 403.44" style="fill:#fff"></polygon><polygon points="361.72 406.85 361.72 407.72 358.14 410.61 357.06 410.61 361.72 406.85" style="fill:#fff"></polygon><polygon points="347.9 403.61 347.9 404.48 340.3 410.61 339.22 410.61 347.9 403.61" style="fill:#fff"></polygon><polygon points="386.63 403.44 380.47 408.41 380.47 407.53 385.54 403.44 386.63 403.44" style="fill:#fff"></polygon><polygon points="358.57 355.13 350.19 355.13 347.25 398.19 361.52 398.19 358.57 355.13" style="fill:#dbdbdb"></polygon><polygon points="359.53 369.07 349.24 369.07 349.63 363.4 359.14 363.4 359.53 369.07" style="fill:#c7c7c7"></polygon><rect x="349.38" y="353.45" width="10.01" height="1.68" style="fill:#c7c7c7"></rect><polygon points="377.59 355.13 369.21 355.13 366.27 398.19 380.54 398.19 377.59 355.13" style="fill:#dbdbdb"></polygon><polygon points="378.55 369.07 368.26 369.07 368.65 363.4 378.16 363.4 378.55 369.07" style="fill:#c7c7c7"></polygon><rect x="368.4" y="353.45" width="10.01" height="1.68" style="fill:#c7c7c7"></rect><polygon points="339.55 355.13 331.17 355.13 328.23 398.19 342.5 398.19 339.55 355.13" style="fill:#dbdbdb"></polygon><polygon points="340.51 369.07 330.22 369.07 330.61 363.4 340.12 363.4 340.51 369.07" style="fill:#c7c7c7"></polygon><rect x="330.36" y="353.45" width="10.01" height="1.68" style="fill:#c7c7c7"></rect><rect x="307.61" y="398.19" width="25.59" height="79.66" style="fill:#dbdbdb"></rect><rect x="307.61" y="398.19" width="25.59" height="79.66" style="fill:#fff;opacity:0.2"></rect><rect x="307.61" y="398.19" width="25.59" height="2.13" style="fill:#dbdbdb"></rect><rect x="315.96" y="403.44" width="8.89" height="7.17" style="fill:#dbdbdb"></rect><polygon points="324.85 404.92 324.85 408.43 322.14 410.61 317.79 410.61 324.85 404.92" style="fill:#fff"></polygon><path d="M353.38,353.45c0-11.38-4.3-20.73-2.72-28.75s11.26-10.49,13.12-15.79-1.5-21,4.62-29.48,23.15-6,30-11.17c4.69-3.52,8.42-10.51,14.81-13.52,6.24-2.93,13.33-.35,17.25-2.08,5.86-2.59,16.7-11.64,25.33-2.14,5.8,6.38,3.36,18.75-9.45,22.18-3.46.93-8.58,2.56-10.94,4.51-5,4.12-6.2,9.53-13.39,11.66-10.59,3.15-14.6.72-19.89,4.65-4.37,3.25-3.58,12.53-8,16.39s-13.67,3.84-17.39,6.28-4.16,6-9,9.54c-2.31,1.69-7.63,1.63-9.05,3.93-3.12,5.06-3.79,13.87-3.79,23.79Z" style="fill:#dbdbdb;opacity:0.5"></path><rect x="297.39" y="412.38" width="25.59" height="65.47" style="fill:#dbdbdb"></rect><rect x="297.39" y="412.38" width="25.59" height="65.47" style="fill:#fff;opacity:0.4"></rect><rect x="297.39" y="412.38" width="25.59" height="2.13" style="fill:#dbdbdb"></rect><rect x="302.75" y="418.5" width="14.87" height="17.4" style="fill:#dbdbdb"></rect><polygon points="312.37 418.5 302.75 426.27 302.75 422.76 308.02 418.5 312.37 418.5" style="fill:#fff"></polygon><polygon points="317.41 418.5 302.75 430.33 302.75 429.46 316.32 418.5 317.41 418.5" style="fill:#fff"></polygon><polygon points="317.61 428.06 317.61 428.93 308.97 435.91 307.89 435.91 317.61 428.06" style="fill:#fff"></polygon><rect x="322.98" y="412.38" width="82.42" height="65.47" style="fill:#dbdbdb"></rect><rect x="322.98" y="412.38" width="82.42" height="65.47" style="fill:#fff;opacity:0.6000000000000001"></rect><rect x="322.98" y="412.38" width="82.42" height="2.13" style="fill:#dbdbdb"></rect><rect x="328.35" y="418.5" width="14.87" height="17.4" style="fill:#dbdbdb"></rect><rect x="347.29" y="418.5" width="14.87" height="17.4" style="fill:#dbdbdb"></rect><rect x="366.22" y="418.5" width="14.87" height="17.4" style="fill:#dbdbdb"></rect><rect x="385.16" y="418.5" width="14.87" height="17.4" style="fill:#dbdbdb"></rect><polygon points="366.23 434.78 381.09 422.79 381.09 426.29 369.18 435.91 366.23 435.91 366.23 434.78" style="fill:#fff"></polygon><polygon points="390.74 418.5 385.16 423 385.16 419.5 386.4 418.5 390.74 418.5" style="fill:#fff"></polygon><polygon points="349.84 435.91 362.15 425.97 362.15 429.47 354.18 435.91 349.84 435.91" style="fill:#fff"></polygon><polygon points="375.74 418.5 366.23 426.18 366.23 422.68 371.4 418.5 375.74 418.5" style="fill:#fff"></polygon><polygon points="343.17 418.5 328.35 430.46 328.35 428.71 340.99 418.5 343.17 418.5" style="fill:#fff"></polygon><polygon points="400.03 421.35 400.03 423.11 385.16 435.11 385.16 433.36 400.03 421.35" style="fill:#fff"></polygon><polygon points="328.35 433.79 343.22 421.79 343.22 422.67 328.35 434.67 328.35 433.79" style="fill:#fff"></polygon><polygon points="348.38 418.5 347.29 419.38 347.29 418.5 348.38 418.5" style="fill:#fff"></polygon><polygon points="330.54 418.5 328.35 420.27 328.35 419.4 329.46 418.5 330.54 418.5" style="fill:#fff"></polygon><polygon points="400.03 428.92 400.03 429.8 392.46 435.91 391.38 435.91 400.03 428.92" style="fill:#fff"></polygon><polygon points="347.29 434.32 362.15 422.32 362.15 423.2 347.29 435.2 347.29 434.32" style="fill:#fff"></polygon><polygon points="367.98 418.5 366.23 419.91 366.23 419.03 366.88 418.5 367.98 418.5" style="fill:#fff"></polygon><polygon points="436.57 477.85 405.4 477.85 405.4 412.38 436.57 400.17 436.57 477.85" style="fill:#dbdbdb"></polygon><polygon points="436.57 477.85 405.4 477.85 405.4 412.38 436.57 400.17 436.57 477.85" style="fill:#fff;opacity:0.6000000000000001"></polygon><polygon points="405.4 412.38 405.4 414.51 436.57 405.59 436.57 400.17 405.4 412.38" style="fill:#dbdbdb"></polygon><rect x="297.39" y="439.36" width="139.83" height="1.32" style="fill:#dbdbdb"></rect><rect x="297.39" y="443.81" width="139.83" height="1.32" style="fill:#dbdbdb"></rect><rect x="298.97" y="440.69" width="0.8" height="3.12" style="fill:#dbdbdb"></rect><rect x="302.59" y="440.69" width="0.8" height="3.12" style="fill:#dbdbdb"></rect><rect x="306.21" y="440.69" width="0.8" height="3.12" style="fill:#dbdbdb"></rect><rect x="309.82" y="440.69" width="0.8" height="3.12" style="fill:#dbdbdb"></rect><rect x="313.44" y="440.69" width="0.8" height="3.12" style="fill:#dbdbdb"></rect><rect x="317.06" y="440.69" width="0.8" height="3.12" style="fill:#dbdbdb"></rect><rect x="320.67" y="440.69" width="0.8" height="3.12" style="fill:#dbdbdb"></rect><rect x="324.29" y="440.69" width="0.8" height="3.12" style="fill:#dbdbdb"></rect><rect x="327.91" y="440.69" width="0.8" height="3.12" style="fill:#dbdbdb"></rect><rect x="331.53" y="440.69" width="0.8" height="3.12" style="fill:#dbdbdb"></rect><rect x="335.14" y="440.69" width="0.8" height="3.12" style="fill:#dbdbdb"></rect><rect x="338.76" y="440.69" width="0.8" height="3.12" style="fill:#dbdbdb"></rect><rect x="342.38" y="440.69" width="0.8" height="3.12" style="fill:#dbdbdb"></rect><rect x="345.99" y="440.69" width="0.8" height="3.12" style="fill:#dbdbdb"></rect><rect x="349.61" y="440.69" width="0.8" height="3.12" style="fill:#dbdbdb"></rect><rect x="353.23" y="440.69" width="0.8" height="3.12" style="fill:#dbdbdb"></rect><rect x="356.85" y="440.69" width="0.8" height="3.12" style="fill:#dbdbdb"></rect><rect x="360.46" y="440.69" width="0.8" height="3.12" style="fill:#dbdbdb"></rect><rect x="364.08" y="440.69" width="0.8" height="3.12" style="fill:#dbdbdb"></rect><rect x="367.7" y="440.69" width="0.8" height="3.12" style="fill:#dbdbdb"></rect><rect x="371.31" y="440.69" width="0.8" height="3.12" style="fill:#dbdbdb"></rect><rect x="374.93" y="440.69" width="0.8" height="3.12" style="fill:#dbdbdb"></rect><rect x="378.55" y="440.69" width="0.8" height="3.12" style="fill:#dbdbdb"></rect><rect x="382.17" y="440.69" width="0.8" height="3.12" style="fill:#dbdbdb"></rect><rect x="385.78" y="440.69" width="0.8" height="3.12" style="fill:#dbdbdb"></rect><rect x="389.4" y="440.69" width="0.8" height="3.12" style="fill:#dbdbdb"></rect><rect x="393.02" y="440.69" width="0.8" height="3.12" style="fill:#dbdbdb"></rect><rect x="396.63" y="440.69" width="0.8" height="3.12" style="fill:#dbdbdb"></rect><rect x="400.25" y="440.69" width="0.8" height="3.12" style="fill:#dbdbdb"></rect><rect x="403.87" y="440.69" width="0.8" height="3.12" style="fill:#dbdbdb"></rect><rect x="407.49" y="440.69" width="0.8" height="3.12" style="fill:#dbdbdb"></rect><rect x="411.1" y="440.69" width="0.8" height="3.12" style="fill:#dbdbdb"></rect><rect x="414.72" y="440.69" width="0.8" height="3.12" style="fill:#dbdbdb"></rect><rect x="418.34" y="440.69" width="0.8" height="3.12" style="fill:#dbdbdb"></rect><rect x="421.95" y="440.69" width="0.8" height="3.12" style="fill:#dbdbdb"></rect><rect x="425.57" y="440.69" width="0.8" height="3.12" style="fill:#dbdbdb"></rect><rect x="429.19" y="440.69" width="0.8" height="3.12" style="fill:#dbdbdb"></rect><rect x="432.81" y="440.69" width="0.8" height="3.12" style="fill:#dbdbdb"></rect><rect x="436.42" y="440.69" width="0.8" height="3.12" style="fill:#dbdbdb"></rect><path d="M419.79,477.85h-3.44V427a.83.83,0,0,0-.83-.83H413.4v-3.44h2.12a4.27,4.27,0,0,1,4.27,4.27Z" style="fill:#dbdbdb"></path><path d="M419.79,477.85h-3.44V427a.83.83,0,0,0-.83-.83H413.4v-3.44h2.12a4.27,4.27,0,0,1,4.27,4.27Z" style="opacity:0.1"></path><g style="opacity:0.1"><path d="M414.85,426.2a11.67,11.67,0,0,1,0-3.44,11.67,11.67,0,0,1,0,3.44Z"></path><path d="M416.35,429.32a12,12,0,0,1,3.44,0,11.67,11.67,0,0,1-3.44,0Z"></path><path d="M416.35,431a12,12,0,0,1,3.44,0,11.67,11.67,0,0,1-3.44,0Z"></path><path d="M416.35,432.66a11.67,11.67,0,0,1,3.44,0,11.67,11.67,0,0,1-3.44,0Z"></path><path d="M416.35,434.33a11.67,11.67,0,0,1,3.44,0,11.67,11.67,0,0,1-3.44,0Z"></path><path d="M416.35,436a11.67,11.67,0,0,1,3.44,0,11.67,11.67,0,0,1-3.44,0Z"></path><path d="M416.35,437.67a11.67,11.67,0,0,1,3.44,0,11.67,11.67,0,0,1-3.44,0Z"></path><path d="M416.35,439.34a11.67,11.67,0,0,1,3.44,0,11.67,11.67,0,0,1-3.44,0Z"></path><path d="M416.35,441a11.67,11.67,0,0,1,3.44,0,11.67,11.67,0,0,1-3.44,0Z"></path><path d="M416.35,442.68a11.67,11.67,0,0,1,3.44,0,11.67,11.67,0,0,1-3.44,0Z"></path><path d="M416.35,444.35a11.67,11.67,0,0,1,3.44,0,11.67,11.67,0,0,1-3.44,0Z"></path><path d="M416.35,446a11.67,11.67,0,0,1,3.44,0,11.67,11.67,0,0,1-3.44,0Z"></path><path d="M416.35,447.69a11.67,11.67,0,0,1,3.44,0,11.67,11.67,0,0,1-3.44,0Z"></path><path d="M416.35,449.36a11.67,11.67,0,0,1,3.44,0,11.67,11.67,0,0,1-3.44,0Z"></path><path d="M416.35,451a11.67,11.67,0,0,1,3.44,0,11.67,11.67,0,0,1-3.44,0Z"></path><path d="M416.35,452.7a11.67,11.67,0,0,1,3.44,0,11.67,11.67,0,0,1-3.44,0Z"></path><path d="M416.35,454.37a11.67,11.67,0,0,1,3.44,0,11.67,11.67,0,0,1-3.44,0Z"></path><path d="M416.35,456a11.67,11.67,0,0,1,3.44,0,11.67,11.67,0,0,1-3.44,0Z"></path><path d="M416.35,457.71a11.67,11.67,0,0,1,3.44,0,11.67,11.67,0,0,1-3.44,0Z"></path><path d="M416.35,459.38a11.67,11.67,0,0,1,3.44,0,11.67,11.67,0,0,1-3.44,0Z"></path><path d="M416.35,461.05a11.67,11.67,0,0,1,3.44,0,11.67,11.67,0,0,1-3.44,0Z"></path><path d="M416.35,462.72a11.67,11.67,0,0,1,3.44,0,11.67,11.67,0,0,1-3.44,0Z"></path><path d="M416.35,464.39a11.67,11.67,0,0,1,3.44,0,11.67,11.67,0,0,1-3.44,0Z"></path><path d="M416.35,466.06a11.67,11.67,0,0,1,3.44,0,11.67,11.67,0,0,1-3.44,0Z"></path><path d="M416.35,467.73a11.67,11.67,0,0,1,3.44,0,11.67,11.67,0,0,1-3.44,0Z"></path><path d="M416.35,469.4a11.67,11.67,0,0,1,3.44,0,12,12,0,0,1-3.44,0Z"></path><path d="M416.35,471.07a11.67,11.67,0,0,1,3.44,0,12,12,0,0,1-3.44,0Z"></path><path d="M416.35,472.74a11.67,11.67,0,0,1,3.44,0,12,12,0,0,1-3.44,0Z"></path><path d="M416.35,474.41a11.67,11.67,0,0,1,3.44,0,12,12,0,0,1-3.44,0Z"></path><path d="M416.35,476.08a11.67,11.67,0,0,1,3.44,0,12,12,0,0,1-3.44,0Z"></path><path d="M416,426.33a12.44,12.44,0,0,1,1.84-2.91,11.36,11.36,0,0,1-1.84,2.91Z"></path><path d="M416.33,426.85a11.86,11.86,0,0,1,3.19-1.31,11.86,11.86,0,0,1-3.19,1.31Z"></path><path d="M416.35,427.59a12,12,0,0,1,3.44.12,11.67,11.67,0,0,1-3.44-.12Z"></path></g><path d="M428.57,477.85h-3.44V427a.83.83,0,0,0-.83-.83h-2.12v-3.44h2.12a4.27,4.27,0,0,1,4.27,4.27Z" style="fill:#dbdbdb"></path><path d="M428.57,477.85h-3.44V427a.83.83,0,0,0-.83-.83h-2.12v-3.44h2.12a4.27,4.27,0,0,1,4.27,4.27Z" style="opacity:0.1"></path><g style="opacity:0.1"><path d="M423.63,426.2a11.67,11.67,0,0,1,0-3.44,11.67,11.67,0,0,1,0,3.44Z"></path><path d="M425.13,429.32a12,12,0,0,1,3.44,0,11.67,11.67,0,0,1-3.44,0Z"></path><path d="M425.13,431a12,12,0,0,1,3.44,0,11.67,11.67,0,0,1-3.44,0Z"></path><path d="M425.13,432.66a11.67,11.67,0,0,1,3.44,0,11.67,11.67,0,0,1-3.44,0Z"></path><path d="M425.13,434.33a11.67,11.67,0,0,1,3.44,0,11.67,11.67,0,0,1-3.44,0Z"></path><path d="M425.13,436a11.67,11.67,0,0,1,3.44,0,11.67,11.67,0,0,1-3.44,0Z"></path><path d="M425.13,437.67a11.67,11.67,0,0,1,3.44,0,11.67,11.67,0,0,1-3.44,0Z"></path><path d="M425.13,439.34a11.67,11.67,0,0,1,3.44,0,11.67,11.67,0,0,1-3.44,0Z"></path><path d="M425.13,441a11.67,11.67,0,0,1,3.44,0,11.67,11.67,0,0,1-3.44,0Z"></path><path d="M425.13,442.68a11.67,11.67,0,0,1,3.44,0,11.67,11.67,0,0,1-3.44,0Z"></path><path d="M425.13,444.35a11.67,11.67,0,0,1,3.44,0,11.67,11.67,0,0,1-3.44,0Z"></path><path d="M425.13,446a11.67,11.67,0,0,1,3.44,0,11.67,11.67,0,0,1-3.44,0Z"></path><path d="M425.13,447.69a11.67,11.67,0,0,1,3.44,0,11.67,11.67,0,0,1-3.44,0Z"></path><path d="M425.13,449.36a11.67,11.67,0,0,1,3.44,0,11.67,11.67,0,0,1-3.44,0Z"></path><path d="M425.13,451a11.67,11.67,0,0,1,3.44,0,11.67,11.67,0,0,1-3.44,0Z"></path><path d="M425.13,452.7a11.67,11.67,0,0,1,3.44,0,11.67,11.67,0,0,1-3.44,0Z"></path><path d="M425.13,454.37a11.67,11.67,0,0,1,3.44,0,11.67,11.67,0,0,1-3.44,0Z"></path><path d="M425.13,456a11.67,11.67,0,0,1,3.44,0,11.67,11.67,0,0,1-3.44,0Z"></path><path d="M425.13,457.71a11.67,11.67,0,0,1,3.44,0,11.67,11.67,0,0,1-3.44,0Z"></path><path d="M425.13,459.38a11.67,11.67,0,0,1,3.44,0,11.67,11.67,0,0,1-3.44,0Z"></path><path d="M425.13,461.05a11.67,11.67,0,0,1,3.44,0,11.67,11.67,0,0,1-3.44,0Z"></path><path d="M425.13,462.72a11.67,11.67,0,0,1,3.44,0,11.67,11.67,0,0,1-3.44,0Z"></path><path d="M425.13,464.39a11.67,11.67,0,0,1,3.44,0,11.67,11.67,0,0,1-3.44,0Z"></path><path d="M425.13,466.06a11.67,11.67,0,0,1,3.44,0,11.67,11.67,0,0,1-3.44,0Z"></path><path d="M425.13,467.73a11.67,11.67,0,0,1,3.44,0,11.67,11.67,0,0,1-3.44,0Z"></path><path d="M425.13,469.4a11.67,11.67,0,0,1,3.44,0,12,12,0,0,1-3.44,0Z"></path><path d="M425.13,471.07a11.67,11.67,0,0,1,3.44,0,12,12,0,0,1-3.44,0Z"></path><path d="M425.13,472.74a11.67,11.67,0,0,1,3.44,0,12,12,0,0,1-3.44,0Z"></path><path d="M425.13,474.41a11.67,11.67,0,0,1,3.44,0,12,12,0,0,1-3.44,0Z"></path><path d="M425.13,476.08a11.67,11.67,0,0,1,3.44,0,12,12,0,0,1-3.44,0Z"></path><path d="M424.75,426.33a11.82,11.82,0,0,1,1.84-2.91,11.93,11.93,0,0,1-1.84,2.91Z"></path><path d="M425.11,426.85a12,12,0,0,1,3.19-1.31,11.72,11.72,0,0,1-3.19,1.31Z"></path><path d="M425.13,427.59a12,12,0,0,1,3.44.12,11.67,11.67,0,0,1-3.44-.12Z"></path></g><rect x="284.79" y="457.11" width="33.98" height="20.74" style="fill:#dbdbdb"></rect><rect x="284.79" y="457.11" width="33.98" height="20.74" style="fill:#fff;opacity:0.4"></rect><rect x="284.79" y="457.11" width="33.98" height="2.13" style="fill:#dbdbdb"></rect><rect x="290.61" y="462.36" width="8.89" height="7.17" style="fill:#dbdbdb"></rect><rect x="304.43" y="462.36" width="8.89" height="7.17" style="fill:#dbdbdb"></rect><polygon points="313.32 462.36 313.32 462.44 304.53 469.54 304.43 469.54 304.43 467.86 311.24 462.36 313.32 462.36" style="fill:#fff"></polygon><polygon points="313.32 465.77 313.32 466.64 309.74 469.54 308.65 469.54 313.32 465.77" style="fill:#fff"></polygon><polygon points="299.49 462.53 299.49 463.4 291.9 469.54 290.82 469.54 299.49 462.53" style="fill:#fff"></polygon><rect x="259.2" y="457.11" width="25.59" height="20.74" style="fill:#dbdbdb"></rect><rect x="259.2" y="457.11" width="25.59" height="20.74" style="fill:#fff;opacity:0.2"></rect><rect x="259.2" y="457.11" width="25.59" height="2.13" style="fill:#dbdbdb"></rect><rect x="267.55" y="462.36" width="8.89" height="7.17" style="fill:#dbdbdb"></rect><polygon points="276.44 463.84 276.44 467.35 273.73 469.54 269.38 469.54 276.44 463.84" style="fill:#fff"></polygon><polygon points="273.52 431.92 270.47 431.92 269.4 457.12 274.59 457.12 273.52 431.92" style="fill:#dbdbdb"></polygon><rect x="270.18" y="430.94" width="3.64" height="0.98" style="fill:#dbdbdb"></rect><polygon points="280.44 431.92 277.39 431.92 276.32 457.12 281.51 457.12 280.44 431.92" style="fill:#dbdbdb"></polygon><rect x="277.09" y="430.94" width="3.64" height="0.98" style="fill:#dbdbdb"></rect><polygon points="266.6 431.92 263.56 431.92 262.49 457.12 267.67 457.12 266.6 431.92" style="fill:#dbdbdb"></polygon><rect x="263.26" y="430.94" width="3.64" height="0.98" style="fill:#dbdbdb"></rect><path d="M49.79,169.6c-.55,0-.6-1.09,0-1.17,2.59-.33,5.18-2.65,7.77-3A22.89,22.89,0,0,0,65,163.66c3.85-1.93,6.25-5.8,10.24-7.66,7-3.26,14.2-1.86,21,1a23.88,23.88,0,0,0,12.86,1.89c4-.5,7.85-1.6,11.81-2.16a23.43,23.43,0,0,1,10.6.5c3.56,1.15,6.61,3.38,10,5,4.4,2.13,8.76,1.77,13.5,1.91,3.42.1,10.57,2.26,10.57,4.56C165.58,170.25,56.57,169.6,49.79,169.6Z" style="fill:#ebebeb"></path><path d="M436.2,349.16c-4.78,0-123.93-.83-157.59-.83-2.35,0,.62-4.08,1.92-4.36,4.14-.91,8.45-1,12.66-1.39a41.56,41.56,0,0,0,12.06-3c3.31-1.4,6.61-3,10.2-3.57,6.93-1.09,13,2.67,19.52,4.32a14.7,14.7,0,0,0,11.82-1.61c3-1.8,5.74-4,8.88-5.56a48.71,48.71,0,0,1,38.94-1.78,44.75,44.75,0,0,1,8.52,4.36c3.17,2.08,5.91,4.74,9.1,6.8,7.06,4.57,15.78,3.08,23.48,5.7C436.13,348.36,436.61,349.16,436.2,349.16Z" style="fill:#ebebeb"></path><path d="M192.49,86.79c-6.32,0-112.55.7-119.22.48-.48,0-.74-.71-.26-1,4.2-2.09,9-1.67,13.35-3.14,2.58-.87,4.16-2.55,5.94-4.48a12.28,12.28,0,0,1,5.53-3.61,11.71,11.71,0,0,1,6-.19c2.15.52,4,1.75,6.08,2.53,5.1,1.92,10.06.09,13.71-3.68,3-3.11,6-6,10-7.73a13.35,13.35,0,0,1,10.64-.14c3.9,1.76,6.57,5.31,10.23,7.45,4.34,2.53,9.53,1.93,14.32,2.7s8.47,4.8,12.68,7.12a8.91,8.91,0,0,0,4.58,1.42c.94,0,1.86-.28,2.79-.39,1.44-.18,2.82-.14,3.79,1.07C193,85.54,192.9,86.79,192.49,86.79Z" style="fill:#ebebeb"></path><path d="M379.26,205.37c-6.31,0-112.54.7-119.21.48-.48,0-.74-.72-.27-.95,4.21-2.09,9-1.67,13.36-3.14,2.57-.87,4.15-2.55,5.94-4.48a12.28,12.28,0,0,1,5.53-3.61,11.71,11.71,0,0,1,6-.19c2.15.52,4,1.75,6.08,2.53,5.1,1.92,10.06.09,13.71-3.68,3-3.11,6-6.05,10-7.73a13.39,13.39,0,0,1,10.64-.15c3.9,1.77,6.57,5.32,10.23,7.46,4.34,2.53,9.53,1.93,14.32,2.7s8.47,4.8,12.68,7.12a8.91,8.91,0,0,0,4.58,1.42c.94,0,1.86-.28,2.79-.39,1.44-.18,2.82-.14,3.79,1.07C379.73,204.12,379.68,205.37,379.26,205.37Z" style="fill:#ebebeb"></path><path d="M229.27,365.17c-4.6,0-82.16.51-87,.35-.35,0-.54-.52-.19-.69,3.07-1.53,6.56-1.22,9.75-2.3a10.31,10.31,0,0,0,4.34-3.27,9,9,0,0,1,4-2.63,8.49,8.49,0,0,1,4.39-.14,39.91,39.91,0,0,1,4.44,1.84c3.73,1.41,7.35.07,10-2.68,2.19-2.27,4.35-4.42,7.33-5.64a9.72,9.72,0,0,1,7.77-.11c2.85,1.29,4.8,3.88,7.47,5.44,3.17,1.85,7,1.41,10.45,2s6.19,3.51,9.26,5.2a6.56,6.56,0,0,0,3.34,1,20,20,0,0,0,2-.29,2.79,2.79,0,0,1,2.77.78C229.61,364.26,229.58,365.17,229.27,365.17Z" style="fill:#ebebeb"></path><path d="M448.72,59.44H317c-.54,0-.73-.57-.2-.82,4.72-2.21,10-1.64,14.89-3.17,2.87-.9,4.66-2.73,6.69-4.83a13.64,13.64,0,0,1,6.21-3.88,13,13,0,0,1,6.68-.07c2.38.62,4.42,2,6.69,2.94,5.61,2.26,11.15.34,15.28-3.76,3.4-3.39,6.75-6.57,11.32-8.34a14.81,14.81,0,0,1,11.8.08c4.28,2,7.16,6,11.17,8.5,4.76,2.91,10.53,2.37,15.82,3.33s9.71,3.24,14.32,5.92A10.07,10.07,0,0,0,442.75,57c1,0,2.07-.27,3.1-.38,1.61-.16,3.13-.08,4.18,1.28C450.29,58.25,451.82,59.44,448.72,59.44Z" style="fill:#ebebeb"></path></g><g id="freepik--Floor--inject-2"><path d="M49.36,477.85c128.54-.61,272.74-.62,401.28,0-128.54.61-272.74.61-401.28,0Z" style="fill:#263238"></path></g><g id="freepik--Earth--inject-2"><path d="M394.21,209.68a143.68,143.68,0,0,1-27.58,84.88v0A144.4,144.4,0,1,1,249.82,65.3c4,0,7.89.15,11.76.47a143.58,143.58,0,0,1,63.18,20.47,145.08,145.08,0,0,1,38.56,34.19,144,144,0,0,1,30.89,89.25Z" style="fill:#FFC727"></path><g style="opacity:0.1"><path d="M281,277.83c-1.82,4.85,1.21,5.06,1.41,7.08s0,5.86-5.86,11.73S261,301.29,259,303.72s-5.46,12.74-10.32,16.17-5.66,1.42-12.54,2.83S224,333,222,337.28s.4,11.33-4.45,11.53-7.08-10.31-11.53-16-5.86-10.72-7.28-17.4.81-20.62,0-26.08-15.36-15.17-20.62-21.84-12.54-20-12.14-24.47A18.1,18.1,0,0,1,172,231.93c2.43-1.82,1.42-2.83,1.82-4.45s2.43-2,2.83-4-1.21-8.09-3.23-9.1-3.44,2.43-4.65,1.82-4.86-4.85-6.27-5.25-1,2.62-3-1.22-3-13.55-4.65-15.16-2.83,2.83-6.67,0-5.46-8.29-7.08-9.1-3.84.2-5.5-3,1.46-9.1,0-8.49-4.61,5.26-5.42.81,4.05-19.41,3.24-27.5,2-16.59,7.68-23.46c0,0,.81-4.45,1.62-7.28s18.2-14.16,20.22-17.39c.84-1.35,1.13-3.47,1.43-5.75a143.67,143.67,0,0,1,85.49-28c4,0,7.89.15,11.76.47l.41.54c1.75,2.22,3.64,3.64,8.76,5.53s6.34,4.31,5.26,6.33-2.83,2.43-4.85,2.56-3.91-.94-6.07.41-4.31,8.63-7.15,9-7.81-6.47-8.89-8.49,2.42-6.34.77-8.36-4.55-1.62-9.13-2-15.23,1.35-14.83,3.1,15.64-.27,16,3.23-11.19,9.44-13.21,8.9-4.72-4-7.68-4.45-5.4,2-7.26,2.29-4.07-2-6.9-1.48-3.5,3-5,3.91-5,.94-5.39,3.1,4.45,3.37,5.66,4.72-1.48,5.93-.27,6.87,8.77-5.66,10.65-7.28,3.51-8.62,7.55-8.49,5.4,7,6.74,7.69,4.32-1.62,8.77-.68,7.54,10.65,8.35,13.62,2.7,5.93,1.08,7.14-8.9-.8-9.84-2.69,4.86-4.72,4.45-5.39-3.78-1.62-5.53-.57-2.56,3.26-4.45,3.8-6.87-5.12-8.22-3.51,1.35,6.75,2.7,8,6.33,1.88,6.74,3.24-3.37,4.31-8,4-8.35-3.78-10.11-2.29-.81,5.39-2,6.74-7.82.4-11,3.91-4.72,8.76-8,11.72-4.72-.8-9,3.38-5,13.48-5.13,16.71,0,5.8-1.07,5.39-2.57-3.23-3-5,.95-4.72.95-5.8-6.21-6.61-9.85-7.14-6.87,2.42-9.57,4.58-7.55,1.75-9.3,3.5-3.1,17.26-1.75,20.9,3.1,3.64,7.41,1.75,1.89-5.53,4.45-4.72a6,6,0,0,1,3.91,5.67c0,2.16-5.12,7.28-4.45,8.76s5.12-.27,7.28.4,3.24,2,2.56,7.55-.27,9.84,3,11.67,5.05-2.63,6.47-2,3.44,3.85,5.46,3.64,1-2,4.85-3.23,2.43-2,3.24-4.45,3.23-4.45,5.86-3.24.81,3,1,5.06,4.86,2.22,8.5,3.44,5.66,0,12.94,2.42,7.68,9.71,10.72,10.92,13.14-.81,20.42,4.45,5.26,15,8.9,17.8,17.19,6.67,22.45,7.68,6.06-2.63,10.31-1.62,6.67,2.23,8.09,8.09C298.62,262.16,282.82,273,281,277.83Z"></path><path d="M172.34,174.43c.13,1.14,3.5,1.62,7.55,3.91s5.52,9,7.68,8.9,1.49-3.24,2.29-4.05,2.16-2.56,0-4.31-4.25-5.53-8.19-6.07-4.61-2.16-6.37-2A3,3,0,0,0,172.34,174.43Z"></path><path d="M194.58,185.75c-.6,1.66,0,2.83,4.32,3.91s8.35-1.08,7-1.95-3.37-.47-2.56-2,.53-3.64-3-3.23S195.12,184.27,194.58,185.75Z"></path><path d="M209.68,186.21c-1.47.22-2.29,2.78-.81,4.4s1.49,1.34,3.24,0,4.45-2,3.77-3.37S211.16,186,209.68,186.21Z"></path><path d="M221.41,191.72c.66-2,4,0,5.53,2.12s.81,5.26,0,7.55-1.35,5-3.24,3.91.14-4.31-.13-6.2S220.87,193.37,221.41,191.72Z"></path><path d="M279.51,79.25c-.7,1.69,2.57,2.29,4.45,3.37s3.37,1.75,4.45,0-.4-3.77-1.88-4.18S280.19,77.63,279.51,79.25Z"></path><path d="M305,95c1.25,1.32,3.38,1.08,4.86,3s.94,5.12,2.83,6.07,3.23,0,3.37-1.35-2.7-4.72-2.43-5.39,3.91.94,4.72,3-.81,4.85,1.08,5.39,1.48-1.88,2.29-2.42,2.56-.27,2.43-1.89-2.29-5.12-4.05-6.34S317,92.46,314,91.79s-5.8-.14-7.28,1.08S304.23,94.21,305,95Z"></path><path d="M363.32,120.43a2.39,2.39,0,0,1-.76,1.42c-2.83,2-6.2-5-10.11-6.33s-5.66-6.34-6.47-5.26-.54,2.56-1.76,4.31-3,1.35-3.77,4.72,3.77,9.57,2.7,11.6-2.43,1.34-4.59,1.21-1.75,1.75-4.58.94-.4-4.31-4.85-8.49-5.94-5-5-6.88-.4-4.58,1.62-4.85,3.64,2.7,5,3.51,3.11-1.62,3.24-3.78-4.72-5.12-6.47-6.8-1.89-7.76-1.21-9S329,96,329.53,93c.32-1.74-2.44-4.65-4.77-6.76A145.08,145.08,0,0,1,363.32,120.43Z"></path><path d="M383.46,241.3c.4-4.32-1.76-4.59.4-12.54s-2.29-16.45-3.91-18.2-5.12-1.21-7.95.54-.81,3.1-2.7,3.77-3.77-.4-5.52-.27-3.38,4.59-7.15,4.45-6.2-5.53-9-9.37-8.63-6.27-10.52-11,1.75-12,.94-17.52-4.44-4.32-5.12-7.41.54-1.62,1.48-4.59-1.08-4.58.81-9.71,5.26-7.68,4.45-10-3.37-6.07-3.5-8.76,2.56-2.56,7.68-6.34,6.47-3.5,10.38-2.16a56.3,56.3,0,0,0,8.63,2.43c2.29.4,5.39,6.34,6.34,6.07s1.08-2,1.48-4.59a5.73,5.73,0,0,1,1.68-2.9,144.43,144.43,0,0,1-5.7,161.32C380.38,273.57,383.05,245.61,383.46,241.3Z"></path></g><path d="M361.68,301A144.39,144.39,0,1,1,249.82,65.3q5.94,0,11.77.47c1.07.08,2.15.18,3.21.3A132.3,132.3,0,1,0,361.68,301Z" style="fill:#fff;opacity:0.2"></path><path d="M394.21,209.68a143.65,143.65,0,0,1-27.58,84.88v0a145.05,145.05,0,0,1-51.86,44.09,146,146,0,0,0,45.54-40.79l0,0A145.21,145.21,0,0,0,254.65,67.73c-3.89-.32-7.84-.48-11.82-.48A145.21,145.21,0,0,0,208,71.47a143.89,143.89,0,0,1,41.86-6.17q5.94,0,11.77.47a143.58,143.58,0,0,1,63.17,20.47,145.23,145.23,0,0,1,38.56,34.19,144,144,0,0,1,30.89,89.25Z" style="opacity:0.1"></path></g><g id="freepik--Lines--inject-2"><path d="M362.61,159.18c0-5.88-6.82-10-5.31-16,1-3.73,4.43-6.36,5-10.18.74-4.1-3-6.7-4.57-10.07-2-3.91,0-7.65,2.33-10.8a12,12,0,0,0,2.24-8c-.83-4.73-5.32-8.21-5.27-13.19.47-3.92,3.55-6.77,4.6-10.48a17.92,17.92,0,0,0,.94-5.63,18.15,18.15,0,0,1-.82,5.67c-1,3.68-4,6.67-4.43,10.46,0,4.9,4.54,8.38,5.37,13.11a12.45,12.45,0,0,1-2.24,8.27c-2.22,3-4.16,6.71-2.3,10.36,1.59,3.31,5.35,6.18,4.51,10.31-.64,3.91-4.1,6.49-5.12,10.21-1.47,5.93,5.16,10.14,5,16Z" style="fill:#263238"></path><path d="M313.89,110.23c-.12-5.26-5.13-8.63-5.58-13.94-.22-4,3.15-6.84,4.63-10.25a7.18,7.18,0,0,0-.51-7c-1.33-2.12-3.23-4-3.88-6.51-1.19-4,1.58-7.42,3.4-10.59a15.21,15.21,0,0,0,1.94-7.2,15.3,15.3,0,0,1-1.73,7.32c-1.76,3.23-4.35,6.5-3.19,10.35.66,2.45,2.53,4.26,3.86,6.38a7.87,7.87,0,0,1,1.27,3.64c.35,5.58-5.61,8.69-5.4,13.84s5.29,8.76,5.19,14Z" style="fill:#263238"></path><path d="M306.09,82.89C306,77.63,301,74.26,300.51,69c-.22-4,3.15-6.85,4.63-10.26a7.18,7.18,0,0,0-.51-7c-1.33-2.12-3.22-4-3.88-6.51-1.19-4,1.58-7.42,3.4-10.59a15.2,15.2,0,0,0,1.94-7.19,15.26,15.26,0,0,1-1.73,7.31C302.6,38,300,41.24,301.17,45.09c.66,2.45,2.53,4.26,3.86,6.37a8,8,0,0,1,1.28,3.65c.34,5.57-5.62,8.68-5.41,13.83s5.29,8.76,5.19,14Z" style="fill:#263238"></path><path d="M173.9,207.77c-.12-5.26-5.12-8.63-5.57-13.93-.22-4,3.15-6.84,4.63-10.26a7.16,7.16,0,0,0-.52-7c-1.32-2.13-3.22-4-3.87-6.52-1.2-3.94,1.58-7.42,3.39-10.58a15,15,0,0,0,1.94-7.2,15.25,15.25,0,0,1-1.72,7.31c-1.76,3.24-4.36,6.51-3.2,10.36.66,2.45,2.54,4.26,3.87,6.38a8,8,0,0,1,1.27,3.64c.34,5.57-5.61,8.68-5.41,13.83s5.29,8.76,5.19,14Z" style="fill:#263238"></path><path d="M147.16,112.31c-.1-5.19,4.89-8.91,5.19-14s-5.75-8.26-5.41-13.83a8.06,8.06,0,0,1,1.27-3.64c1.34-2.12,3.21-3.93,3.87-6.38,1.16-3.85-1.43-7.12-3.2-10.36a15.25,15.25,0,0,1-1.72-7.31A15.09,15.09,0,0,0,149.1,64c1.82,3.17,4.59,6.65,3.4,10.59-.66,2.51-2.56,4.39-3.88,6.52-2.31,3.35-.86,7.24,1.36,10.22,1.39,2.07,2.92,4.38,2.75,7-.45,5.3-5.45,8.67-5.57,13.93Z" style="fill:#263238"></path><path d="M372.28,131.55c-.12-5.26-5.13-8.63-5.57-13.93-.23-4,3.15-6.85,4.62-10.26a7.18,7.18,0,0,0-.51-7c-1.33-2.12-3.22-4-3.88-6.51-1.19-4,1.58-7.42,3.4-10.59a15.2,15.2,0,0,0,1.94-7.19,15.15,15.15,0,0,1-1.73,7.31c-1.76,3.24-4.35,6.51-3.19,10.36.66,2.45,2.53,4.25,3.86,6.37a8,8,0,0,1,1.28,3.64c.34,5.58-5.61,8.69-5.41,13.84s5.29,8.76,5.19,14Z" style="fill:#263238"></path><path d="M137.39,165.54c-.13-5.81,6.5-10,5-16-1-3.71-4.48-6.29-5.12-10.2-.84-4.13,2.92-7,4.51-10.31,1.86-3.65-.08-7.35-2.3-10.36a12.47,12.47,0,0,1-2.24-8.28c.83-4.72,5.36-8.2,5.37-13.11-.44-3.79-3.48-6.77-4.43-10.46a18.13,18.13,0,0,1-.82-5.66,18,18,0,0,0,.94,5.63c1.06,3.71,4.13,6.56,4.6,10.48,0,5-4.44,8.46-5.27,13.18a12,12,0,0,0,2.24,8c2.34,3.14,4.31,6.89,2.33,10.8-1.61,3.36-5.31,6-4.57,10.06.61,3.83,4.06,6.45,5,10.19,1.51,6.09-5.3,10.16-5.31,16Z" style="fill:#263238"></path><path d="M127.72,165.44c-.1-5.19,4.89-8.91,5.19-13.95s-5.75-8.26-5.41-13.84a8,8,0,0,1,1.28-3.64c1.33-2.12,3.2-3.93,3.86-6.38,1.16-3.85-1.43-7.12-3.2-10.36a15.23,15.23,0,0,1-1.72-7.31,15.24,15.24,0,0,0,1.94,7.2c1.82,3.17,4.59,6.64,3.4,10.59-.66,2.51-2.55,4.39-3.88,6.51-2.31,3.35-.86,7.25,1.36,10.22,1.39,2.08,2.92,4.39,2.75,7-.44,5.31-5.45,8.68-5.57,13.94Z" style="fill:#263238"></path></g><g id="freepik--Thermometer--inject-2"><path d="M424.84,355.55a31.43,31.43,0,1,1-53-22.79V122.58a21.61,21.61,0,0,1,43.21,0V332.76A31.3,31.3,0,0,1,424.84,355.55Z" style="fill:#fff"></path><path d="M424.84,355.55c.15,16-12.71,30.11-28.65,31.35-15.92,1.59-31.21-10-33.83-25.83a31.51,31.51,0,0,1,4.37-22.44,28.61,28.61,0,0,1,4.89-5.87c-.07-48.9-.25-150.46-.3-198.32V123a22.19,22.19,0,0,1,7.78-17.16c13-11.1,33.38-3.6,36,13.3.76,55.14-.23,157.44,0,213.62a31.43,31.43,0,0,1,9.78,22.79Zm0,0A31.49,31.49,0,0,0,415,332.76c-.09-52.79-.24-154.15-.32-205.95a51,51,0,0,0-.3-7.55,21.16,21.16,0,0,0-41.79,0c-.57,4.08-.15,10.9-.26,15.17-.12,47.45-.11,150-.36,198.46a31.2,31.2,0,0,0-9.3,28.12c2.54,15.69,17.72,27.28,33.52,25.73,15.92-1.2,28.77-15.26,28.67-31.2Z" style="fill:#263238"></path><path d="M399.57,348.55h-12.3V125.19a6.15,6.15,0,0,1,6.15-6.15h0a6.15,6.15,0,0,1,6.15,6.15Z" style="fill:#ebebeb"></path><path d="M387.27,348.55V182c0-4.17,2.75-7.55,6.15-7.55h0c3.39,0,6.15,3.38,6.15,7.55V348.55" style="fill:#FFC727"></path><circle cx="393.42" cy="355.54" r="14.07" transform="translate(-46.77 651.21) rotate(-75.99)" style="fill:#FFC727"></circle><rect x="408.53" y="143.97" width="15.43" height="1.42" style="fill:#263238"></rect><rect x="408.53" y="159.58" width="15.43" height="1.42" style="fill:#263238"></rect><rect x="408.53" y="175.19" width="15.43" height="1.42" style="fill:#263238"></rect><rect x="408.53" y="190.8" width="15.43" height="1.42" style="fill:#263238"></rect><rect x="408.53" y="206.41" width="15.43" height="1.42" style="fill:#263238"></rect><rect x="408.53" y="222.02" width="15.43" height="1.42" style="fill:#263238"></rect><rect x="408.53" y="237.63" width="15.43" height="1.42" style="fill:#263238"></rect><rect x="408.53" y="253.24" width="15.43" height="1.42" style="fill:#263238"></rect><rect x="408.53" y="268.85" width="15.43" height="1.42" style="fill:#263238"></rect><rect x="408.53" y="284.46" width="15.43" height="1.42" style="fill:#263238"></rect><rect x="408.53" y="300.07" width="15.43" height="1.42" style="fill:#263238"></rect><rect x="408.53" y="315.68" width="15.43" height="1.42" style="fill:#263238"></rect><path d="M383.11,359.23a1,1,0,0,1-1-.83c-.82-4.85.61-8.85,4.14-11.58a1,1,0,0,1,1.22,1.58c-2.9,2.25-4.08,5.59-3.39,9.67a1,1,0,0,1-.82,1.15Z" style="fill:#fff"></path></g><g id="freepik--character-2--inject-2"><path d="M338.14,180.05s5.25,45.15,4.7,49.42-6.94,45.59-6.94,45.59-11.78-2.87-15.14-5c-2.42-1.53-10.92-9.27-10.92-9.27s15.59-28.52,16.94-34.35,3-34.26,4.51-40a11.64,11.64,0,0,1,7-7.5" style="fill:#37474f"></path><path d="M387.84,391.22S407,427.38,407,427.41c3.05,7.27,5.58,13.69,6.58,17.14a.14.14,0,0,1,0,.06,5.37,5.37,0,0,1,.4,2.47s0,.05,0,.06c-1.55,2.37-58.94,28.38-61.25,28.61s-3.15-6.32-1.73-9.11,19-22.57,19-22.57l-18.81-36.3Z" style="fill: rgb(119, 68, 66);"></path><path d="M353.67,475.57c2.31-.24,58.79-26.06,60.34-28.42a.25.25,0,0,0,0-.07,5.53,5.53,0,0,0-.4-2.47s0,0,0-.05c-1-3.45-3.54-9.88-6.57-17.16,0,0-3.23-6.31-4.52-8.51L366,436.54l4,7.53s-16.6,19.6-18,22.38S351.36,475.81,353.67,475.57Z" style="fill:#ebebeb"></path><path d="M352.66,474.77c2.32-.29,59.55-27.84,61.06-30.28.59-.91-2.94-9.48-7.5-19.72l-.15-.32L369,441.82l.32.62s-17.19,20.34-18.57,23.19S350.34,475.07,352.66,474.77Z" style="fill:#FFC727"></path><path d="M352.24,472.24c9.53-4.88,48.44-23.67,58.23-27.77.08,0,.11,0,0,.06-9.34,5-48.4,23.52-58.19,27.87C352.11,472.49,352,472.34,352.24,472.24Z" style="fill:#fff"></path><path d="M366.22,444c3.46-2.54,8.38-4.19,12.58-2.88.17,0,.09.28-.05.3a59.16,59.16,0,0,0-12.28,3.05A.27.27,0,0,1,366.22,444Z" style="fill:#263238"></path><path d="M364.28,447c3.45-2.54,8.37-4.19,12.58-2.88.16.05.09.28-.06.3a59.32,59.32,0,0,0-12.28,3.05A.27.27,0,0,1,364.28,447Z" style="fill:#263238"></path><path d="M362.33,450c3.46-2.54,8.38-4.19,12.58-2.88.17,0,.09.28-.05.3a59.16,59.16,0,0,0-12.28,3.05A.27.27,0,0,1,362.33,450Z" style="fill:#263238"></path><path d="M399.71,435.41c3.15-4.07,9.48.82,6.33,4.89S396.55,439.49,399.71,435.41Z" style="fill:#fff"></path><path d="M366.7,445.49,362,470.72a100.53,100.53,0,0,1-9.3,4c-2.32.3-3.32-6.3-2-9.14C351.75,463.47,361.86,451.27,366.7,445.49Z" style="opacity:0.1"></path><path d="M350.8,473.14c-.84.89,1,4.22,1.91,4.14s63.14-30.4,64.08-31.15-1.27-4.36-2.6-4S350.8,473.14,350.8,473.14Z" style="fill:#263238"></path><path d="M402.69,415.56l-41.18,20.58s-49.27-74.4-49.78-93.61c-.7-26.54,24.2-110,24.2-110l36.09.73s-17,86.11-16.21,100.91C356.23,341.85,402.69,415.56,402.69,415.56Z" style="fill:#263238"></path><path d="M358.2,427.66c2.13-1.45,21.67-12.08,36.51-18.81a.09.09,0,0,1,.08.15c-4.53,2.82-33.67,17.78-36.49,18.82C358.21,427.85,358.1,427.73,358.2,427.66Z" style="fill:#37474f"></path><path d="M351.3,315.5c2-12.62,4.2-25.21,6.64-37.75s5-25.18,8-37.66c.37-1.52.75-3,1.12-4.56a.19.19,0,0,1,.37.08c-2.56,12.39-5.18,24.77-7.57,37.2s-4.62,24.89-6.68,37.38q-.75,4.63-1.49,9.28a84.29,84.29,0,0,0-1.18,9.64,24.69,24.69,0,0,0,1.31,9.1,52,52,0,0,0,3.93,8.26c6.23,11.22,34.17,60.28,34.89,61.7.05.09-.08.18-.14.09-6.72-11.08-27.55-46.44-33.87-57.84-2.85-5.14-6.13-10.36-6.95-16.3C348.85,328,350.33,321.57,351.3,315.5Z" style="fill:#37474f"></path><path d="M359,414.39s-.7,41.18-.71,41.21c-.42,7.87-.94,14.76-1.54,18.3a.13.13,0,0,1,0,.06,5.38,5.38,0,0,1-.72,2.39l-.05,0c-2.42,1.46-65.41-.14-67.59-.94s-.08-7.06,2.41-8.95,26.9-12.06,26.9-12.06l1.09-41.14Z" style="fill: rgb(119, 68, 66);"></path><path d="M358.48,447.14s-.14,8.43-.15,8.46c-.42,7.87-.94,14.76-1.54,18.3a.13.13,0,0,1,0,.06,10.15,10.15,0,0,1-.72,2.39l-.05,0c-2.42,1.46-65.41-.14-67.59-.94s-.08-7.06,2.41-8.95,26.9-12.06,26.9-12.06l.23-8.58Z" style="fill:#ebebeb"></path><path d="M288.39,475.38c2.21.77,65.72,1.37,68.16-.15.93-.56,1.56-9.81,2-21,0-.12,0-.24,0-.36l-41-.84v.7s-24.41,10.64-26.91,12.59S286.18,474.62,288.39,475.38Z" style="fill:#FFC727"></path><path d="M289.14,472.93c10.7-.17,53.91.19,64.51.84.08,0,.08.07,0,.07-10.61.39-53.82-.31-64.52-.74C288.91,473.09,288.91,472.93,289.14,472.93Z" style="fill:#fff"></path><path d="M314.15,453.82c4.22-.75,9.36-.05,12.56,3,.12.12,0,.29-.19.25a59.15,59.15,0,0,0-12.36-2.7A.27.27,0,0,1,314.15,453.82Z" style="fill:#263238"></path><path d="M311.09,455.62c4.22-.74,9.37-.05,12.56,3,.12.12,0,.3-.18.25a58.73,58.73,0,0,0-12.37-2.69A.27.27,0,0,1,311.09,455.62Z" style="fill:#263238"></path><path d="M308,457.43c4.22-.75,9.37-.05,12.56,3,.12.12,0,.29-.18.25A59.38,59.38,0,0,0,308,458,.27.27,0,0,1,308,457.43Z" style="fill:#263238"></path><path d="M287.45,473.1c-1.15.42-.94,4.24-.12,4.56s70.07.65,71.25.4.79-4.48-.58-4.71S287.45,473.1,287.45,473.1Z" style="fill:#263238"></path><path d="M348,460.89c4.62-2.26,8.14,4.93,3.51,7.19S343.37,463.15,348,460.89Z" style="fill:#fff"></path><path d="M336.38,232.41l0,0c.22.75,12.23,36.64,13.43,37.24,1.37.67-30,50.31-32.43,73.7-1.54,15-1.6,99.85-1.6,99.85l43.9,1.18s-.05-76.32-.4-100.51c-.14-9.38,31.66-55.21,32.81-84.25.37-9.16-5.76-26.06-5.76-26.06Z" style="fill:#263238"></path><path d="M359.06,343.25c0-.39.32-.5.34-.11.64,13.11.52,26.12.79,39.24s-.17,16.21.07,29.29c.13,7.4-.39,14.8-.42,22.21a.09.09,0,0,1-.18,0C358.65,420.81,358.87,350.65,359.06,343.25Z" style="fill:#37474f"></path><path d="M317.38,343.91a64.64,64.64,0,0,1,1.15-9.61,47.73,47.73,0,0,1,3-9c2.6-6.06,5.63-11.94,8.53-17.85s5.93-11.94,9-17.85q2.61-5,5.24-9.94c1.78-3.35,3.69-6.64,5.54-9.94a.12.12,0,0,1,.21.11c-3,6-5.92,11.95-8.89,17.91s-5.91,12-8.83,18-5.77,11.79-8.5,17.76a60.33,60.33,0,0,0-3.37,8.79,52,52,0,0,0-1.54,9.53c-.63,7.49-1,15-2,22.47,0,.09-.16.08-.16,0C316.7,357.49,317,350.67,317.38,343.91Z" style="fill:#37474f"></path><path d="M319.21,434.64c2.56-.26,22-.41,38.29.73.11,0,.1.16,0,.16-5.32.33-35.29-.27-38.26-.7C319.13,434.82,319.09,434.66,319.21,434.64Z" style="fill:#37474f"></path><path d="M343.82,267.55a85.15,85.15,0,0,1,13.6,5.13.15.15,0,0,1-.11.28c-4.56-1.57-9.22-3-13.69-4.86A.29.29,0,0,1,343.82,267.55Z" style="fill:#37474f"></path><path d="M340.2,237.33c0-.15.27-.2.28,0A148.44,148.44,0,0,0,342.33,252c.38,2.27,3.16,14.73,7.05,13.52.65-.21.94-.89,1-1.89a16.08,16.08,0,0,0-.82-3.83c-.64-2.6-1.19-5.22-1.62-7.87A73.07,73.07,0,0,1,347,237a.13.13,0,0,1,.26,0A137.43,137.43,0,0,0,350,257.52c.74,3.24,2.77,8.05-.62,8.81s-6.34-7.32-6.93-9.55A75.38,75.38,0,0,1,340.2,237.33Z" style="fill:#37474f"></path><path d="M349.3,265.88a23,23,0,0,1,1.09,2.55,6,6,0,0,1,.53,2.12c0,.14-.19.16-.27.08a7.71,7.71,0,0,1-1.08-2c-.36-.79-.74-1.57-1.08-2.36A.45.45,0,0,1,349.3,265.88Z" style="fill:#37474f"></path><path d="M354.22,356c-.06-6.25-.57-12.81,1.64-18.78a62.18,62.18,0,0,1,4.23-8.44q2.4-4.33,4.72-8.73c6.19-11.69,12-23.57,17.31-35.71A76.57,76.57,0,0,0,388,266.21a56.7,56.7,0,0,0-.69-19.95c-.33-1.64-.68-3.27-1.08-4.88,0-.12.15-.18.18-.07a65.46,65.46,0,0,1,2.91,19.14,53.69,53.69,0,0,1-3.79,18.12c-2.27,6.07-5.07,12-7.82,17.82q-4.28,9.06-8.84,18c-3,5.91-6.25,11.72-9.45,17.54a32.21,32.21,0,0,0-3.61,8.88,46.12,46.12,0,0,0-.62,9.82c.14,13.82.09,59.81-.1,73.59,0,1.75-.06,3.5-.08,5.25,0,.15-.24.17-.25,0C354.23,415.7,354.34,369.81,354.22,356Z" style="fill:#37474f"></path><path d="M367.15,242.19c0-.1.15-.07.16,0,.42,3.81.61,7.76,2.35,11.26,1.6,3.21,4.48,5.32,7.64,6.84a58.1,58.1,0,0,0,5.64,2.25c.14.05.1.27-.05.23-3.61-.85-7.28-1.79-10.38-3.92-3.32-2.27-5-5.82-5.41-9.74A32.86,32.86,0,0,1,367.15,242.19Z" style="fill:#37474f"></path><path d="M340.47,186.57c-1.06,13.06-6.74,40.64-12.67,49.69-2.56,3.89-17,13.2-27,17.38-3.76,1.56-14.53-19.72-10.65-21.86,2.64-1.45,19.18-10.87,20.83-12.58,3-3.16,15.49-27.75,22.12-37.79C336.8,175.8,341.13,178.44,340.47,186.57Z" style="fill: rgb(119, 68, 66);"></path><path d="M304.74,251.28a73.42,73.42,0,0,1-8.16,6.35c-2.31,1.4-9.09,5.24-10.89,2.84-1.22-1.63,2.5-4.36,5.09-6.35,1.37-1.05,2.83-3.16,2.11-4-1.25-1.52-4.73,1.27-6.93,3.47-4.24,4.25-9.77,13.48-13.51,11.75-1.42-.65-.31-5,1.21-7.21-2.67,2.86-4.33,6.09-6.94,5.71-1-.14-1.46-2.13-1.28-3.16a2.31,2.31,0,0,1-2.57.28c-1.33-.81-1.25-2.55-.55-4.5a1.29,1.29,0,0,1-1.11-.37c-3.09-2.77,5.36-15.33,8.93-17.24a99.33,99.33,0,0,1,22.43-8.29C297.9,232.88,304.75,251.27,304.74,251.28Z" style="fill: rgb(119, 68, 66);"></path><path d="M285.52,245.35a19.67,19.67,0,0,0-6.71,4.86c-2.34,2.63-3.64,5.33-5.43,8.17-.05.08.07.15.11.08.86-1.35,4.51-6.56,5.49-7.78a18.84,18.84,0,0,1,6.56-5.29S285.55,245.34,285.52,245.35Z" style="fill:#263238"></path><path d="M282.17,241.15a46.83,46.83,0,0,0-7.89,5.32c-2.59,2.32-4.27,5.43-5.93,8.44-1,1.8-2,3.62-2.88,5.47,0,.08.07.16.11.08,1.68-3.09,3.45-6.14,5.31-9.12a25,25,0,0,1,6.6-7.11c1.52-1.09,3.11-2.06,4.7-3C282.22,241.18,282.2,241.13,282.17,241.15Z" style="fill:#263238"></path><path d="M277.92,237.83c-2.71,1.35-5.07,2.51-7.19,4.72a41.81,41.81,0,0,0-6,8.72c-.9,1.67-1.74,3.37-2.55,5.09,0,.07.08.13.12.06a98,98,0,0,1,6.43-11,19.71,19.71,0,0,1,4-4.47,35.33,35.33,0,0,1,5.13-3.13S277.93,237.82,277.92,237.83Z" style="fill:#263238"></path><path d="M311,218.26l19.58,14.83s9.88-28.66,10.2-44.69c.24-12.52-3.91-13.62-9.65-4.74S311,218.26,311,218.26Z" style="fill:#455a64"></path><polygon points="308.34 218.76 330.01 235.89 330.05 234.77 331.87 234.63 331.9 233.78 333.32 231.9 311.07 215.53 311.03 216.71 309.47 217.13 309.56 218.21 308.34 218.76" style="fill:#37474f"></polygon><path d="M388.5,236.6c-.09.17-58.27,14.35-58.91,13.91,0,0-2.41-1.39-2.81-5.87-.1-1.23,1.68-6.47,1.83-10.37.5-13.68.65-39.1,4.74-52.65,1.1-3.64,9.11-7.63,13.37-4.84C365.92,189.31,388.61,236.37,388.5,236.6Z" style="fill:#ebebeb"></path><path d="M337.26,189.7c3.28-.69,6.26-9.19,6.54-13.79,0-.31-1.16-1.86-3-4.95-1.1-1.87-2.29-4-3.24-6l-11.16,9a35.27,35.27,0,0,1,4.84,7.14,5.29,5.29,0,0,1,.3.87s0,.09,0,.14C332.07,183.79,334.08,190.36,337.26,189.7Z" style="fill: rgb(119, 68, 66);"></path><path d="M332.94,183.94c-.22.12-.45.21-.66.31-.33-.91-.57-1.7-.7-2.15a.47.47,0,0,0,0-.14,4.74,4.74,0,0,0-.3-.87A35.27,35.27,0,0,0,326.4,174l11.17-9c.2.42.4.84.62,1.27C339.33,170.82,340.53,180.17,332.94,183.94Z" style="fill:#263238"></path><path d="M334.7,152.15c3.07,4.15,5.38,18.46,3.14,22.64-3.26,6.05-11,9.25-16.71,4.79-5.56-4.32-8.25-23-5.52-27.07C319.63,146.57,330.16,146,334.7,152.15Z" style="fill: rgb(119, 68, 66);"></path><path d="M324.47,165.41s.08,0,.09.07c.18,1,.56,2,1.49,2.15,0,0,0,.05,0,.05C325,167.77,324.49,166.35,324.47,165.41Z" style="fill:#263238"></path><path d="M325.09,164.22c1.51-.46,2.32,2.59.93,3S323.83,164.61,325.09,164.22Z" style="fill:#263238"></path><path d="M319,166.7s-.06.06-.05.1c.29.93.45,2-.32,2.6,0,0,0,.06,0,0C319.7,169,319.46,167.54,319,166.7Z" style="fill:#263238"></path><path d="M317.94,165.94c-1.55.29-.86,3.36.58,3.09S319.24,165.69,317.94,165.94Z" style="fill:#263238"></path><path d="M325.81,161.93a11.21,11.21,0,0,1-1.3-.06,2.1,2.1,0,0,1-1.3-.31.68.68,0,0,1-.13-.81,1.67,1.67,0,0,1,1.55-.64,2.42,2.42,0,0,1,1.64.61A.71.71,0,0,1,325.81,161.93Z" style="fill:#263238"></path><path d="M316.08,163.9c.41-.19.75-.42,1.13-.64a2.08,2.08,0,0,0,1-.87.66.66,0,0,0-.24-.78,1.65,1.65,0,0,0-1.67.13,2.42,2.42,0,0,0-1.2,1.28A.71.71,0,0,0,316.08,163.9Z" style="fill:#263238"></path><path d="M328,173.48c-.17.28-.31.65-.65.77a2.61,2.61,0,0,1-1.08,0,0,0,0,0,0,0,.06,1.31,1.31,0,0,0,1.33.19,1,1,0,0,0,.52-1C328.05,173.44,328,173.44,328,173.48Z" style="fill:#263238"></path><path d="M326.2,170.92a3.32,3.32,0,0,1-1.76,2,3.88,3.88,0,0,1-1.14.36,1,1,0,0,1-.23,0l-.22,0a.23.23,0,0,1-.24-.16h0a.29.29,0,0,1,0-.09h0l0-.08c-.22-.73-.44-1.85-.44-1.85-.23.2-1.42,1.18-1.5.79a49.82,49.82,0,0,1-1.36-10.06.09.09,0,0,1,.18,0c.75,3,1,6.2,1.66,9.27a5.94,5.94,0,0,1,1.4-.87c.11,0,.39,2.18.51,2.5l0,0a4.61,4.61,0,0,0,3-1.92C326.15,170.79,326.24,170.83,326.2,170.92Z" style="fill:#263238"></path><path d="M314.7,161.73a11.85,11.85,0,0,1,1.12-6.67c.81-1.34,1.31,1.72,3.57,1.86s3-4,4.81-5.21,5.37.39,6.63,3.77c1.05,2.82,1.55,5.8,2.59,7.74s5.46,3.27,5.46,3.27-.53-13-6.64-17.28-15.38-1-17.06,2.83S314.7,161.73,314.7,161.73Z" style="fill:#263238"></path><path d="M334.32,164.58s1.61-5.4,4-5,2.15,7.55.11,9.19a2.5,2.5,0,0,1-3.6-.22Z" style="fill: rgb(119, 68, 66);"></path><path d="M338.17,161.65s.06,0,0,.06a6.33,6.33,0,0,0-1.85,4.78,1.38,1.38,0,0,1,1.84-1,.05.05,0,0,1,0,.1,1.55,1.55,0,0,0-1.44,1,7.92,7.92,0,0,0-.34,1.55c0,.17-.31.18-.31,0v0C335.35,166.06,336,162.6,338.17,161.65Z" style="fill:#263238"></path><path d="M266.32,238.08a51,51,0,0,1,13.6-1.55c4.08.2,13.28,2,16.08,2.5s6.52-.08,6.29,1.12-13.4,5.2-19.11,4.37S266.32,238.08,266.32,238.08Z" style="fill:#37474f"></path><path d="M285.23,212.09c0-1.92-.07-3.83-.1-5.75,0-6.36-.11-12.72-.26-19.08q-.18-7.57-.46-15.15s0-.05-.06-.07l0-4.13s-.05-.06-.11-.06-.11,0-.11.06l0,4.14s-.05,0-.05.06c-.33,9-.63,18-.7,27,0,1.83,0,3.65,0,5.48q-.12,8.79-.08,17.59c0,.93,0,1.86,0,2.79,0,5.37.07,32.2.07,37.56,0,.29.42.43.87.45s1.05-.14,1.05-.47c0-5.92.05-33.3.05-39.21C285.25,219.54,285.27,215.81,285.23,212.09Z" style="fill:#263238"></path><path d="M275.75,177.49s-10.91-8.08-21.26-2.62-12,26.52-12,26.52,15.2,2.17,24.78-6.94C276.52,185.67,275.75,177.49,275.75,177.49Z" style="fill:#FFC727"></path><path d="M275.75,177.49s-10.91-8.08-21.26-2.62-12,26.52-12,26.52,15.2,2.17,24.78-6.94C276.52,185.67,275.75,177.49,275.75,177.49Z" style="opacity:0.2"></path><path d="M278.73,178a13.05,13.05,0,0,0-6.32-.82,8.68,8.68,0,0,0-1.34-.13l-1.54-.12-3.18-.22c-2.15-.17-4.31-.3-6.46-.51-.07,0-.09.12,0,.13,2.12.28,4.24.58,6.37.79,1.1.11,2.2.23,3.3.31.25,0,.52,0,.79.07-.32.08-.65.15-1,.24a26.21,26.21,0,0,0-4.95,2c-.86.16-1.71.4-2.56.6-1.35.31-2.69.66-4,1-2.65.7-5.27,1.48-7.9,2.24a.07.07,0,0,0,0,.14c2.62-.65,5.27-1.24,7.9-1.86l3.84-.92c.33-.09.66-.16,1-.24a32,32,0,0,0-7.76,6.75,42.12,42.12,0,0,0-5.39,8.5.07.07,0,0,0,.12.07,41.16,41.16,0,0,1,6.52-8.56l-.14.44c-.2.64-.4,1.28-.61,1.92-.4,1.29-.81,2.57-1.19,3.86,0,.09.1.12.13,0,.46-1.25.9-2.5,1.34-3.75.21-.62.43-1.23.64-1.85.12-.31.22-.63.33-.95l.11-.3a37.79,37.79,0,0,1,3.87-3.29,28.67,28.67,0,0,1,5.79-3.32c0,.18-.07.37-.11.55-.11.5-.22,1-.32,1.5-.22,1-.42,2.07-.62,3.1-.41,2.11-.66,4.25-1.06,6.36,0,.09.11.12.13,0,.49-2.13,1.12-4.22,1.6-6.35.23-1.06.47-2.12.7-3.19l.3-1.5a8,8,0,0,0,.15-.83l.59-.25c2.87-1.06,6-1.83,9.08-1.24a8.93,8.93,0,0,1,6.57,5.26c.1.24.47.09.42-.15A8.43,8.43,0,0,0,278.73,178Z" style="fill:#263238"></path><path d="M262,187l-.93,4.15a30.91,30.91,0,0,0-.76,4c0,.05.08.05.09,0a30.66,30.66,0,0,0,.93-4.06c.27-1.36.53-2.73.8-4.09C262.18,186.93,262,186.9,262,187Z" style="fill:#263238"></path><path d="M251.47,190.5c-1.39.7-2.73,1.5-4.19,2.08a.07.07,0,1,0,.06.13,45.66,45.66,0,0,0,4.17-2.16S251.51,190.48,251.47,190.5Z" style="fill:#263238"></path><path d="M284.36,165.24s12.55-4.58,14.69-15.13-4.18-21.48-4.18-21.48-12.14,7.19-14.69,15.21S284.36,165.24,284.36,165.24Z" style="fill:#FFC727"></path><path d="M284.36,165.24s12.55-4.58,14.69-15.13-4.18-21.48-4.18-21.48-12.14,7.19-14.69,15.21S284.36,165.24,284.36,165.24Z" style="opacity:0.2"></path><path d="M283.92,179.81c-.15-1.5-.19-3-.26-4.51s-.1-2.89-.09-4.33a83.43,83.43,0,0,1,.5-8.8c.21-1.86.5-3.71.83-5.55-.08-.22-.13-.46-.19-.69l-.33-1.21c-.22-.82-.42-1.65-.63-2.48-.46-1.81-.85-3.64-1.33-5.44,0-.09.11-.14.13-.06.49,1.78,1.06,3.53,1.56,5.3.24.87.5,1.73.73,2.61.09.31.17.63.25.94a95.45,95.45,0,0,1,2.6-10.48c.14-.47.3-.93.45-1.39,0-.11,0-.22,0-.33,0-.27,0-.55,0-.82,0-.56-.07-1.12-.11-1.69-.08-1.1-.2-2.2-.37-3.3,0-.09.12-.1.14,0,.19,1.11.37,2.23.51,3.35.07.54.12,1.08.16,1.62,0,.09,0,.18,0,.28.81-2.39,1.72-4.75,2.65-7.09,0-.08.16,0,.13.06a95.29,95.29,0,0,0-4,14.39,9.65,9.65,0,0,1,.81-.62c.86-.6,1.75-1.15,2.64-1.69,1.88-1.12,3.75-2.25,5.6-3.43.07-.05.16.06.08.11-1.73,1.21-3.41,2.45-5.1,3.71-.8.6-1.61,1.16-2.43,1.73a17.48,17.48,0,0,0-1.87,1.55c-.08.37-.16.74-.23,1.11-.32,1.7-.6,3.4-.85,5.11L287,157c.86-.59,1.73-1.18,2.61-1.75,1.73-1.13,3.45-2.27,5.11-3.5.07-.05.15.06.08.11-1.67,1.26-3.3,2.59-4.93,3.89-.79.63-1.6,1.25-2.41,1.84l-1.23.89a3.47,3.47,0,0,1-.51.34c-.51,3.67-.89,7.37-1.11,11.07-.1,1.63-.16,3.26-.2,4.89s0,3.33,0,5C284.46,180.08,284,180.16,283.92,179.81Z" style="fill:#263238"></path><path d="M284.09,146.26c-.28-1.27-.54-2.54-.79-3.81,0-.09.11-.1.13,0,.27,1.25.56,2.49.85,3.73a36.47,36.47,0,0,1,.82,3.73s0,0,0,0A27.13,27.13,0,0,1,284.09,146.26Z" style="fill:#263238"></path><path d="M291.06,142.79c.45-.53.94-1,1.43-1.51.26-.26.52-.51.77-.77l.39-.4a2.17,2.17,0,0,0,.41-.45c.07-.11.2,0,.11.08a2.63,2.63,0,0,0-.43.45l-.37.41-.71.78a19.31,19.31,0,0,1-1.49,1.51C291.1,142.94,291,142.85,291.06,142.79Z" style="fill:#263238"></path><path d="M290.25,201.05s2.16,15,13.4,20.19,25,0,25,0S323.21,188.88,290.25,201.05Z" style="fill:#FFC727"></path><path d="M290.25,201.05s2.16,15,13.4,20.19,25,0,25,0S323.21,188.88,290.25,201.05Z" style="opacity:0.2"></path><path d="M320.86,211.51c-1-.12-2.07-.3-3.1-.48l-1.51-.29-.79-.16c-.3-.28-.6-.57-.91-.84a45.52,45.52,0,0,0-6.88-5,39,39,0,0,0-4.12-2.11h.21l3.7.16c2.47.11,4.94.17,7.41.32.09,0,.08-.13,0-.13-2.47-.17-4.94-.44-7.41-.66l-3.59-.32-1.86-.16-.47-.05c-.64-.24-1.29-.46-1.94-.67a17.57,17.57,0,0,0-9.53-.52c-2.83.72-5.65,2.58-6.38,5.56a.1.1,0,0,0,.18.07c1.05-2.49,3.82-3.75,6.31-4.27a15.32,15.32,0,0,1,5.1-.1,12.17,12.17,0,0,0,.57,2.27c.31,1,.61,2.1.93,3.15.64,2.1,1.34,4.18,2,6.29a.07.07,0,0,0,.14,0c-.53-2.1-1-4.22-1.47-6.32-.25-1-.51-2.07-.77-3.1a17.51,17.51,0,0,0-.56-2.12,26.36,26.36,0,0,1,2.92.69,41.41,41.41,0,0,1,5.09,1.86c.17,1.07.4,2.13.65,3.18.31,1.32.65,2.62,1.07,3.91a.06.06,0,1,0,.12,0l-.05-.25h0c-.25-1.22-.52-2.44-.78-3.66-.21-1-.4-2-.61-3,1.39.63,2.77,1.31,4.1,2.07,0,.31.1.62.14.9.08.51.18,1,.27,1.53.21,1.16.44,2.31.72,3.45a54.47,54.47,0,0,0,1.93,6.5.1.1,0,0,0,0,.09l.07.07c.05.06.13,0,.11-.07-.52-2.22-1.11-4.41-1.6-6.64-.24-1.11-.49-2.22-.71-3.33-.11-.56-.21-1.12-.32-1.68,0-.15-.05-.32-.08-.5a47.16,47.16,0,0,1,11.08,9c.08.09.24,0,.17-.13a42,42,0,0,0-2.68-3.27c-.57-.61-1.15-1.19-1.75-1.77l.18,0c.53.09,1.06.16,1.59.23,1,.14,2.08.24,3.12.36C320.91,211.65,321,211.52,320.86,211.51Z" style="fill:#263238"></path><path d="M313,216.58h0c0-.13,0-.26-.06-.39s-.11-.32-.14-.49h0c-.23-1-.43-2-.61-3,0-.07-.12-.05-.12,0a12.18,12.18,0,0,0,.86,3.9,0,0,0,0,0,.08,0Z" style="fill:#263238"></path><path d="M303.54,216.34s0-.06-.07-.06c-.31-1.33-.61-2.65-.89-4-.14-.7-.29-1.4-.42-2.1l-.21-1.14a3.63,3.63,0,0,0-.24-1,.07.07,0,0,0-.13,0,6.92,6.92,0,0,0,.28,2c.14.73.28,1.46.44,2.18.33,1.48.7,3,1.11,4.4,0,.08.16.06.15,0S303.55,216.45,303.54,216.34Z" style="fill:#263238"></path><path d="M319.83,207.2c-2.05-.28-4.1-.58-6.16-.83-.09,0-.13.12,0,.14,2.05.3,4.11.56,6.17.83C319.89,207.35,319.92,207.21,319.83,207.2Z" style="fill:#263238"></path><path d="M266.32,238.08c-1.28.39-2.46,5.4-1.63,8s-4,10.69-4.94,14-.27,4.26,0,4.88-2.4,1.77-2.05,2.39,3.17.93,4.46.73,8.08,3,14.78,3.84c11.11,1.35,23.08-2,25.36-2.87.75-.28,3.42.58,4.45.17s-.06-2.26-.17-2.88.72-2.52.85-6.57-7-12.77-6.71-14.12,1.67-4.82,1.57-5.51-11.53,3.33-19.11,2.81S268.36,237.46,266.32,238.08Z" style="fill:#455a64"></path><path d="M351.17,182.4c5.66,9.73,7.61,51.26,6.8,55.19-2.55,12.31-32.46,26-43.83,28.84-3.19.81-5.09-25.66-1.7-26.61,6.63-1.85,22.91-8.82,24.17-11.16s4.57-30.74,5.79-42.54C343.42,176.16,348.31,177.48,351.17,182.4Z" style="fill: rgb(119, 68, 66);"></path><path d="M297.25,248.23c1.32-1.07.77-1.77-2.25-1.72s-14.91,2.79-15.51-1.45,16.23-7.85,21.26-7.54,13.05,2.57,13.05,2.57C310.66,241.45,303.37,245.48,297.25,248.23Z" style="fill: rgb(119, 68, 66);"></path><path d="M320.24,264.2c-9,3.51-18.93,8.37-29.67,6.66a5.43,5.43,0,0,1-3.15-1.59c-4.82-.69-5.95-3.17-5.95-3.17-4.3-2-5.1-4.71-5.1-4.71s-5.65-.87-5.7-4.37c-.06-3.94,7.9-1.95,12.94-3.53,11.55-3.63,27-12,30.19-13.4Z" style="fill: rgb(119, 68, 66);"></path><path d="M298.39,258.19a79.25,79.25,0,0,1-10.3,2.61,77.75,77.75,0,0,1-11.62.49.1.1,0,0,0,0,.19,41.16,41.16,0,0,0,22-3.13c.15-.07.12-.21-.05-.16" style="fill:#263238"></path><path d="M301.59,264.85c-3.38.79-9.33,2.13-20.11,1.13,0,0-.05.06,0,.07a37,37,0,0,0,20.16-1C301.84,264.94,301.82,264.79,301.59,264.85Z" style="fill:#263238"></path><path d="M303.25,268.46c-5.81,1.12-9.61,1.09-15.8.78a0,0,0,0,0,0,.07c7,1.09,9.67.69,15.87-.66C303.53,268.6,303.47,268.41,303.25,268.46Z" style="fill:#263238"></path><path d="M328,233.28a166.36,166.36,0,0,1-15.67,6.77c-4.24-1-8.57-2.26-12.93-2.21a79.09,79.09,0,0,0-7.8,1.39,38.06,38.06,0,0,0-9.91,3.38,4.64,4.64,0,0,0-1.76,1.63c-.71,1.76,1.75,2.29,3.08,2.44,4.84.66,9.8-.82,14.64,0,3.45,1.45-11.22,6.33-12.38,6.69a15.55,15.55,0,0,1-5.26.93c-2.33.13-9.24-.46-9.38,2.75.05-3.24,7.06-2.85,9.38-3,3.52-.06,6.83-1.65,10.09-2.86,2.49-1.1,5.46-2.19,7.47-3.84a.12.12,0,0,0,0,.09l0,0a3,3,0,0,0-1.37-.28c-3.48,0-7,.49-10.6.47a11.93,11.93,0,0,1-5.37-.88c-5.3-4.28,8.49-7.52,11.21-8.08a77.71,77.71,0,0,1,7.88-1.37c4.26-.06,9.47,1.41,13,2.41,4.5-1.77,11.38-4.22,15.69-6.32Z" style="fill:#263238"></path><path d="M335.32,227.14l25.08,7.18s-1.2-32.18-7-48.18c-4.56-12.5-9.09-12-11.38-1S335.32,227.14,335.32,227.14Z" style="fill:#FFC727"></path><path d="M375,208.78c-6.93-10.8-20.26-29.54-26.64-32.39-2.91-1.3-4.47-.76-4.47-.76s.07,1.32.17,3.41a22.1,22.1,0,0,0-2,6.1c-2.28,11-6.66,42-6.66,42l15.89,4.55c1.44,6.69,2.9,13.86,4,20.15,1.25,7.39.26,19,.26,19s20.29-6,26.56-10c3.64-2.34,11.87-12.59,11.87-12.59S381.89,219.57,375,208.78Z" style="fill:#455a64"></path><path d="M360.4,231.46c-1.74-11.58-2.61-24.45-4.34-36,2.77,11.78,3.56,24,4.34,36Z" style="fill:#263238"></path><path d="M357.34,196.48a7.31,7.31,0,0,1-.17,4c.06-1.34.16-2.63.17-4Z" style="fill:#263238"></path><polygon points="332.89 228.65 360.94 237.3 360.55 236.18 362.3 235.34 362 234.49 362.68 232.08 334.36 224.4 334.77 225.59 333.39 226.6 333.9 227.63 332.89 228.65" style="fill:#37474f"></polygon></g><g id="freepik--character-1--inject-2"><path d="M114.1,142.27c1.5,3.82,3.63,7.29,4.82,11.25a26,26,0,0,1,1,11.28C117.8,178.66,99.75,187,87.08,182.67c-6.07-2.06-11.34-7-13-13.29-2-7.73,2.16-15.16,4.66-22.22a36.1,36.1,0,0,0,2-12.31c0-3.67-.22-7.4.53-11a16.4,16.4,0,0,1,11.8-13.09c6.84-2.16,13.75,1.58,16.94,8.07C113.79,126.35,111.14,134.69,114.1,142.27Z" style="fill:#263238"></path><path d="M81.55,143.39c-3,6.33-6.83,12.79-8,19.76-.94,5.79.62,12,5.65,15.48,0,0,.09,0,.05-.06-5.29-4.1-5.94-11.18-4.46-17.27,1.52-6.24,5.17-11.67,7-17.78A.16.16,0,0,0,81.55,143.39Z" style="fill:#263238"></path><path d="M80.22,143c-2.24,8.29-9.06,14.82-9.5,23.64,0,.11.16.14.16,0,.58-8.81,8.17-15.07,9.5-23.65C80.4,142.94,80.25,142.93,80.22,143Z" style="fill:#263238"></path><path d="M114.58,142.13a28.54,28.54,0,0,1-2.59-9.75c0-.17-.31-.19-.32,0-.8,12.17,13.15,21.3,9.44,33.88,0,.09.1.15.13.06,1.78-5.19.4-10.39-1.93-15.18C117.82,148.09,116,145.21,114.58,142.13Z" style="fill:#263238"></path><path d="M111.76,130.57c0-.23-.37-.16-.36.06a27.35,27.35,0,0,0,4.28,12.8c1.21,1.89,2.7,3.59,3.87,5.51,1.29,2.11,2.28,4.37,3.36,6.58,0,0,.11,0,.09,0a42.65,42.65,0,0,0-6.12-11.1A29.91,29.91,0,0,1,111.76,130.57Z" style="fill:#263238"></path><polygon points="211.33 477.85 205.27 477.85 156.27 238.71 104.93 238.71 134.52 477.85 128.53 477.85 98.26 233.45 161.21 233.45 211.33 477.85" style="fill:#FFC727"></polygon><polygon points="211.33 477.85 205.27 477.85 156.27 238.71 104.93 238.71 134.52 477.85 128.53 477.85 98.26 233.45 161.21 233.45 211.33 477.85" style="opacity:0.6000000000000001"></polygon><rect x="94.31" y="228.02" width="69.79" height="6.27" style="fill:#FFC727"></rect><rect x="94.31" y="228.02" width="69.79" height="6.27" style="opacity:0.4"></rect><polygon points="161.18 234.28 136.63 477.85 130.64 477.85 154.6 240.24 103.23 240.24 59.9 477.85 53.85 477.85 98.26 234.28 161.18 234.28" style="fill:#FFC727"></polygon><rect x="94.11" y="286.65" width="60.69" height="5.96" style="fill:#FFC727"></rect><rect x="84.48" y="334.94" width="60.69" height="5.96" style="fill:#FFC727"></rect><rect x="74.21" y="383.24" width="66.23" height="5.96" style="fill:#FFC727"></rect><rect x="66.31" y="431.54" width="70.48" height="5.96" style="fill:#FFC727"></rect><g style="opacity:0.4"><polygon points="161.18 234.28 136.63 477.85 130.64 477.85 154.6 240.24 103.23 240.24 59.9 477.85 53.85 477.85 98.26 234.28 161.18 234.28"></polygon><rect x="94.11" y="286.65" width="60.69" height="5.96"></rect><rect x="84.48" y="334.94" width="60.69" height="5.96"></rect><rect x="74.21" y="383.24" width="66.23" height="5.96"></rect><rect x="66.31" y="431.54" width="70.48" height="5.96"></rect></g><path d="M72.7,313.27s-21,39.48-21,39.51c-1.23,7.46-2.17,14-2.34,17.46,0,0,0,0,0,.05a5.29,5.29,0,0,0,.17,2.4s0,0,0,.05c2,1.87,61.3,13.39,63.51,13.1s1.53-6.6-.41-8.89S90,360.1,90,360.1l20.59-39.53Z" style="fill:#f7a9a0"></path><path d="M55.63,344.9s-3.9,7.85-3.9,7.88c-1.23,7.46-2.17,14-2.34,17.46,0,0,0,0,0,.05a10.5,10.5,0,0,0,.17,2.4s0,0,0,.05c2,1.87,61.3,13.39,63.51,13.1s1.53-6.6-.41-8.89S90,360.1,90,360.1l4-8Z" style="fill:#fff"></path><path d="M93.65,360.73c-3.86-1.32-8.8-1.42-12.24,1-.14.09,0,.28.13.26a55.56,55.56,0,0,1,12-.73A.26.26,0,0,0,93.65,360.73Z" style="fill:#263238"></path><path d="M96.26,362.87c-3.86-1.32-8.8-1.41-12.24,1-.14.09,0,.28.13.26a56.93,56.93,0,0,1,12-.73A.26.26,0,0,0,96.26,362.87Z" style="fill:#263238"></path><path d="M98.87,365c-3.86-1.31-8.8-1.41-12.24,1-.13.1,0,.28.13.26a56.93,56.93,0,0,1,12-.73A.26.26,0,0,0,98.87,365Z" style="fill:#263238"></path><path d="M113.11,385.84c-2.21.29-61.54-11.23-63.51-13.1-.77-.7.41-9.44,2.13-20l.06-.33,38.35,7-.14.65s20.74,14.56,22.7,16.85S115.31,385.55,113.11,385.84Z" style="fill:#37474f"></path><path d="M51.78,352.44l-.06.34C50,363.3,48.83,372,49.6,372.74s13.69,3.7,27.56,6.54c16.61,3.38,34.74,6.72,36,6.56,2.2-.29,1.52-6.61-.41-8.89S90,360.1,90,360.1l.14-.64-12.79-2.34Z" style="fill:#FFC727"></path><path d="M112.88,383.41c-9.95-2.19-50.3-10.07-60.3-11.48-.09,0-.1,0,0,.06,9.82,2.39,50.23,9.94,60.29,11.58C113.06,383.61,113.09,383.45,112.88,383.41Z" style="fill:#263238"></path><path d="M77.35,357.12c-.13,6.6-.29,16.33-.19,22.16,16.61,3.38,34.74,6.72,36,6.56,2.2-.29,1.52-6.61-.41-8.89S90,360.1,90,360.1l.14-.64Z" style="opacity:0.1"></path><path d="M57.15,339.33l43.95,5.08S147.73,272.73,143,248c-2.58-13.63-48.93-35-48.93-35l-4.69-9.42H56.74S46.19,228,53,241.59c6.31,12.63,42.22,22.1,43.54,26.13C98.25,273,57.15,339.33,57.15,339.33Z" style="fill:#37474f"></path><path d="M62.85,333.57a34.05,34.05,0,0,1,3.49.14c1.29.07,2.58.13,3.87.23,2.48.19,5,.44,7.43.73,5,.58,10,1.22,14.93,2,2.82.43,5.64.88,8.46,1.38.11,0,.08.19,0,.18-5-.41-9.92-.93-14.87-1.43s-9.91-1-14.83-1.69c-1.41-.2-2.83-.38-4.23-.63s-2.87-.35-4.23-.72C62.76,333.72,62.75,333.58,62.85,333.57Z" style="fill:#263238"></path><path d="M97.32,332.9c3.88-5.93,24.78-43.69,27.9-50,1.57-3.18,3.07-6.38,4.44-9.64a88.76,88.76,0,0,0,3.61-9.94c.93-3.35,1.79-6.88,1.08-10.22a14.35,14.35,0,0,0-2-4.71,20.38,20.38,0,0,0-1.49-2.13c-.56-.66-1.12-1.34-1.73-2-4.9-5-11-8.76-17.16-12.21s-12.64-6.39-19.08-9.38c-1.6-.77-3.2-1.53-4.78-2.34-.79-.41-1.58-.83-2.34-1.3a5.12,5.12,0,0,1-2-1.8A25,25,0,0,1,80.92,207,25.11,25.11,0,0,0,84,217.1a4.89,4.89,0,0,0,1.94,1.65c.77.44,1.56.84,2.35,1.23,1.6.76,3.22,1.49,4.83,2.21,6.48,2.9,13,5.78,19.25,9.13a102.35,102.35,0,0,1,9.18,5.47,53.39,53.39,0,0,1,8.3,6.79c.63.64,1.21,1.34,1.8,2a23.33,23.33,0,0,1,1.57,2.22,14.5,14.5,0,0,1,2.25,10.5c-.17.88-.29,1.78-.5,2.65s-.41,1.75-.67,2.61a88.7,88.7,0,0,1-3.7,10c-1.39,3.28-2.92,6.49-4.51,9.67C122.91,289.65,101.35,327.06,97.32,332.9Z" style="fill:#263238"></path><path d="M95.67,371.8s.34,39.53.34,39.55c0,7.56.18,14.19.58,17.61a.13.13,0,0,0,0,.06,5.17,5.17,0,0,0,.56,2.33l0,0c2.26,1.51,62.68,3.08,64.8,2.43s.43-6.77-1.87-8.7S135,412.25,135,412.25l-.7-39.5Z" style="fill:#f7a9a0"></path><path d="M95.94,403.24s.07,8.09.07,8.11c0,7.56.18,14.19.58,17.61a.13.13,0,0,0,0,.06,10.25,10.25,0,0,0,.56,2.33l0,0c2.26,1.51,62.68,3.08,64.8,2.43s.43-6.77-1.87-8.7S135,412.25,135,412.25l0-8.23Z" style="fill:#fff"></path><path d="M138.67,412.28c-4-.67-8.92.05-11.92,3-.11.12,0,.28.18.24a56.6,56.6,0,0,1,11.73-2.71A.25.25,0,0,0,138.67,412.28Z" style="fill:#263238"></path><path d="M141.6,414c-4-.66-8.92.05-11.92,3-.11.11,0,.27.18.23a56.75,56.75,0,0,1,11.73-2.71A.25.25,0,0,0,141.6,414Z" style="fill:#263238"></path><path d="M144.53,415.64c-4-.66-8.92.06-11.92,3-.11.11,0,.27.18.23a56.09,56.09,0,0,1,11.73-2.7A.26.26,0,0,0,144.53,415.64Z" style="fill:#263238"></path><path d="M162,433.83c-2.13.66-62.54-.91-64.8-2.43-.87-.57-1.15-9.38-1.19-20V411l39,.58,0,.66s22.85,10.94,25.16,12.88S164.13,433.18,162,433.83Z" style="fill:#FFC727"></path><path d="M161.38,431.47c-10.18-.52-51.27-1.63-61.37-1.37-.08,0-.09.06,0,.07,10.07.73,51.18,1.51,61.37,1.47C161.59,431.63,161.6,431.48,161.38,431.47Z" style="fill:#263238"></path><path d="M75.7,245.34S93.63,301.87,94,312.26c.27,8.85-.86,87-.86,87l45.4.27s-3.83-80-4.54-89.19c-1.33-17.26-16.45-64.64-27.26-106.86H57.75s.43,22.11,10.48,38.1C68.23,241.59,72.78,243.7,75.7,245.34Z" style="fill:#37474f"></path><path d="M95.51,390.9c5.25-.15,10.69-.31,15.93-.18s10.42.21,15.62.52c2.95.18,5.89.27,8.83.56a.08.08,0,0,1,0,.16c-5.24.31-10.5.25-15.75.2s-10.41-.1-15.62-.34c-2.94-.14-5.88-.29-8.83-.49C95.36,391.31,95.2,390.91,95.51,390.9Z" style="fill:#263238"></path><path d="M105.44,230.13c1.62,5.4,3,10.88,4.43,16.33s2.92,11,4.37,16.48c2.8,10.64,5.56,21.29,7.66,32.09a194.3,194.3,0,0,1,3.63,32.88c.24,11.26,0,22.53-.07,33.78s-.17,9.9-.37,21.21c0,1.41,0,2.82-.11,4.22,0,.14-.2.13-.21,0-.3-11.26-.14-9.8-.1-21.05s.19-22.53.09-33.79a202.59,202.59,0,0,0-2.89-33.35c-1.9-10.83-4.56-21.51-7.33-32.15q-2.37-9.11-4.75-18.21c-1.59-6.11-3.28-12.2-4.67-18.36A.16.16,0,0,1,105.44,230.13Z" style="fill:#263238"></path><path d="M86.93,246.43a41.1,41.1,0,0,1-6.74-.61A64.68,64.68,0,0,1,73.65,244a51.1,51.1,0,0,0-6.4-1A22.52,22.52,0,0,1,61,241.09a.08.08,0,0,0-.08.14,38.69,38.69,0,0,0,6,2.61c2.15.68,4.4.77,6.59,1.3a55,55,0,0,0,6.72,1.55,24.47,24.47,0,0,0,6.73-.11C87,246.56,87,246.43,86.93,246.43Z" style="fill:#263238"></path><path d="M94.11,354,94,340.09c0-4.64,0-9.28-.12-13.92s-.14-9.28-.46-13.88a41.63,41.63,0,0,0-1.12-6.79c-.5-2.25-1.1-4.5-1.67-6.74-2.3-9-4.86-17.9-7.38-26.83l-7.61-26.79c1.48,4.4,2.87,8.83,4.29,13.25l4.11,13.31q4,13.32,7.63,26.79c.56,2.26,1.14,4.51,1.63,6.79a42.49,42.49,0,0,1,1.09,6.94c.28,4.66.33,9.3.31,13.95Q94.69,340.09,94.11,354Z" style="fill:#263238"></path><path d="M130.32,290.89c-1.68-5.87-3.28-11.76-4.87-17.65l-4.69-17.69-4.62-17.7c-.76-2.95-1.56-5.9-2.36-8.84s-1.57-5.89-2.65-8.75a158.65,158.65,0,0,1,5.8,17.37c1.71,5.86,3.28,11.76,4.87,17.65s3,11.82,4.45,17.76S129.07,284.91,130.32,290.89Z" style="fill:#263238"></path><path d="M89.55,147.91c.15,1,4.14,7.36,8.43,7.49,1.4,0,2-7.58,2-7.58l.17-.55,2.37-7.74-8.8-6.65L92.39,132s-.5,2.16-1.11,4.86c0,.12-.06.25-.08.38s-.08.3-.11.44c-.1.4-.19.81-.28,1.22s-.13.62-.19,1-.13.65-.2,1A52,52,0,0,0,89.55,147.91Z" style="fill:#f7a9a0"></path><path d="M91.28,136.85a16.27,16.27,0,0,0,8.82,10.42l2.37-7.74-8.8-6.65L92.39,132S91.89,134.15,91.28,136.85Z" style="fill:#263238"></path><path d="M113.78,126.37c2.63,14-5.38,17.25-8.45,17.68-2.75.38-12.11,1.9-16.17-11.71s1.6-19.25,7.79-20.75S111.14,112.41,113.78,126.37Z" style="fill:#f7a9a0"></path><path d="M91.09,133.23c3.3-.54,3-11.9,3-13.17.08.8.49,5,.84,5.13a3.09,3.09,0,0,0,1-.33h0a9.27,9.27,0,0,1-.07-1.51c0-.24.15.49.39,1.38l.59-.25a12.09,12.09,0,0,1-.08-3.23c0-.4.37,1.36,1,2.87a40.57,40.57,0,0,1,8.49-2.62c.82-.14,1.53-.22,2.17-.27-.15-1.24-.46-2.54-.34-2.27a11.81,11.81,0,0,1,.81,2.24l1,0c-.13-1.76-1.32-4.45-1-4.05a12.17,12.17,0,0,1,2.21,4,4.68,4.68,0,0,1,1.84.2,15.94,15.94,0,0,0-5.82-8.64c-4.64-3.38-13-3.32-16.93,3.28,0,0-3.52,3-3.62,7.11S89.18,133.54,91.09,133.23Z" style="fill:#263238"></path><path d="M92.78,132.15s-4-3.59-5.74-2.05,2,7.25,4.55,7.56a2.4,2.4,0,0,0,2.83-2Z" style="fill:#f7a9a0"></path><path d="M88.15,131.71s0,.06,0,.06a6.1,6.1,0,0,1,3.93,3,1.33,1.33,0,0,0-2,.11s0,.1.07.08a1.48,1.48,0,0,1,1.7.12,6.9,6.9,0,0,1,1.06,1.1c.11.13.35,0,.26-.16l0,0C92.69,133.89,90.41,131.39,88.15,131.71Z" style="fill:#263238"></path><path d="M112,124.43a9.18,9.18,0,0,0-.93-.3,1.61,1.61,0,0,0-1-.13.52.52,0,0,0-.31.54,1.26,1.26,0,0,0,.93.87,1.9,1.9,0,0,0,1.33,0A.54.54,0,0,0,112,124.43Z" style="fill:#263238"></path><path d="M102,126.31c.25-.22.51-.39.78-.59a1.56,1.56,0,0,1,.92-.44.5.5,0,0,1,.46.4,1.27,1.27,0,0,1-.6,1.13,1.83,1.83,0,0,1-1.25.43A.54.54,0,0,1,102,126.31Z" style="fill:#263238"></path><path d="M104.68,128.85s-.06.06-.06.1c.22.94.32,2.06-.48,2.55,0,0,0,.06,0,.05C105.18,131.19,105,129.71,104.68,128.85Z" style="fill:#263238"></path><path d="M103.64,128c-1.55.19-1.06,3.28.37,3.1S104.93,127.87,103.64,128Z" style="fill:#263238"></path><path d="M103.06,128.29c-.24.22-.46.57-.78.65s-.7-.18-1-.45c0,0,0,0,0,0,.09.59.41,1.16,1.06,1.14s.92-.6,1-1.21C103.28,128.35,103.15,128.2,103.06,128.29Z" style="fill:#263238"></path><path d="M110.2,127.78s.08,0,.08.07c.12,1,.41,2.05,1.33,2.23,0,0,0,.06,0,.06C110.53,130.15,110.15,128.71,110.2,127.78Z" style="fill:#263238"></path><path d="M110.9,126.65c1.52-.35,2.11,2.72.7,3S109.63,127,110.9,126.65Z" style="fill:#263238"></path><path d="M111.58,126.73c.27.12.57.37.86.33s.53-.42.68-.78c0,0,0,0,0,0,.13.59,0,1.23-.49,1.46s-1-.23-1.22-.79C111.42,126.87,111.47,126.68,111.58,126.73Z" style="fill:#263238"></path><path d="M105.92,136.54c.24.22.48.52.83.54a2.62,2.62,0,0,0,1-.27,0,0,0,0,1,0,0,1.31,1.31,0,0,1-1.21.57,1,1,0,0,1-.79-.83C105.81,136.53,105.88,136.51,105.92,136.54Z" style="fill:#263238"></path><path d="M109.63,132.7s.33,1.42.39,2.1c0,.06-.16.1-.39.14h0a3.23,3.23,0,0,1-3.24-.92c-.06-.06,0-.14.09-.1a4.9,4.9,0,0,0,3,.57c0-.19-.64-2.41-.54-2.43a6.2,6.2,0,0,1,1.58.21c-.6-3-1.68-5.84-2.23-8.81a.09.09,0,0,1,.17-.06,48.2,48.2,0,0,1,2.8,9.39C111.35,133.17,109.91,132.79,109.63,132.7Z" style="fill:#263238"></path><path d="M109.54,134.69a3.87,3.87,0,0,1-1.37,1.44,1.77,1.77,0,0,1-1,.23c-.79-.09-.92-.79-.87-1.41a4.56,4.56,0,0,1,.2-1A5.08,5.08,0,0,0,109.54,134.69Z" style="fill:#263238"></path><path d="M108.17,136.13a1.77,1.77,0,0,1-1,.23c-.79-.09-.92-.79-.87-1.41A1.82,1.82,0,0,1,108.17,136.13Z" style="fill:#ff9abb"></path><path d="M108.53,189.7l-1.83,13.79h-50s11.12-41.28,25.69-53.3c7.28-6,14.65-4.48,18.74,1,1,1.39,12,19,12.53,26.41C114.14,184.14,108.53,189.7,108.53,189.7Z" style="fill:#dbdbdb"></path><path d="M97.65,147.93H85.79l.9-.44H96.83C97.11,147.62,97.38,147.78,97.65,147.93Zm2.82,2.38H82.28c-.18.14-.34.29-.51.45h19.06C100.72,150.61,100.59,150.46,100.47,150.31Zm2,2.83h-23a4.28,4.28,0,0,0-.4.45h23.71Zm1.72,2.83H77.11c-.1.15-.21.29-.32.44h27.64C104.35,156.26,104.26,156.12,104.17,156Zm1.63,2.82H75.15l-.28.44h31.18Zm1.56,2.82h-34l-.26.45h34.47Zm1.49,2.83h-37c-.07.15-.15.3-.23.45h37.5Zm1.39,2.83H70.33l-.22.44h40.33Zm1.26,2.82H68.94l-.2.45h43Zm1.1,2.83h-45c-.07.15-.13.3-.2.44h45.3C112.7,173.22,112.65,173.07,112.6,172.92Zm.82,2.82h-47c-.05.15-.12.3-.18.44h47.29C113.49,176,113.45,175.89,113.42,175.74Zm-48.19,2.83L65,179H113.7a3.39,3.39,0,0,0,0-.45ZM64.1,181.4c-.06.14-.12.29-.17.44H113.2a4.16,4.16,0,0,0,.12-.44ZM63,184.22c-.06.15-.11.29-.16.44h49.22l.21-.44ZM62,187l-.15.45h48.52c.1-.13.21-.29.32-.45Zm-1,2.83-.15.44h47.6l.06-.44Zm-1,2.83-.14.44h48.17l.06-.44Zm-.92,2.82c0,.15-.09.3-.14.45H107.7l.06-.45Zm-.88,2.83c-.05.15-.1.29-.14.44h49.23l0-.44Zm-.85,2.82c0,.16-.09.31-.13.44H107l0-.44Z" style="fill:#a6a6a6"></path><polygon points="240.58 145.37 238.94 155.25 247.48 159.89 240.58 145.37" style="fill:#37474f"></polygon><polygon points="218.22 162.63 212.64 175.7 241.44 156.63 239.26 153.52 218.22 162.63" style="fill:#455a64"></polygon><path d="M198,149.81s-6-18.19-11-19.05-13.25,29-3.7,37.78c3.06,2.82,8.81,1.41,8.81,1.41ZM184.88,166c-7.44-6.83-1.36-31.77,2.54-31.1s8.9,16.51,8.9,16.51l-4.58,15.68S187.26,168.21,184.88,166Z" style="fill:#455a64"></path><polygon points="220.54 183.68 187.51 179.13 199.64 130.98 220.8 134.08 220.54 183.68" style="fill:#37474f"></polygon><polygon points="199.64 130.98 196.74 126.95 223.87 130.4 220.8 134.08 199.64 130.98" style="fill:#455a64"></polygon><path d="M244.7,147s2.67-4,3.69-2.38S244.7,147,244.7,147Z" style="fill:#455a64"></path><path d="M245.94,153s3.3-3.45,4-1.72S245.94,153,245.94,153Z" style="fill:#455a64"></path><path d="M251.38,148.63s4.23-2.2,4.37-.33S251.38,148.63,251.38,148.63Z" style="fill:#455a64"></path><path d="M254,153.24s4.4-1.84,4.39,0S254,153.24,254,153.24Z" style="fill:#455a64"></path><path d="M253.48,144.49s3.76-2.93,4.24-1.11S253.48,144.49,253.48,144.49Z" style="fill:#455a64"></path><path d="M259,148.07s4.48-1.63,4.38.24S259,148.07,259,148.07Z" style="fill:#455a64"></path><path d="M248.45,159.4s4.75.47,3.84,2.11S248.45,159.4,248.45,159.4Z" style="fill:#455a64"></path><path d="M258.87,166.82s3.74,3,2.09,3.85S258.87,166.82,258.87,166.82Z" style="fill:#455a64"></path><path d="M253.35,164.08s4.24,2.18,2.8,3.38S253.35,164.08,253.35,164.08Z" style="fill:#455a64"></path><path d="M250,156.66s4.66-1,4.3.84S250,156.66,250,156.66Z" style="fill:#455a64"></path><path d="M256.25,160.17s4.53,1.5,3.28,2.91S256.25,160.17,256.25,160.17Z" style="fill:#455a64"></path><path d="M94.76,160.62c6.67,7.1,33.81,28.85,42.83,26.62,14.13-3.5,22.08-10,29.85-14.91,2.47-1.57-13.49-25-17.89-21.48-5.67,4.61-11.74,8.9-15.4,10.06-2.5.8-21-6.24-33.83-11C89.59,145.87,86.29,151.62,94.76,160.62Z" style="fill:#f7a9a0"></path><path d="M145.71,154.3l3.84-3.45a16.69,16.69,0,0,0,3.09-3.91c3.52-5.41,15.56-16.34,33.33-12.67,6.81,1.41,8.8,6.8,1.46,6.59-5.16-.14-8.73-.68-10.43-.26,0,0,6.05,5.1,5.67,9.67a85.71,85.71,0,0,1-1.84,11.86,16.36,16.36,0,0,1-2.26-.15,9.61,9.61,0,0,1-6.87,7.63l-6.33,4Z" style="fill:#f7a9a0"></path><path d="M156.82,142.31c3.26-.92,10.19-2.76,16.39-2.29,6.88.51,20,3.37,19.56,8.45-.32,3.72-5.42,3.07-5.42,3.07s5.17,2.32,4.15,5.62c-.94,3-4.85,2.27-4.85,2.27s2.89,1.95,1.44,4.67c-1.76,3.27-7.54-1.35-12.18.44C174.87,164.94,156.82,142.31,156.82,142.31Z" style="fill:#f7a9a0"></path><path d="M171.45,147.2a27.48,27.48,0,0,1,15.84,4.21c.12.08.12.21,0,.16a67.45,67.45,0,0,0-15.85-4.31S171.41,147.2,171.45,147.2Z" style="fill:#263238"></path><path d="M171.12,154.16c2.8,0,10.48,1.38,15.57,5.15.11.08.1.21,0,.16a72.28,72.28,0,0,0-15.55-5.25S171.09,154.16,171.12,154.16Z" style="fill:#263238"></path><path d="M125.19,157.71l-5.64,23.83S102.67,169,93.83,159.87,88.31,145.15,99.9,148,125.19,157.71,125.19,157.71Z" style="fill:#a6a6a6"></path><path d="M120,157.26c-.18.81-.48,1.61-.72,2.4s-.45,1.61-.66,2.42c-.41,1.57-.82,3.13-1.25,4.69-.85,3.16-1.78,6.3-2.46,9.52,0,.05.07.08.09,0A80.62,80.62,0,0,0,118,167c.42-1.58.82-3.17,1.2-4.78.19-.81.38-1.63.53-2.45s.24-1.69.44-2.49C120.14,157.22,120,157.19,120,157.26Z" style="fill:#263238"></path></g></svg>