<svg xmlns="http://www.w3.org/2000/svg" viewBox="0 0 500 500"><g id="freepik--background-complete--inject-2"><path d="M133.23,91s-13.12-10-29.57,0C103.66,91,117.89,99.9,133.23,91Z" style="fill:#ebebeb"></path><path d="M133.23,91s5.56-5.22,6.9-4.44S136,91,136,91s4.45,5,2.45,5.45S133.23,91,133.23,91Z" style="fill:#ebebeb"></path><path d="M85.91,107.82s-9.14-7-20.59,0C65.32,107.82,75.22,114,85.91,107.82Z" style="fill:#ebebeb"></path><path d="M85.91,107.82s3.87-3.64,4.79-3.1-2.86,3.1-2.86,3.1,3.1,3.48,1.7,3.79S85.91,107.82,85.91,107.82Z" style="fill:#ebebeb"></path><path d="M97.58,77.51s-9.14-7-20.59,0C77,77.51,86.89,83.7,97.58,77.51Z" style="fill:#ebebeb"></path><path d="M97.58,77.51s3.87-3.64,4.79-3.1-2.86,3.1-2.86,3.1,3.1,3.48,1.7,3.79S97.58,77.51,97.58,77.51Z" style="fill:#ebebeb"></path><path d="M364.52,430.17s13.12-10,29.57,0C394.09,430.17,379.86,439.06,364.52,430.17Z" style="fill:#ebebeb"></path><path d="M364.52,430.17s-5.56-5.23-6.89-4.45,4.11,4.45,4.11,4.45-4.45,5-2.45,5.45S364.52,430.17,364.52,430.17Z" style="fill:#ebebeb"></path><path d="M394,413.17s9.13-7,20.59,0C414.63,413.17,404.72,419.36,394,413.17Z" style="fill:#ebebeb"></path><path d="M394,413.17s-3.87-3.64-4.8-3.1,2.86,3.1,2.86,3.1-3.09,3.48-1.7,3.79S394,413.17,394,413.17Z" style="fill:#ebebeb"></path><path d="M358.84,406s9.14-7,20.59,0C379.43,406,369.53,412.17,358.84,406Z" style="fill:#ebebeb"></path><path d="M358.84,406s-3.87-3.64-4.79-3.1,2.86,3.1,2.86,3.1-3.1,3.48-1.7,3.79S358.84,406,358.84,406Z" style="fill:#ebebeb"></path><path d="M434.46,150.51s9.14-7,20.59,0C455.05,150.51,445.15,156.7,434.46,150.51Z" style="fill:#ebebeb"></path><path d="M434.46,150.51s-3.87-3.64-4.79-3.1,2.86,3.1,2.86,3.1-3.1,3.48-1.7,3.79S434.46,150.51,434.46,150.51Z" style="fill:#ebebeb"></path><path d="M409.38,165.41s13.12-10,29.57,0C439,165.41,424.72,174.31,409.38,165.41Z" style="fill:#ebebeb"></path><path d="M409.38,165.41s-5.56-5.22-6.89-4.44,4.11,4.44,4.11,4.44-4.45,5-2.45,5.45S409.38,165.41,409.38,165.41Z" style="fill:#ebebeb"></path><path d="M109.18,381.18s-9.13-7-20.59,0C88.59,381.18,98.5,387.37,109.18,381.18Z" style="fill:#ebebeb"></path><path d="M109.18,381.18s3.87-3.64,4.8-3.1-2.86,3.1-2.86,3.1,3.09,3.48,1.7,3.79S109.18,381.18,109.18,381.18Z" style="fill:#ebebeb"></path><path d="M74.52,376S61.4,366,45,376C45,376,59.18,384.93,74.52,376Z" style="fill:#ebebeb"></path><path d="M74.52,376s5.56-5.23,6.89-4.45S77.3,376,77.3,376s4.45,5,2.44,5.44S74.52,376,74.52,376Z" style="fill:#ebebeb"></path><path d="M79.56,356.92s-9.13-7-20.59,0C59,356.92,68.88,363.12,79.56,356.92Z" style="fill:#ebebeb"></path><path d="M79.56,356.92s3.87-3.63,4.8-3.09-2.87,3.09-2.87,3.09,3.1,3.49,1.71,3.8S79.56,356.92,79.56,356.92Z" style="fill:#ebebeb"></path><path d="M113.94,71.25a5.22,5.22,0,0,1-1.59-.25,5.5,5.5,0,0,1-3.95-6.73c.55-2.42,2.6-4.7,5.47-4.39h0a5.6,5.6,0,0,1,5,3.48,6.28,6.28,0,0,1-1.48,6.45A4.89,4.89,0,0,1,113.94,71.25Zm-.59-10.19c-1.93,0-3.32,1.69-3.72,3.46a4.32,4.32,0,0,0,3.1,5.34,3.64,3.64,0,0,0,3.76-.89,5.15,5.15,0,0,0,1.2-5.21c-.4-1.07-1.42-2.4-4-2.68h0A2.3,2.3,0,0,0,113.35,61.06Z" style="fill:#ebebeb"></path><path d="M444.76,129.37a7.2,7.2,0,0,1-1.58-7.2,6,6,0,0,1,5.35-3.89h0c3.07-.35,5.26,2.2,5.85,4.9a6.21,6.21,0,0,1-4.22,7.53,5.46,5.46,0,0,1-1.71.28A5.09,5.09,0,0,1,444.76,129.37Zm3.92-9.76h0c-2.72.32-3.81,1.81-4.24,3a5.91,5.91,0,0,0,1.29,5.82,3.73,3.73,0,0,0,4,1,4.85,4.85,0,0,0,3.32-6c-.43-2-1.91-3.88-4-3.88Z" style="fill:#ebebeb"></path><path d="M124.68,57.51a4.53,4.53,0,0,1-2.14-.54,4.3,4.3,0,0,1-2.25-4c.09-3,2.1-4.23,3.8-4.33a4.24,4.24,0,0,1,4.48,3.6h0c.4,2.78-.84,4.09-1.61,4.63A4,4,0,0,1,124.68,57.51Zm-.35-7.58h-.17c-1.18.06-2.47.89-2.53,3a3,3,0,0,0,1.55,2.82,2.92,2.92,0,0,0,3-.07,3.26,3.26,0,0,0,1-3.33h0A2.88,2.88,0,0,0,124.33,49.93Z" style="fill:#ebebeb"></path><path d="M432.23,139c-.77-.54-2-1.85-1.61-4.63h0a4.24,4.24,0,0,1,4.48-3.6c1.7.1,3.72,1.29,3.81,4.33a4.28,4.28,0,0,1-2.25,4,4.49,4.49,0,0,1-2.14.55A4,4,0,0,1,432.23,139Zm-.28-4.45h0a3.3,3.3,0,0,0,1.05,3.34,3,3,0,0,0,4.56-2.75c-.06-2.13-1.35-3-2.53-3h-.16A2.88,2.88,0,0,0,432,134.55Z" style="fill:#ebebeb"></path><path d="M61.23,343.88c-.77-.53-2-1.85-1.6-4.63h0a4.22,4.22,0,0,1,4.48-3.59c1.7.09,3.71,1.28,3.8,4.32a4.29,4.29,0,0,1-2.25,4,4.53,4.53,0,0,1-2.14.54A4,4,0,0,1,61.23,343.88ZM61,339.44h0a3.28,3.28,0,0,0,1,3.34,3,3,0,0,0,3,.07A3,3,0,0,0,66.57,340c-.06-2.13-1.35-3-2.54-3h-.16A2.87,2.87,0,0,0,61,339.44Z" style="fill:#ebebeb"></path><path d="M124.61,71.88a3.28,3.28,0,0,1-3.28-3.43,3.05,3.05,0,0,1,2.86-3.23,3.17,3.17,0,0,1,3.36,2.69,3.34,3.34,0,0,1-1.21,3.45A3.11,3.11,0,0,1,124.61,71.88Zm-.24-5.32h-.1c-1,0-1.56.77-1.59,1.93a1.91,1.91,0,0,0,2.89,1.76,2.12,2.12,0,0,0,.65-2.15h0A1.82,1.82,0,0,0,124.37,66.56Z" style="fill:#ebebeb"></path><path d="M396.59,406.42a4.6,4.6,0,0,1-2.11.66,4.3,4.3,0,0,1-4-2.27c-1.52-2.63-.43-4.7,1-5.67a4.23,4.23,0,0,1,5.7.7h0c1.8,2.17,1.44,3.93,1.06,4.79A4,4,0,0,1,396.59,406.42Zm-4.28-6.27-.13.09c-1,.68-1.64,2.06-.57,3.9a3,3,0,0,0,5.33-.05,3.29,3.29,0,0,0-.86-3.39h0A2.89,2.89,0,0,0,392.31,400.15Z" style="fill:#ebebeb"></path><path d="M402.69,427.69a3.38,3.38,0,0,1-1.58.49,3.24,3.24,0,0,1-3-1.69,3.07,3.07,0,0,1,.74-4.25,3.17,3.17,0,0,1,4.27.53,3.32,3.32,0,0,1,.78,3.57A3.11,3.11,0,0,1,402.69,427.69Zm-3-4.41-.08.06a1.73,1.73,0,0,0-.34,2.48,1.91,1.91,0,0,0,3.39,0,2.13,2.13,0,0,0-.58-2.17h0A1.84,1.84,0,0,0,399.68,423.28Z" style="fill:#ebebeb"></path><path d="M408.74,406.16a3.28,3.28,0,0,1-3.28-3.43,3.05,3.05,0,0,1,2.86-3.23,3.17,3.17,0,0,1,3.36,2.69,3.32,3.32,0,0,1-1.22,3.45A3,3,0,0,1,408.74,406.16Zm-.24-5.32h-.11c-1,.05-1.55.77-1.59,1.93a1.91,1.91,0,0,0,2.9,1.76,2.12,2.12,0,0,0,.65-2.15h0A1.82,1.82,0,0,0,408.5,400.84Z" style="fill:#ebebeb"></path><path d="M436.66,115.43a3.3,3.3,0,0,1-1.21-3.44h0a3.18,3.18,0,0,1,3.35-2.7,3.07,3.07,0,0,1,2.86,3.23,3.24,3.24,0,0,1-1.68,3,3.4,3.4,0,0,1-1.6.41A3,3,0,0,1,436.66,115.43Zm.12-3.25h0a2.12,2.12,0,0,0,.65,2.15,1.91,1.91,0,0,0,2.89-1.77c0-1.15-.63-1.87-1.59-1.92h-.1A1.83,1.83,0,0,0,436.78,112.18Z" style="fill:#ebebeb"></path><path d="M409.62,105.56a3.3,3.3,0,0,1-1.22-3.44h0a3.19,3.19,0,0,1,3.36-2.7,3.07,3.07,0,0,1,2.86,3.24,3.23,3.23,0,0,1-1.69,3,3.36,3.36,0,0,1-1.59.41A3,3,0,0,1,409.62,105.56Zm.11-3.25h0a2.12,2.12,0,0,0,.65,2.15,1.86,1.86,0,0,0,1.91,0,1.89,1.89,0,0,0,1-1.81c0-1.15-.63-1.87-1.59-1.92h-.11A1.83,1.83,0,0,0,409.73,102.31Z" style="fill:#ebebeb"></path><path d="M54,329.37a3.3,3.3,0,0,1-1.22-3.44h0a3.17,3.17,0,0,1,3.36-2.7A3.07,3.07,0,0,1,59,326.46a3.25,3.25,0,0,1-1.69,3,3.35,3.35,0,0,1-1.59.4A3,3,0,0,1,54,329.37Zm.11-3.26h0a2.14,2.14,0,0,0,.65,2.16,1.86,1.86,0,0,0,1.91,0,1.84,1.84,0,0,0,1-1.8c0-1.15-.62-1.87-1.59-1.93h-.1A1.82,1.82,0,0,0,54.08,326.11Z" style="fill:#ebebeb"></path><path d="M43.23,239.9C47.57,177,166.61,52.44,248.3,51.13c88-1.42,206.1,128.26,208.61,196.45,3.19,86.59-128.81,203.78-210.86,201.27C170.1,446.52,37.22,327,43.23,239.9Z" style="fill:#c7c7c7"></path><path d="M225.42,134.57a5.59,5.59,0,0,1-1.6-.24,5.52,5.52,0,0,1-3.94-6.74c.54-2.41,2.6-4.69,5.47-4.38h0a5.59,5.59,0,0,1,5,3.47,6.27,6.27,0,0,1-1.48,6.45A4.85,4.85,0,0,1,225.42,134.57Zm-.59-10.19c-1.93,0-3.32,1.69-3.72,3.47a4.31,4.31,0,0,0,3.1,5.33,3.62,3.62,0,0,0,3.76-.89,5.1,5.1,0,0,0,1.19-5.2c-.4-1.07-1.41-2.41-4-2.69h0Z" style="fill:#fff"></path><path d="M440.55,257.83a7.22,7.22,0,0,1-1.58-7.21,6,6,0,0,1,5.35-3.89h0c3.07-.35,5.26,2.2,5.84,4.91a6.18,6.18,0,0,1-4.22,7.52,5.36,5.36,0,0,1-1.7.28A5.07,5.07,0,0,1,440.55,257.83Zm3.92-9.76h0c-2.73.31-3.81,1.8-4.24,3a5.92,5.92,0,0,0,1.28,5.82,3.73,3.73,0,0,0,4,1,4.85,4.85,0,0,0,3.32-6c-.43-2-1.92-3.88-4-3.88A2.69,2.69,0,0,0,444.47,248.07Z" style="fill:#fff"></path><path d="M244.69,238a7.24,7.24,0,0,1-1.59-7.21,6,6,0,0,1,5.35-3.88h0c3.08-.35,5.27,2.2,5.85,4.9a6.2,6.2,0,0,1-4.22,7.53,5.64,5.64,0,0,1-1.7.27A5.05,5.05,0,0,1,244.69,238Zm3.92-9.76h0a4.63,4.63,0,0,0-4.24,3,5.94,5.94,0,0,0,1.28,5.83,3.77,3.77,0,0,0,4,1,4.87,4.87,0,0,0,3.32-6c-.43-2-1.92-3.88-4-3.88Z" style="fill:#fff"></path><path d="M239.29,122.76a4.6,4.6,0,0,1-2.14-.55,4.29,4.29,0,0,1-2.25-4c.09-3,2.11-4.23,3.81-4.32a4.22,4.22,0,0,1,4.48,3.59h0c.39,2.78-.84,4.1-1.61,4.63A4,4,0,0,1,239.29,122.76Zm-.35-7.58h-.16c-1.18.07-2.47.89-2.53,3a3,3,0,0,0,4.56,2.76,3.3,3.3,0,0,0,1.05-3.34h0A2.87,2.87,0,0,0,238.94,115.18Z" style="fill:#fff"></path><path d="M160.62,183.25a4.53,4.53,0,0,1-2.14-.54,4.29,4.29,0,0,1-2.25-4.05c.09-3,2.1-4.23,3.8-4.32a4.22,4.22,0,0,1,4.48,3.59h0c.39,2.78-.84,4.09-1.61,4.63A4,4,0,0,1,160.62,183.25Zm-.36-7.58h-.16c-1.18.06-2.47.89-2.53,3a3,3,0,0,0,1.55,2.82,2.92,2.92,0,0,0,3-.07,3.26,3.26,0,0,0,1-3.33h0A2.88,2.88,0,0,0,160.26,175.67Z" style="fill:#fff"></path><path d="M80.36,280.29a4.49,4.49,0,0,1-2.14-.55,4.28,4.28,0,0,1-2.25-4c.09-3.05,2.11-4.23,3.81-4.33A4.24,4.24,0,0,1,84.26,275h0c.39,2.79-.84,4.1-1.61,4.63A3.94,3.94,0,0,1,80.36,280.29ZM80,272.71h-.16c-1.18.07-2.47.9-2.53,3a3,3,0,0,0,4.56,2.76,3.3,3.3,0,0,0,1.05-3.34h0A2.88,2.88,0,0,0,80,272.71Z" style="fill:#fff"></path><path d="M428,267.45c-.77-.54-2-1.85-1.61-4.63h0a4.24,4.24,0,0,1,4.48-3.6c1.7.1,3.72,1.29,3.8,4.33a4.27,4.27,0,0,1-2.25,4.05,4.52,4.52,0,0,1-2.13.54A4,4,0,0,1,428,267.45Zm-.28-4.44h0a3.26,3.26,0,0,0,1.05,3.33,2.9,2.9,0,0,0,3,.07,3,3,0,0,0,1.55-2.82c-.06-2.13-1.35-3-2.53-3h-.16A2.88,2.88,0,0,0,427.74,263Z" style="fill:#fff"></path><path d="M353,126.52c-.77-.53-2-1.84-1.61-4.63h0a4.24,4.24,0,0,1,4.48-3.59c1.7.09,3.72,1.28,3.8,4.32a4.29,4.29,0,0,1-2.25,4,4.43,4.43,0,0,1-2.14.55A4,4,0,0,1,353,126.52Zm-.28-4.44h0a3.27,3.27,0,0,0,1,3.34,3,3,0,0,0,4.57-2.76c-.06-2.12-1.35-3-2.53-3h-.16A2.88,2.88,0,0,0,352.68,122.08Z" style="fill:#fff"></path><path d="M239.23,137.12a3.42,3.42,0,0,1-1.6-.4,3.26,3.26,0,0,1-1.68-3,3.07,3.07,0,0,1,2.86-3.23,3.17,3.17,0,0,1,3.35,2.7A3.3,3.3,0,0,1,241,136.6,3,3,0,0,1,239.23,137.12ZM239,131.8h-.1c-1,.06-1.56.78-1.59,1.93a1.91,1.91,0,0,0,2.89,1.77,2.14,2.14,0,0,0,.65-2.16h0A1.82,1.82,0,0,0,239,131.8Z" style="fill:#fff"></path><path d="M299.17,421a4.48,4.48,0,0,1-2.11.66,4.29,4.29,0,0,1-4-2.26c-1.52-2.64-.43-4.71,1-5.68a4.22,4.22,0,0,1,5.7.71h0c1.8,2.16,1.44,3.92,1.06,4.78A4,4,0,0,1,299.17,421Zm-4.28-6.26-.13.08c-1,.68-1.64,2.06-.57,3.9a3,3,0,0,0,2.8,1.6,3,3,0,0,0,2.53-1.65,3.29,3.29,0,0,0-.86-3.39h0A2.89,2.89,0,0,0,294.89,414.72Z" style="fill:#fff"></path><path d="M290.91,407.41a3.45,3.45,0,0,1-1.58.49,3.24,3.24,0,0,1-3-1.69,3.06,3.06,0,0,1,.74-4.25,3.17,3.17,0,0,1,4.27.53,3.32,3.32,0,0,1,.78,3.57A3.06,3.06,0,0,1,290.91,407.41Zm-3-4.4-.08.05a1.73,1.73,0,0,0-.34,2.48,1.88,1.88,0,0,0,1.78,1,1.86,1.86,0,0,0,1.6-1,2.11,2.11,0,0,0-.57-2.17h0A1.83,1.83,0,0,0,287.9,403Z" style="fill:#fff"></path><path d="M388.33,364.23a5.65,5.65,0,0,1-1.6-.24,5.52,5.52,0,0,1-3.94-6.74c.54-2.41,2.6-4.69,5.47-4.38h0a5.59,5.59,0,0,1,5,3.47,6.27,6.27,0,0,1-1.48,6.45A4.85,4.85,0,0,1,388.33,364.23ZM387.74,354c-1.93,0-3.32,1.69-3.72,3.47a4.31,4.31,0,0,0,3.1,5.33,3.62,3.62,0,0,0,3.76-.89,5.13,5.13,0,0,0,1.2-5.2c-.41-1.07-1.42-2.41-4-2.69h0Z" style="fill:#fff"></path><path d="M399,364.87a3.36,3.36,0,0,1-1.59-.41,3.23,3.23,0,0,1-1.69-3,3.07,3.07,0,0,1,2.86-3.23,3.18,3.18,0,0,1,3.36,2.7,3.3,3.3,0,0,1-1.22,3.44A3,3,0,0,1,399,364.87Zm-.24-5.33h-.1c-1,.05-1.56.77-1.59,1.92a1.91,1.91,0,0,0,2.89,1.77,2.12,2.12,0,0,0,.65-2.15h0A1.83,1.83,0,0,0,398.76,359.54Z" style="fill:#fff"></path><path d="M64,261.43a3.4,3.4,0,0,1-1.6-.41,3.24,3.24,0,0,1-1.68-3,3.05,3.05,0,0,1,2.86-3.23A3.16,3.16,0,0,1,67,257.46h0a3.33,3.33,0,0,1-1.21,3.45A3.06,3.06,0,0,1,64,261.43Zm-.25-5.32h-.1c-1,.05-1.56.77-1.59,1.93A1.91,1.91,0,0,0,65,259.8a2.12,2.12,0,0,0,.65-2.15h0A1.82,1.82,0,0,0,63.78,256.11Z" style="fill:#fff"></path><path d="M228.49,227.17a3.35,3.35,0,0,1-1.59-.4,3.25,3.25,0,0,1-1.69-3,3.07,3.07,0,0,1,2.86-3.23,3.17,3.17,0,0,1,3.36,2.7h0a3.32,3.32,0,0,1-1.21,3.44A3,3,0,0,1,228.49,227.17Zm-.24-5.32h-.1c-1,.06-1.56.78-1.59,1.93a1.91,1.91,0,0,0,2.89,1.77,2.14,2.14,0,0,0,.65-2.16h0A1.82,1.82,0,0,0,228.25,221.85Z" style="fill:#fff"></path><path d="M432.45,243.89a3.33,3.33,0,0,1-1.22-3.45h0a3.18,3.18,0,0,1,3.36-2.69,3.05,3.05,0,0,1,2.86,3.23,3.24,3.24,0,0,1-1.68,3,3.43,3.43,0,0,1-1.6.41A3.06,3.06,0,0,1,432.45,243.89Zm.12-3.26h0a2.1,2.1,0,0,0,.65,2.15,1.91,1.91,0,0,0,2.89-1.76c0-1.16-.63-1.88-1.59-1.93h-.11A1.82,1.82,0,0,0,432.57,240.63Z" style="fill:#fff"></path><path d="M405.4,234a3.35,3.35,0,0,1-1.21-3.45h0a3.17,3.17,0,0,1,3.36-2.69,3.05,3.05,0,0,1,2.86,3.23,3.23,3.23,0,0,1-1.69,3,3.36,3.36,0,0,1-1.59.41A3.11,3.11,0,0,1,405.4,234Zm.12-3.26h0a2.12,2.12,0,0,0,.65,2.15,1.91,1.91,0,0,0,2.89-1.76c0-1.16-.62-1.88-1.59-1.93h-.1A1.82,1.82,0,0,0,405.52,230.76Z" style="fill:#fff"></path><path d="M145.58,191.22a3.35,3.35,0,0,1-1.21-3.45h0a3.17,3.17,0,0,1,3.36-2.69,3.05,3.05,0,0,1,2.86,3.23,3.26,3.26,0,0,1-1.69,3,3.36,3.36,0,0,1-1.59.41A3.09,3.09,0,0,1,145.58,191.22Zm.12-3.26h0a2.12,2.12,0,0,0,.65,2.15,1.91,1.91,0,0,0,2.89-1.76c0-1.16-.62-1.88-1.59-1.93h-.1A1.82,1.82,0,0,0,145.7,188Z" style="fill:#fff"></path><path d="M336,108.18a3.32,3.32,0,0,1-1.21-3.44h0a3.17,3.17,0,0,1,3.36-2.7,3.07,3.07,0,0,1,2.86,3.23,3.27,3.27,0,0,1-1.69,3,3.35,3.35,0,0,1-1.59.4A3,3,0,0,1,336,108.18Zm.12-3.26h0a2.14,2.14,0,0,0,.65,2.16,1.91,1.91,0,0,0,2.89-1.77c0-1.15-.62-1.87-1.59-1.93H338A1.82,1.82,0,0,0,336.14,104.92Z" style="fill:#fff"></path><path d="M76.76,290.83a2.14,2.14,0,0,1-2.13-2.23,2,2,0,0,1,1.88-2.1,2.08,2.08,0,0,1,2.19,1.77,2.19,2.19,0,0,1-.8,2.21A2,2,0,0,1,76.76,290.83Zm-.13-3h0c-.38,0-.59.3-.61.79a.75.75,0,0,0,.4.74.74.74,0,0,0,.76,0,1,1,0,0,0,.24-.92h0A.73.73,0,0,0,76.63,287.84Z" style="fill:#fff"></path><path d="M234.37,422.41c-3.12,7.82-6.69,15.36-9.13,23.31l-1.06-.27c2.53-9.55,7.43-18.62,10.66-27.81q.84-2.36,1.5-4.75c1.87-8.5-1-16.62-3.18-24.84-1.35-5-2.45-9.94-2.15-15.07a.66.66,0,0,1,.43-.65c2.15-.58,3.26,2.86,4,4.65.05.15.11.29.16.42a50.84,50.84,0,0,1,3.17,10.1C241.22,399.57,238.87,411.12,234.37,422.41Z" style="fill:#fff"></path><path d="M235.41,377a70.09,70.09,0,0,1-2.25,11.07A80.37,80.37,0,0,1,228,401.34c-.23.5-.47,1-.73,1.47a.33.33,0,0,1-.17.18c0,.09-.06.19-.08.28-1.34,4.71-2.9,9.35-3.94,14.12a86.4,86.4,0,0,0-1.61,21.73q.07,2.44.24,4.89c0,.26,0,.51.05.77l-.14,0h0c-.26-.07-.52-.14-.78-.23-.15-1.6-.28-3.2-.37-4.81-.08-1.37-.15-2.76-.17-4.14a78.07,78.07,0,0,1,1.1-16.2c1.13-6.19,3.28-12.13,4.86-18.21l.13-.46c.22-.89.45-1.77.64-2.68a107.18,107.18,0,0,0,2.57-15.54,86.94,86.94,0,0,0-.33-19.48c-.81-6.07-2.6-12.1-2.44-18.29,0-1.09.18-2.58,1.67-2.25,1.81.42,2.73,4,3.3,5.36a55.6,55.6,0,0,1,3.93,17A61.76,61.76,0,0,1,235.41,377Z" style="fill:#fff"></path><path d="M222.66,445V445l-.91-.25-.14,0h0a34.4,34.4,0,0,0-1.15-5c-2.88-9.46-9.28-18.13-13.84-26.86a43.48,43.48,0,0,1-.58-39.76.57.57,0,0,1,1,.19c1.07,9.82-2.88,19.38-1.63,29.2A41.56,41.56,0,0,0,208.7,414c.45.8.9,1.59,1.38,2.38,1.61,2.72,3.31,5.5,4.92,8.35l1.43,1.9a.31.31,0,0,1-.11.48,71,71,0,0,1,3.94,8.4q.69,1.79,1.2,3.57c.23.76.41,1.53.59,2.29A34,34,0,0,1,222.66,445Z" style="fill:#fff"></path><path d="M222.66,445V445l-.91-.25-.14,0,.09-.73c.08-.86.2-1.73.35-2.6a98.63,98.63,0,0,1,2.38-10.34c2.21-8.12,4.25-16.19,3.13-24.68-.14-1.06-.33-2.1-.55-3.12s-.41-1.74-.66-2.59c-.45-1.55-1-3.05-1.54-4.55a.25.25,0,0,1-.2-.12c-10.72-17.15-18.44-41.16-5-59.06a.62.62,0,0,1,1,.19c.87,4.1-.35,7.93-1.42,11.88a54.61,54.61,0,0,0-1.92,13.4,56.91,56.91,0,0,0,4.79,23.47c1.73,4.06,3.53,8,4.89,12.11.38,1.11.72,2.21,1,3.34a38.86,38.86,0,0,1,1.21,6.87C230.25,420.82,224.1,432.71,222.66,445Z" style="fill:#fff"></path><path d="M145.11,398.47a42.28,42.28,0,0,1-.42,4.5l-1-.75c.08-.61.13-1.23.18-1.84.1-1.33.15-2.65.12-4a46.7,46.7,0,0,0-1.13-9.72c-.23-1.09-.51-2.16-.84-3.24-.08-.32-.17-.65-.28-1-1.63-5.19-3.93-10.1-5.75-15.21-6.17-17.43,1.41-30.8,2.64-30.5,1.75.43.94,2.57.54,3.66a41.16,41.16,0,0,0-2.52,16.08c.24,5.64,1.84,10.82,3.89,16a71,71,0,0,1,2.56,7.8c.32,1.29.62,2.58.87,3.89a55.45,55.45,0,0,1,1,9.11c0,.33.06.67.07,1C145.15,395.71,145.16,397.08,145.11,398.47Z" style="fill:#fff"></path><path d="M150.58,388.49c-1.16,3.66-3.37,6.8-5.47,10-.4.63-.82,1.27-1.21,1.91-.28.44-.54.89-.81,1.35l-1.21-1c.69-1.52,1.43-3,2.14-4.38.12-.25.25-.49.38-.73.22-.45.45-.89.67-1.33a38.13,38.13,0,0,0,3.58-21.08,17.27,17.27,0,0,1-.23-4.35c.19-.62.74-.29,1.22.29a3.87,3.87,0,0,1,.67,1.17A28.88,28.88,0,0,1,150.58,388.49Z" style="fill:#fff"></path><path d="M149.64,369.2c-.15.82-.3,1.52-.44,2.09s-.35,1.32-.55,2a84.16,84.16,0,0,1-4.65,11c-.13.3-.28.59-.41.89-.25.52-.49,1.05-.7,1.57a48.32,48.32,0,0,0-3.59,12c-.64-.51-1.29-1-1.93-1.56a40.1,40.1,0,0,1,2.62-8.43c.76-1.81,1.44-3.56,2.06-5.28.39-1.05.74-2.09,1.08-3.11a88.44,88.44,0,0,0,4.17-36.56c0-.29.52-.29.68,0C151.67,350.18,150.71,363,149.64,369.2Z" style="fill:#fff"></path><path d="M372.69,391.19l-1.07.91a46.26,46.26,0,0,0-1.11-8.55c-.23-1.08-.51-2.15-.83-3.23-.08-.32-.18-.65-.29-1-1.63-5.19-3.93-10.1-5.75-15.22-6.17-17.42,1.42-30.79,2.64-30.5,1.75.44,1,2.58.54,3.67a41.16,41.16,0,0,0-2.52,16.08,49.37,49.37,0,0,0,3.9,16,65.34,65.34,0,0,1,2.54,7.82c.35,1.3.63,2.58.89,3.88a54.38,54.38,0,0,1,1,9.09C372.65,390.53,372.68,390.87,372.69,391.19Z" style="fill:#fff"></path><path d="M378.2,385.37q-.24.76-.54,1.5h0c-1.64,1.45-3.28,2.88-4.94,4.29a38.06,38.06,0,0,0,3.57-21c-.22-2.13-.45-3.62-.23-4.36s.74-.29,1.21.29a3.33,3.33,0,0,1,.67,1.17A28.88,28.88,0,0,1,378.2,385.37Z" style="fill:#fff"></path><path d="M377.26,366.08c-.15.82-.3,1.52-.43,2.09s-.35,1.33-.55,2a88.73,88.73,0,0,1-4.65,11c-.15.29-.28.58-.42.88-.24.51-.47,1-.7,1.56a48.61,48.61,0,0,0-3.66,12.51l-2.28,1.82a35.16,35.16,0,0,1,3.05-12.28c.75-1.81,1.44-3.56,2.06-5.28.37-1.05.74-2.08,1.06-3.09a88.38,88.38,0,0,0,4.19-36.58c0-.29.51-.29.67,0C379.28,347.06,378.32,359.85,377.26,366.08Z" style="fill:#fff"></path><path d="M258.9,448.32c-.37.05-.74.08-1.11.11a45.27,45.27,0,0,0-1-7.08c-.23-1.08-.51-2.15-.83-3.23-.08-.32-.18-.65-.28-1-1.63-5.19-3.94-10.1-5.76-15.22-6.16-17.42,1.42-30.79,2.64-30.5,1.76.44.95,2.58.54,3.67a41.16,41.16,0,0,0-2.52,16.08,49.37,49.37,0,0,0,3.9,16A65.34,65.34,0,0,1,257,435c.35,1.3.64,2.58.89,3.88a54.38,54.38,0,0,1,1,9.09C258.89,448.11,258.9,448.22,258.9,448.32Z" style="fill:#fff"></path><path d="M264.45,443.17a24.59,24.59,0,0,1-2.12,4.74h0c-1,.14-2,.26-3,.37A37.93,37.93,0,0,0,262.53,428c-.22-2.13-.45-3.62-.23-4.36s.74-.29,1.21.29a3.53,3.53,0,0,1,.68,1.17A29,29,0,0,1,264.45,443.17Z" style="fill:#fff"></path><path d="M263.51,423.88c-.15.82-.29,1.52-.43,2.09s-.35,1.33-.55,2a87.23,87.23,0,0,1-4.65,11c-.15.29-.28.58-.42.88-.24.51-.47,1-.7,1.56a52.06,52.06,0,0,0-2.6,7.37c-.74,0-1.48.08-2.22.11a47.46,47.46,0,0,1,1.93-5.43c.75-1.81,1.44-3.56,2.06-5.28.38-1.05.74-2.08,1.06-3.09a88.38,88.38,0,0,0,4.19-36.58c0-.29.51-.29.68,0C265.53,404.86,264.58,417.65,263.51,423.88Z" style="fill:#fff"></path><path d="M416.08,319.24a46.88,46.88,0,0,1-2.61,11.12c-1,2.95-2.18,5.86-3.29,8.8a117.18,117.18,0,0,0-3.41,12,.17.17,0,0,0,0,.07c-.07.34-.15.69-.21,1-.11.62-.22,1.24-.31,1.88s-.17,1.18-.23,1.77a1.47,1.47,0,0,0,0,.36c-.11.83-.19,1.67-.26,2.52l-.52.58v0l-.16.17c-.13.16-.27.31-.42.47,0-.54,0-1.07.07-1.61s.08-1.36.17-2c.06-.85.16-1.71.28-2.56.08-.53.16-1,.25-1.57.17-1,.37-1.95.6-2.9,2.8-12.33,9.21-24.07,6.61-37A53.72,53.72,0,0,0,406,296.09c-.46-.8-1-1.58-1.43-2.36l-1.86-3c-3.57-5.7-8.42-13.67-6.56-14.67,2.6-1.39,7.26,4.65,9.85,8.78l.7,1.19q1.33,2.3,2.57,4.7C413.75,299.57,417,309.28,416.08,319.24Z" style="fill:#fff"></path><path d="M413.91,282.9c-1.37,2.56-3.13,5.43-4.67,7.88l-1.86,3c-.48.78-1,1.56-1.41,2.36a53.51,53.51,0,0,0-6.63,16.31c-2.6,12.93,3.81,24.67,6.63,37,0,.24.1.49.16.75.15.66.28,1.33.4,2,0,0,0,.09,0,.14.09.5.17,1,.24,1.49,0,0,0,0,0,.08.12.89.23,1.78.3,2.66,0,.21,0,.43,0,.64h0l-.37.42c-.2.24-.4.47-.62.71-.05-.67-.11-1.33-.19-2a1,1,0,0,1,0-.15c0-.31-.07-.62-.12-.92h0c0-.35-.08-.7-.14-1.05s-.13-.87-.21-1.3c0-.18-.07-.39-.1-.58a107.45,107.45,0,0,0-3.63-13.14c-2.45-6.52-5.26-12.93-5.9-19.92-.92-10,2.33-19.67,6.84-28.46q1.23-2.4,2.57-4.7l.72-1.19a34.11,34.11,0,0,1,6.13-7.59c1.38-1.15,2.69-1.73,3.7-1.19S415.75,279.5,413.91,282.9Z" style="fill:#fff"></path><path d="M423,306.63a129.82,129.82,0,0,1-5,15.06c-3.11,9.82-8.41,19.49-11.18,29.52a.17.17,0,0,0,0,.07c-.08.3-.16.58-.23.88-.27,1-.51,2-.71,3.07h0c-.27,1.35-.47,2.71-.62,4.07a.34.34,0,0,1,0,.1v0l-.16.17c-.13.16-.27.31-.42.47a1.14,1.14,0,0,1-.15.17c0-.67.09-1.33.16-2s.13-1.21.23-1.81c.16-1.19.37-2.36.63-3.55.19-.91.42-1.81.66-2.73a83.71,83.71,0,0,1,2.76-8.47c1.44-3.8,3-7.54,4.58-11.32a88.29,88.29,0,0,0,4.82-14.72c2-9.53.24-18.57-2.69-27.7-.54-1.67-1.12-3.34-1.69-5s-1.25-3.72-1.81-5.6c-1.58-5.22-2.74-10.54-2.38-16,.48-7.1,4-14,10.74-16.94.27-.12.71,0,.67.4-.63,7.4-4.59,12.8-4.31,21.51a59.31,59.31,0,0,0,4.5,20.12C423.93,293.16,424.77,299.55,423,306.63Z" style="fill:#fff"></path><path d="M427.68,324.75c-.53,4.58-2.68,8.74-5.31,12.5a81.71,81.71,0,0,1-9.17,10.42,37.94,37.94,0,0,0-5,5.9c-.4,1-.75,2-1.06,3-.11.35-.22.71-.32,1.07s-.4.47-.62.71l-.45.52-.52.58v0s0-.08,0-.12c.08-.38.16-.74.24-1.11a11.69,11.69,0,0,1,.5-2c0-.07,0-.14.07-.21l.24-.63c.16-.51.35-1,.54-1.53a32.1,32.1,0,0,1,2-4.35c2.38-4.38,5.7-8.14,8.07-12.56a65.41,65.41,0,0,0,5.94-14.61c.71-2.82.6-16.9,2.54-15.91C426.61,307,428.69,316.05,427.68,324.75Z" style="fill:#fff"></path><path d="M405,359.6c-.13.16-.27.31-.42.47a1.14,1.14,0,0,1-.15.17l-.25.29c-.15-.52-.32-1-.5-1.54a110.66,110.66,0,0,0-8-15.25,90.42,90.42,0,0,1-7.38-14.43,48.29,48.29,0,0,1-2.93-15.63,45.37,45.37,0,0,1,.28-7.29c.2-1.48.71-2.87,2.44-2.95,3.84-.16,4,5.53,3.69,8.05s-.95,4.74-1.26,7.13a28.67,28.67,0,0,0,.27,9c1.18,6,4.53,11.18,7.44,16.45a82.69,82.69,0,0,1,6.36,14.16c0,.09,0,.15.06.22C404.79,358.84,404.92,359.22,405,359.6Z" style="fill:#fff"></path><path d="M115.53,348.08a47.34,47.34,0,0,1-2.57,11,.19.19,0,0,1,0,.09c-1,3-2.2,5.89-3.3,8.83-.32,1-.63,2-.94,2.95l-.38-.39c-.2-.2-.4-.4-.59-.61,2.93-9.41,6.32-18.7,4.31-28.7a53.26,53.26,0,0,0-6.63-16.31c-.46-.8-.93-1.58-1.41-2.36s-1.18-1.86-1.86-2.95c-3.57-5.71-8.42-13.69-6.56-14.67,2.6-1.39,7.24,4.65,9.84,8.78l.7,1.17c.89,1.54,1.75,3.12,2.58,4.72C113.2,328.42,116.44,338.14,115.53,348.08Z" style="fill:#fff"></path><path d="M113.36,311.75c-1.37,2.56-3.14,5.43-4.67,7.88l-1.86,2.95c-.49.77-1,1.56-1.43,2.36a53.26,53.26,0,0,0-6.61,16.31c-1.49,7.4,0,14.43,2,21.4-1-1-1.89-2.07-2.82-3.11a48.35,48.35,0,0,1-2.73-11.46c-.91-9.94,2.33-19.66,6.85-28.45.82-1.6,1.68-3.18,2.57-4.72.21-.36.46-.76.71-1.17a34.68,34.68,0,0,1,6.13-7.59c1.39-1.15,2.7-1.73,3.71-1.19S115.18,308.36,113.36,311.75Z" style="fill:#fff"></path><path d="M122.44,335.47a131.25,131.25,0,0,1-5,15.07c-2.21,7-5.53,13.87-8.25,20.89l-.46-.48-.38-.39s0,0,0,0c1.44-3.81,3.07-7.56,4.61-11.36a.19.19,0,0,0,0-.09,86.25,86.25,0,0,0,4.78-14.6c2-9.52.24-18.56-2.7-27.69-.54-1.67-1.11-3.36-1.68-5-.63-1.86-1.25-3.73-1.82-5.6-1.57-5.23-2.73-10.55-2.37-16,.47-7.1,4-14,10.74-16.92.26-.12.71,0,.67.4-.63,7.39-4.59,12.79-4.32,21.49a59.38,59.38,0,0,0,4.51,20.14C123.38,322,124.22,328.4,122.44,335.47Z" style="fill:#fff"></path><path d="M127.12,353.58c-.52,4.58-2.68,8.75-5.3,12.5a72.49,72.49,0,0,1-8.39,9.62l-2.21-2.19a83.49,83.49,0,0,0,5-7.78,65.08,65.08,0,0,0,6-14.61c.72-2.82.61-16.92,2.55-15.92C126.06,335.86,128.14,344.9,127.12,353.58Z" style="fill:#fff"></path><path d="M91.24,340.34c-.27,2.4-.94,4.73-1.25,7.13-.11.82-.18,1.64-.21,2.47q-2.5-3-4.89-6.08,0-.67-.06-1.35a43.18,43.18,0,0,1,.29-7.28c.2-1.47.71-2.87,2.43-3C91.39,332.11,91.54,337.81,91.24,340.34Z" style="fill:#fff"></path><path d="M343.33,413.46c-1.15.78-2.32,1.55-3.48,2.3A58.46,58.46,0,0,0,334.09,403c-.46-.79-.93-1.58-1.41-2.36l-1.86-2.95c-3.57-5.71-8.42-13.68-6.56-14.66,2.6-1.39,7.25,4.64,9.85,8.78l.7,1.17c.89,1.53,1.75,3.11,2.57,4.71A66.63,66.63,0,0,1,343.33,413.46Z" style="fill:#fff"></path><path d="M342.05,389.76c-1.37,2.56-3.14,5.43-4.67,7.88l-1.86,2.95c-.48.77-1,1.57-1.43,2.36a53.72,53.72,0,0,0-6.61,16.31,30.84,30.84,0,0,0-.56,4.43l-3,1.71c-.71-9.7,2.5-19.17,6.9-27.76.82-1.6,1.68-3.18,2.57-4.71.22-.36.46-.77.72-1.17a34.65,34.65,0,0,1,6.12-7.6c1.39-1.14,2.7-1.72,3.71-1.18S343.87,386.37,342.05,389.76Z" style="fill:#fff"></path><path d="M352,407.4q-2.42,1.75-4.86,3.43a69.51,69.51,0,0,0-3.44-16c-.54-1.67-1.12-3.35-1.69-5-.63-1.85-1.25-3.73-1.82-5.6-1.57-5.22-2.73-10.55-2.37-16,.48-7.1,4-14,10.74-16.92.27-.12.71,0,.67.39-.63,7.39-4.59,12.8-4.32,21.5a59.51,59.51,0,0,0,4.51,20.13A34.18,34.18,0,0,1,352,407.4Z" style="fill:#fff"></path><path d="M319.94,418.36c-.27,2.4-.95,4.73-1.26,7.12a25.37,25.37,0,0,0-.22,2.89c-1.25.66-2.49,1.3-3.74,1.93a50.28,50.28,0,0,1-1.19-9.77,42.31,42.31,0,0,1,.28-7.29c.2-1.47.71-2.87,2.44-2.95C320.08,410.13,320.23,415.83,319.94,418.36Z" style="fill:#fff"></path></g><g id="freepik--Character--inject-2"><path d="M253.91,318.71s-9.77,12.76-24.38,29.42c-10.82,12.33-26,26.19-33,41.74-15.83,35-4.45,63.18-4.45,63.18s51.37-29.44,69.76-65.82c12.82-25.35,6.75-66.52,6.75-66.52Z" style="fill:#FFC727"></path><path d="M253.91,318.71s-9.77,12.76-24.38,29.42c-10.82,12.33-26,26.19-33,41.74-15.83,35-4.45,63.18-4.45,63.18s51.37-29.44,69.76-65.82c12.82-25.35,6.75-66.52,6.75-66.52Z" style="opacity:0.2"></path><path d="M265.72,393.66c-162.28,0-187.1-96.22-187.1-172.48V191.42c0-77.24,74.48-76.24,77.56-76.24v20.6s-14.49-1.11-23.47,5.88C122,150,122.22,180.53,122.22,192.42v5.16c0,23.5,8.27,54.19,100.72,54.19H421.35S428,393.66,265.72,393.66Z" style="fill:#FFC727"></path><path d="M265.72,393.66c-162.28,0-187.1-96.22-187.1-172.48V191.42c0-77.24,74.48-76.24,77.56-76.24v20.6s-14.49-1.11-23.47,5.88C122,150,122.22,180.53,122.22,192.42v5.16c0,23.5,8.27,54.19,100.72,54.19H421.35S428,393.66,265.72,393.66Z" style="fill:#FFC727"></path><path d="M265.72,393.66c-162.28,0-187.1-96.22-187.1-172.48V191.42c0-77.24,74.48-76.24,77.56-76.24v20.6s-14.49-1.11-23.47,5.88C122,150,122.22,180.53,122.22,192.42v5.16c0,23.5,8.27,54.19,100.72,54.19H421.35S428,393.66,265.72,393.66Z" style="opacity:0.1"></path><path d="M263.09,202s-43.45,6.82-65.9-5c-23.94-12.59-18.33-61.27-41-61.27v-20.6c22.68,0,17.07-48.69,41-61.28,22.45-11.8,65.9-5,65.9-5S235.66,57.62,226.79,74c-12,22.11-6.54,51.46-26.94,51.46,20.4,0,15,29.34,26.94,51.46C235.66,193.34,263.09,202,263.09,202Z" style="fill:#FFC727"></path><g style="opacity:0.1"><path d="M263.09,202s-43.45,6.82-65.9-5c-23.94-12.59-18.33-61.27-41-61.27v-20.6c22.68,0,17.07-48.69,41-61.28,22.45-11.8,65.9-5,65.9-5S235.66,57.62,226.79,74c-12,22.11-6.54,51.46-26.94,51.46,20.4,0,15,29.34,26.94,51.46C235.66,193.34,263.09,202,263.09,202Z"></path></g><path d="M420.43,269.55C416,307.64,392.07,393.66,265.72,393.66c-162.28,0-187.11-96.22-187.11-172.48V204.35c7.69,3.26,14,12.33,15.52,32.35C101.68,337,178.38,367.94,233.8,367.94c62.52,0,86.18-59,129.7-82.89A125.61,125.61,0,0,1,420.43,269.55Z" style="fill:#fff"></path><path d="M420.43,269.55a159.28,159.28,0,0,1-7.05,32.28,137.48,137.48,0,0,1-6.09,15.39,130.14,130.14,0,0,1-7.87,14.56,121,121,0,0,1-21.18,25.38A126.36,126.36,0,0,1,351.05,376a148.52,148.52,0,0,1-31,11.65,206.4,206.4,0,0,1-32.65,5.53l-8.27.56c-.69,0-1.38.1-2.07.13l-2.07.05-4.14.09c-5.52.23-11,0-16.56-.08-1.38,0-2.76,0-4.14-.1l-4.13-.24-8.27-.47c-2.76-.19-5.5-.53-8.25-.78l-4.12-.41c-.69-.08-1.38-.13-2.06-.22l-2-.3-8.2-1.21-2-.31-2-.4-4.07-.8c-5.44-1-10.78-2.42-16.14-3.76a192.58,192.58,0,0,1-31-11.6,139.07,139.07,0,0,1-27.88-17.84,126.52,126.52,0,0,1-22.53-24.21,137.32,137.32,0,0,1-15.72-29.11,176.08,176.08,0,0,1-9-31.83,242.23,242.23,0,0,1-3.72-32.88c-.57-11-.29-22.05-.3-33.08.09,11-.11,22.06.54,33.07a244.12,244.12,0,0,0,4,32.8,176.09,176.09,0,0,0,9.09,31.7,136.26,136.26,0,0,0,15.72,28.94,125.47,125.47,0,0,0,22.47,24,137.69,137.69,0,0,0,27.77,17.67A191.7,191.7,0,0,0,189.06,384c5.34,1.31,10.65,2.76,16.08,3.7l4.05.79,2,.39,2,.3,8.17,1.19,2,.31c.68.08,1.37.14,2.05.21l4.11.43c2.74.26,5.47.6,8.22.8l8.25.49,4.12.25c1.37.08,2.75.07,4.13.11,5.5.07,11,.34,16.52.12L275,393l2.07,0c.69,0,1.37-.09,2.06-.13l8.24-.53a207,207,0,0,0,32.53-5.43,148,148,0,0,0,30.86-11.52,126,126,0,0,0,27.11-18.65A121.14,121.14,0,0,0,399,331.52,127.63,127.63,0,0,0,407,317.06a136.11,136.11,0,0,0,6.19-15.31A159.08,159.08,0,0,0,420.43,269.55Z" style="fill:#a6a6a6"></path><path d="M414.26,275.38a91.24,91.24,0,0,1-1.76,15.28,118.26,118.26,0,0,1-3.9,14.9,115.92,115.92,0,0,1-13.42,27.65,113.05,113.05,0,0,1-20.45,23A125.49,125.49,0,0,1,349,373.07,156.37,156.37,0,0,1,320.1,383.8c-5,1.37-10,2.4-15,3.38-2.54.41-5.06.9-7.61,1.23l-3.82.54-3.83.44A268.24,268.24,0,0,1,259,391c-10.27,0-20.55-.47-30.79-1.49-20.43-2.07-40.77-6.43-59.75-14.45s-36.37-20-49.7-35.68a128,128,0,0,1-16.94-25.71A153.06,153.06,0,0,1,91,284.86c-5.33-19.88-7.16-40.52-7.09-61C84,244.34,86,265,91.45,284.73a154.31,154.31,0,0,0,10.91,28.68A128.07,128.07,0,0,0,119.28,339c13.31,15.6,30.63,27.51,49.52,35.35s39.17,12.21,59.53,14.22c10.2,1,20.44,1.52,30.69,1.56a266.6,266.6,0,0,0,30.69-1.52l3.81-.43,3.81-.53c2.54-.31,5.06-.8,7.59-1.2,5-1,10.05-2,15-3.33a154.52,154.52,0,0,0,28.78-10.6,125.12,125.12,0,0,0,25.66-16.71,112.54,112.54,0,0,0,20.42-22.82,115.81,115.81,0,0,0,13.6-27.46,117.37,117.37,0,0,0,4-14.84A92.23,92.23,0,0,0,414.26,275.38Z" style="fill:#dbdbdb"></path><path d="M409.61,277.82a86,86,0,0,1-2,14.46,111.23,111.23,0,0,1-17.41,40,109.29,109.29,0,0,1-19.87,21.39,123.92,123.92,0,0,1-24.64,15.68c-17.61,8.48-36.85,13.17-56.2,15.37a268.58,268.58,0,0,1-29.19,1.66c-9.75,0-19.5-.33-29.21-1.19a239.48,239.48,0,0,1-28.93-4.33,181.53,181.53,0,0,1-28-8.3,141.27,141.27,0,0,1-26-13.3,118.33,118.33,0,0,1-39.35-42.58,143.69,143.69,0,0,1-11.26-27c-5.66-18.68-8-38.2-8.7-57.63.9,19.43,3.37,38.91,9.17,57.49a143.91,143.91,0,0,0,11.3,26.82,117.62,117.62,0,0,0,39.25,42.23,140,140,0,0,0,25.92,13.15c18.14,7,37.42,10.7,56.75,12.41,9.68.89,19.41,1.29,29.13,1.27a266.84,266.84,0,0,0,29.1-1.57c19.29-2.13,38.45-6.75,56-15.13A123.46,123.46,0,0,0,370,353.17a109.2,109.2,0,0,0,33.39-46.94,111,111,0,0,0,4.14-14A85.52,85.52,0,0,0,409.61,277.82Z" style="fill:#dbdbdb"></path><path d="M403.41,278.41a78,78,0,0,1-1.55,12.08,102.3,102.3,0,0,1-3.12,11.79,103.16,103.16,0,0,1-44.62,56.22c-13.85,8.61-29.37,14.31-45.26,17.78a230.42,230.42,0,0,1-48.5,5c-8.13,0-16.27-.16-24.39-.81-4.06-.24-8.11-.75-12.15-1.16s-8.08-1.06-12.08-1.81A193.31,193.31,0,0,1,188,371.92,155.06,155.06,0,0,1,165.26,363a126.24,126.24,0,0,1-20.79-12.78,114.29,114.29,0,0,1-17.66-16.82,112.44,112.44,0,0,1-13.57-20.25,136.46,136.46,0,0,1-9.31-22.51A136,136,0,0,0,113.49,313a115.32,115.32,0,0,0,13.71,20,113.59,113.59,0,0,0,17.64,16.67,124.65,124.65,0,0,0,20.73,12.63,154,154,0,0,0,22.64,8.8,193.94,193.94,0,0,0,23.68,5.48c4,.73,8,1.21,12,1.75s8.06.89,12.11,1.11c8.09.65,16.21.84,24.32.88a229.26,229.26,0,0,0,48.33-4.84c15.84-3.41,31.3-9,45.11-17.55a104.34,104.34,0,0,0,44.74-55.77,104,104,0,0,0,3.22-11.74A77.73,77.73,0,0,0,403.41,278.41Z" style="fill:#dbdbdb"></path><path d="M398,281.37a99.62,99.62,0,0,1-41.55,68.72,127.83,127.83,0,0,1-37.13,17.8,191.15,191.15,0,0,1-40.61,7.3c-6.86.53-13.75.76-20.64.76s-13.77-.2-20.64-.71a221.33,221.33,0,0,1-40.76-6.5A145.46,145.46,0,0,1,158.56,353a108.67,108.67,0,0,1-30.63-27.34q3.21,4,6.75,7.79c2.38,2.47,4.87,4.85,7.46,7.1a118.58,118.58,0,0,0,16.7,12,144.44,144.44,0,0,0,38,15.43,220.52,220.52,0,0,0,40.64,6.26,294.34,294.34,0,0,0,41.15.07,190.17,190.17,0,0,0,40.46-7.15,127.16,127.16,0,0,0,37-17.58,101.39,101.39,0,0,0,28-29.73A100.05,100.05,0,0,0,398,281.37Z" style="fill:#dbdbdb"></path><path d="M392.42,283.89a96.59,96.59,0,0,1-34.14,57.89,110.39,110.39,0,0,1-19.16,12.49,146.61,146.61,0,0,1-43.5,13.78,214.81,214.81,0,0,1-22.75,2.43c-3.81.19-7.63.34-11.44.35l-2.86,0c-.95,0-1.91-.06-2.86-.08a50.08,50.08,0,0,1-5.71-.53,90.92,90.92,0,0,1,11.42-.37c3.8,0,7.6-.15,11.4-.33a215.39,215.39,0,0,0,22.66-2.38,148.53,148.53,0,0,0,43.31-13.55,110,110,0,0,0,19.11-12.3,99.43,99.43,0,0,0,15.93-16.23A96.64,96.64,0,0,0,392.42,283.89Z" style="fill:#dbdbdb"></path><path d="M385.91,286.42a90.33,90.33,0,0,1-16.18,35.72,97.76,97.76,0,0,1-29.57,25.93,126.33,126.33,0,0,1-17.9,8.41,158.22,158.22,0,0,1-18.93,5.64l-4.84,1c-.81.16-1.61.34-2.42.49l-2.44.39-4.87.78-4.9.6c-3.26.44-6.55.59-9.83.87s-6.56.3-9.85.46c3.28-.24,6.57-.4,9.83-.7s6.55-.6,9.79-1.12l4.88-.66,4.84-.85,2.43-.43c.8-.15,1.6-.34,2.4-.52l4.8-1.05a172.57,172.57,0,0,0,18.79-5.74,127.12,127.12,0,0,0,17.72-8.42,102.7,102.7,0,0,0,16-11.29,98.52,98.52,0,0,0,13.45-14.24A94.36,94.36,0,0,0,385.91,286.42Z" style="fill:#dbdbdb"></path><path d="M379.6,288.66a83.19,83.19,0,0,1-5.69,15.82,87.35,87.35,0,0,1-8.71,14.42,94.23,94.23,0,0,1-24.75,22.73,110,110,0,0,1-14.89,7.93c-1.27.61-2.58,1.11-3.88,1.64s-2.6,1.07-3.93,1.53-2.64,1-4,1.41l-4,1.25a174.53,174.53,0,0,1-33,6.26c5.55-.8,11.1-1.6,16.56-2.81a162,162,0,0,0,16.25-4.19,125.14,125.14,0,0,0,30.38-13.86,95.13,95.13,0,0,0,24.68-22.35A89.81,89.81,0,0,0,379.6,288.66Z" style="fill:#dbdbdb"></path><path d="M374,289.36A84.36,84.36,0,0,1,368.72,303L367,306.27c-.55,1.1-1.26,2.1-1.88,3.16s-1.24,2.12-2,3.1l-2.14,3a89.57,89.57,0,0,1-21.19,20.29A118.71,118.71,0,0,1,313.59,349c-2.33.78-4.64,1.6-7,2.36l-7.1,1.88c-1.19.29-2.36.65-3.56.89l-3.61.68-7.2,1.35,7.15-1.61,3.57-.79c1.19-.28,2.35-.67,3.52-1l7-2c2.3-.8,4.59-1.65,6.88-2.47A122,122,0,0,0,339.24,335a90.82,90.82,0,0,0,21.15-19.93l2.18-2.93c.75-1,1.34-2,2-3s1.36-2,1.93-3.1l1.77-3.19A90.11,90.11,0,0,0,374,289.36Z" style="fill:#dbdbdb"></path><path d="M367.21,291.59a85.2,85.2,0,0,1-4.89,11.28,82.29,82.29,0,0,1-6.67,10.36,87.46,87.46,0,0,1-17.49,17.31,110.62,110.62,0,0,1-21.36,12.24,142.66,142.66,0,0,1-23.38,7.57l5.87-1.8,2.94-.89,2.88-1.05c1.91-.72,3.86-1.35,5.75-2.12l5.63-2.42a115,115,0,0,0,21.07-12.33,89.9,89.9,0,0,0,17.49-17,84,84,0,0,0,6.84-10.13A92.65,92.65,0,0,0,367.21,291.59Z" style="fill:#dbdbdb"></path><path d="M361.62,292.08a75.9,75.9,0,0,1-9.34,17.09A85.66,85.66,0,0,1,339,323.5,99.5,99.5,0,0,1,323,334.62c-2.89,1.49-5.76,3-8.76,4.29s-6,2.41-9.08,3.54c3-1.34,6-2.48,8.87-4,2.95-1.34,5.77-2.95,8.59-4.51a104.78,104.78,0,0,0,15.78-11.2,90.11,90.11,0,0,0,13.29-14c1-1.27,1.89-2.62,2.84-3.93s1.77-2.7,2.58-4.11A93.67,93.67,0,0,0,361.62,292.08Z" style="fill:#dbdbdb"></path><path d="M355.45,293.59a74.25,74.25,0,0,1-3.64,7c-1.33,2.27-2.82,4.43-4.36,6.56a84.29,84.29,0,0,1-10.6,11.66,89.9,89.9,0,0,1-12.59,9.47c-1.09.73-2.26,1.34-3.38,2l-1.71,1-1.74.91c-2.32,1.22-4.72,2.29-7.12,3.34,2.3-1.26,4.65-2.41,6.88-3.77l1.7-1,1.67-1c1.09-.71,2.23-1.35,3.29-2.11A97.62,97.62,0,0,0,336.17,318a91.17,91.17,0,0,0,10.67-11.38A97.23,97.23,0,0,0,355.45,293.59Z" style="fill:#dbdbdb"></path><circle cx="262.62" cy="346.66" r="7.4" style="fill:#263238"></circle><path d="M197.11,332.46s-14.18,7.59-34.37,16.71c-15,6.75-34.48,13.11-47.31,24.36-28.89,25.34-30.16,55.69-30.16,55.69s58.93-5.57,90.72-31.09c22.16-17.79,33.65-57.78,33.65-57.78Z" style="fill:#FFC727"></path><path d="M197.11,332.46s-14.18,7.59-34.37,16.71c-15,6.75-34.48,13.11-47.31,24.36-28.89,25.34-30.16,55.69-30.16,55.69s58.93-5.57,90.72-31.09c22.16-17.79,33.65-57.78,33.65-57.78Z" style="opacity:0.1"></path><g style="opacity:0.2"><path d="M100.67,266.19a.72.72,0,0,0,0,1.43A.72.72,0,0,0,100.67,266.19Z"></path><path d="M195,417.09a.71.71,0,0,0,0,1.42A.71.71,0,0,0,195,417.09Z"></path><path d="M140.81,280.19a.72.72,0,0,0,0,1.43A.72.72,0,0,0,140.81,280.19Z"></path><path d="M160.41,366a.72.72,0,0,0,0,1.43A.72.72,0,0,0,160.41,366Z"></path><path d="M241.53,406.31a.72.72,0,0,0,0,1.43A.72.72,0,0,0,241.53,406.31Z"></path><path d="M108.18,179.16a2.12,2.12,0,0,0-.11-.21.32.32,0,0,0-.55,0,2.12,2.12,0,0,0-.11.21C107,180,108.59,180,108.18,179.16Z"></path><path d="M152.12,299.67a2.26,2.26,0,0,0-.11-.22.33.33,0,0,0-.55,0,2.26,2.26,0,0,0-.11.22C150.94,300.51,152.53,300.51,152.12,299.67Z"></path><path d="M129.85,403l-.11-.22a.34.34,0,0,0-.56,0,2.26,2.26,0,0,0-.11.22C128.66,403.89,130.25,403.89,129.85,403Z"></path><path d="M106.81,270.55a.55.55,0,0,0,0,1.09A.55.55,0,0,0,106.81,270.55Z"></path><path d="M193.82,358.85a.55.55,0,0,0,0,1.09A.55.55,0,0,0,193.82,358.85Z"></path><path d="M194.35,410a.55.55,0,0,0,0,1.09A.55.55,0,0,0,194.35,410Z"></path><path d="M400.83,261a.55.55,0,0,0,0,1.09A.55.55,0,0,0,400.83,261Z"></path><path d="M119.17,248.45a.55.55,0,0,0,0,1.09A.55.55,0,0,0,119.17,248.45Z"></path><path d="M95.76,416.75a.55.55,0,0,0,0,1.09A.55.55,0,0,0,95.76,416.75Z"></path><path d="M84.35,201.65a.75.75,0,0,0-1.06,0,1,1,0,0,0-.26,1,.82.82,0,0,0,1.58,0A1,1,0,0,0,84.35,201.65Z"></path><path d="M186.81,73.19a.75.75,0,0,0-1.06,0,1,1,0,0,0-.26,1,.82.82,0,0,0,1.58,0A1,1,0,0,0,186.81,73.19Z"></path><path d="M146.1,299.81a.75.75,0,0,0-1.06,0,1,1,0,0,0-.26,1,.82.82,0,0,0,1.58,0A1,1,0,0,0,146.1,299.81Z"></path><path d="M99.69,169.86a.77.77,0,0,0-1.07,0,1.06,1.06,0,0,0-.26,1,.83.83,0,0,0,1.59,0A1.06,1.06,0,0,0,99.69,169.86Z"></path><path d="M244.2,50.89a.74.74,0,0,0-1.06,0,1,1,0,0,0-.26,1,.83.83,0,0,0,1.58,0A1,1,0,0,0,244.2,50.89Z"></path><path d="M203.22,353.05a.72.72,0,0,0,0-1.43A.72.72,0,0,0,203.22,353.05Z"></path><path d="M197.8,415.66a.72.72,0,0,0,0-1.43A.72.72,0,0,0,197.8,415.66Z"></path><path d="M221.09,170.56a.71.71,0,0,0,0-1.42A.71.71,0,0,0,221.09,170.56Z"></path><path d="M242.22,356.9a.72.72,0,0,0,0-1.43A.72.72,0,0,0,242.22,356.9Z"></path><path d="M134,134.82a.72.72,0,0,0,0-1.43A.72.72,0,0,0,134,134.82Z"></path><path d="M206.71,261.56a.72.72,0,0,0,0-1.43A.72.72,0,0,0,206.71,261.56Z"></path><path d="M335.39,276a2.12,2.12,0,0,0,.11.21.32.32,0,0,0,.55,0,2.12,2.12,0,0,0,.11-.21C336.57,275.11,335,275.11,335.39,276Z"></path><path d="M273.21,350.15a1.51,1.51,0,0,0,.11.22.33.33,0,0,0,.56,0c0-.07.07-.14.11-.22C274.39,349.31,272.81,349.31,273.21,350.15Z"></path><path d="M210.19,391.94a1.43,1.43,0,0,0,.12.21.32.32,0,0,0,.55,0,1.39,1.39,0,0,0,.11-.21C211.38,391.09,209.79,391.09,210.19,391.94Z"></path><path d="M309.24,322.39a2.25,2.25,0,0,0,.12.21.32.32,0,0,0,.55,0,2.12,2.12,0,0,0,.11-.21C310.43,321.54,308.84,321.54,309.24,322.39Z"></path><path d="M197.08,348.69a.55.55,0,0,0,0-1.09A.55.55,0,0,0,197.08,348.69Z"></path><path d="M202.76,437.33a.55.55,0,0,0,0-1.09A.55.55,0,0,0,202.76,437.33Z"></path><path d="M179.72,95.4a.55.55,0,0,0,0-1.1A.55.55,0,0,0,179.72,95.4Z"></path><path d="M192.63,73a.55.55,0,0,0,0-1.09A.55.55,0,0,0,192.63,73Z"></path><path d="M342.26,270.64a.55.55,0,0,0,0-1.09A.55.55,0,0,0,342.26,270.64Z"></path><path d="M211.11,185.16a.55.55,0,0,0,0-1.09A.55.55,0,0,0,211.11,185.16Z"></path><path d="M292.91,373.55a.55.55,0,0,0,0-1.09A.55.55,0,0,0,292.91,373.55Z"></path><path d="M284.62,268.43a.75.75,0,0,0,1.07,0,1,1,0,0,0,.26-1,.83.83,0,0,0-1.59,0A1,1,0,0,0,284.62,268.43Z"></path><path d="M383.13,272.13a.77.77,0,0,0,1.07,0,1.06,1.06,0,0,0,.26-1,.83.83,0,0,0-1.59,0A1.06,1.06,0,0,0,383.13,272.13Z"></path><path d="M200.13,138.06a.77.77,0,0,0,1.07,0,1,1,0,0,0,.26-1,.83.83,0,0,0-1.59,0A1.08,1.08,0,0,0,200.13,138.06Z"></path><path d="M184.92,307.12a.77.77,0,0,0,1.07,0,1,1,0,0,0,.25-1,.82.82,0,0,0-1.58,0A1.05,1.05,0,0,0,184.92,307.12Z"></path><path d="M112,397.82a.77.77,0,0,0,1.07,0,1.06,1.06,0,0,0,.26-1,.83.83,0,0,0-1.59,0A1.06,1.06,0,0,0,112,397.82Z"></path><path d="M313.49,315.29a.75.75,0,0,0,1.06,0,1,1,0,0,0,.26-1,.83.83,0,0,0-1.58,0A1,1,0,0,0,313.49,315.29Z"></path></g></g><g id="freepik--Fishes--inject-2"><path d="M376.36,101.42s-13.12-10-29.57,0C346.79,101.42,361,110.31,376.36,101.42Z" style="fill:#37474f"></path><path d="M376.36,101.42s5.56-5.23,6.9-4.45-4.12,4.45-4.12,4.45,4.45,5,2.45,5.44S376.36,101.42,376.36,101.42Z" style="fill:#37474f"></path><g style="opacity:0.1"><path d="M376.36,101.42s-13.12-10-29.57,0C346.79,101.42,361,110.31,376.36,101.42Z" style="fill:#37474f"></path><path d="M376.36,101.42s5.56-5.23,6.9-4.45-4.12,4.45-4.12,4.45,4.45,5,2.45,5.44S376.36,101.42,376.36,101.42Z" style="fill:#37474f"></path></g><path d="M419.23,148.21s-13.12-10-29.57,0C389.66,148.21,403.89,157.11,419.23,148.21Z" style="fill:#37474f"></path><path d="M419.23,148.21s5.56-5.22,6.89-4.44-4.11,4.44-4.11,4.44,4.45,5,2.45,5.45S419.23,148.21,419.23,148.21Z" style="fill:#37474f"></path><path d="M412.9,129.05s-9.13-7-20.59,0C392.31,129.05,402.22,135.24,412.9,129.05Z" style="fill:#37474f"></path><path d="M412.9,129.05s3.87-3.64,4.8-3.1-2.86,3.1-2.86,3.1,3.09,3.48,1.7,3.79S412.9,129.05,412.9,129.05Z" style="fill:#37474f"></path><g style="opacity:0.1"><path d="M412.9,129.05s-9.13-7-20.59,0C392.31,129.05,402.22,135.24,412.9,129.05Z" style="fill:#37474f"></path><path d="M412.9,129.05s3.87-3.64,4.8-3.1-2.86,3.1-2.86,3.1,3.09,3.48,1.7,3.79S412.9,129.05,412.9,129.05Z" style="fill:#37474f"></path></g><path d="M329,118.23s-9.14-7-20.59,0C308.45,118.23,318.35,124.43,329,118.23Z" style="fill:#37474f"></path><path d="M329,118.23s3.87-3.63,4.79-3.09-2.86,3.09-2.86,3.09,3.1,3.49,1.7,3.8S329,118.23,329,118.23Z" style="fill:#37474f"></path><g style="opacity:0.1"><path d="M329,118.23s-9.14-7-20.59,0C308.45,118.23,318.35,124.43,329,118.23Z" style="fill:#37474f"></path><path d="M329,118.23s3.87-3.63,4.79-3.09-2.86,3.09-2.86,3.09,3.1,3.49,1.7,3.8S329,118.23,329,118.23Z" style="fill:#37474f"></path></g><path d="M384.18,117.73s-9.13-7-20.58,0C363.6,117.73,373.5,123.92,384.18,117.73Z" style="fill:#37474f"></path><path d="M384.18,117.73s3.87-3.64,4.8-3.09-2.86,3.09-2.86,3.09,3.1,3.49,1.7,3.79S384.18,117.73,384.18,117.73Z" style="fill:#37474f"></path><path d="M340.71,87.92s-9.14-7-20.59,0C320.12,87.92,330,94.11,340.71,87.92Z" style="fill:#37474f"></path><path d="M340.71,87.92s3.87-3.64,4.79-3.09-2.86,3.09-2.86,3.09,3.1,3.49,1.7,3.8S340.71,87.92,340.71,87.92Z" style="fill:#37474f"></path><path d="M76.68,298.67s13.12-10,29.57,0C106.25,298.67,92,307.56,76.68,298.67Z" style="fill:#37474f"></path><path d="M76.68,298.67s-5.56-5.23-6.89-4.45,4.11,4.45,4.11,4.45-4.45,5-2.44,5.44S76.68,298.67,76.68,298.67Z" style="fill:#37474f"></path><path d="M92.16,281.67s9.13-7,20.59,0C112.75,281.67,102.84,287.86,92.16,281.67Z" style="fill:#37474f"></path><path d="M92.16,281.67s-3.87-3.64-4.8-3.1,2.87,3.1,2.87,3.1-3.1,3.48-1.71,3.79S92.16,281.67,92.16,281.67Z" style="fill:#37474f"></path><g style="opacity:0.1"><path d="M92.16,281.67s9.13-7,20.59,0C112.75,281.67,102.84,287.86,92.16,281.67Z" style="fill:#37474f"></path><path d="M92.16,281.67s-3.87-3.64-4.8-3.1,2.87,3.1,2.87,3.1-3.1,3.48-1.71,3.79S92.16,281.67,92.16,281.67Z" style="fill:#37474f"></path></g><path d="M50.45,275s9.13-7,20.59,0C71,275,61.13,281.19,50.45,275Z" style="fill:#37474f"></path><path d="M50.45,275s-3.87-3.63-4.8-3.09S48.52,275,48.52,275s-3.1,3.49-1.71,3.8S50.45,275,50.45,275Z" style="fill:#37474f"></path><path d="M145.19,156s9.13-7,20.58,0C165.77,156,155.87,162.2,145.19,156Z" style="fill:#37474f"></path><path d="M145.19,156s-3.87-3.64-4.8-3.1,2.86,3.1,2.86,3.1-3.09,3.48-1.7,3.79S145.19,156,145.19,156Z" style="fill:#37474f"></path><path d="M120.1,170.91s13.12-10,29.57,0C149.67,170.91,135.44,179.81,120.1,170.91Z" style="fill:#37474f"></path><path d="M120.1,170.91s-5.56-5.22-6.89-4.45,4.11,4.45,4.11,4.45-4.45,5-2.45,5.45S120.1,170.91,120.1,170.91Z" style="fill:#37474f"></path><g style="opacity:0.1"><path d="M120.1,170.91s13.12-10,29.57,0C149.67,170.91,135.44,179.81,120.1,170.91Z" style="fill:#37474f"></path><path d="M120.1,170.91s-5.56-5.22-6.89-4.45,4.11,4.45,4.11,4.45-4.45,5-2.45,5.45S120.1,170.91,120.1,170.91Z" style="fill:#37474f"></path></g><path d="M367.47,360.08s-13.12-10-29.58,0C337.89,360.08,352.12,369,367.47,360.08Z" style="fill:#37474f"></path><path d="M367.47,360.08s5.55-5.23,6.89-4.45-4.12,4.45-4.12,4.45,4.45,5,2.45,5.44S367.47,360.08,367.47,360.08Z" style="fill:#37474f"></path><path d="M376.82,388.48s-9.13-7-20.59,0C356.23,388.48,366.14,394.67,376.82,388.48Z" style="fill:#37474f"></path><path d="M376.82,388.48s3.87-3.64,4.8-3.1-2.87,3.1-2.87,3.1,3.1,3.48,1.71,3.79S376.82,388.48,376.82,388.48Z" style="fill:#37474f"></path><path d="M407.61,377.71s-13.12-10-29.57,0C378,377.71,392.27,386.61,407.61,377.71Z" style="fill:#37474f"></path><path d="M407.61,377.71s5.56-5.22,6.9-4.44-4.12,4.44-4.12,4.44,4.45,5,2.45,5.45S407.61,377.71,407.61,377.71Z" style="fill:#37474f"></path><g style="opacity:0.1"><path d="M407.61,377.71s-13.12-10-29.57,0C378,377.71,392.27,386.61,407.61,377.71Z" style="fill:#37474f"></path><path d="M407.61,377.71s5.56-5.22,6.9-4.44-4.12,4.44-4.12,4.44,4.45,5,2.45,5.45S407.61,377.71,407.61,377.71Z" style="fill:#37474f"></path></g><path d="M324.71,394.07s-13.12-10-29.58,0C295.13,394.07,309.36,403,324.71,394.07Z" style="fill:#37474f"></path><path d="M324.71,394.07s5.56-5.23,6.89-4.45-4.11,4.45-4.11,4.45,4.44,5,2.44,5.45S324.71,394.07,324.71,394.07Z" style="fill:#37474f"></path><g style="opacity:0.1"><path d="M324.71,394.07s-13.12-10-29.58,0C295.13,394.07,309.36,403,324.71,394.07Z" style="fill:#37474f"></path><path d="M324.71,394.07s5.56-5.23,6.89-4.45-4.11,4.45-4.11,4.45,4.44,5,2.44,5.45S324.71,394.07,324.71,394.07Z" style="fill:#37474f"></path></g><path d="M347.54,377.86s-9.14-7-20.59,0C327,377.86,336.86,384.05,347.54,377.86Z" style="fill:#37474f"></path><path d="M347.54,377.86s3.87-3.64,4.8-3.1-2.87,3.1-2.87,3.1,3.1,3.48,1.7,3.79S347.54,377.86,347.54,377.86Z" style="fill:#37474f"></path><g style="opacity:0.1"><path d="M347.54,377.86s-9.14-7-20.59,0C327,377.86,336.86,384.05,347.54,377.86Z" style="fill:#37474f"></path><path d="M347.54,377.86s3.87-3.64,4.8-3.1-2.87,3.1-2.87,3.1,3.1,3.48,1.7,3.79S347.54,377.86,347.54,377.86Z" style="fill:#37474f"></path></g></g></svg>