<svg xmlns="http://www.w3.org/2000/svg" viewBox="0 0 500 500"><g id="freepik--background-complete--inject-2"><path d="M380.06,233.25a32,32,0,0,1-9.42,10.3c-8.07,5.67-18.73,5.68-26.78,11.16-.7.94-1.38,1.91-2,2.94l0,.05s0,0,0,0h0a.14.14,0,0,1-.14,0c.05-.14.1-.28.16-.41s.19-.49.3-.73.3-.68.47-1c0,0,.06-.16.09-.19,4.68-9.4,14.87-14.57,23.27-20.26,4.81-3.26,8.72-7.54,13.43-10.85,1.13-.79,3-2.58,4-.8C384.42,225.5,381,231.58,380.06,233.25Z" style="fill:#ebebeb"></path><path d="M376.51,231.37c-.61-1.28-3,1-3.73,1.47-5.78,3.81-11.7,7.07-17.51,10.73a37.91,37.91,0,0,0-11.67,10.79h0a15.39,15.39,0,0,0-1.49,2.25c-.18.32-.35.66-.51,1a.13.13,0,0,0,0,.12l0,0a.14.14,0,0,0,.14,0h0s0,0,0,0l0-.05c0-.1.1-.18.14-.27h0l.36-.61c.18-.3.36-.58.55-.87,6.83-10,21.9-9.25,30.07-17.88C373.91,237,377.28,233,376.51,231.37ZM346,251.84A51,51,0,0,1,357.29,243c3.36-2.06,6.75-4.09,10.13-6.14l4.8-2.94c.41-.25,2.91-2.52,3.57-2.23,1.1.48-1.54,4.18-2,4.72C367.23,245.05,354,245.12,346,251.84Z" style="fill:#fff"></path><path d="M299.49,313.89c-.12.1-.36.16-.41-.08-2-10.51-13.16-15.38-15.83-25.69a47.41,47.41,0,0,1-1.11-12.74,38.15,38.15,0,0,1,1-9.41c.12-.4.39-2.24,1.05-2.61,5-2.79,8.14,14.1,8.84,16.76,2.77,10.37,5.32,19.84,6.24,30.36.11,1.09.19,2.2.25,3.31C299.56,313.83,299.53,313.86,299.49,313.89Z" style="fill:#ebebeb"></path><path d="M299.56,313.79c-.06-1.11-.14-2.22-.25-3.31-1.12-4.8-2.74-9.49-4.32-14.14-2.47-7.28-4.23-14.64-6.13-22.07-.25-1-.7-5.64-2.45-5.31-1.94.36-1.81,5.27-1.83,6.5a37,37,0,0,0,5.22,19.09c3.36,6,7.35,11.68,9.46,18.21.08.37.15.75.23,1.13C299.53,313.86,299.56,313.83,299.56,313.79Zm-8.16-17.58c-7-11-7-25.27-4.9-25.83.79-.21,1.21,1.52,1.35,2,.28,1,.55,2.06.81,3.1.51,2.07,1,4.15,1.48,6.22.91,3.79,2,7.52,3.2,11.22,1.77,5.38,3.67,10.7,5.07,16.16A80.28,80.28,0,0,0,291.4,296.21Z" style="fill:#fff"></path><path d="M301.51,291.32a.09.09,0,0,1-.1.07.09.09,0,0,1-.09-.1c0-.27,0-.52,0-.78,0-1,.06-1.91.11-2.84,0-.18,0-.35,0-.52s0-.06,0-.1c.36-10.27-5.52-19.7-3.58-30A41.44,41.44,0,0,1,303,244.15c1-1.73,3.36-7.79,6.13-7.08,2.17.55,2.34,4.46,2.39,6.11.19,5.22-1.42,10.58-2.73,15.59s-2.82,9.73-4.24,14.59a85,85,0,0,0-2.6,13.57C301.82,288.38,301.66,289.84,301.51,291.32Z" style="fill:#ebebeb"></path><path d="M302,286.93c.07-1.07.1-2.14.1-3.22.54-4.74,1.08-9.48,1.66-14.21.88-7,3-13.78,4.27-20.74.15-.86,1.31-4.49-.53-4s-5.87,10.79-6.92,16a24.26,24.26,0,0,0-.17,8.41,116,116,0,0,1,1.18,17.15c0,.48-.09,1-.14,1.45-.05.93-.09,1.88-.11,2.84.07-.55.13-1.11.19-1.67,0,.85-.07,1.7-.11,2.55a.09.09,0,0,0,.1-.07C301.66,289.84,301.82,288.38,302,286.93Zm-.81-16.17c-.59-3.92-.86-7.56.31-11.42,1.11-3.63,2.51-7.25,4-10.75.3-.72,1.45-3.47,2.23-3.13s-.36,4.34-.47,4.84c-.37,1.86-.8,3.7-1.25,5.55-.89,3.69-1.82,7.36-2.39,11.12-.67,4.53-1.12,9.1-1.51,13.68A86.73,86.73,0,0,0,301.18,270.76Z" style="fill:#fff"></path><path d="M305.6,361.34a.08.08,0,0,1-.11,0,.08.08,0,0,1,0-.12c.13-.2.26-.38.4-.57.49-.7,1-1.37,1.51-2l.29-.36a.13.13,0,0,1,0-.09c5.45-7.38,5.87-17.28,12.5-23.89a36.58,36.58,0,0,1,10.31-6.87c1.61-.77,6.39-4,8.08-2.13,1.32,1.5-.53,4.46-1.32,5.7-2.5,3.94-6.39,7.08-9.88,10.1s-7,5.74-10.47,8.6a75.53,75.53,0,0,0-8.75,8.68C307.31,359.34,306.46,360.33,305.6,361.34Z" style="fill:#ebebeb"></path><path d="M308.17,358.36c.59-.75,1.15-1.53,1.69-2.32,2.79-3.21,5.58-6.44,8.39-9.62,4.19-4.74,9.17-8.62,13.6-13.11.54-.56,3.23-2.64,1.65-3.25s-9.76,5-13.13,8.25a21.72,21.72,0,0,0-4.37,6.1,103.62,103.62,0,0,1-7.78,13.22l-.83,1c-.51.67-1,1.34-1.51,2l1-1.14-1.37,1.83a.08.08,0,0,0,.11,0C306.46,360.33,307.31,359.34,308.17,358.36Zm7.55-12.31c1.54-3.18,3.18-6,6-8.24,2.64-2.12,5.5-4.08,8.33-5.92.6-.37,2.82-1.82,3.23-1.17s-2.46,3-2.79,3.32c-1.21,1.18-2.46,2.32-3.72,3.45-2.51,2.26-5.05,4.51-7.36,7-2.78,3-5.41,6.14-8,9.3A74.6,74.6,0,0,0,315.72,346.05Z" style="fill:#fff"></path><path d="M300.89,367.26a1.35,1.35,0,0,1-.3-.68c-3.8-9.08-10.62-16.47-14.44-25.59a26.92,26.92,0,0,1-2.29-12.66c.17-1.86.71-8.28,3-9.13,6.81-2.6,12.87,34.48,14.39,47.12a1.61,1.61,0,0,1,.09.56C301.33,367.31,301.11,367.45,300.89,367.26Z" style="fill:#ebebeb"></path><path d="M301.32,366.88c-.05-.21-.12-.42-.19-.64-3.24-12.53-6.44-25.17-10.45-37.46-.28-.86-.82-3.55-2.29-2.93s-1.35,4.35-1.33,5.64a35.28,35.28,0,0,0,4.7,16.94c1.87,3.33,4,6.51,5.65,9.94,1.06,2.17,2,4.38,2.88,6.62.21.76.4,1.52.6,2.27C301.11,367.45,301.33,367.31,301.32,366.88Zm-7.52-16.16c-3.81-6.33-6.44-13.11-6.15-20.63,0-.47.11-3.09.91-3.52s1.72,2.38,1.95,3.11c.57,1.87,1.07,3.75,1.61,5.63q1.63,5.69,3.21,11.39,2,7.28,4,14.59A84.9,84.9,0,0,0,293.8,350.72Z" style="fill:#fff"></path><path d="M326.79,281.76a.4.4,0,0,1-.23.28.46.46,0,0,1-.48-.09.54.54,0,0,1-.17-.22.18.18,0,0,1-.07-.15c.08-6.07-1.62-13.6-1.75-19.65A47.05,47.05,0,0,1,326,248.2a64.15,64.15,0,0,1,5.86-14.34c1.22-2.13,3.85-7.44,6.84-7.65,6.16-.44-.92,17.26-1.53,19.42C333.76,257.69,330.33,269.74,326.79,281.76Z" style="fill:#ebebeb"></path><path d="M326.62,281.57c1.42-6.25,2.74-12.51,4.09-18.77.88-4.07,1.75-8.13,2.86-12.14,1.05-3.82,2.62-7.46,3.71-11.27.28-1,1.74-4.72.11-5.1-3.13-.71-9.56,18.25-10.18,25.68-.35,4.26,0,8.55-.19,12.82-.13,2.63-.4,5.24-.67,7.84l-.27,1.32a.46.46,0,0,0,.48.09Zm.85-8.31c.28-4.27-.08-8.56.24-12.82a50.59,50.59,0,0,1,2.79-12.51c.7-2.06,1.48-4.08,2.29-6.1.5-1.23,2.69-6.53,4.06-6.79s.21,3.27,0,4.16-.66,2-1,3c-.75,2.06-1.49,4.12-2.12,6.22-1.12,3.76-2,7.59-2.84,11.41-1.21,5.54-2.44,11.08-3.62,16.63C327.32,275.42,327.4,274.33,327.47,273.26Z" style="fill:#fff"></path><path d="M356.44,325.43c-11.8.2-22.43-7.47-36.69-.39a.06.06,0,0,1-.1-.07s0,0,0-.05q2-1.28,4-2.4a66.47,66.47,0,0,1,24.14-7.73,50.24,50.24,0,0,1,15.09.52c2.53.5,8.43,1.18,9.81,3.49C375.75,323.78,358.58,325.4,356.44,325.43Z" style="fill:#ebebeb"></path><path d="M364.65,318.39c-.41-1.7-4.9-1.43-6.08-1.52a73.15,73.15,0,0,0-20.4,1.23A70.48,70.48,0,0,0,324,322.45l-.28.07q-2.07,1.13-4,2.4s0,0,0,.05c1.69-.76,3.37-1.49,5.06-2.19a57.21,57.21,0,0,1,14.19-1.31c6.92.15,14.29,1.95,21.08-.07C360.92,321.12,365,320,364.65,318.39Zm-3.88,2.26a20.51,20.51,0,0,1-4.95,1.05c-6.42.61-13-.78-19.41-.71a57.86,57.86,0,0,0-9.22.8,66.6,66.6,0,0,1,7.67-2.46,72.74,72.74,0,0,1,18.47-2.23c2.89,0,10.11.23,10.57,1.31S361.4,320.42,360.77,320.65Z" style="fill:#fff"></path><path d="M383.91,285.59a54,54,0,0,1-9.2,8.87,53.23,53.23,0,0,1-22.43,9.83l-.44.08c-.34.23-.68.46-1,.66l-.24.14-.06,0h0a.1.1,0,0,1-.06-.18L351.5,304c7.34-7.21,13.32-15.53,21.73-21.63,1.84-1.32,13.5-10.41,15.23-5C389.26,279.91,385.28,283.92,383.91,285.59Z" style="fill:#ebebeb"></path><path d="M383.43,281.15c-.54-1.87-2.88-.8-4-.24a40.9,40.9,0,0,0-7.35,5.2c-2.4,1.91-4.64,4-6.84,6.11a119.39,119.39,0,0,1-12.66,11.18l-1,.56L350.43,305a.1.1,0,0,0,.06.18h0a2.14,2.14,0,0,0,.3-.17l.39-.21,1.09-.53A147.46,147.46,0,0,0,365.21,297c5.37-3.32,11.44-6.81,15.79-11.43C381.91,284.55,383.88,282.73,383.43,281.15Zm-1.11,2a16.74,16.74,0,0,1-1.25,1.56,26.63,26.63,0,0,1-4.2,3.74c-2.9,2.19-5.92,4.24-9,6.22-3.91,2.52-8,4.75-12,6.95a105.71,105.71,0,0,0,7.91-7.19c2.39-2.32,4.79-4.66,7.37-6.79s5.63-4.81,8.79-6.32C381.36,280.63,383.5,281.4,382.32,283.15Z" style="fill:#fff"></path><path d="M359.71,221.45l-.28.41a.3.3,0,0,1-.51,0,.3.3,0,0,1,0-.33l.51-.76h0l.41-.62c.13-.43.25-.87.35-1.32,1.11-4.82.38-10.65.72-15.4a64.77,64.77,0,0,1,2-12.83,31.87,31.87,0,0,1,5.72-11.79c.75-.92,2.52-3.38,4.08-2.82,2,.7,1.34,5.23,1.35,6.59a53.39,53.39,0,0,1-1.86,14.06C369.77,205.79,365.13,213.74,359.71,221.45Z" style="fill:#ebebeb"></path><path d="M367.45,202.37c1.36-4.25,2.59-8.55,3.65-12.88a29,29,0,0,0,1-5.69c0-.55.24-1.7-.43-2-3.56-1.82-7,14.68-7.44,16.83-.88,4.28-1.45,8.61-2.17,12.91a42.38,42.38,0,0,1-1.85,7.28c-.24.65-.48,1.3-.76,1.94h0c-.11.25-.23.51-.35.76s-.11.22-.17.33a.3.3,0,0,0,.51,0l.28-.41a18.51,18.51,0,0,0,.91-2A122.63,122.63,0,0,0,367.45,202.37Zm-5.92,14.19c.92-3.53,1.3-7.28,1.84-10.63.6-3.78,1.29-7.56,2.22-11.27.46-1.85,1-3.68,1.58-5.49.53-1.58,2.73-7.21,4-6.9.85.22.16,4.6,0,5.52-.4,1.87-.92,3.72-1.42,5.56-1,3.78-2.15,7.53-3.41,11.25A125.37,125.37,0,0,1,361.53,216.56Z" style="fill:#fff"></path><path d="M347.49,278.56l-.46.21a.3.3,0,0,1-.42-.29.3.3,0,0,1,.18-.27l.82-.41h0c.22-.11.43-.23.66-.33.33-.31.66-.63,1-1,3.37-3.62,5.66-9,8.34-13a65,65,0,0,1,8.16-10.1,32.12,32.12,0,0,1,10.87-7.33c1.11-.41,3.88-1.65,4.94-.39,1.35,1.59-1.46,5.19-2.13,6.38a53.4,53.4,0,0,1-8.67,11.23C364,270.07,356,274.61,347.49,278.56Z" style="fill:#ebebeb"></path><path d="M363.75,265.94q5-4.49,9.63-9.31a29.07,29.07,0,0,0,3.71-4.42c.29-.47,1.06-1.36.64-2-2.16-3.36-13.41,9.19-14.87,10.82-2.91,3.26-5.58,6.72-8.36,10.08a43.84,43.84,0,0,1-5.25,5.37c-.54.45-1.07.88-1.63,1.3h0c-.23.17-.46.32-.68.49a3.37,3.37,0,0,1-.32.19.3.3,0,0,0,.42.29l.46-.21a19.57,19.57,0,0,0,1.79-1.28A123.68,123.68,0,0,0,363.75,265.94Zm-12.24,9.3c2.57-2.59,4.78-5.64,6.93-8.26,2.41-3,4.9-5.9,7.57-8.64,1.33-1.36,2.69-2.69,4.12-3.95,1.25-1.11,6-4.88,6.89-4,.62.61-2.17,4.05-2.81,4.75-1.28,1.41-2.65,2.76-4,4.1-2.79,2.75-5.64,5.43-8.59,8A121.07,121.07,0,0,1,351.51,275.24Z" style="fill:#fff"></path><path d="M358,299.57a239.76,239.76,0,0,1-22.85,14.28c-6.12,3.32-12.34,6.69-17.59,11.33-6.27,5.55-11.33,13.7-14.21,22.32q.44-5.5,1-11c.78-7.5,1.69-15.08,4.18-22.25.24-.7.52-1.4.79-2.09a.17.17,0,0,0,.14-.09,91.07,91.07,0,0,1,18.42-19.95A74.69,74.69,0,0,1,341.75,287c4.92-1.3,9.68-2.58,14.17-5.06.25-.14.1-.54-.18-.43-6.47,2.71-14.64,3.39-21.65,5.89.93-.65,1.87-1.29,2.83-1.92,9.15-6,19.55-10.75,24.63-21,.17-.34-.37-.54-.55-.22-6.11,10.95-19.7,15.82-29.51,22.78-7.3,5.17-14.51,11.44-19.42,19.07A146,146,0,0,1,320.13,293c17.2-25.72,33.55-52.1,43.3-81.66.1-.29-.33-.47-.44-.18-11.2,31.42-30.54,58.06-48.38,85.86-.21.31-.4.63-.6.95a60.5,60.5,0,0,0,1.75-14.7c0-.24-.34-.3-.37-.05-1,6.92-3.13,13.46-4.63,20.24a62.92,62.92,0,0,0-5.49,13,102.41,102.41,0,0,0-3,16.67c-.5-8-1.09-16-1-24a273,273,0,0,1,2.62-36.36.14.14,0,0,0-.27,0,229,229,0,0,0-4.26,37.74c-.23,10.76-.2,22,1.9,32.66-1.26,13.3-2.14,27.06.15,40.17a.48.48,0,0,0,1-.13c-.09-2.72-.13-5.43-.14-8.13,1.78-4.33,2.79-8.94,4.81-13.22a69.74,69.74,0,0,1,8.84-14c.25-.32-.23-.68-.5-.39-5.13,5.52-10.67,13.12-13.1,21q.12-5.91.44-11.79c3-12.79,9.22-25.18,19.82-33.11,5.45-4.07,11.51-7.16,17.38-10.56A146.49,146.49,0,0,0,358.26,300,.25.25,0,0,0,358,299.57Z" style="fill:#ebebeb"></path><rect x="289.47" y="370.31" width="22.37" height="31.78" style="fill:#dbdbdb"></rect><path d="M104.28,218.09A34.58,34.58,0,0,0,114.75,229c8.9,5.94,20.45,5.67,29.32,11.4.78,1,1.54,2,2.25,3.13a.21.21,0,0,1,0,.06l0,0h0a.14.14,0,0,0,.15,0c-.06-.15-.13-.3-.19-.44s-.22-.53-.34-.78-.35-.73-.54-1.09c.05,0-.06-.18-.1-.22-5.31-10.06-16.5-15.4-25.75-21.36-5.29-3.4-9.64-7.93-14.84-11.4-1.24-.83-3.31-2.72-4.32-.77C99.35,209.81,103.22,216.31,104.28,218.09Z" style="fill:#ebebeb"></path><path d="M112.09,223.07c9.08,9.15,25.39,7.92,33,18.6.21.31.42.62.62.93s.27.44.4.66h0l.15.28a.21.21,0,0,1,0,.06l0,0h0a.14.14,0,0,0,.15,0l0,0a.14.14,0,0,0,0-.13c-.18-.36-.38-.72-.58-1.06a16.77,16.77,0,0,0-1.67-2.4h0a41.27,41.27,0,0,0-12.93-11.39c-6.4-3.82-12.9-7.2-19.26-11.18-.79-.49-3.45-2.9-4.08-1.49C107.28,217.74,111,222,112.09,223.07Zm-1-1.76c-.46-.57-3.42-4.51-2.24-5.06.71-.33,3.48,2.07,3.94,2.33l5.27,3.06c3.72,2.14,7.44,4.25,11.14,6.39a54.88,54.88,0,0,1,12.42,9.34C132.84,230.28,118.49,230.55,111.1,221.31Z" style="fill:#fff"></path><path d="M193.7,303.42c.13.11.39.17.44-.1,1.91-11.44,13.86-17,16.5-28.25a51.84,51.84,0,0,0,.87-13.85,41,41,0,0,0-1.38-10.16c-.13-.44-.48-2.42-1.2-2.81-5.49-2.89-8.45,15.5-9.15,18.4-2.74,11.31-5.25,21.64-6,33.07-.08,1.18-.14,2.39-.18,3.6C193.62,303.35,193.66,303.39,193.7,303.42Z" style="fill:#ebebeb"></path><path d="M193.7,303.42c.08-.41.14-.83.22-1.23,2.12-7.13,6.3-13.42,9.78-20s5.44-13.27,5.16-20.82c-.05-1.33,0-6.66-2.15-7-1.9-.31-2.27,4.73-2.51,5.82-1.87,8.1-3.59,16.13-6.08,24.08-1.59,5.08-3.23,10.21-4.32,15.44-.08,1.18-.14,2.39-.18,3.6C193.62,303.35,193.66,303.39,193.7,303.42Zm1.05-5.2c1.38-6,3.3-11.77,5.08-17.65,1.23-4,2.28-8.11,3.18-12.24.48-2.25.93-4.52,1.44-6.78.25-1.14.51-2.27.79-3.38.14-.57.55-2.45,1.41-2.25,2.32.56,2.66,16-4.64,28.12A87,87,0,0,0,194.75,298.22Z" style="fill:#fff"></path><path d="M190.93,279a.08.08,0,0,0,.1.08.1.1,0,0,0,.1-.11l0-.85c0-1-.11-2.06-.2-3.07,0-.19,0-.37-.05-.56a.25.25,0,0,0,0-.11c-.66-11.12,5.47-21.5,3.1-32.62a44.84,44.84,0,0,0-6-13.84c-1.14-1.85-3.84-8.36-6.83-7.52-2.33.65-2.41,4.9-2.43,6.68-.06,5.68,1.82,11.44,3.37,16.84s3.31,10.47,5,15.7a92.65,92.65,0,0,1,3.17,14.64C190.51,275.83,190.72,277.41,190.93,279Z" style="fill:#ebebeb"></path><path d="M190.93,279a.08.08,0,0,0,.1.08c-.06-.92-.13-1.84-.18-2.76.08.6.16,1.21.25,1.8,0-1-.11-2.06-.2-3.07-.06-.52-.13-1-.18-1.57a124.69,124.69,0,0,1,.83-18.62,26.34,26.34,0,0,0-.4-9.11c-1.27-5.56-6-16.71-7.91-17.11s-.66,3.48-.47,4.41c1.53,7.51,4,14.75,5.16,22.36.76,5.11,1.46,10.24,2.16,15.37,0,1.16.1,2.33.2,3.48C190.51,275.83,190.72,277.41,190.93,279ZM190,267.45c-.54-4.95-1.14-9.89-2-14.78-.72-4.06-1.81-8-2.87-12-.54-2-1.06-4-1.51-6-.13-.55-1.39-4.88-.63-5.24s2.15,2.56,2.5,3.34a122.09,122.09,0,0,1,4.57,11.55c1.38,4.15,1.18,8.1.64,12.37A92.5,92.5,0,0,0,190,267.45Z" style="fill:#fff"></path><path d="M188.3,355a.08.08,0,0,0,.12,0,.08.08,0,0,0,0-.13c-.15-.21-.29-.41-.45-.61-.55-.74-1.12-1.46-1.69-2.16l-.32-.39a.16.16,0,0,0,0-.1c-6.1-7.85-6.82-18.58-14.17-25.57a39.92,39.92,0,0,0-11.35-7.18c-1.78-.79-7-4.22-8.82-2.1-1.39,1.66.69,4.82,1.58,6.15,2.81,4.21,7.1,7.5,11,10.69s7.71,6,11.57,9.05a81.28,81.28,0,0,1,9.71,9.18C186.4,352.89,187.35,354,188.3,355Z" style="fill:#ebebeb"></path><path d="M188.3,355a.08.08,0,0,0,.12,0c-.51-.65-1-1.29-1.53-1.94l1.09,1.2c-.55-.74-1.12-1.46-1.69-2.16-.31-.35-.62-.7-.92-1.06a111,111,0,0,1-8.78-14.13,23.49,23.49,0,0,0-4.89-6.5c-3.74-3.45-12.86-9.26-14.45-8.6s1.27,2.89,1.88,3.48c4.92,4.76,10.41,8.82,15.07,13.85,3.14,3.39,6.24,6.81,9.34,10.22.62.84,1.25,1.67,1.9,2.47C186.4,352.89,187.35,354,188.3,355ZM181.83,347c-2.9-3.37-5.83-6.7-8.92-9.87-2.57-2.63-5.38-5-8.17-7.38-1.39-1.2-2.77-2.39-4.12-3.64-.36-.34-3.48-2.89-3.1-3.53s2.87.79,3.52,1.19a107,107,0,0,1,9.19,6.19c3.11,2.36,5,5.37,6.71,8.78A81,81,0,0,0,181.83,347Z" style="fill:#fff"></path><path d="M193.56,361.31a1.52,1.52,0,0,0,.31-.74c3.88-9.95,11.08-18.14,15-28.12A29,29,0,0,0,211,318.67c-.23-2-1-9-3.46-9.83-7.45-2.64-13.06,37.72-14.38,51.46a1.9,1.9,0,0,0-.09.61C193.09,361.37,193.33,361.52,193.56,361.31Z" style="fill:#ebebeb"></path><path d="M193.56,361.31c.19-.82.39-1.65.59-2.48.91-2.44,1.87-4.87,3-7.25,1.73-3.76,3.92-7.26,5.86-10.91a38.2,38.2,0,0,0,4.65-18.49c0-1.4.18-5.39-1.58-6.09-1.61-.63-2.12,2.3-2.41,3.25-4,13.42-7.16,27.2-10.36,40.87-.07.24-.13.47-.19.7C193.09,361.37,193.33,361.52,193.56,361.31Zm1.56-6.51q1.95-8,3.93-15.92,1.57-6.22,3.19-12.44c.53-2,1-4.09,1.6-6.13.23-.8,1.07-3.93,2-3.43s1,3.28,1.08,3.8c.51,8.14-2.16,15.56-6.13,22.52A92.32,92.32,0,0,0,195.12,354.8Z" style="fill:#fff"></path><path d="M163.28,269.31a.46.46,0,0,0,.25.29.49.49,0,0,0,.52-.12.6.6,0,0,0,.18-.23.22.22,0,0,0,.07-.17c-.25-6.58,1.41-14.78,1.39-21.34a51.22,51.22,0,0,0-2.44-14.83,69.17,69.17,0,0,0-6.72-15.4c-1.38-2.28-4.37-8-7.62-8.11-6.68-.32,1.45,18.68,2.17,21C155.1,243.38,159.12,256.36,163.28,269.31Z" style="fill:#ebebeb"></path><path d="M163.53,269.6a.49.49,0,0,0,.52-.12l-.33-1.42c-.36-2.81-.72-5.63-.93-8.47-.35-4.63,0-9.29-.54-13.9-.86-8-8.32-28.42-11.69-27.57-1.76.45-.08,4.49.24,5.53,1.29,4.09,3.08,8,4.32,12.12,1.31,4.31,2.36,8.7,3.42,13.08,1.62,6.75,3.21,13.5,4.91,20.24C163.48,269.26,163.51,269.42,163.53,269.6Zm-.85-6c-1.42-6-2.89-11.94-4.35-17.92-1-4.12-2.06-8.25-3.37-12.29-.74-2.26-1.6-4.48-2.46-6.69-.42-1.08-.84-2.17-1.19-3.28-.29-.95-1.69-4.76-.15-4.5s4,5.93,4.58,7.26c.93,2.16,1.82,4.33,2.64,6.55a54.89,54.89,0,0,1,3.35,13.48c.45,4.62.17,9.27.58,13.9C162.42,261.27,162.54,262.44,162.68,263.6Z" style="fill:#fff"></path><path d="M132.27,317.4c12.79-.09,24.12-8.68,39.76-1.37a.06.06,0,0,0,.1-.07,0,0,0,0,0,0-.06q-2.16-1.33-4.44-2.5a71.87,71.87,0,0,0-26.36-7.75,54,54,0,0,0-16.34,1c-2.73.6-9.1,1.49-10.55,4C111.29,316.11,129.94,317.42,132.27,317.4Z" style="fill:#ebebeb"></path><path d="M128.33,313.12c7.41,2,15.34-.13,22.85-.46a61.61,61.61,0,0,1,15.41,1c1.85.71,3.69,1.46,5.54,2.25a0,0,0,0,0,0-.06q-2.16-1.33-4.44-2.5l-.29-.07a76.47,76.47,0,0,0-15.5-4.34,78.93,78.93,0,0,0-22.13-.81c-1.28.13-6.16-.05-6.55,1.8S127.29,312.84,128.33,313.12ZM124,310c.47-1.19,8.29-1.59,11.42-1.69a78.8,78.8,0,0,1,20.08,1.93,72.3,72.3,0,0,1,8.38,2.47,63.17,63.17,0,0,0-10-.63c-7,.1-14,1.77-21,1.28a22,22,0,0,1-5.39-1C126.76,312.1,123.57,311.06,124,310Z" style="fill:#fff"></path><path d="M101.46,274.93a58.88,58.88,0,0,0,10.19,9.38,58,58,0,0,0,24.57,10.07l.48.08c.38.24.76.47,1.15.68l.27.16.06,0h0a.12.12,0,0,0,.06-.21c-.4-.36-.8-.73-1.19-1.11-8.14-7.62-14.83-16.48-24.1-22.88-2-1.39-14.92-10.94-16.64-5C95.51,268.92,99.93,273.15,101.46,274.93Z" style="fill:#ebebeb"></path><path d="M104.62,274.79c4.82,4.9,11.5,8.52,17.4,12a160.81,160.81,0,0,0,14.2,7.61l1.21.55.42.21a1.74,1.74,0,0,0,.33.18h0a.12.12,0,0,0,.06-.21c-.4-.36-.8-.73-1.19-1.11l-1.13-.57a130.88,130.88,0,0,1-14-11.8c-2.44-2.25-4.92-4.44-7.57-6.45s-5.17-4.11-8.1-5.44c-1.28-.57-3.84-1.68-4.37.37C101.42,271.82,103.6,273.75,104.62,274.79Zm1-4.59c3.47,1.55,6.72,4.27,9.69,6.62s5.51,4.72,8.17,7.17a115.36,115.36,0,0,0,8.76,7.59c-4.47-2.27-8.91-4.59-13.21-7.23-3.37-2.06-6.7-4.2-9.9-6.5a29.19,29.19,0,0,1-4.65-4,15.67,15.67,0,0,1-1.39-1.66C101.79,270.38,104.09,269.49,105.65,270.2Z" style="fill:#fff"></path><path d="M126,204.78c.1.15.21.29.32.44a.33.33,0,0,0,.55-.06.32.32,0,0,0,0-.35l-.56-.82h0l-.45-.66c-.16-.47-.3-.94-.42-1.43-1.33-5.19-.68-11.53-1.18-16.67a69.28,69.28,0,0,0-2.49-13.85,34.62,34.62,0,0,0-6.5-12.63c-.84-1-2.83-3.6-4.5-3-2.11.81-1.32,5.69-1.3,7.18a57.46,57.46,0,0,0,2.39,15.18C114.72,188.07,120,196.56,126,204.78Z" style="fill:#ebebeb"></path><path d="M125,202.62a20.45,20.45,0,0,0,1,2.16c.1.15.21.29.32.44a.33.33,0,0,0,.55-.06c-.07-.12-.14-.23-.2-.35-.13-.28-.27-.55-.39-.82h0c-.31-.69-.6-1.38-.87-2.09a45.35,45.35,0,0,1-2.19-7.84c-.9-4.64-1.63-9.32-2.7-13.94-.53-2.31-4.68-20.11-8.49-18-.72.38-.46,1.62-.42,2.21a31.45,31.45,0,0,0,1.22,6.15q1.91,7,4.3,13.86A132.25,132.25,0,0,0,125,202.62Zm-6.5-15.94c-1.45-4-2.77-8-4-12.1-.59-2-1.19-4-1.68-6-.24-1-1.1-5.73-.19-6,1.33-.37,3.86,5.67,4.48,7.38.7,1.94,1.3,3.91,1.85,5.9,1.11,4,2,8.08,2.7,12.16.67,3.62,1.18,7.67,2.27,11.47A135.34,135.34,0,0,1,118.49,186.68Z" style="fill:#fff"></path><path d="M140.76,266.37l.5.22a.32.32,0,0,0,.44-.33.3.3,0,0,0-.2-.29l-.9-.42h0l-.73-.34a13,13,0,0,1-1.07-1c-3.76-3.82-6.38-9.63-9.39-13.82a70.17,70.17,0,0,0-9.1-10.74,34.64,34.64,0,0,0-12-7.66c-1.22-.42-4.25-1.69-5.37-.3-1.42,1.76,1.72,5.59,2.48,6.87a58.22,58.22,0,0,0,9.68,11.94C122.59,257.59,131.39,262.31,140.76,266.37Z" style="fill:#ebebeb"></path><path d="M138.78,265a19.77,19.77,0,0,0,2,1.35l.5.22a.32.32,0,0,0,.44-.33l-.34-.2-.76-.51h0c-.62-.44-1.21-.89-1.8-1.37a44.49,44.49,0,0,1-5.83-5.68c-3.11-3.57-6.09-7.25-9.33-10.7-1.62-1.73-14.14-15-16.4-11.35-.44.69.42,1.63.75,2.13a30.83,30.83,0,0,0,4.14,4.7c3.43,3.4,7,6.68,10.67,9.84A134.19,134.19,0,0,0,138.78,265ZM125.16,254.5q-4.89-4.09-9.52-8.47c-1.51-1.42-3-2.84-4.46-4.34-.71-.74-3.82-4.4-3.17-5.07,1-1,6.19,3,7.58,4.13,1.58,1.33,3.09,2.74,4.56,4.18,3,2.9,5.74,6,8.44,9.17,2.39,2.78,4.87,6,7.72,8.77A133.41,133.41,0,0,1,125.16,254.5Z" style="fill:#fff"></path><path d="M130,289.41a258.26,258.26,0,0,0,25.14,14.89c6.72,3.44,13.54,6.94,19.35,11.83,6.95,5.84,12.64,14.56,16,23.82Q189.8,334,189,328c-1-8.12-2.23-16.32-5.11-24-.28-.75-.6-1.5-.92-2.24a.24.24,0,0,1-.15-.1,98.87,98.87,0,0,0-20.47-21.15,81.54,81.54,0,0,0-15.19-5.14c-5.37-1.28-10.56-2.55-15.5-5.12a.25.25,0,0,1,.19-.47c7.08,2.77,16,3.3,23.61,5.82-1-.68-2.06-1.35-3.11-2-10.08-6.26-21.47-11.15-27.24-22.15-.19-.37.38-.6.58-.26,6.92,11.71,21.77,16.65,32.59,23.93,8,5.42,16,12,21.54,20.18a154.6,154.6,0,0,0-9.08-14c-19.31-27.44-37.71-55.61-49-87.4-.11-.31.36-.52.48-.2,13,33.76,34.6,62.14,54.66,91.81l.68,1a65.94,65.94,0,0,1-2.29-15.9c0-.26.37-.33.41-.06,1.3,7.48,3.75,14.52,5.54,21.83a68.17,68.17,0,0,1,6.29,13.92,111.5,111.5,0,0,1,3.69,18c.34-8.67.78-17.33.48-26a298,298,0,0,0-3.78-39.34c0-.19.25-.23.29-.05a248.36,248.36,0,0,1,5.59,40.81c.53,11.65.78,23.85-1.22,35.45,1.72,14.38,3,29.27.88,43.54a.52.52,0,0,1-1-.12c0-2.94,0-5.88-.06-8.8-2-4.65-3.25-9.63-5.56-14.22a75.12,75.12,0,0,0-9.94-15c-.28-.34.23-.74.53-.43,5.7,5.84,11.9,13.94,14.74,22.39q-.27-6.39-.78-12.77C187.75,336,180.68,322.7,169,314.38c-6-4.27-12.66-7.46-19.11-11a158.46,158.46,0,0,1-20.24-13.52A.28.28,0,0,1,130,289.41Z" style="fill:#ebebeb"></path><rect x="181.9" y="370.31" width="22.37" height="31.78" style="fill:#dbdbdb"></rect><polygon points="386.44 230.52 390.91 229.69 391.91 224.98 392.91 229.69 397.38 230.52 392.93 231.61 391.91 236.06 390.89 231.61 386.44 230.52" style="fill:#c7c7c7"></polygon><polygon points="69.33 158.43 73.79 157.61 74.79 152.9 75.79 157.61 80.26 158.44 75.81 159.52 74.79 163.97 73.77 159.52 69.33 158.43" style="fill:#c7c7c7"></polygon><polygon points="419.74 133.64 424.21 132.81 425.21 128.1 426.21 132.81 430.68 133.64 426.23 134.73 425.21 139.17 424.19 134.73 419.74 133.64" style="fill:#c7c7c7"></polygon><polygon points="351.23 272.62 355.69 271.79 356.69 267.08 357.69 271.79 362.16 272.62 357.71 273.71 356.69 278.16 355.68 273.71 351.23 272.62" style="fill:#c7c7c7"></polygon><polygon points="115.39 209.46 119.86 208.64 120.85 203.93 121.85 208.64 126.32 209.47 121.87 210.55 120.85 215 119.84 210.55 115.39 209.46" style="fill:#c7c7c7"></polygon><polygon points="178.72 314.32 183.18 313.5 184.18 308.79 185.18 313.5 189.65 314.32 185.2 315.41 184.18 319.86 183.16 315.41 178.72 314.32" style="fill:#c7c7c7"></polygon><polygon points="124.18 267.25 126.68 266.79 127.24 264.15 127.8 266.79 130.29 267.25 127.81 267.86 127.24 270.34 126.67 267.86 124.18 267.25" style="fill:#c7c7c7"></polygon><polygon points="297.77 113.88 300.27 113.42 300.82 110.79 301.38 113.42 303.88 113.89 301.39 114.49 300.82 116.98 300.26 114.49 297.77 113.88" style="fill:#c7c7c7"></polygon><polygon points="248.51 63.7 251.01 63.24 251.57 60.61 252.12 63.24 254.62 63.7 252.13 64.31 251.57 66.8 251 64.31 248.51 63.7" style="fill:#c7c7c7"></polygon><polygon points="146.71 204.39 149.21 203.93 149.77 201.29 150.33 203.93 152.82 204.39 150.34 205 149.77 207.49 149.2 205 146.71 204.39" style="fill:#c7c7c7"></polygon><polygon points="108.17 105.14 110.66 104.68 111.22 102.05 111.78 104.68 114.28 105.14 111.79 105.75 111.22 108.24 110.65 105.75 108.17 105.14" style="fill:#c7c7c7"></polygon><polygon points="349.84 208.16 352.34 207.7 352.89 205.07 353.45 207.7 355.95 208.16 353.46 208.77 352.89 211.26 352.33 208.77 349.84 208.16" style="fill:#c7c7c7"></polygon><polygon points="309 279.76 311.5 279.3 312.06 276.67 312.61 279.3 315.11 279.76 312.63 280.37 312.06 282.86 311.49 280.37 309 279.76" style="fill:#c7c7c7"></polygon><polygon points="84.46 248.44 86.96 247.98 87.52 245.34 88.07 247.98 90.57 248.44 88.08 249.05 87.52 251.53 86.95 249.05 84.46 248.44" style="fill:#c7c7c7"></polygon><path d="M368.45,85.14a.73.73,0,0,0,0-1.45A.73.73,0,0,0,368.45,85.14Z" style="fill:#c7c7c7"></path><path d="M394.9,261.17a.73.73,0,0,0,0-1.45A.73.73,0,0,0,394.9,261.17Z" style="fill:#c7c7c7"></path><path d="M180.46,119.32a.73.73,0,0,0,0-1.45A.73.73,0,0,0,180.46,119.32Z" style="fill:#c7c7c7"></path><path d="M362.16,143a.72.72,0,0,0,0-1.44A.72.72,0,0,0,362.16,143Z" style="fill:#c7c7c7"></path><path d="M319.52,172.55a.51.51,0,0,0,0-1A.51.51,0,0,0,319.52,172.55Z" style="fill:#c7c7c7"></path><path d="M265.18,95a.52.52,0,0,0,0-1A.52.52,0,0,0,265.18,95Z" style="fill:#c7c7c7"></path><path d="M291.81,96.85a.52.52,0,0,0,0-1A.52.52,0,0,0,291.81,96.85Z" style="fill:#c7c7c7"></path><path d="M136.88,151.87a1.39,1.39,0,0,0,0-2.77A1.39,1.39,0,0,0,136.88,151.87Z" style="fill:#c7c7c7"></path><path d="M285.26,101.56a1.39,1.39,0,0,0,0-2.78A1.39,1.39,0,0,0,285.26,101.56Z" style="fill:#c7c7c7"></path><path d="M329.8,309.14a1.39,1.39,0,0,0,0-2.78A1.39,1.39,0,0,0,329.8,309.14Z" style="fill:#c7c7c7"></path></g><g id="freepik--Shadow--inject-2"><ellipse cx="250" cy="451.71" rx="127.65" ry="17.78" style="fill:#ebebeb"></ellipse></g><g id="freepik--Floor--inject-2"><polygon points="37.19 401.79 90.39 401.55 143.59 401.46 250 401.3 356.4 401.46 409.61 401.55 462.81 401.79 409.61 402.04 356.4 402.13 250 402.29 143.59 402.13 90.39 402.04 37.19 401.79" style="fill:#263238"></polygon></g><g id="freepik--Plants--inject-2"><path d="M234.14,236.33a91.6,91.6,0,0,1-54.85-26.16,86.07,86.07,0,0,1-17.39-25.61,102.35,102.35,0,0,1-5.27-14.62,114,114,0,0,1-3.14-15.21,100.73,100.73,0,0,1-.82-15.53,94.48,94.48,0,0,1,1.69-15.46,93.08,93.08,0,0,1,10.86-29,110.81,110.81,0,0,1,19.11-24.29,114.35,114.35,0,0,1,11.86-9.9,69,69,0,0,1,13.27-7.83,53.76,53.76,0,0,0-6.68,3.81c-2.15,1.4-4.23,2.89-6.26,4.46A114.49,114.49,0,0,0,185,71.19a109.9,109.9,0,0,0-18.42,24.34,101.59,101.59,0,0,0-6.35,13.88,91.65,91.65,0,0,0-5.61,29.84,99.22,99.22,0,0,0,.89,15.21,107,107,0,0,0,8.07,29.33,88.41,88.41,0,0,0,7.31,13.37c1.39,2.12,2.92,4.16,4.5,6.15a76,76,0,0,0,5,5.75,88.44,88.44,0,0,0,24.56,18,97.76,97.76,0,0,0,14.18,5.82c2.44.78,4.91,1.47,7.41,2A68.92,68.92,0,0,0,234.14,236.33Z" style="fill:#FFC727"></path><path d="M228.36,235.33v-.05c-.26-1-.52-2-.76-3l-1.49-6.05-1.52-6-.79-3c-.28-1-.54-2-.84-3,.3,2.06.69,4.11,1.1,6.15s.88,4.07,1.37,6.1,1,4,1.64,6c.32,1,.64,2,1,3l-.08,0c-.77-.46-11.5-11-5.9-26,.24-.65,7.15,7,8.43,14.05C231.62,229.64,229.44,234.49,228.36,235.33Z" style="fill:#FFC727"></path><path d="M228.47,235.94h-.05c-1,.29-2,.58-3,.89l-6,1.81-6,1.77-3,.86c-1,.27-2,.56-3,.81,1.93-.79,3.89-1.5,5.86-2.18s4-1.33,5.94-1.94,4-1.17,6-1.66c1-.24,2.08-.49,3.13-.71l-.06,0c-.79-.43-15.33-4.29-25.34,8.14-.44.55,9.71,2.57,16.39.1C225.23,241.64,228.3,237.29,228.47,235.94Z" style="fill:#FFC727"></path><path d="M209.53,229.48v0c-.26-1-.52-2-.76-3l-1.48-6.06-1.53-6.05-.79-3c-.28-1-.54-2-.83-3,.3,2.07.69,4.12,1.1,6.16s.87,4.07,1.36,6.09,1,4,1.65,6c.31,1,.63,2.05,1,3.06l-.08,0c-.77-.46-11.49-11-5.9-26,.24-.65,7.15,7,8.43,14.05C212.79,223.79,210.62,228.64,209.53,229.48Z" style="fill:#FFC727"></path><path d="M209.64,230.08l0,0-3,.88-6,1.82-6,1.77-3,.86c-1,.27-2,.56-3,.81,1.93-.79,3.89-1.5,5.85-2.19s3.95-1.32,5.94-1.93,4-1.17,6-1.66c1-.25,2.08-.5,3.13-.71l-.06-.06c-.79-.42-15.32-4.28-25.33,8.15-.44.54,9.7,2.56,16.38.1C206.41,235.78,209.47,231.44,209.64,230.08Z" style="fill:#FFC727"></path><path d="M191.18,219.27v-.05c0-1,0-2.08.08-3.12l.18-6.23.15-6.24,0-3.12c0-1,0-2.08,0-3.12-.26,2.07-.43,4.14-.58,6.22s-.24,4.16-.31,6.24-.08,4.17,0,6.25c0,1.07.06,2.14.13,3.21a.18.18,0,0,1-.07-.05A24.07,24.07,0,0,1,192,192.68c.41-.56,5,8.7,4.38,15.79C195.84,214.66,192.45,218.75,191.18,219.27Z" style="fill:#FFC727"></path><path d="M191.13,219.89h-.06c-1,0-2.07,0-3.11.05l-6.24.16-6.24.11-3.12,0c-1,0-2.08,0-3.12,0,2.07-.25,4.15-.41,6.22-.55s4.17-.22,6.25-.27,4.16-.07,6.25,0c1.07,0,2.14.08,3.21.15a.18.18,0,0,0,0-.07c-.64-.62-13.63-8.21-26.59,1.1-.56.4,8.67,5,15.77,4.46C186.49,224.52,190.6,221.15,191.13,219.89Z" style="fill:#FFC727"></path><path d="M176.94,206.15l0-.05c.26-1,.51-2,.79-3l1.64-6,1.59-6,.77-3c.24-1,.51-2,.73-3-.74,2-1.39,3.93-2,5.91s-1.2,4-1.75,6-1.05,4-1.48,6.07c-.22,1-.44,2.1-.62,3.15a.09.09,0,0,1-.06-.06c-.45-.77-4.73-15.19,7.4-25.56.53-.45,2.84,9.62.57,16.37C182.55,202.75,178.29,206,176.94,206.15Z" style="fill:#FFC727"></path><path d="M176.74,206.74h-.05c-1-.23-2-.46-3-.67l-6.1-1.31-6.09-1.34-3-.7c-1-.26-2-.48-3-.75,2.07.24,4.13.57,6.18.92s4.1.76,6.14,1.19,4.06.91,6.08,1.46c1,.28,2.06.57,3.08.89a.13.13,0,0,0,0-.08c-.48-.75-11.33-11.16-26.11-5.13-.64.26,7.25,6.94,14.29,8C171.15,210.16,175.94,207.85,176.74,206.74Z" style="fill:#FFC727"></path><path d="M166.18,191.85l0,0c.3-.91.6-1.82.92-2.73l1.89-5.45,1.85-5.46.91-2.74c.28-.92.59-1.84.86-2.76-.81,1.75-1.53,3.54-2.23,5.33s-1.37,3.6-2,5.42-1.23,3.65-1.75,5.51c-.27,1-.54,1.91-.78,2.87l-.05-.06a22.3,22.3,0,0,1,8.45-23.12c.51-.38,2,9.06-.51,15.14C171.57,189.06,167.44,191.74,166.18,191.85Z" style="fill:#FFC727"></path><path d="M166,192.37h0l-2.77-.81L157.6,190l-5.53-1.63-2.76-.83c-.92-.3-1.84-.57-2.76-.89,1.9.35,3.78.79,5.65,1.24s3.73,1,5.59,1.49,3.69,1.09,5.51,1.73c.93.33,1.86.66,2.79,1a.24.24,0,0,0,0-.08,22.3,22.3,0,0,0-23.77-6.38c-.61.2,6.25,6.86,12.68,8.3C160.59,195.18,165.15,193.35,166,192.37Z" style="fill:#FFC727"></path><path d="M158,170.11l0,0c.55-.79,1.1-1.57,1.66-2.35l3.36-4.69,3.33-4.71L168,156c.54-.81,1.09-1.6,1.61-2.41-1.27,1.46-2.47,3-3.65,4.48s-2.33,3.07-3.46,4.63-2.21,3.16-3.24,4.79c-.53.83-1,1.67-1.56,2.53l0-.07a22.28,22.28,0,0,1,14.66-19.77c.61-.22-.63,9.26-4.78,14.38C164,169,159.25,170.37,158,170.11Z" style="fill:#FFC727"></path><path d="M157.65,170.56l0,0c-.8-.53-1.61-1.05-2.42-1.56l-4.87-3.1-4.84-3.13-2.41-1.59c-.8-.55-1.6-1.07-2.39-1.63,1.72.88,3.4,1.83,5.06,2.79s3.31,2,4.94,3,3.22,2.1,4.79,3.23c.8.58,1.6,1.16,2.39,1.77v-.08a22.3,22.3,0,0,0-21-12.87c-.64,0,4.05,8.35,9.8,11.55C151.7,171.72,156.6,171.26,157.65,170.56Z" style="fill:#FFC727"></path><path d="M153.8,149.22l0,0c.72-.65,1.43-1.29,2.16-1.92l4.32-3.81,4.31-3.84,2.14-2c.7-.66,1.41-1.3,2.1-2-1.56,1.13-3.07,2.32-4.57,3.54s-3,2.46-4.41,3.73-2.86,2.58-4.23,3.93c-.71.7-1.41,1.4-2.09,2.12a.22.22,0,0,1,0-.08,22.29,22.29,0,0,1,18.73-16c.64-.08-2.7,8.88-7.89,12.93C159.86,149.45,155,149.75,153.8,149.22Z" style="fill:#FFC727"></path><path d="M153.35,149.57l0,0c-.67-.7-1.33-1.39-2-2.07l-4.05-4.11-4-4.15-2-2.09c-.65-.71-1.32-1.4-2-2.12,1.47,1.24,2.9,2.54,4.3,3.86s2.78,2.67,4.13,4,2.67,2.77,3.94,4.23c.65.74,1.3,1.49,1.93,2.26a.24.24,0,0,0,0-.08,22.29,22.29,0,0,0-17.54-17.26c-.63-.13,2.06,9,6.95,13.46C147.29,149.36,152.16,150,153.35,149.57Z" style="fill:#FFC727"></path><path d="M154.3,128.83l0,0,2.48-1.46,5-2.9,5-2.93,2.47-1.49c.82-.51,1.64-1,2.45-1.53-1.75.8-3.47,1.69-5.17,2.58s-3.38,1.85-5.05,2.81-3.31,2-4.92,3c-.83.55-1.65,1.1-2.46,1.67v-.07a22.3,22.3,0,0,1,21.48-12c.65.05-4.38,8.19-10.26,11.15C160.19,130.23,155.32,129.57,154.3,128.83Z" style="fill:#FFC727"></path><path d="M153.79,129.08l0,0c-.52-.81-1-1.62-1.57-2.42L149,121.8,145.89,117l-1.55-2.44c-.5-.82-1-1.63-1.51-2.46,1.21,1.5,2.35,3.06,3.47,4.62s2.21,3.16,3.27,4.77,2.08,3.24,3.05,4.91c.49.86,1,1.72,1.45,2.59a.09.09,0,0,0,0-.07,22.25,22.25,0,0,0-13.84-20.34c-.6-.25.26,9.27,4.19,14.56C147.88,127.7,152.54,129.29,153.79,129.08Z" style="fill:#FFC727"></path><path d="M159.22,110.33h.05c.91-.18,1.81-.37,2.72-.53l5.46-1,5.45-1.07,2.72-.55c.91-.2,1.82-.38,2.72-.6-1.85.17-3.69.41-5.52.68s-3.67.58-5.49.92-3.64.72-5.44,1.17c-.92.23-1.85.46-2.77.72l0-.07a21.45,21.45,0,0,1,23.36-4c.57.25-6.61,6-12.9,6.81C164.12,113.5,159.91,111.33,159.22,110.33Z" style="fill:#FFC727"></path><path d="M158.68,110.4v-.05c-.21-.9-.42-1.8-.65-2.7l-1.32-5.39-1.28-5.41-.62-2.71c-.19-.9-.4-1.81-.58-2.72.61,1.75,1.15,3.53,1.66,5.31s1,3.58,1.43,5.38.85,3.61,1.18,5.44c.17.94.34,1.87.49,2.82,0,0,0,0,.05-.06a21.43,21.43,0,0,0-6-22.91c-.46-.42-2.75,8.5-.88,14.56C153.76,107.24,157.48,110.18,158.68,110.4Z" style="fill:#FFC727"></path><path d="M166.51,95.24h.05c.92-.07,1.84-.15,2.77-.21l5.54-.39,5.54-.43,2.77-.23c.92-.1,1.84-.17,2.76-.28-1.85,0-3.71,0-5.56,0s-3.71.16-5.56.29-3.7.29-5.54.53c-.94.12-1.89.25-2.83.4l0-.07a21.5,21.5,0,0,1,23.67-1.27c.53.32-7.26,5.22-13.6,5.29C171,99,167.09,96.31,166.51,95.24Z" style="fill:#FFC727"></path><path d="M166,95.24v0c-.1-.92-.21-1.83-.33-2.75l-.69-5.51-.65-5.52L164,78.65c-.08-.93-.19-1.85-.26-2.77.41,1.81.74,3.64,1,5.47s.57,3.66.8,5.5.43,3.69.55,5.54c.06,1,.13,1.9.16,2.85a.1.1,0,0,0,0,0A21.44,21.44,0,0,0,163,71.74c-.41-.47-3.71,8.13-2.55,14.36C161.45,91.54,164.8,94.89,166,95.24Z" style="fill:#FFC727"></path><path d="M187.94,68.24h0l2.26.31,4.52.65,4.53.62,2.27.29c.75.08,1.51.18,2.27.25-1.48-.36-3-.66-4.48-.93s-3-.52-4.52-.74-3-.41-4.54-.53c-.78-.07-1.56-.13-2.35-.17l0,0A17.64,17.64,0,0,1,207.22,71c.38.35-6.74,2.94-11.85,1.89C190.92,72,188.22,69.21,187.94,68.24Z" style="fill:#FFC727"></path><path d="M187.5,68.15v0c.08-.76.16-1.52.22-2.28l.4-4.55.43-4.54.24-2.28c.09-.75.16-1.51.27-2.27,0,1.53,0,3-.12,4.58s-.18,3-.31,4.56-.29,3-.52,4.55c-.11.77-.23,1.55-.37,2.32l.06,0a17.66,17.66,0,0,0,1.39-19.43c-.25-.45-4.4,5.89-4.55,11.1C184.51,64.4,186.62,67.67,187.5,68.15Z" style="fill:#FFC727"></path><path d="M200.08,58.87h0l2.26.31,4.52.65,4.52.62,2.27.29c.76.08,1.51.18,2.27.25-1.48-.36-3-.66-4.48-.93s-3-.52-4.51-.74-3-.41-4.55-.53c-.78-.07-1.56-.13-2.34-.17a.1.1,0,0,1,0-.05,17.64,17.64,0,0,1,19.24,3.08c.37.35-6.74,2.94-11.85,1.89C203.05,62.64,200.35,59.84,200.08,58.87Z" style="fill:#FFC727"></path><path d="M199.64,58.78v0q.12-1.14.21-2.28l.4-4.55.44-4.54.23-2.28c.1-.75.17-1.51.27-2.27,0,1.53,0,3.05-.11,4.58s-.18,3-.31,4.56-.3,3-.52,4.55c-.12.77-.23,1.55-.37,2.32a.05.05,0,0,0,.05,0,17.61,17.61,0,0,0,1.39-19.43c-.25-.45-4.39,5.89-4.54,11.1C196.65,55,198.76,58.3,199.64,58.78Z" style="fill:#FFC727"></path><path d="M176.32,80.72h0c.75-.08,1.51-.17,2.27-.24l4.54-.45,4.54-.48,2.27-.26c.76-.1,1.52-.18,2.27-.29-1.53,0-3.05.07-4.57.16s-3.05.22-4.56.36-3,.33-4.54.57c-.78.12-1.55.25-2.32.4a.14.14,0,0,1,0-.06,17.66,17.66,0,0,1,19.42-1.6c.45.25-5.84,4.46-11,4.66C180.11,83.66,176.81,81.59,176.32,80.72Z" style="fill:#FFC727"></path><path d="M175.87,80.73v0c-.11-.76-.21-1.51-.33-2.26l-.7-4.51-.67-4.52-.31-2.27c-.09-.75-.2-1.51-.28-2.27.38,1.48.69,3,1,4.47s.55,3,.79,4.51.43,3,.58,4.54c.07.78.15,1.56.19,2.34a.1.1,0,0,0,0,0,17.65,17.65,0,0,0-3.29-19.2c-.35-.37-2.86,6.77-1.76,11.87C172.07,77.8,174.9,80.47,175.87,80.73Z" style="fill:#FFC727"></path><path d="M265.86,236.33a91.6,91.6,0,0,0,54.85-26.16,86.07,86.07,0,0,0,17.39-25.61,102.35,102.35,0,0,0,5.27-14.62,114,114,0,0,0,3.14-15.21,100.73,100.73,0,0,0,.82-15.53,94.48,94.48,0,0,0-1.69-15.46,93.08,93.08,0,0,0-10.86-29,110.81,110.81,0,0,0-19.11-24.29,114.35,114.35,0,0,0-11.86-9.9,69,69,0,0,0-13.27-7.83,53.76,53.76,0,0,1,6.68,3.81c2.15,1.4,4.23,2.89,6.26,4.46A114.49,114.49,0,0,1,315,71.19a109.9,109.9,0,0,1,18.42,24.34,101.59,101.59,0,0,1,6.35,13.88,91.65,91.65,0,0,1,5.61,29.84,99.22,99.22,0,0,1-.89,15.21,107,107,0,0,1-8.07,29.33,88.41,88.41,0,0,1-7.31,13.37c-1.39,2.12-2.92,4.16-4.5,6.15a76,76,0,0,1-5,5.75,88.44,88.44,0,0,1-24.56,18,97.76,97.76,0,0,1-14.18,5.82c-2.44.78-4.91,1.47-7.41,2A68.92,68.92,0,0,1,265.86,236.33Z" style="fill:#FFC727"></path><path d="M271.64,235.33v-.05c.26-1,.52-2,.76-3l1.49-6.05,1.52-6,.79-3c.28-1,.54-2,.84-3-.3,2.06-.69,4.11-1.1,6.15s-.88,4.07-1.37,6.1-1,4-1.64,6c-.32,1-.64,2-1,3l.08,0c.77-.46,11.5-11,5.9-26-.24-.65-7.15,7-8.43,14.05C268.38,229.64,270.56,234.49,271.64,235.33Z" style="fill:#FFC727"></path><path d="M271.53,235.94h.05c1,.29,2,.58,3,.89l6,1.81,6,1.77,3,.86c1,.27,2,.56,3,.81-1.93-.79-3.89-1.5-5.86-2.18s-3.95-1.33-5.94-1.94-4-1.17-6-1.66c-1-.24-2.08-.49-3.13-.71l.06,0c.79-.43,15.33-4.29,25.34,8.14.44.55-9.71,2.57-16.39.1C274.77,241.64,271.7,237.29,271.53,235.94Z" style="fill:#FFC727"></path><path d="M290.47,229.48v0c.26-1,.52-2,.76-3l1.48-6.06,1.53-6.05.79-3c.28-1,.54-2,.83-3-.3,2.07-.69,4.12-1.1,6.16s-.87,4.07-1.36,6.09-1,4-1.65,6c-.31,1-.63,2.05-1,3.06l.08,0c.77-.46,11.49-11,5.9-26-.24-.65-7.15,7-8.43,14.05C287.21,223.79,289.38,228.64,290.47,229.48Z" style="fill:#FFC727"></path><path d="M290.36,230.08l.05,0,3,.88,6,1.82,6,1.77,3,.86c1,.27,2,.56,3,.81-1.93-.79-3.89-1.5-5.85-2.19s-3.95-1.32-5.94-1.93-4-1.17-6-1.66c-1-.25-2.08-.5-3.13-.71a.34.34,0,0,1,.06-.06c.79-.42,15.32-4.28,25.33,8.15.44.54-9.7,2.56-16.38.1C293.59,235.78,290.53,231.44,290.36,230.08Z" style="fill:#FFC727"></path><path d="M308.82,219.27v-.05c0-1,0-2.08-.08-3.12l-.18-6.23-.15-6.24,0-3.12c0-1,0-2.08,0-3.12.26,2.07.43,4.14.58,6.22s.24,4.16.31,6.24.08,4.17,0,6.25c0,1.07-.06,2.14-.13,3.21a.18.18,0,0,0,.07-.05A24.07,24.07,0,0,0,308,192.68c-.41-.56-5,8.7-4.38,15.79C304.16,214.66,307.55,218.75,308.82,219.27Z" style="fill:#FFC727"></path><path d="M308.87,219.89h.06c1,0,2.07,0,3.11.05l6.24.16,6.24.11,3.12,0c1,0,2.08,0,3.12,0-2.07-.25-4.15-.41-6.22-.55s-4.17-.22-6.25-.27-4.16-.07-6.25,0c-1.07,0-2.14.08-3.21.15a.18.18,0,0,1,.05-.07c.64-.62,13.63-8.21,26.59,1.1.56.4-8.67,5-15.77,4.46C313.51,224.52,309.4,221.15,308.87,219.89Z" style="fill:#FFC727"></path><path d="M323.06,206.15l0-.05c-.26-1-.51-2-.79-3l-1.64-6L319,191l-.77-3c-.24-1-.51-2-.73-3,.74,2,1.39,3.93,2,5.91s1.2,4,1.75,6,1,4,1.48,6.07c.22,1,.44,2.1.62,3.15a.09.09,0,0,0,.06-.06c.45-.77,4.73-15.19-7.4-25.56-.53-.45-2.84,9.62-.57,16.37C317.45,202.75,321.71,206,323.06,206.15Z" style="fill:#FFC727"></path><path d="M323.26,206.74h.05c1-.23,2-.46,3-.67l6.1-1.31,6.09-1.34,3-.7c1-.26,2-.48,3-.75-2.07.24-4.13.57-6.18.92s-4.1.76-6.14,1.19-4.06.91-6.08,1.46c-1,.28-2.06.57-3.08.89a.13.13,0,0,1,0-.08c.48-.75,11.33-11.16,26.11-5.13.64.26-7.25,6.94-14.29,8C328.85,210.16,324.06,207.85,323.26,206.74Z" style="fill:#FFC727"></path><path d="M333.82,191.85l0,0c-.3-.91-.6-1.82-.92-2.73L331,183.62l-1.85-5.46-.91-2.74c-.28-.92-.59-1.84-.86-2.76.81,1.75,1.53,3.54,2.23,5.33s1.37,3.6,2,5.42,1.23,3.65,1.75,5.51c.27,1,.54,1.91.78,2.87l.05-.06a22.3,22.3,0,0,0-8.45-23.12c-.51-.38-2,9.06.51,15.14C328.43,189.06,332.56,191.74,333.82,191.85Z" style="fill:#FFC727"></path><path d="M334,192.37h0l2.77-.81L342.4,190l5.53-1.63,2.76-.83c.92-.3,1.84-.57,2.76-.89-1.9.35-3.78.79-5.65,1.24s-3.73,1-5.59,1.49-3.69,1.09-5.51,1.73c-.93.33-1.86.66-2.79,1a.24.24,0,0,1,0-.08,22.3,22.3,0,0,1,23.77-6.38c.61.2-6.25,6.86-12.68,8.3C339.41,195.18,334.85,193.35,334,192.37Z" style="fill:#FFC727"></path><path d="M342,170.11l0,0c-.55-.79-1.1-1.57-1.66-2.35L336.94,163l-3.33-4.71L332,156c-.54-.81-1.09-1.6-1.61-2.41,1.27,1.46,2.47,3,3.65,4.48s2.33,3.07,3.46,4.63,2.21,3.16,3.24,4.79c.53.83,1.05,1.67,1.56,2.53l0-.07a22.28,22.28,0,0,0-14.66-19.77c-.61-.22.63,9.26,4.78,14.38C336,169,340.75,170.37,342,170.11Z" style="fill:#FFC727"></path><path d="M342.35,170.56l0,0c.8-.53,1.61-1.05,2.42-1.56l4.87-3.1,4.84-3.13,2.41-1.59c.8-.55,1.6-1.07,2.39-1.63-1.72.88-3.4,1.83-5.06,2.79s-3.31,2-4.94,3-3.22,2.1-4.79,3.23c-.8.58-1.6,1.16-2.39,1.77v-.08a22.3,22.3,0,0,1,21-12.87c.64,0-4.05,8.35-9.8,11.55C348.3,171.72,343.4,171.26,342.35,170.56Z" style="fill:#FFC727"></path><path d="M346.2,149.22l0,0c-.72-.65-1.43-1.29-2.16-1.92l-4.32-3.81-4.31-3.84-2.14-2c-.7-.66-1.41-1.3-2.1-2,1.56,1.13,3.07,2.32,4.57,3.54s3,2.46,4.41,3.73,2.86,2.58,4.23,3.93c.71.7,1.41,1.4,2.09,2.12a.22.22,0,0,0,0-.08,22.29,22.29,0,0,0-18.73-16c-.64-.08,2.7,8.88,7.89,12.93C340.14,149.45,345.05,149.75,346.2,149.22Z" style="fill:#FFC727"></path><path d="M346.65,149.57l0,0c.67-.7,1.33-1.39,2-2.07l4.05-4.11,4-4.15,2-2.09c.65-.71,1.32-1.4,2-2.12-1.47,1.24-2.9,2.54-4.3,3.86s-2.78,2.67-4.13,4-2.67,2.77-3.94,4.23c-.65.74-1.3,1.49-1.93,2.26a.24.24,0,0,1,0-.08,22.29,22.29,0,0,1,17.54-17.26c.63-.13-2.06,9-6.95,13.46C352.71,149.36,347.84,150,346.65,149.57Z" style="fill:#FFC727"></path><path d="M345.7,128.83l0,0-2.48-1.46-5-2.9-5-2.93L330.75,120c-.82-.51-1.64-1-2.45-1.53,1.75.8,3.47,1.69,5.17,2.58s3.38,1.85,5,2.81,3.31,2,4.92,3c.83.55,1.65,1.1,2.46,1.67v-.07a22.3,22.3,0,0,0-21.48-12c-.65.05,4.38,8.19,10.26,11.15C339.81,130.23,344.68,129.57,345.7,128.83Z" style="fill:#FFC727"></path><path d="M346.21,129.08l0,0c.52-.81,1-1.62,1.57-2.42L351,121.8l3.14-4.84,1.55-2.44c.5-.82,1-1.63,1.51-2.46-1.21,1.5-2.35,3.06-3.47,4.62s-2.21,3.16-3.27,4.77-2.08,3.24-3.05,4.91c-.49.86-1,1.72-1.45,2.59a.09.09,0,0,1,0-.07,22.25,22.25,0,0,1,13.85-20.34c.59-.25-.27,9.27-4.2,14.56C352.12,127.7,347.46,129.29,346.21,129.08Z" style="fill:#FFC727"></path><path d="M340.78,110.33h0c-.91-.18-1.81-.37-2.72-.53l-5.46-1-5.45-1.07-2.72-.55c-.91-.2-1.82-.38-2.72-.6,1.85.17,3.69.41,5.52.68s3.67.58,5.49.92,3.64.72,5.44,1.17c.92.23,1.85.46,2.77.72l0-.07a21.45,21.45,0,0,0-23.36-4c-.57.25,6.61,6,12.9,6.81C335.88,113.5,340.09,111.33,340.78,110.33Z" style="fill:#FFC727"></path><path d="M341.32,110.4v-.05c.21-.9.42-1.8.65-2.7l1.32-5.39,1.28-5.41.62-2.71c.19-.9.4-1.81.58-2.72-.61,1.75-1.15,3.53-1.66,5.31s-1,3.58-1.43,5.38-.85,3.61-1.18,5.44c-.17.94-.34,1.87-.49,2.82l0-.06a21.43,21.43,0,0,1,6-22.91c.46-.42,2.75,8.5.88,14.56C346.24,107.24,342.52,110.18,341.32,110.4Z" style="fill:#FFC727"></path><path d="M333.49,95.24h-.05c-.92-.07-1.84-.15-2.77-.21l-5.54-.39-5.54-.43L316.82,94c-.92-.1-1.84-.17-2.76-.28,1.85,0,3.71,0,5.56,0s3.71.16,5.56.29,3.7.29,5.54.53c.94.12,1.89.25,2.83.4l0-.07a21.5,21.5,0,0,0-23.67-1.27c-.53.32,7.26,5.22,13.6,5.29C329,99,332.91,96.31,333.49,95.24Z" style="fill:#FFC727"></path><path d="M334,95.24v0c.1-.92.21-1.83.33-2.75l.69-5.51.65-5.52.31-2.76c.08-.93.19-1.85.26-2.77-.41,1.81-.74,3.64-1,5.47s-.57,3.66-.8,5.5-.43,3.69-.55,5.54c-.06,1-.13,1.9-.16,2.85a.1.1,0,0,1-.05,0A21.44,21.44,0,0,1,337,71.74c.41-.47,3.71,8.13,2.55,14.36C338.55,91.54,335.2,94.89,334,95.24Z" style="fill:#FFC727"></path><path d="M312.06,68.24h0l-2.26.31-4.52.65-4.53.62-2.27.29c-.75.08-1.51.18-2.27.25,1.48-.36,3-.66,4.48-.93s3-.52,4.52-.74,3-.41,4.54-.53c.78-.07,1.56-.13,2.35-.17l0,0A17.64,17.64,0,0,0,292.78,71c-.38.35,6.74,2.94,11.85,1.89C309.08,72,311.78,69.21,312.06,68.24Z" style="fill:#FFC727"></path><path d="M312.5,68.15v0c-.08-.76-.16-1.52-.22-2.28l-.4-4.55-.43-4.54-.24-2.28c-.09-.75-.16-1.51-.27-2.27,0,1.53,0,3,.12,4.58s.18,3,.31,4.56.29,3,.52,4.55c.11.77.23,1.55.37,2.32l-.06,0a17.66,17.66,0,0,1-1.39-19.43c.25-.45,4.4,5.89,4.55,11.1C315.49,64.4,313.38,67.67,312.5,68.15Z" style="fill:#FFC727"></path><path d="M299.92,58.87h0l-2.26.31-4.52.65-4.52.62-2.27.29c-.76.08-1.51.18-2.27.25,1.48-.36,3-.66,4.48-.93s3-.52,4.51-.74,3-.41,4.55-.53c.78-.07,1.56-.13,2.34-.17a.1.1,0,0,0,0-.05,17.64,17.64,0,0,0-19.24,3.08c-.37.35,6.74,2.94,11.85,1.89C297,62.64,299.65,59.84,299.92,58.87Z" style="fill:#FFC727"></path><path d="M300.36,58.78v0q-.12-1.14-.21-2.28l-.4-4.55-.44-4.54-.23-2.28c-.1-.75-.17-1.51-.27-2.27,0,1.53,0,3.05.11,4.58s.18,3,.31,4.56.3,3,.52,4.55c.12.77.23,1.55.37,2.32a.05.05,0,0,1-.05,0,17.61,17.61,0,0,1-1.39-19.43c.25-.45,4.39,5.89,4.54,11.1C303.35,55,301.24,58.3,300.36,58.78Z" style="fill:#FFC727"></path><path d="M323.68,80.72h0c-.75-.08-1.51-.17-2.27-.24L316.83,80l-4.54-.48L310,79.28c-.76-.1-1.52-.18-2.27-.29,1.53,0,3.05.07,4.57.16s3.05.22,4.56.36,3,.33,4.54.57c.78.12,1.55.25,2.32.4a.14.14,0,0,0,0-.06,17.66,17.66,0,0,0-19.42-1.6c-.45.25,5.84,4.46,11.05,4.66C319.89,83.66,323.19,81.59,323.68,80.72Z" style="fill:#FFC727"></path><path d="M324.13,80.73v0c.11-.76.21-1.51.33-2.26l.7-4.51.67-4.52.31-2.27c.09-.75.2-1.51.28-2.27-.38,1.48-.69,3-1,4.47s-.55,3-.79,4.51-.43,3-.58,4.54c-.07.78-.15,1.56-.19,2.34a.1.1,0,0,1-.05,0,17.65,17.65,0,0,1,3.29-19.2c.35-.37,2.86,6.77,1.76,11.87C327.93,77.8,325.1,80.47,324.13,80.73Z" style="fill:#FFC727"></path></g><g id="freepik--Character--inject-2"><path d="M264.71,123.25c-1.76,11.77-1.9,26.19-9,36.27-5.59,7.88-14.89,12.11-24.06,14.19-20.18,4.57-46.38.53-55.77-20.45-3.74-8.39-1.62-23.89,8.1-27.81,5-2,10.38-1.64,15.64-2a21.75,21.75,0,0,0,16.69-8.78c8.31-10.79,9.89-16.63,13.57-29.35a9.41,9.41,0,0,1,4.48-6.17,16.69,16.69,0,0,1,8.52-2.75,16.54,16.54,0,0,1,8.12.24c5.61,1.73,9,4.94,12.81,9.11s5.21,8.1,4.45,13.8C267.19,107.46,265.89,115.34,264.71,123.25Z" style="fill:#263238"></path><path d="M265.08,129c.92-10.89,1.63-21.79,2.41-32.69,0-.06-.1-.08-.11,0-.9,9-1.92,17.87-2.71,26.84-.77,8.78-.95,17.87-2.49,26.55-3.45,19.5-25,23.48-41.31,19.29-.75-.19-1,1-.21,1.18,14.46,3.23,32.77,1.68,40.26-13.25C265,148.77,264.32,137.93,265.08,129Z" style="fill:#263238"></path><path d="M231,84.47a.16.16,0,0,0-.32,0c-2.59,10.59-5.66,20-13.57,28.14a27.72,27.72,0,0,1-14.39,7.79c-4.33.85-8.61.15-13,.15-17,0-21.55,22.12-11.33,33.1.22.23.62-.13.42-.37-7.08-8.33-7.46-21,1.14-28.61,6.89-6.08,17-1.73,25.24-4.13C222.31,115.53,228.29,100.05,231,84.47Z" style="fill:#263238"></path><path d="M302.06,119.48s5.21,12,5.4,18.62-1,27.12-1.89,29.44-4.24,5-4.24,5-3.66,17-7,20,.23,20-9.19,32.22S232.76,261.41,220.55,267,181.12,301,176.23,308.62s1.17,23.74,1.05,25.72,5.47,7.33,5.35,10.47-4.75,14.89-8.31,16.75-15.07,8.49-16.7,10.59-4.5,12.79-4.5,12.79-7.63-10.93-4.24-18.61,9.27-7,9.59-12.8-12.84-14.42-16.27-25.12-13.74-42.11-6.72-55.6,36.23-30.41,36.63-30.91,1.58-14.46,7.5-22.37,41.29-19.51,52-25.34,33.14-21.37,33.56-27.33,3.9-41.26,4.25-43.12,25.47-5.47,27.68-5.27A32.74,32.74,0,0,1,302.06,119.48Z" style="fill:#FFC727"></path><path d="M302.06,119.48s5.21,12,5.4,18.62-1,27.12-1.89,29.44-4.24,5-4.24,5-3.66,17-7,20,.23,20-9.19,32.22S232.76,261.41,220.55,267,181.12,301,176.23,308.62s1.17,23.74,1.05,25.72,5.47,7.33,5.35,10.47-4.75,14.89-8.31,16.75-15.07,8.49-16.7,10.59-4.5,12.79-4.5,12.79-7.63-10.93-4.24-18.61,9.27-7,9.59-12.8-12.84-14.42-16.27-25.12-13.74-42.11-6.72-55.6,36.23-30.41,36.63-30.91,1.58-14.46,7.5-22.37,41.29-19.51,52-25.34,33.14-21.37,33.56-27.33,3.9-41.26,4.25-43.12,25.47-5.47,27.68-5.27A32.74,32.74,0,0,1,302.06,119.48Z" style="opacity:0.2"></path><path d="M207.17,267c-7.81,7.93-15.68,15.81-23.29,23.93a132.79,132.79,0,0,0-10,11.8c-1.54,2.09-3,4.23-4.34,6.46a14.77,14.77,0,0,0-1.66,3.5,10.41,10.41,0,0,0-.17,4,68.22,68.22,0,0,0,4.59,17.94.44.44,0,0,0,.85-.26c-1.26-5.22-2.54-10.44-3.35-15.75a20.85,20.85,0,0,1-.36-3.94,8.42,8.42,0,0,1,1.17-3.7,70.67,70.67,0,0,1,4-6.4c5.86-8.47,13.14-15.91,20.08-23.49q6.36-6.94,12.68-13.94C207.43,267.06,207.27,266.91,207.17,267Z" style="fill:#030402;opacity:0.1"></path><path d="M167.87,352.67a9.61,9.61,0,0,0-2.75-4.49c-3-3.13-6.32-5.95-9.58-8.76-3.74-3.24-7.33-6.67-10.89-10.11a.09.09,0,0,0-.12.12c3,3,6,6.08,8.87,9.22s5.7,6.34,8.7,9.38c2.14,2.15,6,5.15,3.58,8.47a9.09,9.09,0,0,1-4.48,2.91,31.47,31.47,0,0,0-4.68,2c-2.88,1.62-5.36,4.17-6,7.52,0,.05.07.07.08,0,.7-3.36,3.39-5.81,6.35-7.31,3.12-1.58,7.19-1.64,9.62-4.41A5.23,5.23,0,0,0,167.87,352.67Z" style="fill:#030402;opacity:0.1"></path><path d="M175.17,341a73.57,73.57,0,0,1-5.12-6.92,40.42,40.42,0,0,1-3.72-7.9,36.78,36.78,0,0,1-2-9.72.08.08,0,0,0-.16,0A44.19,44.19,0,0,0,168,332.58a37.13,37.13,0,0,0,4.41,7.3c1.67,2.14,4,4.16,4.79,6.84,1.05,3.56-.38,7.26-1.67,10.56,0,0,0,.05,0,0a25.32,25.32,0,0,0,2.39-8.59A11.91,11.91,0,0,0,175.17,341Z" style="fill:#030402;opacity:0.1"></path><path d="M187.06,219.19c-5.75,3.22-7.1,10.41-8,16.37-.7,4.49-1.39,9-2.14,13.48-.38,2.26-.79,4.52-1.19,6.78a16,16,0,0,1-1.74,5.7,11.85,11.85,0,0,1-4.09,3.58c-1.9,1.17-3.82,2.29-5.73,3.42-3.88,2.32-7.75,4.68-11.6,7a34.82,34.82,0,0,0-8.21,6.36,14.71,14.71,0,0,0-2.68,4.31,16.26,16.26,0,0,0-1,6c0,4.51.41,9,.84,13.51s1,9.11,1.66,13.64l.48,3.33a.08.08,0,1,0,.16,0,179.87,179.87,0,0,1-2-27c0-4,.13-8,2.49-11.37,2-2.82,4.9-4.84,7.78-6.62,3.65-2.24,7.39-4.33,11.09-6.49,2-1.14,3.9-2.3,5.85-3.46a27.58,27.58,0,0,0,4.69-3.17c3.1-2.84,3.15-7.12,3.58-11,.5-4.5,1.1-9,1.69-13.46a93.32,93.32,0,0,1,1.75-10.92c.78-3.08,2-6.24,4.37-8.46a11.08,11.08,0,0,1,2-1.47S187.1,219.17,187.06,219.19Z" style="fill:#030402;opacity:0.1"></path><path d="M246.41,189.75c-10.46,8-22.81,13.19-34.77,18.54-5.43,2.42-10.89,4.9-15.73,8.39a31.39,31.39,0,0,0-11.07,13.71c-2.57,6.5-3.36,13.42-4.31,20.29,0,.1.15.14.16,0,.47-3.05,1-6.09,1.69-9.09a54.52,54.52,0,0,1,2.74-8.87,33,33,0,0,1,10.47-14c4.64-3.7,10-6.37,15.37-8.88,5.81-2.71,11.69-5.28,17.38-8.24a103.65,103.65,0,0,0,18.16-11.75A.08.08,0,0,0,246.41,189.75Z" style="fill:#030402;opacity:0.1"></path><path d="M277.26,217.92c-11.08,10.22-24.68,16.92-38.42,22.8-7.24,3.1-14.71,5.79-21.62,9.61a61,61,0,0,0-15.78,12.53A66.15,66.15,0,0,0,189.39,282c0,.1.11.19.15.08a69.1,69.1,0,0,1,26.82-29.68c6.73-4.09,14.13-6.88,21.32-10a179.59,179.59,0,0,0,19.77-9.89A113.53,113.53,0,0,0,277.29,218S277.28,217.9,277.26,217.92Z" style="fill:#030402;opacity:0.1"></path><path d="M176.69,340.35c-.61-2.07-1.31-4.11-1.95-6.17A61.06,61.06,0,0,1,172,321.35c0-.1-.17-.1-.16,0a94.81,94.81,0,0,0,2,12.95,32,32,0,0,0,2,6.11c.94,2,1.82,4.07,2.88,6a.07.07,0,0,0,.13-.06A61.62,61.62,0,0,1,176.69,340.35Z" style="fill:#030402;opacity:0.1"></path><path d="M159.19,361.72c-2.89,2-6.19,3.92-7,7.64a24.65,24.65,0,0,0-.3,6.07,34.54,34.54,0,0,0,.68,6.33.08.08,0,0,0,.16,0,30.41,30.41,0,0,1-.26-6.18,24.41,24.41,0,0,1,.66-5.71c.95-3.34,3.44-6,6.11-8.05C159.25,361.76,159.22,361.7,159.19,361.72Z" style="fill:#030402;opacity:0.1"></path><path d="M169.5,348.92a43,43,0,0,0-4.92-4.32c-1.77-1.33-3.68-2.43-5.48-3.69a.08.08,0,1,0-.08.14,26,26,0,0,1,4.81,3.68,47,47,0,0,1,4.15,4.32c1.17,1.4,2.76,2.92,3.14,4.77.42,2.08-.93,4.06-2,5.71a.06.06,0,0,0,.09.07,11.59,11.59,0,0,0,2.84-5.5C172.34,352,170.87,350.31,169.5,348.92Z" style="fill:#030402;opacity:0.1"></path><path d="M166,295.35a69.69,69.69,0,0,0-11.77,27.34c-.12.68-.25,1.36-.36,2a5.87,5.87,0,0,0-.16,1.56c.06.51.48,1.47,1.13,1,.09-.06,0-.19-.09-.14s-.51-.21-.58-.36a1,1,0,0,1-.07-.29,2.11,2.11,0,0,1,0-.79c.1-.56.23-1.12.35-1.68.22-1.09.49-2.17.78-3.24.57-2.15,1.22-4.28,1.93-6.39a85.31,85.31,0,0,1,5.3-12.36q1.77-3.36,3.85-6.53C166.45,295.32,166.11,295.14,166,295.35Z" style="fill:#030402;opacity:0.1"></path><path d="M158.68,301.17c-.12.35-.23.71-.35,1.07,0,.09.12.13.15,0l.36-1.07C158.87,301.11,158.71,301.07,158.68,301.17Z" style="fill:#030402;opacity:0.1"></path><path d="M183.07,267.5a104.48,104.48,0,0,0-20.28,26.13c-1.54,2.78-2.94,5.63-4.24,8.53,0,.1.1.18.15.08a134.88,134.88,0,0,1,18.35-27.63c2-2.36,4.11-4.64,6.26-6.87C183.46,267.58,183.22,267.36,183.07,267.5Z" style="fill:#030402;opacity:0.1"></path><path d="M296.41,188.78a48.79,48.79,0,0,1-6.65,6.11,42.65,42.65,0,0,0-6.5,6.24,47.36,47.36,0,0,0-4.6,8,30.74,30.74,0,0,1-5.34,7.81,66.78,66.78,0,0,1-8.31,6.87s0,.09,0,.06a75.82,75.82,0,0,0,7.41-5.69,34.94,34.94,0,0,0,6-7.1c1.69-2.62,3.26-5.3,5.06-7.84a49.26,49.26,0,0,1,6-6.84c1.21-1.18,2.43-2.35,3.61-3.55a52.63,52.63,0,0,0,3.45-4C296.6,188.81,296.48,188.7,296.41,188.78Z" style="fill:#030402;opacity:0.1"></path><path d="M289.5,200.39a26,26,0,0,0-2.65,7.18c-.57,2.58-.92,5.2-1.59,7.75a18.28,18.28,0,0,1-3.66,7.21c-2,2.42-4.33,4.6-6.54,6.84-2.57,2.62-5.17,5.21-7.76,7.8a0,0,0,1,0,0,0c4.7-4.53,9.49-9,14.18-13.49a17.71,17.71,0,0,0,4.49-6.61,33.29,33.29,0,0,0,1.57-7.72c.36-3,.67-6.16,2.06-8.92A.08.08,0,0,0,289.5,200.39Z" style="fill:#030402;opacity:0.1"></path><path d="M305.48,166.34c-1.72,3.52-5,6.08-8,8.43s-6.4,4.47-9.32,7.09a100.73,100.73,0,0,0-9.61,10.52c-3.26,3.89-6.54,7.76-9.8,11.64-3.66,4.35-7.36,8.66-11,13-.15.18.1.43.26.26,6.78-7.53,13.48-15.12,20.26-22.65,3.25-3.62,6.41-7.35,9.91-10.74,2.89-2.81,6.14-5.22,9.25-7.77a35.73,35.73,0,0,0,4.67-4.45,28.87,28.87,0,0,0,3.51-5.26C305.67,166.32,305.53,166.24,305.48,166.34Z" style="fill:#030402;opacity:0.1"></path><path d="M301.87,133.92c-.84-4.24-2-8.42-3.15-12.56a.08.08,0,1,0-.15,0c1.44,7.33,3,14.61,3.41,22.09.37,6.37,0,13.09-2.13,19.15a29.81,29.81,0,0,1-5.3,9.25c0,.05,0,.12.07.07,4.26-4.78,6.62-10.79,8-17C304.14,148.05,303.23,140.79,301.87,133.92Z" style="fill:#030402;opacity:0.1"></path><path d="M264.41,202.9a75.11,75.11,0,0,1-16.73,20.32A88,88,0,0,1,237,231.38c-3.86,2.49-7.9,4.7-11.85,7.05a89,89,0,0,0-12.5,8.67c-.06.05,0,.12.08.08,7.19-6,15.79-9.9,23.77-14.66a83.91,83.91,0,0,0,10.93-7.59,60.44,60.44,0,0,0,9.09-9.62c1.47-1.91,2.92-3.84,4.24-5.86s2.58-4.27,3.78-6.47A.08.08,0,0,0,264.41,202.9Z" style="fill:#030402;opacity:0.1"></path><path d="M273.87,125.43c-1,10.32-2.08,20.64-3,31a77.85,77.85,0,0,1-2.13,13.83,37.7,37.7,0,0,1-2.36,6.53,44.17,44.17,0,0,1-3.72,6.1c-3.28,4.68-6.62,9.33-10,14-.08.11.1.25.19.14,3.19-4.11,6.44-8.17,9.62-12.3,2.86-3.72,5.78-7.64,7.31-12.13a56.28,56.28,0,0,0,2.36-13.95c.38-5.13.65-10.28.92-15.43q.45-8.86.92-17.73C274,125.32,273.88,125.33,273.87,125.43Z" style="fill:#030402;opacity:0.1"></path><path d="M275,149.12c0-.09-.15-.11-.16,0-.62,5.14.27,10.31-.3,15.45S272,174.3,270,178.91c-.07.17.17.3.25.14,2.12-4.48,4.42-9.13,5.08-14.1C276,159.66,274.56,154.41,275,149.12Z" style="fill:#030402;opacity:0.1"></path><path d="M295.9,130.2c-.44-1.5-.87-3-1.28-4.5-.19-.71-.38-1.42-.58-2.13l-.33-1.12c0-.16-.11-.33-.15-.5l-.08-.24c-.16-.26-.08-.41.23-.44-.1,0,0,.19.08.14.34-.17,0-.62-.33-.5s-.23.46-.22.67a16.47,16.47,0,0,0,.38,2c.62,3.06,1.25,6.14,1.95,9.18s1.39,6,2,8.95a84.46,84.46,0,0,1,1.63,9.07,33.8,33.8,0,0,1-.47,10.38,0,0,0,1,0,.09,0C301.42,150.85,298.77,140.15,295.9,130.2Z" style="fill:#030402;opacity:0.1"></path><path d="M290.35,156.1a67.71,67.71,0,0,1-2.55,13.63c-1.46,4.58-4.15,8.58-6.51,12.72-1.41,2.47-2.81,4.93-4.2,7.41-.07.11.1.21.17.1,2.73-4.28,5.52-8.54,8.07-12.92a32.92,32.92,0,0,0,2.93-6.35,40.34,40.34,0,0,0,1.5-6.77c.36-2.6.51-5.21.75-7.82C290.52,156,290.36,156,290.35,156.1Z" style="fill:#030402;opacity:0.1"></path><path d="M335,450.77c-2.41.85-73.74,1.61-76.4,0-.32-.18-.53-6.62-.67-15.46l-.08-51.55,46.11-.58-1,44.08s10.24,4.41,18.69,8.27l0,0c5.2,2.38,9.73,4.55,10.77,5.35C335.21,443,337.45,449.93,335,450.77Z" style="fill: rgb(221, 106, 87);"></path><path d="M236.36,198c-19.39,29.87,8,52.21,9.07,56.53A409.9,409.9,0,0,1,257,333.78c.72,20.09.86,85.43.86,85.43h44.86s3.53-69.33,1.23-88.57c-4.83-40.42-12.42-78.45-18.94-110.58A148.72,148.72,0,0,1,282,198Z" style="fill: rgb(221, 106, 87);"></path><path d="M159.67,459.1c1.18.15,59,.28,61.47-.83.19-.08,1.92-5.16,1.58-8-.39-3.24-4.11-7-5-9.14l6.76-52.42-45-1-7.38,49s-9.21,10.4-10.24,11.23C159.2,450.07,157.14,458.77,159.67,459.1Z" style="fill: rgb(221, 106, 87);"></path><path d="M173.14,430h46s12.38-53.64,15.77-87.28c2.1-20.84,23-88.19,26.51-114,0,0,8.75-5.17,11-8s4.21-13,8.58-22.71H217c-15.3,29.7-15,49.5-15.11,56-.72,41.3-11.28,82.63-12.93,88.74C179.83,376.36,173.14,430,173.14,430Z" style="fill: rgb(221, 106, 87);"></path><path d="M231.64,429l.06-.11a.18.18,0,0,0,0,.09Z" style="fill:#030402"></path><path d="M217,198h65a16.78,16.78,0,0,1,2.64,5.81c1.13,5,1.34,11.75,1.76,13.84.7,3.49,20.24,104.81,20.94,111.09s-.93,27.33-1.17,28.73-31.42,9.85-37.22,13.72c-1.8,1.21-7,14-9.07,17.45s-21,30.95-24.59,34.79-10.54,20.35-15.66,24.07-17.66,8.86-22.1,11.68-36.76,2.05-48.62,2.05-31.18.1-35.13.1a30.5,30.5,0,0,1,7.91-4.06c4-1.16,11.63-.23,15.12-3s5.58-8.17,11.86-15.25,19.72-22.9,24.52-29.19S190,327.24,190.5,323.52s6.75-45.6,8.61-50.71.29-25.72,1.86-35.13c1.82-10.94,8.18-27.07,12.25-35.08A12.33,12.33,0,0,1,217,198Z" style="fill:#FFC727"></path><path d="M269.28,311.79c-.86-2.8-1.87-5.54-2.89-8.28s-2-5.54-3-8.3c-2.26-6.3-4.46-12.61-6.69-18.91,0-.13-.24-.05-.2.08,1.83,5.63,3.71,11.24,5.52,16.88s3.67,11.19,5.22,16.88a70.61,70.61,0,0,1,2.59,16.72c.16,5.5-.11,11-.44,16.49-.38,6.17-.76,12.37.06,18.52,0,.12.19.09.18,0a120.54,120.54,0,0,1,.82-16.77c.56-5.5,1.42-11,1.42-16.55A56.2,56.2,0,0,0,269.28,311.79Z" style="fill:#030402;opacity:0.1"></path><path d="M264.24,259.51q.4-4.86,1.17-9.68c0-.36-.48-.51-.56-.14A101.19,101.19,0,0,0,263.21,284a96.11,96.11,0,0,0,1.61,9.55c0,.08.17.06.16,0-.67-5.66-1.21-11.29-1.33-17A167.48,167.48,0,0,1,264.24,259.51Z" style="fill:#030402;opacity:0.1"></path><path d="M263.27,236.54c-1.09,6.24-2.07,12.51-3,18.78,0,.1.14.15.16,0,1.09-6.24,2.16-12.49,3.1-18.76C263.55,236.44,263.3,236.37,263.27,236.54Z" style="fill:#030402;opacity:0.1"></path><path d="M244.48,341A142.78,142.78,0,0,0,238,359.78a152,152,0,0,0-3.85,19.38c-.43,3.36-.71,6.74-.86,10.12a74.45,74.45,0,0,1-.93,10.44c-1.24,6.69-3.95,13.07-6.19,19.47q-2,5.65-3.88,11.34c-1.26,3.78-2.56,7.56-3.62,11.4-.08.31.39.51.53.21,2.9-6.46,5.33-13.16,7.81-19.8q1.83-4.87,3.6-9.78a100.2,100.2,0,0,0,3.14-9.68c1.69-6.68,1.42-13.55,1.83-20.37a143.31,143.31,0,0,1,2.6-19.79c.73-3.62,1.71-7.22,2.75-10.77s2.3-7.28,3.73-10.83C244.66,341,244.52,341,244.48,341Z" style="fill:#030402;opacity:0.1"></path><path d="M221.26,410.9c-4.23,8.11-5.3,17.43-9.58,25.53a46.59,46.59,0,0,1-6.63,9.55,45.6,45.6,0,0,1-8.8,7.66,43.68,43.68,0,0,1-12.09,5.47.13.13,0,0,0,.07.25,40.65,40.65,0,0,0,11.14-4,38.16,38.16,0,0,0,9.64-7,38.78,38.78,0,0,0,7-9.53,61.59,61.59,0,0,0,4.36-12.69c1.34-5.14,2.61-10.41,5-15.18A.08.08,0,0,0,221.26,410.9Z" style="fill:#030402;opacity:0.1"></path><path d="M197.08,356.35a158.31,158.31,0,0,0-4.63,26.39c-.37,3.94-.48,7.9-1.16,11.81A24.24,24.24,0,0,1,187.06,405c-1.19,1.83-2.48,3.56-3.83,5.28a26.38,26.38,0,0,0-3.47,5.29c0,.08.09.14.14.07a41.86,41.86,0,0,1,3.75-4.56c1.32-1.38,2.78-2.65,4.07-4.07A22.48,22.48,0,0,0,193,396.68,67.72,67.72,0,0,0,194.27,385c.23-4.48.48-9,1.06-13.42.66-5,1.38-10.08,2.35-15.07A.31.31,0,0,0,197.08,356.35Z" style="fill:#030402;opacity:0.1"></path><path d="M206.08,321.57c-3.33,6.76-6.71,13.5-10,20.29-1.57,3.25-3.35,6.43-4.64,9.8a17.45,17.45,0,0,0-1.16,4.89,34.34,34.34,0,0,0,.07,5.17c.23,3.9.53,7.73-.51,11.55,0,.1.13.16.18.06,1.27-3,1.36-6.4,1.44-9.63a44.75,44.75,0,0,1,1-10.2,30.5,30.5,0,0,1,1.78-4.72q1.15-2.59,2.34-5.16c1.56-3.39,3.09-6.79,4.63-10.19l5.25-11.63C206.62,321.53,206.21,321.3,206.08,321.57Z" style="fill:#030402;opacity:0.1"></path><path d="M212.3,294.74c-.79,6.48-1.45,13-2.11,19.47a52.85,52.85,0,0,1-1.54,9.43c-.87,3-2.06,6-3.15,9-1.27,3.49-2.42,7-3.7,10.53,0,.08.12.14.16.06,2.48-6,5.39-11.91,7.43-18.11s2.05-12.68,2.45-19.06c.23-3.75.51-7.51.7-11.27C212.54,294.63,212.32,294.6,212.3,294.74Z" style="fill:#030402;opacity:0.1"></path><path d="M203.48,401.06a158.48,158.48,0,0,1-17.69,23.24q-4.87,5.32-10.24,10.18-2.69,2.41-5.45,4.74c-1.77,1.49-3.61,2.88-5.33,4.42-3.41,3.05-6.79,7.16-5.67,12a.76.76,0,0,0,.94.5,29.67,29.67,0,0,0,18.2-13.51,24.9,24.9,0,0,0,2.62-5.87c.07-.22-.28-.36-.37-.15a31,31,0,0,1-14.88,16,26.53,26.53,0,0,1-5.17,1.91c-.32-3.82,2.71-7.1,5.35-9.51,1.67-1.52,3.47-2.89,5.2-4.34s3.58-3.1,5.31-4.72A152.58,152.58,0,0,0,195,414.59a144.43,144.43,0,0,0,8.65-13.45C203.68,401.05,203.54,401,203.48,401.06Z" style="fill:#030402;opacity:0.1"></path><path d="M217.06,362.29c-1.73,8.44-3,17-5.07,25.34a79.68,79.68,0,0,1-8.18,21.26,45.66,45.66,0,0,1-3.45,5.25,46.54,46.54,0,0,1-4.15,4.62c-.33.31.17.76.5.47A47.11,47.11,0,0,0,209.3,401.1c3.09-7.66,4.63-15.85,5.77-24,.69-4.92,1.35-9.86,2.15-14.77C217.23,362.23,217.08,362.19,217.06,362.29Z" style="fill:#030402;opacity:0.1"></path><path d="M300.83,312.1A288.26,288.26,0,0,1,294.94,346c-.35,1.56-.68,3.12-1,4.67s-.92,3.16-1.15,4.76c-.05.3.38.52.52.2a13.35,13.35,0,0,0,.52-1.29s0-.05.08-.06a.08.08,0,0,0,0-.14c.29-.84.53-1.69.79-2.51.45-1.4.91-2.8,1.32-4.21.81-2.77,1.49-5.58,2.13-8.4a138.79,138.79,0,0,0,2.68-17.18c.3-3.25.55-6.49.74-9.75C301.53,311.64,300.87,311.67,300.83,312.1Z" style="fill:#030402;opacity:0.1"></path><path d="M296.91,301.73c-.34-3.79-.78-7.56-1.12-11.34,0-.1-.16-.1-.16,0,.25,6.58.39,13.16.68,19.74.14,3.12.27,6.25.1,9.38a33.37,33.37,0,0,1-1.76,9.22c-1.09,3.1-2.4,6.17-2.65,9.49,0,.13.22.16.23,0,.36-3.09,1.67-5.89,2.81-8.74a36.2,36.2,0,0,0,2.36-8.66C298.25,314.49,297.49,308.07,296.91,301.73Z" style="fill:#030402;opacity:0.1"></path><path d="M281.37,219c0-1.68-.15-3.36-.23-5a16.61,16.61,0,0,0-.63-4.49c-.84-2.58-2.49-4.78-3.79-7.12a20.44,20.44,0,0,1-1.09-2.2c-.15-.35-.31-1.22-.69-1.39a.37.37,0,1,0-.15.67h0c.15.58.79,2.63.9,2.91.43,1,.9,2,1.4,3a22.48,22.48,0,0,1,2.34,6.83c.4,2.82.44,5.69.73,8.53s.6,5.73.86,8.6c.31,3.25.53,6.52.75,9.77,0,.09.15.09.14,0C281.61,232.38,281.53,225.69,281.37,219Z" style="fill:#030402;opacity:0.1"></path><path d="M286.13,239.79c-.75-3.75-2-7.36-2.89-11.08,0-.09-.17-.06-.16,0a60.8,60.8,0,0,0,2.18,10.93,41.36,41.36,0,0,1,1.95,11.23.06.06,0,1,0,.12,0A46.7,46.7,0,0,0,286.13,239.79Z" style="fill:#030402;opacity:0.1"></path><path d="M273.63,207.07c-.16-1.29-.41-2.56-.65-3.84s-.36-2.71-.69-4a.09.09,0,0,0-.16,0,17.59,17.59,0,0,0,0,3.77c.08,1.38.19,2.75.39,4.11s.63,2.57.86,3.87a22.8,22.8,0,0,1,.18,4.21s.07,0,.08,0c.12-1.33.05-2.66.05-4A31.47,31.47,0,0,0,273.63,207.07Z" style="fill:#030402;opacity:0.1"></path><path d="M279.19,202.91c-.49-.8-1-1.56-1.57-2.31-.28-.38-.56-.76-.85-1.13-.09-.09-.16-.18-.26-.14a.06.06,0,0,0-.06,0h0a.09.09,0,0,0,.12.12c-.06,0,2.17,3.85,2.36,4.21.38.7.8,1.37,1.18,2.07a13.62,13.62,0,0,1,1,2.35,0,0,0,0,0,.09,0A18.79,18.79,0,0,0,279.19,202.91Z" style="fill:#030402;opacity:0.1"></path><path d="M255.88,198.12c-1.8,4.73-4.1,9.47-4.33,14.61a55.11,55.11,0,0,0,.4,7.7c.24,2.65.37,5.31.49,8,.14,3,.19,5.93.29,8.9,0,0,.06,0,.06,0,0-5.2-.09-10.39.08-15.58q.12-3.89.29-7.76a42,42,0,0,1,1-7.41c.32-1.4.71-2.77,1-4.17s.54-2.82.85-4.22A.08.08,0,0,0,255.88,198.12Z" style="fill:#030402;opacity:0.1"></path><path d="M257.82,200.14c0-.09-.15-.11-.16,0-.59,3.52-1.47,7-1.5,10.63a43.08,43.08,0,0,0,.66,10.21s.06,0,.06,0a29.13,29.13,0,0,1,.15-10.49C257.55,207.05,257.46,203.57,257.82,200.14Z" style="fill:#030402;opacity:0.1"></path><path d="M238.08,201.54c-.17-.87-.49-1.71-.7-2.57,0-.1-.19-.08-.18,0a23.48,23.48,0,0,1-.25,5.16c-.09.92-.11,1.84-.22,2.76s-.29,1.73-.45,2.59a63.24,63.24,0,0,0-.89,10.47.06.06,0,1,0,.11,0c.16-1.87.31-3.75.58-5.61a32.27,32.27,0,0,1,1.31-5.23,16,16,0,0,0,1-5A14.85,14.85,0,0,0,238.08,201.54Z" style="fill:#030402;opacity:0.1"></path><path d="M235.74,198.54a.08.08,0,0,0-.1,0c-.31.09-.42.44-.57.71a8.1,8.1,0,0,0-.53,1.16A10.84,10.84,0,0,0,234,203a16.66,16.66,0,0,0,.37,5.31c0,.07.12,0,.11,0a14.31,14.31,0,0,1,.09-5.22,24.38,24.38,0,0,1,.64-2.37l.33-1.13C235.63,199.25,235.88,198.86,235.74,198.54Z" style="fill:#030402;opacity:0.1"></path><path d="M247.5,199a.08.08,0,0,0-.15,0,7.22,7.22,0,0,0-.7,2.24c-.15.81-.29,1.63-.44,2.45a8.24,8.24,0,0,0-.25,2.21c.06.77.29,1.51.34,2.28a0,0,0,0,0,0,0c0-.77-.22-1.52-.24-2.28a7.6,7.6,0,0,1,.42-2.31A14.76,14.76,0,0,0,247.5,199Z" style="fill:#030402;opacity:0.1"></path><path d="M252.81,198.77c-.19,1.1-.3,2.22-.43,3.34,0,.14.19.19.21,0,.14-1.12.29-2.25.38-3.38C253,198.69,252.82,198.68,252.81,198.77Z" style="fill:#030402;opacity:0.1"></path><path d="M222.08,198.54a13.77,13.77,0,0,0-2.6,2.84,27.29,27.29,0,0,0-2.16,3.28,41.38,41.38,0,0,0-3.11,7.43c-1.77,5.55-2.43,11.42-3,17.2-.33,3.63-.73,7.25-1.39,10.84,0,0,.06.06.07,0,1.23-6,1.94-12.08,3.13-18.08,1.06-5.37,2.26-10.75,4.64-15.71.62-1.31,1.29-2.61,2-3.86s1.77-2.46,2.56-3.76C222.36,198.62,222.2,198.45,222.08,198.54Z" style="fill:#030402;opacity:0.1"></path><path d="M216.92,202.42a31.59,31.59,0,0,0-5.52,10.3,40.17,40.17,0,0,0-1.4,11.75,0,0,0,0,0,.09,0A35.22,35.22,0,0,1,212.17,213a46.44,46.44,0,0,1,4.88-10.5C217.1,202.44,217,202.35,216.92,202.42Z" style="fill:#030402;opacity:0.1"></path><path d="M218.58,213.43c0-.11-.16-.1-.17,0-.27,2.56.05,5.12-.12,7.68a71.2,71.2,0,0,1-1.17,7.66c-.9,5.11-1.75,10.22-2.61,15.34,0,.06.09.09.1,0,1.12-5.14,2.24-10.28,3.32-15.42a45.44,45.44,0,0,0,1.19-7.49C219.21,218.6,218.55,216,218.58,213.43Z" style="fill:#030402;opacity:0.1"></path><path d="M247.57,276.77c-1.69-6.67-4.31-13.09-6.8-19.49-1.47-3.77-3-7.49-4.43-11.29,0-.1-.19-.06-.16,0,1.21,3.31,2.3,6.65,3.39,10s2.21,6.55,3.28,9.83,2,6.49,2.93,9.77,1.81,6.5,2.44,9.81a68.32,68.32,0,0,1,1.23,11.49.27.27,0,0,0,.53,0A73.31,73.31,0,0,0,247.57,276.77Z" style="fill:#030402;opacity:0.1"></path><path d="M268.9,371.22c-1.8,1.2-7,13.95-9.08,17.45s-21,30.94-24.58,34.77a29.45,29.45,0,0,0-3.18,4.79c3.6-6.9,8.66-32.67,11-40.54,2.47-8.18,3.55-42.35,5.57-50.86s2.49-28,6.2-31.77,7,20,7,33.28S268.49,358.85,268.9,371.22Z" style="fill:#030402;opacity:0.1"></path><path d="M257.89,294.65c-1.19-7.54-2.95-23.44-.91-29.65s2.71,1.8,2.38,6,7.17,25,5.63,28.68S258.9,301.06,257.89,294.65Z" style="fill:#030402;opacity:0.1"></path><path d="M265.19,138.08c18.21,4,46.5,9,52.25,5.55,7-4.23,26-29,31-37.64,2.09-3.54-18.3-21.25-21.7-18.47-8.54,7-20.72,29.36-22.44,31.43-1,1.17-27.06,3.27-41.42,5.39C248.25,126.52,253.67,135.55,265.19,138.08Z" style="fill: rgb(221, 106, 87);"></path><path d="M358.3,95.63c-2.48,6.18-12.49,16.83-15.89,18.47s-22.09-14.78-21.85-18.65,10.72-21.65,16.64-25S360.87,89.22,358.3,95.63Z" style="fill: rgb(221, 106, 87);"></path><path d="M321.33,93.76s-3.46-28,8.16-24C333,70.94,345.7,80,343.94,82.56c-2.28,3.35-8.31.58-11.81-1.76,0,0,2.52,9.37-3.49,13.07A7,7,0,0,1,321.33,93.76Z" style="fill: rgb(221, 106, 87);"></path><path d="M328.5,69.47a14.68,14.68,0,0,1,4,1.52,32.15,32.15,0,0,1,3.69,2.25,49.34,49.34,0,0,1,6.7,5.5,7.88,7.88,0,0,1,1.39,1.83,3,3,0,0,1,.37,1.25,1.9,1.9,0,0,1-.07.73,2.1,2.1,0,0,1-.3.64,3.66,3.66,0,0,1-2.08,1.43,7,7,0,0,1-2.35.14,13,13,0,0,1-4.26-1.34,29.51,29.51,0,0,1-3.77-2.21l.76-.55a17.67,17.67,0,0,1,.43,3.28,15.77,15.77,0,0,1-.19,3.29,11.07,11.07,0,0,1-1,3.12,8.56,8.56,0,0,1-2,2.57,9.59,9.59,0,0,0,1.64-2.72,11.54,11.54,0,0,0,.71-3.06,15.69,15.69,0,0,0,0-3.14,17.8,17.8,0,0,0-.58-3.06l-.37-1.23,1.12.67a30.88,30.88,0,0,0,3.7,2,12.7,12.7,0,0,0,3.9,1.18c1.28.13,2.7-.12,3.31-1,.61-.76-.31-2-1.22-3s-2-2-3-2.92-2.14-1.87-3.26-2.74A27,27,0,0,0,328.5,69.47Z" style="fill:#263238"></path><path d="M337.14,98.12a13.39,13.39,0,0,0,.15,6.23,1.11,1.11,0,1,0,2.12-.64,11.1,11.1,0,0,1-.31-3.6c0-.12,0-.23,0-.35s.05-.46,0-.15c0-.16,0-.33.07-.49s.05-.31.08-.46a1.1,1.1,0,1,0-2.14-.54Z" style="fill:#263238"></path><path d="M337.51,108.71a13.48,13.48,0,0,0,.16,6.22,1.12,1.12,0,0,0,1.38.74,1.13,1.13,0,0,0,.74-1.38,11.36,11.36,0,0,1-.32-3.6l0-.34c0-.06.05-.47,0-.15,0-.17,0-.33.07-.49a3.85,3.85,0,0,1,.08-.47,1.11,1.11,0,0,0-2.15-.53Z" style="fill:#263238"></path><path d="M337.93,119.09a13.34,13.34,0,0,0,.15,6.22,1.11,1.11,0,0,0,2.12-.64,11.62,11.62,0,0,1-.31-3.59c0-.12,0-.24,0-.35s0-.47,0-.15c0-.16,0-.33.07-.49s.05-.31.08-.47a1.1,1.1,0,1,0-2.14-.53Z" style="fill:#263238"></path><path d="M338.32,129.09a13.39,13.39,0,0,0,.15,6.23,1.11,1.11,0,1,0,2.12-.64,11.66,11.66,0,0,1-.31-3.6c0-.12,0-.23,0-.35s.05-.46,0-.14c0-.17,0-.33.07-.5s.05-.31.08-.46a1.1,1.1,0,1,0-2.14-.54Z" style="fill:#263238"></path><path d="M362.51,170.11c0,4.63,5.51,8.91,11.94,8.91s11.95-4.15,11.95-8.91Z" style="fill:#455a64"></path><path d="M364.78,169c1.47-4.25,3-8.47,4.59-12.68.76-2.11,1.58-4.21,2.37-6.31l2.4-6.3.34-.92.35.92,2.4,6.3c.79,2.1,1.61,4.2,2.38,6.31,1.56,4.21,3.11,8.43,4.58,12.68-1.76-4.13-3.45-8.3-5.12-12.47-.85-2.08-1.65-4.18-2.48-6.27L374.14,144h.69l-2.45,6.27c-.83,2.1-1.63,4.2-2.48,6.28C368.23,160.71,366.54,164.88,364.78,169Z" style="fill:#263238"></path><rect x="361.83" y="168.49" width="25.25" height="1.62" transform="translate(748.91 338.59) rotate(180)" style="fill:#FFC727"></rect><path d="M290.08,184.7c0,4.63,5.52,8.91,11.95,8.91s12-4.14,12-8.91Z" style="fill:#455a64"></path><path d="M292.36,183.61c1.47-4.25,3-8.47,4.58-12.69.77-2.11,1.59-4.2,2.38-6.31l2.39-6.3.35-.92.35.92,2.4,6.3c.79,2.11,1.61,4.2,2.37,6.31,1.56,4.22,3.11,8.44,4.59,12.69-1.77-4.14-3.45-8.31-5.13-12.48-.85-2.08-1.65-4.18-2.47-6.27l-2.46-6.28h.7L300,164.86c-.82,2.09-1.62,4.19-2.47,6.27C295.8,175.3,294.12,179.47,292.36,183.61Z" style="fill:#263238"></path><rect x="289.41" y="183.08" width="25.25" height="1.62" transform="translate(604.07 367.78) rotate(180)" style="fill:#FFC727"></rect><path d="M302.52,158.9c2-.23,3.11-1.53,5.29-2.71,3.17-1.71,15.54-4.6,21-5.27,2.17-.27,7,.75,10.21.1s7.27-3.44,9.38-4c5.31-1.49,17.85-3.59,21.44-3.24,2.46.25,4,1,5.92.47,3.14-.88,2.59-5.47-1.45-4.66s-5.05,1.84-10.39,2.82c-2.3.42-16.3,1.58-20.18,2.35a22.76,22.76,0,0,0-5.64,1.72,22.42,22.42,0,0,0-5.85.59c-3.89.78-17.24,5.1-19.54,5.6-5.3,1.16-6.64.6-10.68,1.41S299.28,159.3,302.52,158.9Z" style="fill:#455a64"></path><path d="M338.65,140.52a13.39,13.39,0,0,0-.17,6.23,1.11,1.11,0,1,0,2.15-.53,11.78,11.78,0,0,1-.13-3.61c0-.12,0-.23,0-.35s.08-.46,0-.14c0-.17.06-.33.1-.49s.06-.31.1-.46a1.1,1.1,0,0,0-2.11-.65Z" style="fill:#263238"></path><path d="M339.82,142.28l.3,0a3.69,3.69,0,0,0,3.35-4l-.09-1a3.69,3.69,0,0,0-4-3.35l-.3,0a3.68,3.68,0,0,0-3.35,4l.09,1A3.67,3.67,0,0,0,339.82,142.28ZM337.3,138a2.21,2.21,0,0,1,2-2.38l.18,0a2.2,2.2,0,0,1,2.38,2l.05.61a2.19,2.19,0,0,1-2,2.37l-.17,0a2.2,2.2,0,0,1-2.38-2Z" style="fill:#455a64"></path><path d="M339.94,141.35l.23,0a2.88,2.88,0,0,0,2.61-3.11l-.07-.78a2.87,2.87,0,0,0-3.1-2.61l-.24,0a2.86,2.86,0,0,0-2.6,3.1l.06.79A2.88,2.88,0,0,0,339.94,141.35ZM337.3,138a2.21,2.21,0,0,1,2-2.38l.18,0a2.2,2.2,0,0,1,2.38,2l.05.61a2.19,2.19,0,0,1-2,2.37l-.17,0a2.2,2.2,0,0,1-2.38-2Z" style="fill:#37474f"></path><path d="M339.42,131.54l.3,0a3.68,3.68,0,0,0,3.35-4l-.09-1a3.67,3.67,0,0,0-4-3.35l-.3,0a3.69,3.69,0,0,0-3.35,4l.09,1A3.68,3.68,0,0,0,339.42,131.54Zm-2.51-4.28a2.19,2.19,0,0,1,2-2.38l.17,0a2.2,2.2,0,0,1,2.38,2l.05.6a2.19,2.19,0,0,1-2,2.38l-.17,0a2.2,2.2,0,0,1-2.38-2Z" style="fill:#455a64"></path><path d="M339.54,130.6l.23,0a2.86,2.86,0,0,0,2.61-3.1l-.07-.78a2.86,2.86,0,0,0-3.1-2.61l-.23,0a2.86,2.86,0,0,0-2.61,3.1l.07.78A2.86,2.86,0,0,0,339.54,130.6Zm-2.63-3.34a2.19,2.19,0,0,1,2-2.38l.17,0a2.2,2.2,0,0,1,2.38,2l.05.6a2.19,2.19,0,0,1-2,2.38l-.17,0a2.2,2.2,0,0,1-2.38-2Z" style="fill:#37474f"></path><path d="M339.13,121.16l.3,0a3.66,3.66,0,0,0,3.34-4l-.08-1a3.68,3.68,0,0,0-4-3.35l-.3,0a3.68,3.68,0,0,0-3.35,4l.09,1A3.67,3.67,0,0,0,339.13,121.16Zm-2.52-4.29a2.19,2.19,0,0,1,2-2.37l.18,0a2.2,2.2,0,0,1,2.38,2l.05.6a2.19,2.19,0,0,1-2,2.38l-.18,0a2.19,2.19,0,0,1-2.37-2Z" style="fill:#455a64"></path><path d="M339.24,120.22l.24,0a2.87,2.87,0,0,0,2.61-3.1l-.07-.78a2.87,2.87,0,0,0-3.1-2.61l-.24,0a2.87,2.87,0,0,0-2.61,3.1l.07.78A2.87,2.87,0,0,0,339.24,120.22Zm-2.63-3.35a2.19,2.19,0,0,1,2-2.37l.18,0a2.2,2.2,0,0,1,2.38,2l.05.6a2.19,2.19,0,0,1-2,2.38l-.18,0a2.19,2.19,0,0,1-2.37-2Z" style="fill:#37474f"></path><path d="M338.63,110.84l.3,0a3.68,3.68,0,0,0,3.35-4l-.09-1a3.69,3.69,0,0,0-4-3.35l-.3,0a3.69,3.69,0,0,0-3.35,4l.09,1A3.68,3.68,0,0,0,338.63,110.84Zm-2.52-4.29a2.21,2.21,0,0,1,2-2.38h.18a2.19,2.19,0,0,1,2.38,2l.05.6a2.2,2.2,0,0,1-2,2.38h-.17a2.19,2.19,0,0,1-2.38-2Z" style="fill:#455a64"></path><path d="M338.75,109.9l.23,0a2.87,2.87,0,0,0,2.61-3.1l-.07-.79a2.87,2.87,0,0,0-3.1-2.61l-.24,0a2.87,2.87,0,0,0-2.6,3.11l.06.78A2.87,2.87,0,0,0,338.75,109.9Zm-2.64-3.35a2.21,2.21,0,0,1,2-2.38h.18a2.19,2.19,0,0,1,2.38,2l.05.6a2.2,2.2,0,0,1-2,2.38h-.17a2.19,2.19,0,0,1-2.38-2Z" style="fill:#37474f"></path><path d="M338.4,101.49l.52,0a6.4,6.4,0,0,0,5.83-6.94l-.15-1.75a6.41,6.41,0,0,0-6.94-5.84l-.52,0a6.4,6.4,0,0,0-5.83,6.93l.15,1.76A6.42,6.42,0,0,0,338.4,101.49ZM334,94a3.84,3.84,0,0,1,3.49-4.15l.31,0A3.83,3.83,0,0,1,342,93.33l.09,1a3.82,3.82,0,0,1-3.49,4.14l-.31,0a3.82,3.82,0,0,1-4.14-3.48Z" style="fill:#455a64"></path><path d="M338.6,99.85l.41,0a5,5,0,0,0,4.54-5.41L343.43,93A5,5,0,0,0,338,88.5l-.41,0a5,5,0,0,0-4.54,5.41l.11,1.37A5,5,0,0,0,338.6,99.85ZM334,94a3.84,3.84,0,0,1,3.49-4.15l.31,0A3.83,3.83,0,0,1,342,93.33l.09,1a3.82,3.82,0,0,1-3.49,4.14l-.31,0a3.82,3.82,0,0,1-4.14-3.48Z" style="fill:#37474f"></path><path d="M340.86,147.07a14.58,14.58,0,0,0,.18-6.73,1.2,1.2,0,0,0-2.33.57,12.17,12.17,0,0,1,.14,3.91c0,.12,0,.25-.05.37s-.08.5,0,.16c0,.17-.06.35-.1.53s-.07.33-.11.49a1.2,1.2,0,1,0,2.29.7Z" style="fill:#455a64"></path><path d="M338.77,140.21a1.14,1.14,0,0,1,.82-.74,1.22,1.22,0,0,1,1.45.87,14.58,14.58,0,0,1-.18,6.73,1.13,1.13,0,0,1-.71.75l0,0a14.58,14.58,0,0,0,.18-6.73,1.22,1.22,0,0,0-1.45-.88Z" style="fill:#37474f"></path><path d="M340.86,135.52a14.45,14.45,0,0,0-.17-6.73,1.2,1.2,0,1,0-2.29.69,12.31,12.31,0,0,1,.34,3.89c0,.13,0,.25,0,.38s-.06.5,0,.16c0,.17,0,.35-.07.53a4,4,0,0,1-.09.5,1.2,1.2,0,0,0,2.32.58Z" style="fill:#455a64"></path><path d="M338.42,128.77a1.17,1.17,0,0,1,.78-.78,1.21,1.21,0,0,1,1.49.8,14.45,14.45,0,0,1,.17,6.73,1.13,1.13,0,0,1-.66.79s0,0,0-.06a14.45,14.45,0,0,0-.17-6.73,1.22,1.22,0,0,0-1.49-.8Z" style="fill:#37474f"></path><path d="M340.47,125.52a14.49,14.49,0,0,0-.17-6.74,1.2,1.2,0,0,0-1.49-.79,1.22,1.22,0,0,0-.8,1.49,12.29,12.29,0,0,1,.34,3.89c0,.12,0,.25,0,.37s-.05.51,0,.16c0,.18,0,.36-.07.54s-.05.33-.09.5a1.21,1.21,0,0,0,.87,1.45,1.23,1.23,0,0,0,1.45-.87Z" style="fill:#455a64"></path><path d="M338,118.77a1.15,1.15,0,0,1,.78-.78,1.2,1.2,0,0,1,1.49.79,14.45,14.45,0,0,1,.17,6.73,1.11,1.11,0,0,1-.66.79s0,0,0,0a14.44,14.44,0,0,0-.17-6.73,1.21,1.21,0,0,0-1.49-.8Z" style="fill:#37474f"></path><path d="M340.06,115.13a14.72,14.72,0,0,0-.17-6.73,1.2,1.2,0,0,0-2.29.69,12.64,12.64,0,0,1,.34,3.89l0,.38c0,.06-.05.5,0,.16,0,.18,0,.36-.07.53s-.06.34-.1.51a1.2,1.2,0,0,0,2.33.57Z" style="fill:#455a64"></path><path d="M337.61,108.39a1.2,1.2,0,0,1,.79-.79,1.22,1.22,0,0,1,1.49.8,14.58,14.58,0,0,1,.17,6.73,1.14,1.14,0,0,1-.67.79s0,0,0,0a14.71,14.71,0,0,0-.17-6.73,1.21,1.21,0,0,0-1.49-.8Z" style="fill:#37474f"></path><path d="M339.68,104.55a14.58,14.58,0,0,0-.17-6.73,1.2,1.2,0,1,0-2.29.69,12.29,12.29,0,0,1,.34,3.89l0,.38c0,.06,0,.5,0,.15,0,.18,0,.36-.07.54s-.05.33-.09.5a1.2,1.2,0,0,0,2.32.58Z" style="fill:#455a64"></path><path d="M337.24,97.8A1.17,1.17,0,0,1,338,97a1.21,1.21,0,0,1,1.49.8,14.58,14.58,0,0,1,.17,6.73,1.11,1.11,0,0,1-.66.78.43.43,0,0,0,0,0,14.58,14.58,0,0,0-.17-6.73,1.22,1.22,0,0,0-1.49-.8Z" style="fill:#37474f"></path><path d="M327.7,76.69c.66,3.46,4.37.69,4.37.69s-4.37,5.27-2.31,8.58,6.36-.32,6.68-.57c-.23.28-4.12,5.23-1.7,8.34s6.28-1,6.53-1.31c-.14.33-1.82,4.76.56,6.7,4.08,3.34,8.69-7.87,12.7-9.35,0,0,3.28,6.51,3.41,6.68,0,0,4.61-10.58,2.31-15.87a3.69,3.69,0,0,0-4.05-2.22s1.86-3.24,0-5.75c-.95-1.28-3.84-.92-3.84-.92S353.78,69,352,66.9c-1.41-1.71-4.09-1.08-4.09-1.08s.14-3.17-1.86-4.44C342.05,58.8,326.28,69.27,327.7,76.69Z" style="fill: rgb(221, 106, 87);"></path><path d="M347.49,65.86a0,0,0,1,0,0-.09,32.77,32.77,0,0,0-15.6,11.74c-.12.18.11.45.28.28A67.34,67.34,0,0,1,347.49,65.86Z" style="fill:#263238"></path><path d="M352.46,71.61c.06,0,0-.15-.07-.12-6.2,2.28-12.77,7.24-16.22,13.87-.12.23,0,.55.16.3C339,81.42,347.09,74.54,352.46,71.61Z" style="fill:#263238"></path><path d="M341.19,93c3.55-6.23,8.75-10.7,14.75-14.52.08,0,0-.15-.08-.13-3.44,1.07-7,3.9-9.6,6.34A19,19,0,0,0,341,92.84C340.93,93,341.11,93.1,341.19,93Z" style="fill:#263238"></path><path d="M332.07,77.38a21.62,21.62,0,0,0-1.92,3.45,7.19,7.19,0,0,0-.73,3.7,2.41,2.41,0,0,0,.8,1.5,3.44,3.44,0,0,0,1.59.75,4.19,4.19,0,0,0,3.26-1l2.23-1.85-1.45,2.51A11.63,11.63,0,0,0,334.46,90a4.22,4.22,0,0,0,.53,3.42,2.44,2.44,0,0,0,2.91.91,7.42,7.42,0,0,0,2.91-2.22L343,89.44l-1.22,3.19a11.26,11.26,0,0,0-.68,2.76,4.65,4.65,0,0,0,.37,2.62,2.19,2.19,0,0,0,2,1.17A4.81,4.81,0,0,0,345.89,98a38.11,38.11,0,0,0,4.17-4.25c.67-.74,1.34-1.49,2.05-2.21a7.1,7.1,0,0,1,2.42-1.79,8.07,8.07,0,0,0-2.22,2c-.64.76-1.25,1.55-1.86,2.35a32.58,32.58,0,0,1-4,4.55,5.64,5.64,0,0,1-2.87,1.5,3.08,3.08,0,0,1-3-1.63,5.62,5.62,0,0,1-.55-3.24,11.87,11.87,0,0,1,.71-3.08l1,.57a8.53,8.53,0,0,1-3.42,2.66,3.5,3.5,0,0,1-2.37.06,3.92,3.92,0,0,1-1.87-1.42,5.35,5.35,0,0,1-.68-4.32,12.75,12.75,0,0,1,1.6-3.91l.77.66a5,5,0,0,1-4.11,1.1,4.29,4.29,0,0,1-1.91-1,3.11,3.11,0,0,1-.94-2,7.43,7.43,0,0,1,1-3.93A17.75,17.75,0,0,1,332.07,77.38Z" style="fill:#263238"></path><path d="M281.93,198l-3-19s7-12.24,2.94-21c-2-4.45-16.13-26.2-23.72-31.71-7.12-5.16-18-.08-21.29,4.41-9.53,12.92-14.47,25.18-19.79,67.35Z" style="fill: rgb(221, 106, 87);"></path><path d="M222.64,161.05c.43-.36,10.15-.12,20.06-3.17s17.56-6.75,21.22-11.28c2.81-3.48-4.88-20.76-6.07-21.42s1.62-1.09,2.92.48,6.46,9.42,7.15,10.2,14.75,17.43,15.53,25.51-3.75,17.77-3.75,17.77,2.36,10.62,3,12.46-.74,6.42-.74,6.42H217.1a10.34,10.34,0,0,1-2.13-5.19c-.18-2.79,3.14-10.73,3.4-12.56s1-8,1.57-10.21S222.64,161.05,222.64,161.05Z" style="fill:#FFC727"></path><path d="M283.23,167.39c-10.36,5.42-30.11,15.37-37.28,16.4-7.83,1.14-22.62.08-28.49-.43a25.45,25.45,0,0,0,.91-3.09c.27-1.83,1-8,1.57-10.2s2.7-9,2.7-9c.42-.35,10.15-.11,20.06-3.17s17.57-6.74,21.23-11.29c2.8-3.47-4.89-20.76-6.08-21.42s1.62-1.09,2.92.49,6.45,9.42,7.16,10.21,14.74,17.42,15.53,25.5A25.37,25.37,0,0,1,283.23,167.39Z" style="fill:#030402;opacity:0.1"></path><path d="M268,175.15a62.74,62.74,0,0,0-9.23,1.6c-1.51.4-3,.86-4.46,1.36-.73.25-1.47.48-2.21.7a10.68,10.68,0,0,1-2.38.47.06.06,0,0,0,0,.11,19.63,19.63,0,0,0,2.3-.06,16.19,16.19,0,0,0,2.18-.44c1.53-.39,3-.85,4.57-1.25,3.07-.82,6.15-1.64,9.27-2.24C268.22,175.38,268.18,175.13,268,175.15Z" style="fill:#263238"></path><path d="M275.76,177.84a66.6,66.6,0,0,0-7.73-.3c-1.3,0-2.58.12-3.86.26-.61.06-1.23.14-1.84.22s-1.33.28-2,.36c-.07,0-.07.12,0,.11.64-.06,1.29,0,1.93,0l1.92-.07c1.29,0,2.58-.07,3.86-.12,2.58-.11,5.15-.2,7.72-.22C275.9,178.05,275.89,177.85,275.76,177.84Z" style="fill:#263238"></path><path d="M219.73,195.08a7.09,7.09,0,0,1-.56-4.44,89.52,89.52,0,0,1,2.52-9c0-.08-.1-.11-.13,0-.59,1.52-1.19,3-1.78,4.56a32.18,32.18,0,0,0-1.61,4.57,6.19,6.19,0,0,0,.32,4,9.21,9.21,0,0,0,1.1,1.73c.19.26.4.52.61.76s.75.62.74.74c0-.11-.19-.1-.16,0s.09.15.25.18a.16.16,0,0,0,.17-.1c.11-.45-.29-.87-.52-1.24A12,12,0,0,1,219.73,195.08Z" style="fill:#030402;opacity:0.1"></path><path d="M222.09,192.6a21.9,21.9,0,0,1,1.34-5.31c0-.07-.09-.1-.12,0-.35,1-.69,1.92-1.07,2.87a12,12,0,0,0-.9,2.77,4.82,4.82,0,0,0,.42,2.54,8.39,8.39,0,0,0,1.21,2.17c.06.07.15,0,.13-.08-.17-.83-.59-1.61-.78-2.45A9.4,9.4,0,0,1,222.09,192.6Z" style="fill:#030402;opacity:0.1"></path><path d="M252.2,197.08a3.07,3.07,0,0,1-.31-.66,4,4,0,0,1-.18-1.38,5.85,5.85,0,0,0-.12-.71,1.9,1.9,0,0,1,.08-.67,3.23,3.23,0,0,1,.61-1.36.15.15,0,0,0-.22-.21,3.64,3.64,0,0,0-1,1.34c-.11.25-.15.53-.24.79a1.91,1.91,0,0,0-.16.88,4,4,0,0,0,.64,1.62,3.28,3.28,0,0,0,.53.65,1.18,1.18,0,0,0,.61.37s.08-.06.07-.11A1.83,1.83,0,0,0,252.2,197.08Z" style="fill:#030402;opacity:0.1"></path><path d="M254.86,192.73c-.21-1.9-.92-3.73-.72-5.66,0-.13-.2-.17-.25-.06-.71,1.65-.35,3.44-.14,5.16a23.31,23.31,0,0,1,.11,2.64,7.12,7.12,0,0,1-.16,1.38,10.78,10.78,0,0,1-.32,1.52c0,.1.09.18.14.08a11.53,11.53,0,0,0,.71-1.18,13,13,0,0,0,.39-1.25A6.68,6.68,0,0,0,254.86,192.73Z" style="fill:#030402;opacity:0.1"></path><path d="M256.14,193.34a.13.13,0,0,0-.25.07,6.52,6.52,0,0,1-.61,4.14c0,.08.07.18.13.1A4.52,4.52,0,0,0,256.14,193.34Z" style="fill:#030402;opacity:0.1"></path><path d="M272.22,192.34a.12.12,0,0,0-.22.07,9.25,9.25,0,0,1,.19,2.92,13.36,13.36,0,0,1-.23,1.41,5.88,5.88,0,0,0-.12.69c0,.23,0,.46,0,.69a.08.08,0,0,0,.15,0,5.87,5.87,0,0,0,.46-.65,3.65,3.65,0,0,0,.22-.66,6.68,6.68,0,0,0,.15-1.55A8.18,8.18,0,0,0,272.22,192.34Z" style="fill:#030402;opacity:0.1"></path><path d="M276.08,192.8c-.26-2.08-1.74-3.79-1.82-5.89a.07.07,0,1,0-.13,0c0,1.88,1.18,3.5,1.28,5.36a7.2,7.2,0,0,1-.6,2.92,16.69,16.69,0,0,0-1.1,2.62.08.08,0,0,0,.12.09,4.56,4.56,0,0,0,1.77-2.28A5.38,5.38,0,0,0,276.08,192.8Z" style="fill:#030402;opacity:0.1"></path><path d="M277.31,194c-.19.35-.4.68-.56,1s-.33.67-.48,1-.28.69-.4,1a3.29,3.29,0,0,0-.14.54,2,2,0,0,1,0,.25s0,0,0,0-.12,0-.11,0a.08.08,0,0,0-.08-.14c-.24.14,0,.45.21.42.44,0,.65-.62.78-1a14.1,14.1,0,0,0,.52-1.55c.08-.26.16-.51.22-.77s.11-.57.18-.86A.06.06,0,0,0,277.31,194Z" style="fill:#030402;opacity:0.1"></path><path d="M280.55,192.29a9.56,9.56,0,0,1-.52,3.1c-.19.45-.37.88-.59,1.32-.11.21-.23.41-.36.61a3.62,3.62,0,0,0-.41.61.08.08,0,0,0,.09.12,2.1,2.1,0,0,0,1.11-1,3.63,3.63,0,0,0,.57-1.48,20.41,20.41,0,0,0,.18-3.31A0,0,0,1,0,280.55,192.29Z" style="fill:#030402;opacity:0.1"></path><path d="M262.65,195.87c-.09-.67-.21-1.33-.27-2a.08.08,0,1,0-.15,0,13.94,13.94,0,0,0,.1,2,13.2,13.2,0,0,0,.45,1.88.44.44,0,0,1-.35-.24c-.05-.09-.19,0-.14.09a.69.69,0,0,0,.62.36c.06,0,.09-.07.08-.12C262.86,197.22,262.75,196.55,262.65,195.87Z" style="fill:#030402;opacity:0.1"></path><path d="M235.5,197.45a6.91,6.91,0,0,1-1.36-1,2.37,2.37,0,0,1-.54-1.68,18,18,0,0,1,.44-4.13c0-.13-.16-.17-.21,0a14.88,14.88,0,0,0-.68,2.34,8,8,0,0,0-.24,2.28,3.06,3.06,0,0,0,2.43,2.62C235.59,197.94,235.7,197.58,235.5,197.45Z" style="fill:#030402;opacity:0.1"></path><path d="M236.87,196a9.52,9.52,0,0,1-.21-2.82c0-2.16-.09-4.32-.08-6.48,0-.18-.25-.16-.26,0-.14,2.13-.32,4.25-.32,6.39a12.47,12.47,0,0,0,.14,2.66,2.93,2.93,0,0,0,.45,1.06c.28.41.72.73.67,1.28,0,.13.18.13.21,0C237.74,197.38,237.09,196.73,236.87,196Z" style="fill:#030402;opacity:0.1"></path><path d="M238.91,197.78s0,0,0,.05c0-.15-.07-.37-.08-.41s-.08-.34-.11-.52c-.06-.33-.14-.65-.18-1a19.78,19.78,0,0,1-.14-2,.11.11,0,0,0-.22,0,6.77,6.77,0,0,0,.12,3.1,6,6,0,0,0,.26.71c.05.15.13.37.29.43S239.14,197.79,238.91,197.78Z" style="fill:#030402;opacity:0.1"></path><path d="M266.73,141.65a31.25,31.25,0,0,0-4.22-10.28c-.06-.09-.2,0-.14.08a23.64,23.64,0,0,1,3.07,9.13,29.16,29.16,0,0,1,.25,4.76,6.28,6.28,0,0,1-1.61,4,17.65,17.65,0,0,1-3.45,2.82,34.23,34.23,0,0,1-4,2.28c-3,1.46-6.09,2.68-9.19,3.85-3.62,1.36-7.3,2.57-11,3.66,0,0,0,0,0,0a162.41,162.41,0,0,0,20.27-6.8,24,24,0,0,0,8-4.9,7.41,7.41,0,0,0,2.17-3.9A13.26,13.26,0,0,0,266.73,141.65Z" style="fill:#030402;opacity:0.1"></path><path d="M258.87,155.52c-4.05,2.66-8.59,4.18-13.15,5.74a98,98,0,0,0-13,5.09,33.17,33.17,0,0,0-6.51,4.29c-.12.11.05.32.18.22,7.66-5.68,17.28-7.19,25.73-11.25a45.26,45.26,0,0,0,6.85-4A.08.08,0,0,0,258.87,155.52Z" style="fill:#030402;opacity:0.1"></path><path d="M279,179.12a9,9,0,0,1-3.34,1.32,28.3,28.3,0,0,1-3.63.79,40.59,40.59,0,0,0-7.75,1.45.23.23,0,0,0,.13.45c2.76-.76,5.59-.55,8.39-.9a12.12,12.12,0,0,0,3.48-.83,10.2,10.2,0,0,0,2.82-2.15C279.14,179.19,279.05,179.07,279,179.12Z" style="fill:#030402;opacity:0.1"></path><rect x="214.51" y="196.95" width="69.04" height="3.11" style="fill:#FFC727"></rect><rect x="214.51" y="196.95" width="69.04" height="3.11" style="fill:#030402;opacity:0.1"></rect><path d="M243.58,139.88c-3.86,12.09-20.79,52.39-28.39,55-5.34,1.85-33.9,2-39.52,2-4.09,0-11.16-28.39-6.8-28.76,4.79-.39,33.92-.47,37.13-1.17s18.21-24.08,26.52-32.91C245.66,120.13,245.61,133.52,243.58,139.88Z" style="fill: rgb(221, 106, 87);"></path><path d="M154.4,200.47c6.56,1.15,20.89-1.77,24.07-3.8s-.95-26.56-4.37-28.39-24.06-2.27-30,1S147.6,199.29,154.4,200.47Z" style="fill: rgb(221, 106, 87);"></path><path d="M172.26,168.05s-22-17.69-24.73-5.69c-.8,3.56.17,19.16,3.31,19,4-.17,4.86-6.75,4.71-11,0,0,6.65,7.07,12.95,3.91A7,7,0,0,0,172.26,168.05Z" style="fill: rgb(221, 106, 87);"></path><path d="M147.82,161.37a14.49,14.49,0,0,0-.82,4.23,32.78,32.78,0,0,0,0,4.32,50.34,50.34,0,0,0,1.15,8.59,8.77,8.77,0,0,0,.82,2.15,3.1,3.1,0,0,0,.88,1,2.08,2.08,0,0,0,.65.32,2.25,2.25,0,0,0,.71.08,3.69,3.69,0,0,0,2.31-1,6.61,6.61,0,0,0,1.35-1.93,12.94,12.94,0,0,0,1.11-4.33,30.3,30.3,0,0,0,.1-4.36l-.87.35a17,17,0,0,0,2.57,2.09,15.52,15.52,0,0,0,2.89,1.57,11.39,11.39,0,0,0,3.18.78,8.56,8.56,0,0,0,3.23-.32,9.42,9.42,0,0,1-3.18,0,11.28,11.28,0,0,1-3-1,15,15,0,0,1-2.67-1.65,16.49,16.49,0,0,1-2.3-2.1l-.85-1,0,1.31a32.55,32.55,0,0,1-.23,4.2,12.74,12.74,0,0,1-1,3.93c-.56,1.16-1.52,2.24-2.63,2.28-1,.11-1.56-1.34-1.92-2.63s-.63-2.74-.88-4.13-.47-2.81-.62-4.22A27.47,27.47,0,0,1,147.82,161.37Z" style="fill:#263238"></path><path d="M145.36,163S115,67.24,113.64,63.66s-.36-25-.36-25,12.07,15.53,13.39,20.14S158,159.28,158,159.28Z" style="fill:#dbdbdb"></path><path d="M115.5,45.94c3.1,9.2,6.09,18.43,9.07,27.67l8.83,27.74,8.6,27.81,4.23,13.93,4.12,14-4.59-13.82-4.49-13.85-8.82-27.74-8.61-27.81C121,64.55,118.2,55.26,115.5,45.94Z" style="fill:#c7c7c7"></path><path d="M144.82,165.79l13.41,31.63s-.3,7.06-.06,8,8.88,5.63,10,5,4.29-9.41,3.86-10.47-5-6.3-5-6.3l-7.53-32.76Z" style="fill:#FFC727"></path><path d="M144.82,165.79l13.41,31.63s-.3,7.06-.06,8,8.88,5.63,10,5,4.29-9.41,3.86-10.47-5-6.3-5-6.3l-7.53-32.76Z" style="opacity:0.1"></path><path d="M152.46,165c1.35,3.44,2.61,6.91,3.87,10.38s2.44,7,3.67,10.46l3.51,10.51c1.14,3.51,2.27,7,3.32,10.57-1.34-3.44-2.61-6.91-3.86-10.39l-3.68-10.45c-1.17-3.5-2.37-7-3.51-10.51S153.51,168.58,152.46,165Z" style="opacity:0.1"></path><polygon points="160.54 165.44 148.83 175.24 144.83 165.8 159.5 160.89 160.54 165.44" style="opacity:0.1"></polygon><path d="M154,168.44s-6.9-3.27-13.72-1.55c-5,1.27-8.56,4.68-9.88,4.7s-4.32-5.49-3.56-6.67,7.16.05,12-3,9.67-8.9,9.67-8.9,8.22,1.51,14,.08,7.36-5.1,9.62-5,2.32,7,.1,7.69S164.14,158,161,160.4A22.72,22.72,0,0,0,154,168.44Z" style="fill:#FFC727"></path><path d="M128.37,167.46c-.08-.26-.16-.52-.23-.79a1.11,1.11,0,0,1,0-.84c.08-.15.29-.14.4-.17l.41,0,.82-.09q1.64-.17,3.24-.45a20.82,20.82,0,0,0,6.16-2,18.08,18.08,0,0,0,2.66-1.81,31,31,0,0,0,2.43-2.16,52.59,52.59,0,0,0,4.39-4.81l.14-.17.21,0a61.81,61.81,0,0,0,6.78.7,27.15,27.15,0,0,0,6.75-.45,20.68,20.68,0,0,0,6.11-2.87c.47-.31.94-.64,1.41-1a6.39,6.39,0,0,1,1.5-.89.78.78,0,0,1,.87.22,1.8,1.8,0,0,1,.34.82,4.74,4.74,0,0,1,0,1.72,4.85,4.85,0,0,0-.11-1.7,1.66,1.66,0,0,0-.35-.73.59.59,0,0,0-.69-.14,6.49,6.49,0,0,0-1.39.93c-.45.36-.9.71-1.37,1a21.18,21.18,0,0,1-6.18,3.13,25.14,25.14,0,0,1-6.91.56,54.66,54.66,0,0,1-6.88-.65l.35-.14a54.27,54.27,0,0,1-4.5,4.84,32.11,32.11,0,0,1-2.5,2.17,15.58,15.58,0,0,1-2.8,1.81,21,21,0,0,1-6.37,1.81c-1.09.15-2.18.24-3.28.3l-.81,0c-.26,0-.6,0-.75.14a1.08,1.08,0,0,0,0,.76C128.24,166.93,128.31,167.19,128.37,167.46Z" style="opacity:0.1"></path><path d="M154.38,164.48c2.6,2.39-1.7,4.08-1.7,4.08s6.78-.94,8.5,2.56-3.61,5.24-4,5.37c.36,0,6.61-.75,8,2.94,1.42,3.84-4.19,4.81-4.55,4.87.35.06,5,1,5.41,4,.69,5.23-11.27,3.26-14.64,5.89,0,0,3.81,6.21,3.88,6.41,0,0-11.41-1.65-14.71-6.38a3.68,3.68,0,0,1,.25-4.61s-3.74-.13-4.91-3c-.6-1.48,1.23-3.75,1.23-3.75s-3-.22-3.87-2.84c-.71-2.09,1.23-4,1.23-4s-2.77-1.55-2.8-3.92C131.62,167.28,148.82,159.37,154.38,164.48Z" style="fill: rgb(221, 106, 87);"></path><path d="M134.76,175.62a0,0,0,0,1,0-.08,32.8,32.8,0,0,1,18.19-7.09c.21,0,.32.33.09.38A67.59,67.59,0,0,0,134.76,175.62Z" style="fill:#263238"></path><path d="M137,182.87c-.06,0-.13-.07-.06-.12,5.19-4.07,12.87-7.05,20.33-6.5.25,0,.46.29.17.29C152.49,176.55,142.36,179.85,137,182.87Z" style="fill:#263238"></path><path d="M161.13,184.51c-7.17-.25-13.7,1.82-20.11,4.92-.08,0-.13-.09-.07-.14,2.72-2.36,7-3.91,10.45-4.83a18.93,18.93,0,0,1,9.74-.2C161.27,184.3,161.29,184.52,161.13,184.51Z" style="fill:#263238"></path><path d="M152.68,168.56a22.48,22.48,0,0,1,3.94.18,7.28,7.28,0,0,1,3.53,1.33,2.32,2.32,0,0,1,.85,1.48,3.43,3.43,0,0,1-.19,1.74,4.21,4.21,0,0,1-2.62,2.22l-2.74.93,2.9.08a11.8,11.8,0,0,1,3.77.69,4.24,4.24,0,0,1,2.63,2.26,2.44,2.44,0,0,1-.76,2.95,7.38,7.38,0,0,1-3.42,1.31l-3.39.5,3.35.63a10.8,10.8,0,0,1,2.7.88,4.56,4.56,0,0,1,2,1.69,2.15,2.15,0,0,1,0,2.29,4.77,4.77,0,0,1-2.27,1.46,39,39,0,0,1-5.79,1.31c-1,.17-2,.35-3,.58a7.06,7.06,0,0,0-2.8,1.12,7.71,7.71,0,0,1,2.85-.85c1-.15,2-.25,3-.35a32.8,32.8,0,0,0,6-1A5.65,5.65,0,0,0,166,190.3a3.08,3.08,0,0,0,.18-3.38,5.62,5.62,0,0,0-2.46-2.17,12.5,12.5,0,0,0-3-1l0,1.14a8.47,8.47,0,0,0,4.06-1.51,3.57,3.57,0,0,0,1.3-2,3.93,3.93,0,0,0-.23-2.33,5.33,5.33,0,0,0-3.32-2.86,13.1,13.1,0,0,0-4.16-.69l.16,1a5,5,0,0,0,3.09-2.92,4.22,4.22,0,0,0,.13-2.17,3.07,3.07,0,0,0-1.17-1.83,7.29,7.29,0,0,0-3.89-1.18A17.63,17.63,0,0,0,152.68,168.56Z" style="fill:#263238"></path><path d="M235.94,159.52a52.25,52.25,0,0,1,2.16-6.28,51.47,51.47,0,0,1,2.85-6,51.27,51.27,0,0,1-2.16,6.29A50.58,50.58,0,0,1,235.94,159.52Z" style="fill:#263238"></path><path d="M241.31,149.53a7.32,7.32,0,0,1-1.07,2.32,8.63,8.63,0,0,1-.81,1,4.89,4.89,0,0,1-1,.79l1.42-2.07C240.3,150.89,240.76,150.19,241.31,149.53Z" style="fill:#263238"></path><path d="M205.59,166.84c.9,1.09,9.9,13.12,22.11,15.19s33.41-8.74,33.41-8.74,12.4-2.9,19.86-8.25,13.74-30.86,15.31-34.43,4.06-10.2,5.78-11.13a7.66,7.66,0,0,0-4.5-2.08c-2.74-.23-12.2,2.65-14.39,2.83s-11.5.66-13.41,1.65a13.66,13.66,0,0,0-2.85,1.86s-4.72,7.91-9.78,11.08-12.76,3.75-16.18,3.75-9.44-3.35-9.44-3.35a16,16,0,0,0-4.46,2.07c-2,1.4-5.92,8.49-6.85,9.42s-3,1.61-4.3,3.13-4.89,6.38-6.52,8.61S204.24,165.2,205.59,166.84Z" style="fill:#FFC727"></path><path d="M205.59,166.84c.9,1.09,9.9,13.12,22.11,15.19s33.41-8.74,33.41-8.74,12.4-2.9,19.86-8.25,13.74-30.86,15.31-34.43,4.06-10.2,5.78-11.13a7.66,7.66,0,0,0-4.5-2.08c-2.74-.23-12.2,2.65-14.39,2.83s-11.5.66-13.41,1.65a13.66,13.66,0,0,0-2.85,1.86s-4.72,7.91-9.78,11.08-12.76,3.75-16.18,3.75-9.44-3.35-9.44-3.35a16,16,0,0,0-4.46,2.07c-2,1.4-5.92,8.49-6.85,9.42s-3,1.61-4.3,3.13-4.89,6.38-6.52,8.61S204.24,165.2,205.59,166.84Z" style="fill:#fff;opacity:0.30000000000000004"></path><path d="M261.25,131.21c-2.4,1.9-4.84,3.73-7.14,5.78s-4.51,4.08-6.8,6.09a76.12,76.12,0,0,1-7.23,5.92c-2.62,1.79-5.81,2.28-8.9,2.65a63.33,63.33,0,0,1-11.1.25.06.06,0,0,0,0,.11,41.34,41.34,0,0,0,9.87.63,46.75,46.75,0,0,0,5-.53,15.78,15.78,0,0,0,4.42-1.22,19.14,19.14,0,0,0,3.73-2.53q1.78-1.44,3.51-3c2.4-2.12,4.69-4.36,7-6.59,2.57-2.49,5-5.15,7.77-7.46C261.43,131.28,261.33,131.15,261.25,131.21Z" style="fill:#FFC727"></path><path d="M242.92,146.66a27.6,27.6,0,0,1-5.69,1.29,46,46,0,0,1-5.51,0,54.09,54.09,0,0,1-5.82-.45l-2.78-.36c-.19,0-2.07-.29-2.62-.32v0a.08.08,0,0,0-.05-.07c-.22,0-.31.12-.22.3s.75.34,1,.4c.58.16,1.15.3,1.73.44a51.69,51.69,0,0,0,6.78,1.07,24,24,0,0,0,3.39.06,23.52,23.52,0,0,0,3.22-.54,46.85,46.85,0,0,0,6.6-1.76S242.94,146.65,242.92,146.66Z" style="fill:#FFC727"></path><path d="M243.43,144.89a66.18,66.18,0,0,1-8,.87,56.11,56.11,0,0,1-7.78,0c-.1,0-.1.15,0,.16a53.86,53.86,0,0,0,8,.27,46.9,46.9,0,0,0,7.74-1.13C243.59,145,243.54,144.87,243.43,144.89Z" style="fill:#FFC727"></path><path d="M290.13,119a18.78,18.78,0,0,0-4.47,7.88c-1,3.12-1.36,6.38-2.12,9.55a32.68,32.68,0,0,1-9.1,16.41,39.58,39.58,0,0,1-8.35,6.21,2.3,2.3,0,0,1,.86-2c.05,0,0-.14-.09-.1a2.43,2.43,0,0,0-1.1,2.35.18.18,0,0,0,.22.16,32.12,32.12,0,0,0,14.16-12.22,34.85,34.85,0,0,0,4.07-8.45,76.82,76.82,0,0,0,1.94-9.66c.65-3.54,1.5-7.39,4.1-10.06C290.32,119,290.2,118.88,290.13,119Z" style="fill:#FFC727"></path><path d="M289.1,128.24c-1,4.36-1.94,8.72-3,13a12.81,12.81,0,0,1-2.61,5.27c-1.28,1.54-2.79,2.86-4.21,4.27-1.78,1.77-3.58,3.53-5.39,5.26,0,0,0,.09.06.06,1.71-1.48,3.44-3,5.18-4.41a61.46,61.46,0,0,0,4.77-4.2,11.61,11.61,0,0,0,2.94-4.85,59.94,59.94,0,0,0,1.18-6.53c.43-2.63.8-5.26,1.26-7.88C289.27,128.18,289.12,128.14,289.1,128.24Z" style="fill:#FFC727"></path><path d="M263.46,169.27c-3.64.37-7,1.64-10.46,2.8s-6.92,2.62-10.53,3.51a26.22,26.22,0,0,1-11.69.24,43.06,43.06,0,0,1-11.34-4.27c-4.05-2.15-7.82-4.76-11.81-7-.1-.06-.21.09-.12.16a71.72,71.72,0,0,0,9.94,7.21,40.55,40.55,0,0,0,11.25,4.85,28.67,28.67,0,0,0,11.91.55,43.14,43.14,0,0,0,10.53-3.77A62.55,62.55,0,0,1,257,171a31.89,31.89,0,0,1,6.44-1.58A.07.07,0,0,0,263.46,169.27Z" style="fill:#FFC727"></path><path d="M273,166.41a57.57,57.57,0,0,1-7.64.72,37.68,37.68,0,0,1-3.83-.1,13.56,13.56,0,0,0-3.6,0c-2.24.41-4.1,2-6,3a25.87,25.87,0,0,1-6.74,2.76c-.11,0-.06.18.05.16a31.35,31.35,0,0,0,6.71-2c2.09-1,4-2.26,6.22-2.94,2.38-.73,5.05-.52,7.51-.68a61,61,0,0,0,7.38-.94S273.07,166.41,273,166.41Z" style="fill:#FFC727"></path><path d="M267.13,138.38c-1.83,4.25-4.91,7.82-7.95,11.24s-6.07,7-10.27,9c-2.27,1.06-4.71,1.69-6.91,2.91-.16.08,0,.3.14.23a55.92,55.92,0,0,1,6.68-2.28,14.86,14.86,0,0,0,6-3.29c1.69-1.64,3.2-3.49,4.73-5.28a57.83,57.83,0,0,0,4.21-5.52,35,35,0,0,0,3.53-6.95C267.31,138.35,267.16,138.29,267.13,138.38Z" style="fill:#FFC727"></path><path d="M252.9,155a28.75,28.75,0,0,1-4,2.4,27.63,27.63,0,0,1-4.68,1.64c-1.63.44-3.27.7-4.92,1a26.77,26.77,0,0,1-5.7.7.08.08,0,0,0,0,.16,31.87,31.87,0,0,0,11-1.16,24.88,24.88,0,0,0,8.47-4.64C253.05,155.06,253,155,252.9,155Z" style="fill:#FFC727"></path><path d="M292.67,133.71c-.73,2.4-1.5,4.79-2.14,7.21s-1.21,4.59-2,6.84c-1.34,4-3.07,8-6.29,10.91-.06.05,0,.13.09.08a23.78,23.78,0,0,0,7.08-10.34,47.58,47.58,0,0,0,1.86-7c.51-2.54.84-5.12,1.52-7.63A.08.08,0,0,0,292.67,133.71Z" style="fill:#FFC727"></path><path d="M283.82,120.91a7.5,7.5,0,0,0-3.2,2.27,36.29,36.29,0,0,0-3.11,4.08c-1,1.57-2,3.15-3,4.75-.33.53-1.33,2-2.06,1a4,4,0,0,1-.15-2.92c0-.08-.1-.1-.12,0-.35,1.09-.92,3.69.75,4a2.15,2.15,0,0,0,2-.92c.64-.78,1.19-1.66,1.78-2.49a65.65,65.65,0,0,0,3.55-5.57c.88-1.59,1.85-3.36,3.63-4.07A.08.08,0,0,0,283.82,120.91Z" style="fill:#FFC727"></path><path d="M280.46,127a39,39,0,0,1-4.32,6.19c-1.61,1.89-3.53,3.42-5.29,5.16a35,35,0,0,0-4.38,5.82l-4.57,6.95c0,.05.05.09.08,0l4.85-6.79a33,33,0,0,1,4.92-5.81,35.05,35.05,0,0,0,5.19-5.07A58.86,58.86,0,0,0,280.6,127C280.66,126.94,280.51,126.86,280.46,127Z" style="fill:#FFC727"></path><path d="M252.48,138.24c-1.62.32-3.2.77-4.82,1.06s-3.38.59-5.08.8a9.54,9.54,0,0,1-2.56.07,11.79,11.79,0,0,1-2.18-.62l-2.35-.84a11.08,11.08,0,0,1-2.71-1.18.08.08,0,1,0-.07.14,16,16,0,0,1,2.56,1.27c.72.36,1.47.69,2.22,1a8.34,8.34,0,0,0,4.66.73c1.7-.3,3.4-.67,5.08-1a37.53,37.53,0,0,0,5.26-1.34S252.51,138.23,252.48,138.24Z" style="fill:#FFC727"></path><path d="M269.7,123.13a23.9,23.9,0,0,0-4.64,5.44,35,35,0,0,1-2.14,3.25,37.72,37.72,0,0,1-2.58,2.78c-1.83,1.88-3.59,3.86-5.52,5.64s-4,3.09-5.83,4.79c-.08.07,0,.18.12.11,1.95-1.65,4.29-2.74,6.26-4.38s3.84-3.6,5.7-5.46a21.31,21.31,0,0,0,2.45-2.75,24.46,24.46,0,0,0,1.79-3.3,24.08,24.08,0,0,1,4.43-6.08S269.72,123.11,269.7,123.13Z" style="fill:#FFC727"></path><path d="M246.19,127.61c.43,1.13,5.75,6.73,11,5.76,1.72-.32,1.65-8.58,1.65-8.58l.07-.72.87-10.09-12.51-5.83-1.79-.76s-.06,2.78-.09,6.24c0,.16,0,.32,0,.49s0,.38,0,.56c0,.52,0,1,0,1.57s0,.79,0,1.21,0,.83,0,1.25A63.31,63.31,0,0,0,246.19,127.61Z" style="fill: rgb(221, 106, 87);"></path><path d="M245.42,113.63a20.32,20.32,0,0,0,13.52,10.44l.87-10.09-12.51-5.83-1.79-.76S245.45,110.17,245.42,113.63Z" style="fill:#263238"></path><path d="M269.26,95.1c4.37,17.23-5.46,21.79-9.17,22.73-3.38.85-15,3.32-21.1-13.36s.5-24.16,8.11-26.52S264.88,77.87,269.26,95.1Z" style="fill: rgb(221, 106, 87);"></path><path d="M264.51,92.45c-.41.09-.8.1-1.22.15a2,2,0,0,1-1.27-.09.65.65,0,0,1-.25-.74,1.58,1.58,0,0,1,1.35-.84,2.35,2.35,0,0,1,1.64.31A.67.67,0,0,1,264.51,92.45Z" style="fill:#263238"></path><path d="M252,95.51c.4-.12.75-.3,1.14-.46a2,2,0,0,0,1.07-.69.63.63,0,0,0-.14-.76,1.56,1.56,0,0,0-1.59-.09,2.34,2.34,0,0,0-1.28,1.06A.68.68,0,0,0,252,95.51Z" style="fill:#263238"></path><path d="M255.47,99.05s-.08.07-.07.12c.28,1.18.4,2.58-.59,3.19,0,0,0,.08,0,.07C256.1,102,255.92,100.12,255.47,99.05Z" style="fill:#263238"></path><path d="M254.16,98c-1.94.25-1.31,4.11.49,3.88S255.78,97.82,254.16,98Z" style="fill:#263238"></path><path d="M253.43,98.35c-.3.27-.57.71-1,.82s-.88-.22-1.25-.56c0,0-.07,0-.06,0,.11.75.52,1.46,1.33,1.44s1.15-.76,1.21-1.53C253.71,98.42,253.55,98.24,253.43,98.35Z" style="fill:#263238"></path><path d="M262.53,97.39s.1,0,.11.09c.19,1.19.61,2.53,1.77,2.72,0,0,0,.06,0,.07C263.06,100.34,262.52,98.55,262.53,97.39Z" style="fill:#263238"></path><path d="M263.35,95.94c1.88-.52,2.78,3.29,1,3.77S261.77,96.37,263.35,95.94Z" style="fill:#263238"></path><path d="M264.2,96c.35.13.73.43,1.1.37s.63-.55.81-1c0,0,.05,0,.07,0,.19.72.12,1.53-.54,1.84s-1.23-.24-1.57-.92C264,96.18,264.06,96,264.2,96Z" style="fill:#263238"></path><path d="M258.69,109.49a2.12,2.12,0,0,0,1.16.44,2.19,2.19,0,0,0,1.19-.61,0,0,0,0,1,.07.05,1.44,1.44,0,0,1-1.18,1,1.51,1.51,0,0,1-1.34-.81C258.55,109.51,258.64,109.46,258.69,109.49Z" style="fill:#263238"></path><path d="M261.33,103.56s.62,1.72.8,2.55a34.12,34.12,0,0,1-4.92,1.1c-.1,0-.1-.24,0-.28a27.38,27.38,0,0,1,4.21-1.11c0-.25-1.15-2.91-1-2.95a7,7,0,0,1,2,0c-1.19-3.62-2.94-7-4.06-10.65,0-.13.14-.21.2-.1a62.23,62.23,0,0,1,4.86,11.28C263.55,103.89,261.7,103.63,261.33,103.56Z" style="fill:#263238"></path><path d="M239.76,104.36c3.36.11,3.5-7.56,3.5-7.56s13.9-3.7,14-15.31a19.53,19.53,0,0,0,10.8,9.73s-1.66-12.56-11.88-14.08c0,0-12.82-3.36-18.88,7.12S237.51,104.28,239.76,104.36Z" style="fill:#263238"></path><path d="M257.26,80.63a12.69,12.69,0,0,1-.14,5.31,13.12,13.12,0,0,1-2.24,4.89,12.16,12.16,0,0,1-.86,1l-.45.51c-.16.16-.33.31-.5.45-.34.3-.67.6-1,.88s-.75.51-1.12.75c-.19.12-.38.25-.57.36l-.6.3-1.2.59c-.83.32-1.67.59-2.51.85.78-.43,1.58-.77,2.34-1.2l1.12-.68.55-.34c.18-.12.35-.26.52-.39l1-.79c.32-.28.62-.59.94-.88l.47-.44.41-.49a10.93,10.93,0,0,0,.81-1,14.89,14.89,0,0,0,2.28-4.58,14.48,14.48,0,0,0,.57-2.53A15.18,15.18,0,0,0,257.26,80.63Z" style="fill:#263238"></path><path d="M240.57,110.83a4.41,4.41,0,0,0,.85.08,2.68,2.68,0,0,0,.83-.12,2.49,2.49,0,0,0,1-.49,3,3,0,0,0,.57-.62,3.46,3.46,0,0,0,.51-1.09l-1.74-4.53s-4.73-4.85-7-3.08S237.47,110.22,240.57,110.83Z" style="fill: rgb(221, 106, 87);"></path><path d="M236.81,103.09s0,.07,0,.08c2.18.5,3.57,2.22,4.64,4.06a1.65,1.65,0,0,0-2.52,0c-.05,0,0,.12.07.1a1.87,1.87,0,0,1,2.12.31,9.07,9.07,0,0,1,1.22,1.47c.13.17.44,0,.34-.19l0,0C242.28,106.21,239.66,102.9,236.81,103.09Z" style="fill:#263238"></path><path d="M223.48,102.51a11.34,11.34,0,0,1-.46,2.33c-.29.71-1.5,1.14-2.21,1.76a10.89,10.89,0,0,0-1.58,2.28,11,11,0,0,1,.12-3.69,3,3,0,0,1,1.51-1.53,17.73,17.73,0,0,0,1.43-1.4Z" style="fill:#FFC727"></path><path d="M223.48,102.51a11.34,11.34,0,0,1-.46,2.33c-.29.71-1.5,1.14-2.21,1.76a10.89,10.89,0,0,0-1.58,2.28,11,11,0,0,1,.12-3.69,3,3,0,0,1,1.51-1.53,17.73,17.73,0,0,0,1.43-1.4Z" style="opacity:0.1"></path><path d="M223.48,102.52s-.06.51-.16,1.07l-1.8-.53.76-.8Z" style="opacity:0.1"></path><path d="M224,101.11s1.05-1.09,1.06-1.86-1.34-1.63-1.76-2.48a10.87,10.87,0,0,1-.58-2.72,11.17,11.17,0,0,0-1.31,3.46,3,3,0,0,0,.8,2,6.3,6.3,0,0,1,.43,1.43Z" style="fill:#FFC727"></path><path d="M224,101.11s1.05-1.09,1.06-1.86-1.34-1.63-1.76-2.48a10.87,10.87,0,0,1-.58-2.72,11.17,11.17,0,0,0-1.31,3.46,3,3,0,0,0,.8,2,6.3,6.3,0,0,1,.43,1.43Z" style="opacity:0.1"></path><path d="M224.62,100.38a6.38,6.38,0,0,1-.59.73l-1.36-.18s-.08-.38-.18-.75Z" style="opacity:0.1"></path><path d="M221.8,101.29a1.22,1.22,0,0,1,1.5-.69c.68.11,1.47,1,1.23,1.6a2,2,0,0,1-1.76,1C222.14,103.14,221.56,101.73,221.8,101.29Z" style="fill:#FFC727"></path><path d="M221.8,101.29a1.22,1.22,0,0,1,1.5-.69c.68.11,1.47,1,1.23,1.6a2,2,0,0,1-1.76,1C222.14,103.14,221.56,101.73,221.8,101.29Z" style="opacity:0.1"></path><path d="M232.74,99.66c4-.49,13.67-2.77,15.92-3.38s15.19-4,16.66-4.18,3.56-.32,3.85,0,2,4.9,1.63,5.72c-.2.49-2.3,1.39-4.23,2.14-1.36.54-4.37.44-4.83.63-1.12.47-6.28,2.71-8.05,2.89-9.11.88-18.92-.32-21.25-.4s-8.4.22-8.81.19-.23-2.23.64-2.54S231.32,99.83,232.74,99.66Z" style="fill:#FFC727"></path><g style="opacity:0.1"><path d="M223.84,101.63c1.55-.12,3.1-.19,4.64-.27a24.06,24.06,0,0,0,4.58-.5c1.51-.31,3-.67,4.53-1s3-.66,4.54-1c-1.45.57-2.95,1-4.44,1.41s-3,.77-4.53,1.11a20.35,20.35,0,0,1-4.66.4C226.94,101.74,225.39,101.72,223.84,101.63Z" style="fill:#030402"></path><path d="M236.35,102.26a31.88,31.88,0,0,1,5.08.16c1.69.12,3.38.3,5,.28a24.12,24.12,0,0,0,5-.71c.82-.18,1.64-.39,2.45-.62a15.39,15.39,0,0,0,2.4-.81,26,26,0,0,1-9.81,2.64,47.63,47.63,0,0,1-5.09-.4l-2.52-.32A19.48,19.48,0,0,0,236.35,102.26Z" style="fill:#030402"></path><path d="M253.68,98.68c1.79-.77,3.44-1.74,5.3-2.41a4.87,4.87,0,0,1,1.48-.3,9,9,0,0,1,1.48.13,11,11,0,0,0,2.87.18,7.53,7.53,0,0,1-2.91.2,5.94,5.94,0,0,0-2.76.26A43.05,43.05,0,0,1,253.68,98.68Z" style="fill:#030402"></path><path d="M263.39,97.86c1.2-.26,2.39-.41,3.56-.61a6.72,6.72,0,0,0,1.68-.45,17.68,17.68,0,0,1,1.73-.6,18,18,0,0,1-1.56,1,4.89,4.89,0,0,1-1.76.59A14,14,0,0,1,263.39,97.86Z" style="fill:#030402"></path><path d="M261.74,94.05c.6-.2,1.2-.36,1.81-.51a13,13,0,0,1,1.86-.37,12.08,12.08,0,0,1,1.9-.07,10,10,0,0,1,1.88.24c-1.26.12-2.5.17-3.72.32A28.56,28.56,0,0,1,261.74,94.05Z" style="fill:#030402"></path><path d="M238.93,100.56a49.67,49.67,0,0,1,5.17-.34c1.73-.07,3.46-.06,5.16-.25a32.2,32.2,0,0,0,5-1c1.67-.43,3.26-1.13,5-1.49-1.63.56-3.18,1.34-4.84,1.85a28.49,28.49,0,0,1-5.09,1.18c-1.75.15-3.47.15-5.2.13S240.66,100.52,238.93,100.56Z" style="fill:#030402"></path></g></g></svg>