<svg xmlns="http://www.w3.org/2000/svg" viewBox="0 0 500 500"><g id="freepik--Trees--inject-23"><path d="M257,462.4c-.71.71-9,1-12,1s-11.31-.31-12-1,9.33-55.82,12-55.82S257.73,461.68,257,462.4Z" style="fill:#455a64"></path><path d="M257.19,448.35c-2.05.78-9.64,3.87-11.28,4.78v-1c1.83-1.08,3.67-2.14,5.5-3.21a66.55,66.55,0,0,0,5.93-3.52c.08-.07,0-.25-.09-.2a48.81,48.81,0,0,0-5.79,3.2c-1.87,1.09-3.71,2.22-5.55,3.36q0-4,0-7.93a61.61,61.61,0,0,0,8.65-4.39c.1-.06,0-.23-.08-.19a64.91,64.91,0,0,0-8.57,4.23c0-1.37,0-2.75,0-4.12-.07-7.07-.09-14.15-.27-21.22,1.8-.91,3.66-1.71,5.45-2.62.12-.06,0-.27-.09-.22-1.82.71-3.58,1.56-5.37,2.35-.1-3.65-.24-7.3-.46-10.94a.1.1,0,0,0-.19,0c-.25,6.77-.23,13.55-.14,20.33-1.87-1.49-3.86-2.8-5.75-4.25-.08-.05-.15.07-.07.13,2,1.51,3.83,3.18,5.82,4.68,0,.39,0,.77,0,1.15-2-.92-4.07-1.78-6.12-2.66-.16-.07-.3.16-.14.24,2.08,1,4.16,2,6.26,3,.05,3.36.11,6.71.15,10.07.08,5.86.21,11.73.33,17.59q-5.72-2.9-11.53-5.63c-.14-.07-.27.14-.13.22a122.31,122.31,0,0,0,11.67,5.86c.11,4.87.21,9.74.27,14.61a.23.23,0,0,0,.46,0c-.07-6.21-.08-12.42-.1-18.64a111.79,111.79,0,0,0,11.42-4.64A.19.19,0,0,0,257.19,448.35Z" style="fill:#37474f"></path><path d="M190.81,463.79c-.61.61-7.73.88-10.31.88s-9.71-.27-10.32-.88,8-47.9,10.32-47.9S191.42,463.17,190.81,463.79Z" style="fill:#455a64"></path><path d="M191,451.73c-1.76.68-8.27,3.33-9.67,4.1,0-.3,0-.59,0-.89l4.72-2.75a56.42,56.42,0,0,0,5.09-3c.07-.05,0-.21-.07-.17a43.09,43.09,0,0,0-5,2.75c-1.6.94-3.18,1.91-4.76,2.88,0-2.26,0-4.53,0-6.8a52.23,52.23,0,0,0,7.42-3.77c.08-.05,0-.2-.06-.16a55.23,55.23,0,0,0-7.36,3.63c0-1.18,0-2.36,0-3.54-.07-6.06-.08-12.14-.24-18.21,1.55-.78,3.14-1.46,4.68-2.25a.1.1,0,0,0-.08-.18c-1.56.61-3.07,1.33-4.61,2-.08-3.13-.2-6.26-.39-9.39,0-.1-.16-.1-.16,0-.22,5.81-.2,11.63-.13,17.45-1.6-1.28-3.3-2.4-4.93-3.64-.06,0-.13.06-.06.1,1.7,1.3,3.29,2.73,5,4,0,.33,0,.66,0,1-1.74-.79-3.49-1.53-5.25-2.28-.13-.06-.26.14-.12.2,1.79.86,3.57,1.73,5.38,2.54,0,2.88.09,5.76.12,8.64.07,5,.18,10.07.29,15.1q-4.92-2.49-9.9-4.84a.11.11,0,0,0-.11.2,105.1,105.1,0,0,0,10,5c.09,4.18.18,8.36.23,12.54a.2.2,0,0,0,.4,0c-.06-5.33-.07-10.66-.08-16a99.74,99.74,0,0,0,9.79-4C191.23,452,191.12,451.67,191,451.73Z" style="fill:#37474f"></path><path d="M395.07,465.11c.51.52,6.51.75,8.68.75s8.18-.23,8.69-.75-6.74-40.34-8.69-40.34S394.56,464.6,395.07,465.11Z" style="fill:#37474f"></path><path d="M395,455c1.48.56,7,2.79,8.15,3.44v-.74l-4-2.33a45,45,0,0,1-4.28-2.54c-.06-.05,0-.18.06-.14a34.81,34.81,0,0,1,4.19,2.31c1.35.79,2.68,1.61,4,2.43,0-1.91,0-3.82,0-5.73a44.75,44.75,0,0,1-6.25-3.18c-.07,0,0-.16.05-.13a46.28,46.28,0,0,1,6.2,3.05c0-1,0-2,0-3,.05-5.11.06-10.23.19-15.34-1.3-.65-2.63-1.23-3.93-1.89-.09,0,0-.19.06-.16,1.32.52,2.59,1.13,3.88,1.7q.11-4,.34-7.91a.07.07,0,1,1,.13,0c.18,4.9.17,9.8.11,14.69,1.34-1.07,2.78-2,4.15-3.06.06,0,.11,0,.05.08-1.43,1.1-2.77,2.3-4.21,3.39,0,.28,0,.55,0,.83,1.46-.67,2.94-1.29,4.42-1.92.12-.05.22.12.1.17-1.5.72-3,1.46-4.52,2.14,0,2.43-.08,4.85-.11,7.28-.06,4.23-.15,8.47-.24,12.71q4.14-2.1,8.33-4.07c.11-.05.2.1.1.16a86.34,86.34,0,0,1-8.44,4.23c-.07,3.52-.14,7-.19,10.56a.16.16,0,0,1-.33,0c.05-4.48.06-9,.07-13.47a80.42,80.42,0,0,1-8.25-3.35C394.71,455.14,394.81,454.91,395,455Z" style="fill:#455a64"></path><path d="M188.13,465.11c.52.52,6.51.75,8.69.75s8.17-.23,8.68-.75-6.74-40.34-8.68-40.34S187.62,464.6,188.13,465.11Z" style="fill:#37474f"></path><path d="M188,455c1.48.56,7,2.79,8.15,3.44v-.74l-4-2.33a42.65,42.65,0,0,1-4.28-2.54c-.07-.05,0-.18.06-.14a36.4,36.4,0,0,1,4.19,2.31c1.34.79,2.68,1.61,4,2.43,0-1.91,0-3.82,0-5.73a45.31,45.31,0,0,1-6.25-3.18.07.07,0,0,1,.06-.13,46.75,46.75,0,0,1,6.19,3.05c0-1,0-2,0-3,.06-5.11.07-10.23.2-15.34-1.3-.65-2.64-1.23-3.94-1.89-.09,0,0-.19.06-.16,1.32.52,2.59,1.13,3.89,1.7.07-2.64.17-5.28.33-7.91a.07.07,0,0,1,.14,0c.18,4.9.16,9.8.1,14.69,1.35-1.07,2.78-2,4.16-3.06,0,0,.1,0,0,.08-1.44,1.1-2.78,2.3-4.21,3.39,0,.28,0,.55,0,.83,1.46-.67,2.94-1.29,4.41-1.92.12-.05.22.12.1.17-1.5.72-3,1.46-4.52,2.14,0,2.43-.08,4.85-.11,7.28-.05,4.23-.15,8.47-.24,12.71q4.14-2.1,8.34-4.07a.09.09,0,0,1,.09.16,86.18,86.18,0,0,1-8.43,4.23q-.12,5.28-.2,10.56a.16.16,0,0,1-.33,0c0-4.48.06-9,.07-13.47a81.35,81.35,0,0,1-8.25-3.35C187.78,455.14,187.87,454.91,188,455Z" style="fill:#455a64"></path><path d="M325.63,463.15c-.66.66-8.31,1-11.09,1s-10.43-.29-11.09-1,8.61-51.51,11.09-51.51S326.29,462.49,325.63,463.15Z" style="fill:#37474f"></path><path d="M325.78,450.19c-1.89.72-8.89,3.57-10.4,4.41v-1l5.07-3a62.5,62.5,0,0,0,5.47-3.25c.08-.06,0-.23-.08-.18a45,45,0,0,0-5.35,2.95c-1.72,1-3.42,2.05-5.12,3.1q0-3.66,0-7.31a58.65,58.65,0,0,0,8-4.06c.09-.05,0-.21-.07-.17a59.23,59.23,0,0,0-7.91,3.9c0-1.27,0-2.54,0-3.8-.07-6.53-.08-13.06-.25-19.59,1.67-.83,3.38-1.57,5-2.42a.11.11,0,0,0-.08-.2c-1.68.66-3.31,1.44-5,2.17-.09-3.37-.22-6.73-.42-10.1a.09.09,0,0,0-.18,0c-.23,6.25-.21,12.51-.13,18.77-1.72-1.38-3.55-2.59-5.31-3.92-.06-.05-.13.06-.06.11,1.83,1.4,3.54,2.94,5.38,4.33,0,.35,0,.7,0,1.06-1.87-.86-3.76-1.65-5.64-2.46-.15-.06-.28.15-.13.22,1.92.92,3.83,1.86,5.78,2.73,0,3.1.09,6.2.13,9.3.07,5.41.19,10.82.31,16.23q-5.28-2.67-10.64-5.2c-.14-.06-.26.13-.12.21a110.48,110.48,0,0,0,10.77,5.4c.09,4.5.19,9,.24,13.49a.22.22,0,0,0,.43,0c-.06-5.73-.07-11.47-.09-17.2a104.26,104.26,0,0,0,10.54-4.29C326.09,450.42,326,450.12,325.78,450.19Z" style="fill:#455a64"></path><path d="M315.55,465.87c.46.46,5.81.67,7.75.67s7.29-.21,7.75-.67-6-36-7.75-36S315.09,465.42,315.55,465.87Z" style="fill:#455a64"></path><path d="M315.44,456.82c1.32.5,6.22,2.49,7.28,3.08v-.67c-1.18-.7-2.37-1.38-3.55-2.07a41.76,41.76,0,0,1-3.82-2.27c-.06-.05,0-.17,0-.13a31.63,31.63,0,0,1,3.74,2.06c1.2.71,2.39,1.43,3.58,2.17,0-1.71,0-3.41,0-5.11a41.21,41.21,0,0,1-5.58-2.84c-.06,0,0-.15,0-.12a40.56,40.56,0,0,1,5.53,2.73c0-.89,0-1.77,0-2.66.05-4.56.06-9.12.18-13.68-1.17-.59-2.36-1.11-3.52-1.7-.08,0,0-.17.06-.13,1.18.45,2.31,1,3.46,1.51.07-2.36.16-4.71.3-7.06a.06.06,0,1,1,.12,0c.16,4.37.15,8.74.1,13.12,1.2-1,2.48-1.81,3.7-2.74,0,0,.1,0,0,.08-1.28,1-2.48,2.05-3.76,3,0,.25,0,.49,0,.74,1.31-.6,2.63-1.15,3.95-1.71.1-.05.19.1.09.15-1.35.64-2.68,1.3-4,1.91,0,2.16-.07,4.33-.1,6.49,0,3.78-.13,7.56-.21,11.35q3.69-1.87,7.43-3.64a.09.09,0,0,1,.09.15,81.46,81.46,0,0,1-7.53,3.78c-.06,3.14-.13,6.28-.17,9.42a.15.15,0,0,1-.3,0c.05-4,.05-8,.07-12a75.21,75.21,0,0,1-7.37-3C315.23,457,315.32,456.77,315.44,456.82Z" style="fill:#37474f"></path></g><g id="freepik--wind-turbines--inject-23"><polygon points="395.27 277.53 390.74 472.14 404.05 472.14 399.52 277.53 395.27 277.53" style="fill:#FFC727"></polygon><polygon points="395.27 277.53 390.74 472.14 404.05 472.14 399.52 277.53 395.27 277.53" style="fill:#fff;opacity:0.5"></polygon><polygon points="395.17 282.09 399.64 282.73 399.52 277.53 395.27 277.53 395.17 282.09" style="fill:#FFC727"></polygon><polygon points="392.22 408.79 402.57 408.79 402.41 401.62 392.39 401.62 392.22 408.79" style="fill:#FFC727"></polygon><polygon points="392.46 398.23 402.33 398.23 402.25 394.64 392.55 394.64 392.46 398.23" style="fill:#FFC727"></polygon><polygon points="397.41 472.14 397.41 277.53 395.27 277.53 390.74 472.14 397.41 472.14" style="fill:#fff;opacity:0.5"></polygon><polygon points="409.32 274.37 408.18 278.6 393.31 278.6 393.31 270.14 408.18 270.14 408.72 272.17 409.32 274.37" style="fill:#FFC727"></polygon><polygon points="409.32 274.37 408.18 278.6 393.31 278.6 393.31 270.14 408.18 270.14 408.72 272.17 409.32 274.37" style="fill:#fff;opacity:0.30000000000000004"></polygon><polygon points="409.32 274.37 393.31 274.37 393.31 272.17 408.72 272.17 409.32 274.37" style="fill:#fff;opacity:0.5"></polygon><polygon points="390.26 271.18 390.26 205.86 391.74 206.33 393.97 271.18 390.26 271.18" style="fill:#FFC727"></polygon><polygon points="390.26 271.18 390.26 205.86 391.74 206.33 393.97 271.18 390.26 271.18" style="fill:#fff;opacity:0.5"></polygon><polygon points="390.26 263.81 390.26 205.86 389.09 206.84 386.08 262.02 390.26 263.81" style="fill:#FFC727"></polygon><polygon points="390.26 263.81 390.26 205.86 389.09 206.84 386.08 262.02 390.26 263.81" style="fill:#fff;opacity:0"></polygon><polygon points="388.08 225.46 392.39 225.46 392.33 223.5 388.18 223.5 388.08 225.46" style="fill:#FFC727"></polygon><polygon points="396.11 274 449.74 306.67 448.61 307.78 394.25 277.4 396.11 274" style="fill:#FFC727"></polygon><polygon points="396.11 274 449.74 306.67 448.61 307.78 394.25 277.4 396.11 274" style="fill:#fff;opacity:0.5"></polygon><polygon points="402.16 277.69 449.74 306.67 449.52 305.11 405.72 274.76 402.16 277.69" style="fill:#FFC727"></polygon><polygon points="402.16 277.69 449.74 306.67 449.52 305.11 405.72 274.76 402.16 277.69" style="fill:#fff;opacity:0"></polygon><polygon points="434.74 294.87 432.58 298.82 434.22 299.73 436.29 295.94 434.74 294.87" style="fill:#FFC727"></polygon><polygon points="390.87 277.94 337.23 310.6 336.88 309.01 389.01 274.54 390.87 277.94" style="fill:#FFC727"></polygon><polygon points="390.87 277.94 337.23 310.6 336.88 309.01 389.01 274.54 390.87 277.94" style="fill:#fff;opacity:0.5"></polygon><polygon points="384.81 281.62 337.23 310.6 338.62 311.18 385.44 286.33 384.81 281.62" style="fill:#FFC727"></polygon><polygon points="384.81 281.62 337.23 310.6 338.62 311.18 385.44 286.33 384.81 281.62" style="fill:#fff;opacity:0"></polygon><polygon points="354.42 302.79 352.26 298.85 350.69 299.88 352.76 303.67 354.42 302.79" style="fill:#FFC727"></polygon><circle cx="392.79" cy="274.37" r="4.23" style="fill:#FFC727"></circle><path d="M396,274.37a3.57,3.57,0,0,1-3.57,3.58c-2,0-6.1-2.56-6.1-3.58s4.13-3.57,6.1-3.57A3.57,3.57,0,0,1,396,274.37Z" style="fill:#FFC727"></path><path d="M396,274.37a3.57,3.57,0,0,1-3.57,3.58c-2,0-6.1-2.56-6.1-3.58s4.13-3.57,6.1-3.57A3.57,3.57,0,0,1,396,274.37Z" style="fill:#fff;opacity:0.5"></path><path d="M400,280.73a10.26,10.26,0,0,0-2.52-14.83,10.6,10.6,0,0,0-5.34-1.64,10.79,10.79,0,0,1,2.82.35c6.91,1.78,9.76,10.73,5,16.12Z" style="fill:#c7c7c7"></path><path d="M382,274.37A10.24,10.24,0,0,0,398.71,282a9.79,9.79,0,0,1-5.17,2.43A10.12,10.12,0,0,1,382,274.37Z" style="fill:#c7c7c7"></path><path d="M390.21,264.44a11.56,11.56,0,0,0-7,5.23,9.17,9.17,0,0,1,7-5.23Z" style="fill:#c7c7c7"></path><path d="M379.5,279.44a13.74,13.74,0,0,0,24.12,2.18c-5.7,9.5-20.21,8.17-24.12-2.18Z" style="fill:#c7c7c7"></path><path d="M383.47,263.88a15,15,0,0,0-5,10.49,12.59,12.59,0,0,1,5-10.49Z" style="fill:#c7c7c7"></path><path d="M405.22,278a13.85,13.85,0,0,0-13.1-17.23,15.47,15.47,0,0,1,3.11.3c7.39,1.49,12.31,9.74,10,16.93Z" style="fill:#c7c7c7"></path><path d="M399.72,265.71c-10.42-8.54-24.34,3.9-17,15.17a11.65,11.65,0,0,0,9.41,5,11.48,11.48,0,0,1-9.55-4.93c-7.61-11.38,6.76-24.16,17.15-15.27Z" style="fill:#c7c7c7"></path><path d="M396.18,285.17a11.89,11.89,0,0,0,6.56-15.29,11.37,11.37,0,0,1-6.56,15.29Z" style="fill:#c7c7c7"></path><polygon points="294.92 327.99 290.39 472.14 303.7 472.14 299.17 327.99 294.92 327.99" style="fill:#FFC727"></polygon><polygon points="294.92 327.99 290.39 472.14 303.7 472.14 299.17 327.99 294.92 327.99" style="fill:#fff;opacity:0.5"></polygon><polygon points="294.79 332.02 299.47 337.58 299.17 327.99 294.92 327.99 294.79 332.02" style="fill:#FFC727"></polygon><polygon points="291.87 425.22 302.22 425.22 302.06 419.91 292.04 419.91 291.87 425.22" style="fill:#FFC727"></polygon><polygon points="292.11 417.39 301.98 417.39 301.9 414.74 292.2 414.74 292.11 417.39" style="fill:#FFC727"></polygon><polygon points="294.92 327.99 290.39 472.14 297.13 472.14 297.05 327.99 294.92 327.99" style="fill:#fff;opacity:0.5"></polygon><polygon points="308.96 326.22 307.82 330.45 292.96 330.45 292.96 321.99 307.82 321.99 308.37 324.02 308.96 326.22" style="fill:#FFC727"></polygon><polygon points="308.96 326.22 307.82 330.45 292.96 330.45 292.96 321.99 307.82 321.99 308.37 324.02 308.96 326.22" style="fill:#fff;opacity:0.30000000000000004"></polygon><polygon points="308.96 326.22 292.96 326.22 292.96 324.02 308.37 324.02 308.96 326.22" style="fill:#fff;opacity:0.5"></polygon><polygon points="292.73 330.65 268.61 391.37 267.41 390.38 289.27 329.28 292.73 330.65" style="fill:#FFC727"></polygon><polygon points="292.73 330.65 268.61 391.37 267.41 390.38 289.27 329.28 292.73 330.65" style="fill:#fff;opacity:0.5"></polygon><polygon points="290 337.51 268.61 391.37 270.06 390.89 293.23 340.71 290 337.51" style="fill:#FFC727"></polygon><polygon points="290 337.51 268.61 391.37 270.06 390.89 293.23 340.71 290 337.51" style="fill:#fff;opacity:0"></polygon><polygon points="277.87 373.95 273.86 372.36 273.2 374.2 277.06 375.73 277.87 373.95" style="fill:#FFC727"></polygon><polygon points="288.33 325.88 250.54 275.72 252 275.1 291.31 323.41 288.33 325.88" style="fill:#FFC727"></polygon><polygon points="288.33 325.88 250.54 275.72 252 275.1 291.31 323.41 288.33 325.88" style="fill:#fff;opacity:0.5"></polygon><polygon points="284.06 320.21 250.54 275.72 250.17 277.25 279.68 321.62 284.06 320.21" style="fill:#FFC727"></polygon><polygon points="284.06 320.21 250.54 275.72 250.17 277.25 279.68 321.62 284.06 320.21" style="fill:#fff;opacity:0"></polygon><polygon points="260.13 292.22 263.59 289.35 262.41 287.89 259.08 290.65 260.13 292.22" style="fill:#FFC727"></polygon><polygon points="294.65 324.15 356.55 313.6 356.29 315.2 295.12 327.99 294.65 324.15" style="fill:#FFC727"></polygon><polygon points="294.65 324.15 356.55 313.6 356.29 315.2 295.12 327.99 294.65 324.15" style="fill:#fff;opacity:0.5"></polygon><polygon points="301.64 322.96 356.55 313.6 355.48 312.55 302.8 318.35 301.64 322.96" style="fill:#FFC727"></polygon><polygon points="301.64 322.96 356.55 313.6 355.48 312.55 302.8 318.35 301.64 322.96" style="fill:#fff;opacity:0"></polygon><polygon points="337.7 314.51 338.25 318.97 340.1 318.59 339.57 314.3 337.7 314.51" style="fill:#FFC727"></polygon><path d="M288.21,326.22a4.23,4.23,0,1,0,4.23-4.23A4.23,4.23,0,0,0,288.21,326.22Z" style="fill:#FFC727"></path><path d="M295.63,326.22a3.57,3.57,0,0,1-3.57,3.57c-2,0-6.1-2.55-6.1-3.57s4.12-3.57,6.1-3.57A3.57,3.57,0,0,1,295.63,326.22Z" style="fill:#FFC727"></path><path d="M295.63,326.22a3.57,3.57,0,0,1-3.57,3.57c-2,0-6.1-2.55-6.1-3.57s4.12-3.57,6.1-3.57A3.57,3.57,0,0,1,295.63,326.22Z" style="fill:#fff;opacity:0.5"></path><path d="M292,316.12A10.26,10.26,0,0,0,281.61,327a10.58,10.58,0,0,0,1.89,5.26,11.23,11.23,0,0,1-1.42-2.47c-2.72-6.6,2.74-14.25,9.88-13.7Z" style="fill:#c7c7c7"></path><path d="M297.66,334.31a10.23,10.23,0,0,0-3.89-18c8.48,1.59,10.92,13,3.89,18Z" style="fill:#c7c7c7"></path><path d="M284.78,333.7a11.56,11.56,0,0,0,8.42,2.51,9.21,9.21,0,0,1-8.42-2.51Z" style="fill:#c7c7c7"></path><path d="M303.21,333.28a13.79,13.79,0,0,0-5.52-19.11,14.17,14.17,0,0,0-7.19-1.5,13.46,13.46,0,0,1,7.27,1.35c7,3.27,9.7,12.81,5.44,19.26Z" style="fill:#c7c7c7"></path><path d="M288.38,339.43a14.93,14.93,0,0,0,11.36-2.33,12.54,12.54,0,0,1-11.36,2.33Z" style="fill:#c7c7c7"></path><path d="M286.65,313.56a13.85,13.85,0,0,0-5.94,20.81,14.19,14.19,0,0,1-1.62-2.67c-3.24-6.81.41-15.69,7.56-18.14Z" style="fill:#c7c7c7"></path><path d="M280.1,325.33c-.66,7.81,7.2,14.2,14.68,11.85,7.57-2,10.77-11.64,6-17.87,5,6.2,1.68,16-6,18.11-7.59,2.32-15.61-4.17-14.75-12.09Z" style="fill:#c7c7c7"></path><path d="M297.8,316.5a11.88,11.88,0,0,0-16.17,3.91,11.37,11.37,0,0,1,16.17-3.91Z" style="fill:#c7c7c7"></path><polygon points="325.2 223.3 319.35 472.12 336.53 472.12 330.68 223.3 325.2 223.3" style="fill:#FFC727"></polygon><polygon points="325.2 223.3 319.35 472.12 336.53 472.12 330.68 223.3 325.2 223.3" style="fill:#fff;opacity:0.5"></polygon><polygon points="324.7 244.17 330.84 229.94 330.69 223.3 325.19 223.3 324.7 244.17" style="fill:#FFC727"></polygon><polygon points="321.26 391.13 334.62 391.13 334.41 381.96 321.47 381.96 321.26 391.13" style="fill:#FFC727"></polygon><polygon points="321.57 377.61 334.31 377.61 334.2 373.03 321.68 373.03 321.57 377.61" style="fill:#FFC727"></polygon><polygon points="327.77 472.19 327.77 223.3 325.19 223.3 319.35 472.12 327.77 472.19" style="fill:#fff;opacity:0.5"></polygon><polygon points="343.9 222.51 342.43 227.97 323.24 227.97 323.24 217.05 342.43 217.05 343.14 219.68 343.9 222.51" style="fill:#FFC727"></polygon><polygon points="343.9 222.51 342.43 227.97 323.24 227.97 323.24 217.05 342.43 217.05 343.14 219.68 343.9 222.51" style="fill:#fff;opacity:0.30000000000000004"></polygon><polygon points="343.9 222.51 323.24 222.51 323.24 219.68 343.14 219.68 343.9 222.51" style="fill:#fff;opacity:0.5"></polygon><polygon points="316.94 224.71 234.26 207.94 235.24 206.19 317.89 220 316.94 224.71" style="fill:#FFC727"></polygon><polygon points="316.94 224.71 234.26 207.94 235.24 206.19 317.89 220 316.94 224.71" style="fill:#fff;opacity:0.5"></polygon><polygon points="307.61 222.81 234.26 207.94 235.2 209.67 304.27 227.64 307.61 222.81" style="fill:#FFC727"></polygon><polygon points="307.61 222.81 234.26 207.94 235.2 209.67 304.27 227.64 307.61 222.81" style="fill:#fff;opacity:0"></polygon><polygon points="258.51 215.73 259.62 210.26 257.12 209.85 256.06 215.1 258.51 215.73" style="fill:#FFC727"></polygon><polygon points="322.01 218.02 377.11 158.52 378.23 160.24 325.83 221.25 322.01 218.02" style="fill:#FFC727"></polygon><polygon points="322.01 218.02 377.11 158.52 378.23 160.24 325.83 221.25 322.01 218.02" style="fill:#fff;opacity:0.5"></polygon><polygon points="328.23 211.31 377.11 158.52 375.09 158.4 325.44 206.06 328.23 211.31" style="fill:#FFC727"></polygon><polygon points="328.23 211.31 377.11 158.52 375.09 158.4 325.44 206.06 328.23 211.31" style="fill:#fff;opacity:0"></polygon><polygon points="358.34 174.49 362.77 178.23 364.36 176.39 360.09 172.79 358.34 174.49" style="fill:#FFC727"></polygon><polygon points="325.64 225.66 353.22 301.93 351.12 301.97 320.87 227.15 325.64 225.66" style="fill:#FFC727"></polygon><polygon points="325.64 225.66 353.22 301.93 351.12 301.97 320.87 227.15 325.64 225.66" style="fill:#fff;opacity:0.5"></polygon><polygon points="328.75 234.27 353.22 301.93 354.3 300.32 334.88 234.69 328.75 234.27" style="fill:#FFC727"></polygon><polygon points="328.75 234.27 353.22 301.93 354.3 300.32 334.88 234.69 328.75 234.27" style="fill:#fff;opacity:0"></polygon><polygon points="347.75 278.18 342.2 279.9 343.11 282.15 348.44 280.5 347.75 278.18" style="fill:#FFC727"></polygon><path d="M317.1,222.51a5.47,5.47,0,1,0,5.46-5.46A5.47,5.47,0,0,0,317.1,222.51Z" style="fill:#FFC727"></path><path d="M326.68,222.51a4.61,4.61,0,0,1-4.61,4.62c-2.55,0-7.88-3.3-7.88-4.62s5.33-4.61,7.88-4.61A4.61,4.61,0,0,1,326.68,222.51Z" style="fill:#FFC727"></path><path d="M326.68,222.51a4.61,4.61,0,0,1-4.61,4.62c-2.55,0-7.88-3.3-7.88-4.62s5.33-4.61,7.88-4.61A4.61,4.61,0,0,1,326.68,222.51Z" style="fill:#fff;opacity:0.5"></path><path d="M329.86,213.37a11.92,11.92,0,0,0-17.25,2.93,12.26,12.26,0,0,0-1.89,6.21,13,13,0,0,1,.41-3.27c2.08-8,12.46-11.32,18.73-5.87Z" style="fill:#c7c7c7"></path><path d="M322.47,234.27A12,12,0,0,0,334,220.88a12.1,12.1,0,0,0-2.65-6c6.73,7.46,1.12,19.63-8.91,19.42Z" style="fill:#c7c7c7"></path><path d="M310.93,224.72a13.15,13.15,0,0,0,6.08,8.2,10.83,10.83,0,0,1-6.08-8.2Z" style="fill:#c7c7c7"></path><path d="M328.36,237.18a15.94,15.94,0,0,0,2.54-28c11,6.7,9.48,23.41-2.54,28Z" style="fill:#c7c7c7"></path><path d="M310.28,232.56a17.16,17.16,0,0,0,12.19,5.75,14.77,14.77,0,0,1-12.19-5.75Z" style="fill:#c7c7c7"></path><path d="M326.7,207.29a16.05,16.05,0,0,0-20,15.23,16.29,16.29,0,0,1,.36-3.62c1.74-8.58,11.31-14.29,19.66-11.61Z" style="fill:#c7c7c7"></path><path d="M312.4,213.67c-9.93,12.16,4.5,28.3,17.65,19.79a13.52,13.52,0,0,0,5.83-11,13.35,13.35,0,0,1-5.74,11.09c-13.27,8.79-28-7.79-17.74-19.93Z" style="fill:#c7c7c7"></path><path d="M335,217.8a13.75,13.75,0,0,0-17.76-7.63c6.73-3.21,15.43.57,17.76,7.63Z" style="fill:#c7c7c7"></path></g><g id="freepik--Clipboard--inject-23"><rect x="65.25" y="92.65" width="217.81" height="289.31" style="fill:#FFC727"></rect><g style="opacity:0.1"><rect x="65.25" y="92.65" width="217.81" height="289.31" style="fill:#020100"></rect></g><rect x="71.17" y="92.65" width="217.81" height="289.31" style="fill:#FFC727"></rect><rect x="83.03" y="105.42" width="192.28" height="260.65" transform="translate(-2.99 2.3) rotate(-0.73)" style="fill:#ebebeb"></rect><rect x="45.88" y="139.6" width="260.65" height="192.28" transform="matrix(0.02, -1, 1, 0.02, -63.28, 406.82)" style="fill:#dbdbdb"></rect><rect x="80.07" y="105.42" width="192.28" height="260.65" style="fill:#fff"></rect><path d="M272.35,366.07c-.2,0-192.32.19-192.51.23-.06-.21-.11-260.66-.15-260.88V105h.38l192.54.11c.24.13-.44,260.73-.26,260.92Zm0,0-.27-260.65c1.8.54-192.47.27-192,.37l.37-.37L80.3,366.07c-1.52-.36,192.42,0,192.05,0Z" style="fill:#dbdbdb"></path><path d="M104.46,151.65c25.37-.67,50.91-.67,76.29,0-25.39.67-50.92.67-76.29,0Z" style="fill:#c7c7c7"></path><path d="M104.46,162.78c25.37-.67,50.91-.67,76.29,0-25.39.68-50.92.68-76.29,0Z" style="fill:#c7c7c7"></path><path d="M104.46,173.92c25.37-.68,50.91-.68,76.29,0-25.39.67-50.92.67-76.29,0Z" style="fill:#c7c7c7"></path><path d="M104.46,185.05c25.37-.67,50.91-.67,76.29,0-25.39.67-50.92.67-76.29,0Z" style="fill:#c7c7c7"></path><path d="M104.46,196.18c25.37-.67,50.91-.67,76.29,0-25.39.68-50.92.67-76.29,0Z" style="fill:#c7c7c7"></path><path d="M104.46,207.32c25.37-.68,50.91-.68,76.29,0-25.39.67-50.92.67-76.29,0Z" style="fill:#c7c7c7"></path><path d="M104.46,218.45c46.34-.67,97.86-.65,144.23,0-46.38.65-97.88.66-144.23,0Z" style="fill:#c7c7c7"></path><path d="M104.46,229.58c46.34-.66,97.86-.65,144.23,0-46.38.65-97.88.67-144.23,0Z" style="fill:#c7c7c7"></path><path d="M104.46,240.71c46.34-.66,97.86-.64,144.23,0-46.38.65-97.88.67-144.23,0Z" style="fill:#c7c7c7"></path><path d="M104.46,263c46.34-.66,97.86-.65,144.23,0-46.38.65-97.88.67-144.23,0Z" style="fill:#c7c7c7"></path><path d="M104.46,274.11c46.34-.66,97.86-.64,144.23,0-46.38.65-97.88.67-144.23,0Z" style="fill:#c7c7c7"></path><path d="M104.46,285.25c29.23-.67,61.74-.65,91,0-29.26.65-61.75.66-91,0Z" style="fill:#c7c7c7"></path><path d="M131.08,318.71c29.23-.66,61.74-.64,91,0-29.26.65-61.75.67-91,0Z" style="fill:#c7c7c7"></path><path d="M104.46,340.91c46.34-.66,97.86-.65,144.23,0-46.38.65-97.88.67-144.23,0Z" style="fill:#c7c7c7"></path><path d="M142.92,136.74a549.68,549.68,0,0,1,67.31,0,549.68,549.68,0,0,1-67.31,0Z" style="fill:#c7c7c7"></path><path d="M188.91,154.52l38.17-.1c12.72,0,9.32,0,22,.1-12.72.09-9.32.07-22,.1Z" style="fill:#dbdbdb"></path><path d="M188.91,157.71l38.17-.1c12.72,0,9.32,0,22,.1-12.72.09-9.32.07-22,.1Z" style="fill:#dbdbdb"></path><path d="M188.91,160.9l38.17-.11c12.72,0,9.32,0,22,.11-12.72.09-9.32.06-22,.1Z" style="fill:#dbdbdb"></path><path d="M188.91,164.09l38.17-.11c12.72,0,9.32,0,22,.11-12.72.09-9.32.06-22,.1Z" style="fill:#dbdbdb"></path><path d="M188.91,167.27l38.17-.1c12.72,0,9.32,0,22,.1-12.72.09-9.32.07-22,.11Z" style="fill:#dbdbdb"></path><path d="M188.91,170.46l38.17-.1c12.72,0,9.32,0,22,.1-12.72.09-9.32.07-22,.11Z" style="fill:#dbdbdb"></path><path d="M188.91,173.65l38.17-.1c12.72,0,9.32,0,22,.1-12.72.09-9.32.07-22,.11Z" style="fill:#dbdbdb"></path><path d="M188.91,176.84l38.17-.1c12.72,0,9.32,0,22,.1-12.72.09-9.32.07-22,.1Z" style="fill:#dbdbdb"></path><path d="M188.91,180l38.17-.1c12.72,0,9.32,0,22,.1-12.72.09-9.32.07-22,.1Z" style="fill:#dbdbdb"></path><path d="M188.91,183.22l38.17-.11c12.72,0,9.32,0,22,.11-12.72.09-9.32.06-22,.1Z" style="fill:#dbdbdb"></path><path d="M188.91,186.41l38.17-.11c12.72,0,9.32,0,22,.11-12.72.09-9.32.06-22,.1Z" style="fill:#dbdbdb"></path><path d="M188.91,189.6l38.17-.11c12.72,0,9.32,0,22,.11-12.72.08-9.32.06-22,.1Z" style="fill:#dbdbdb"></path><path d="M188.91,192.78l38.17-.1c12.72,0,9.32,0,22,.1-12.72.09-9.32.07-22,.11Z" style="fill:#dbdbdb"></path><path d="M188.91,196l38.17-.1c12.72,0,9.32,0,22,.1-12.72.09-9.32.07-22,.11Z" style="fill:#dbdbdb"></path><path d="M188.91,199.16l38.17-.1c12.72,0,9.32,0,22,.1-12.72.09-9.32.07-22,.1Z" style="fill:#dbdbdb"></path><rect x="196.98" y="176.84" width="5.79" height="26.04" style="fill:#FFC727"></rect><rect x="207.72" y="165.83" width="5.79" height="37.05" style="fill:#263238"></rect><rect x="218.46" y="173.76" width="5.79" height="29.12" style="fill:#dbdbdb"></rect><rect x="229.2" y="164.09" width="5.79" height="38.79" style="fill:#FFC727"></rect><rect x="239.93" y="169.29" width="5.79" height="33.59" style="fill:#263238"></rect><path d="M191,152.28l.16,12.65.11,12.65q.1,12.64.11,25.3l-.38-.39h18.57l18.56,0,18.57.13,2.44.23-2.44.23-18.57.12-18.56.05-18.57,0h-.37v-.38c0-8.43,0-16.87.11-25.3l.11-12.65Z" style="fill:#dbdbdb"></path><rect x="196.98" y="205.55" width="5.79" height="0.54" style="fill:#dbdbdb"></rect><rect x="207.72" y="205.55" width="5.79" height="0.54" style="fill:#dbdbdb"></rect><rect x="218.46" y="205.55" width="5.79" height="0.54" style="fill:#dbdbdb"></rect><rect x="229.2" y="205.55" width="5.79" height="0.54" style="fill:#dbdbdb"></rect><rect x="239.93" y="205.55" width="5.79" height="0.54" style="fill:#dbdbdb"></rect><polygon points="234.59 343.61 239.18 336.41 247.67 337.29 233.73 308.47 220.65 314.8 234.59 343.61" style="fill:#455a64"></polygon><polygon points="227.57 329.09 220.65 314.8 233.73 308.47 227.57 329.09" style="fill:#37474f"></polygon><polygon points="232.03 309.29 245.47 337.06 245.78 337.09 232.27 309.18 232.03 309.29" style="fill:#fff"></polygon><polygon points="222.1 314.1 235.61 342.01 235.78 341.75 222.35 313.98 222.1 314.1" style="fill:#fff"></polygon><polygon points="208.52 343.11 216.33 339.66 222.91 345.11 227.88 309.27 213.5 307.27 208.52 343.11" style="fill:#455a64"></polygon><polygon points="226.02 309.01 221.21 343.7 221.45 343.89 226.28 309.05 226.02 309.01" style="fill:#fff"></polygon><polygon points="215.1 307.5 210.26 342.34 210.55 342.22 215.36 307.53 215.1 307.5" style="fill:#fff"></polygon><path d="M221.72,280.87h0a1.28,1.28,0,0,0,2.26-.05h0a1.27,1.27,0,0,1,2.36.19h0a1.28,1.28,0,0,0,2.22.42h0a1.28,1.28,0,0,1,2.27.68h0a1.28,1.28,0,0,0,2.09.88h0a1.27,1.27,0,0,1,2.08,1.14h0a1.27,1.27,0,0,0,1.86,1.28h0a1.27,1.27,0,0,1,1.79,1.55h0a1.28,1.28,0,0,0,1.55,1.65h0a1.28,1.28,0,0,1,1.44,1.89h0a1.28,1.28,0,0,0,1.17,1.93h0a1.27,1.27,0,0,1,1,2.14h0a1.27,1.27,0,0,0,.75,2.13h0a1.28,1.28,0,0,1,.54,2.31h0a1.28,1.28,0,0,0,.29,2.24h0a1.28,1.28,0,0,1,0,2.38h0a1.28,1.28,0,0,0-.18,2.25h0a1.28,1.28,0,0,1-.44,2.33h0a1.28,1.28,0,0,0-.66,2.16h0a1.28,1.28,0,0,1-.91,2.19h0a1.28,1.28,0,0,0-1.09,2h0a1.28,1.28,0,0,1-1.35,1.95h0a1.27,1.27,0,0,0-1.47,1.71h0a1.28,1.28,0,0,1-1.73,1.63h0a1.28,1.28,0,0,0-1.8,1.37h0a1.28,1.28,0,0,1-2,1.23h0a1.27,1.27,0,0,0-2,1h0a1.28,1.28,0,0,1-2.24.79h0a1.28,1.28,0,0,0-2.2.51h0A1.28,1.28,0,0,1,225,325h0a1.28,1.28,0,0,0-2.26.05h0a1.28,1.28,0,0,1-2.36-.2h0a1.28,1.28,0,0,0-2.22-.42h0a1.28,1.28,0,0,1-2.27-.68h0a1.28,1.28,0,0,0-2.09-.88h0a1.27,1.27,0,0,1-2.08-1.14h0a1.27,1.27,0,0,0-1.86-1.28h0A1.27,1.27,0,0,1,208,318.9h0a1.28,1.28,0,0,0-1.55-1.65h0a1.27,1.27,0,0,1-1.44-1.88h0a1.28,1.28,0,0,0-1.17-1.94h0a1.27,1.27,0,0,1-1-2.14h0a1.27,1.27,0,0,0-.75-2.13h0a1.28,1.28,0,0,1-.54-2.31h0a1.28,1.28,0,0,0-.29-2.24h0a1.28,1.28,0,0,1-.05-2.37h0a1.28,1.28,0,0,0,.18-2.26h0a1.28,1.28,0,0,1,.44-2.33h0a1.27,1.27,0,0,0,.65-2.16h0a1.28,1.28,0,0,1,.92-2.19h0a1.28,1.28,0,0,0,1.09-2h0a1.28,1.28,0,0,1,1.35-1.95h0a1.27,1.27,0,0,0,1.47-1.71h0a1.28,1.28,0,0,1,1.73-1.63h0a1.28,1.28,0,0,0,1.8-1.37h0a1.28,1.28,0,0,1,2-1.23h0a1.27,1.27,0,0,0,2-1h0a1.28,1.28,0,0,1,2.24-.79h0a1.28,1.28,0,0,0,2.2-.51h0A1.27,1.27,0,0,1,221.72,280.87Z" style="fill:#FFC727"></path><circle cx="223.34" cy="302.93" r="19.79" transform="translate(-152.98 297.22) rotate(-52.73)" style="fill:#fff"></circle><path d="M225.67,321.19A18.41,18.41,0,1,1,241.6,300.6,18.43,18.43,0,0,1,225.67,321.19Zm-4.6-36.07a18,18,0,1,0,20.08,15.54A18,18,0,0,0,221.07,285.12Z" style="fill:#FFC727"></path><path d="M236.66,288.08a7.36,7.36,0,0,0-2.48-8.45c-2-1.5-5.18-2.66-7.22-3.77a30.34,30.34,0,0,1-5.16-3.75s-1.51,16.9,14,17.21l-7.88-8.83Z" style="fill:#37474f"></path><path d="M214.3,298.22A105,105,0,0,1,223,308.85l-2.63-.2a198,198,0,0,1,19.3-21.52c2.34-2.23,4.74-4.4,7.31-6.42-6.73,11-15.17,20.85-24.13,30.11l-1.61,1.64a112.61,112.61,0,0,1-6.91-14.24Z" style="fill:#455a64"></path><path d="M236.65,287.83A10,10,0,0,1,240,276.34c2.67-2,7-3.62,9.82-5.13a41.62,41.62,0,0,0,7-5.1s2.05,23-19.06,23.4l10.71-12Z" style="fill:#455a64"></path><rect x="143.01" y="89.18" width="68.22" height="25.71" style="fill:#c7c7c7"></rect><path d="M198,77.81H155.64l-1.88,11.37h46.71ZM177.11,86a2.5,2.5,0,1,1,2.5-2.49A2.49,2.49,0,0,1,177.11,86Z" style="fill:#c7c7c7"></path><polygon points="200.47 89.18 153.76 89.18 154.18 86.64 199.91 86.64 200.47 89.18" style="fill:#a6a6a6"></polygon></g><g id="freepik--World--inject-23"><path d="M332.13,112.27A52.9,52.9,0,0,1,322,143.51h0a53.15,53.15,0,1,1-43-84.39c1.46,0,2.9,0,4.33.17a53.12,53.12,0,0,1,48.81,53Z" style="fill:#FFC727"></path><g style="opacity:0.1"><path d="M290.47,137.36c-.67,1.78.44,1.86.52,2.6s0,2.16-2.16,4.32-5.73,1.71-6.48,2.6-2,4.69-3.79,6-2.09.52-4.62,1-4.46,3.8-5.21,5.36.15,4.17-1.64,4.24-2.6-3.79-4.24-5.88a13.82,13.82,0,0,1-2.68-6.4c-.52-2.46.3-7.59,0-9.6s-5.65-5.58-7.59-8-4.61-7.37-4.47-9a6.65,6.65,0,0,1,2.24-4.09c.89-.67.52-1,.67-1.64s.89-.74,1-1.49-.45-3-1.19-3.35-1.27.9-1.71.67-1.79-1.78-2.31-1.93-.37,1-1.12-.45-1.11-5-1.71-5.58-1,1-2.46,0-2-3-2.6-3.35-1.42.07-2-1.12.54-3.35,0-3.12-1.69,1.93-2,.3,1.49-7.15,1.19-10.13A11.85,11.85,0,0,1,239,80.64s.3-1.64.59-2.68,6.7-5.21,7.45-6.4a5.77,5.77,0,0,0,.52-2.12A52.92,52.92,0,0,1,279,59.13c1.46,0,2.9,0,4.33.17l.15.2a6.18,6.18,0,0,0,3.23,2c1.88.7,2.33,1.59,1.93,2.34a1.91,1.91,0,0,1-1.79.94c-.74,0-1.44-.35-2.23.15S283,68.13,282,68.28s-2.88-2.38-3.27-3.12.89-2.34.28-3.08-1.67-.6-3.36-.75-5.61.5-5.46,1.15,5.76-.1,5.91,1.19-4.12,3.47-4.87,3.27-1.73-1.49-2.83-1.64-2,.75-2.67.85-1.49-.75-2.54-.55-1.29,1.09-1.83,1.44-1.84.35-2,1.14,1.64,1.24,2.09,1.74-.55,2.18-.1,2.53,3.22-2.08,3.92-2.68,1.29-3.17,2.78-3.13,2,2.58,2.48,2.83,1.59-.59,3.22-.25,2.78,3.93,3.08,5,1,2.18.4,2.63-3.28-.3-3.62-1,1.78-1.73,1.63-2a2.11,2.11,0,0,0-2-.21c-.65.39-.94,1.2-1.64,1.4s-2.53-1.89-3-1.29.5,2.48,1,2.93,2.33.69,2.48,1.19-1.24,1.59-2.93,1.49S266,78,265.36,78.55s-.3,2-.75,2.49-2.87.14-4.07,1.43-1.73,3.23-2.92,4.32-1.74-.3-3.33,1.24-1.83,5-1.88,6.15,0,2.14-.4,2a3.3,3.3,0,0,1-1.09-1.84c-.15-.64.35-1.73.35-2.13s-2.29-2.43-3.63-2.63-2.53.89-3.52,1.69-2.78.64-3.42,1.29-1.15,6.35-.65,7.69,1.14,1.34,2.73.64.69-2,1.64-1.73a2.21,2.21,0,0,1,1.44,2.08c0,.8-1.89,2.68-1.64,3.23s1.88-.1,2.68.15,1.19.74.94,2.77-.1,3.63,1.09,4.3,1.86-1,2.38-.75,1.27,1.42,2,1.34.38-.74,1.79-1.19.89-.74,1.19-1.64a1.64,1.64,0,0,1,2.16-1.19c1,.45.3,1.12.37,1.86s1.79.82,3.13,1.27,2.08,0,4.76.89,2.83,3.57,3.95,4,4.84-.3,7.51,1.64,1.94,5.51,3.28,6.55,6.33,2.46,8.26,2.83,2.23-1,3.8-.6,2.45.82,3,3C297,131.59,291.14,135.57,290.47,137.36Z"></path><path d="M250.47,99.3c.05.42,1.29.59,2.78,1.43s2,3.33,2.83,3.28.54-1.19.84-1.49a1,1,0,0,0,0-1.59c-.79-.64-1.57-2-3-2.23s-1.7-.79-2.35-.74A1.12,1.12,0,0,0,250.47,99.3Z"></path><path d="M258.66,103.46c-.22.61,0,1.05,1.59,1.44s3.07-.39,2.58-.72-1.24-.17-.95-.72.2-1.34-1.09-1.19S258.86,102.92,258.66,103.46Z"></path><path d="M264.22,103.63c-.55.08-.85,1-.3,1.62s.54.5,1.19,0,1.64-.74,1.39-1.24S264.76,103.55,264.22,103.63Z"></path><path d="M268.53,105.66c.25-.74,1.49,0,2,.78a3.22,3.22,0,0,1,0,2.78c-.3.84-.5,1.84-1.19,1.44s.05-1.59-.05-2.28S268.33,106.27,268.53,105.66Z"></path><path d="M289.92,64.26c-.26.63.94.85,1.64,1.24s1.24.65,1.64,0a1.09,1.09,0,0,0-.7-1.53C292,63.82,290.17,63.67,289.92,64.26Z"></path><path d="M299.3,70.07c.46.48,1.24.4,1.79,1.09s.34,1.89,1,2.23,1.19,0,1.24-.49-1-1.74-.9-2,1.44.35,1.74,1.09-.3,1.79.4,2,.54-.7.84-.89.94-.1.9-.7a4.55,4.55,0,0,0-1.49-2.33,5.56,5.56,0,0,0-2.24-1.19,3.31,3.31,0,0,0-2.68.39C299.4,69.72,299,69.77,299.3,70.07Z"></path><path d="M320.77,79.42a.86.86,0,0,1-.28.52c-1,.75-2.29-1.83-3.72-2.33s-2.09-2.33-2.39-1.93-.2.94-.64,1.58-1.09.5-1.39,1.74,1.39,3.52,1,4.27-.89.49-1.69.45-.64.64-1.68.34-.15-1.59-1.79-3.12S306,79.1,306.35,78.4s-.15-1.68.59-1.78,1.34,1,1.84,1.29,1.14-.6,1.19-1.39-1.74-1.89-2.38-2.5-.7-2.86-.45-3.31,1-.29,1.19-1.39c.12-.64-.9-1.71-1.76-2.48A53.23,53.23,0,0,1,320.77,79.42Z"></path><path d="M328.18,123.91c.15-1.59-.65-1.69.15-4.62a8.56,8.56,0,0,0-1.44-6.7c-.6-.64-1.89-.44-2.93.2s-.3,1.14-1,1.39-1.39-.15-2-.1-1.24,1.69-2.63,1.64-2.28-2-3.32-3.45-3.18-2.31-3.87-4,.64-4.42.35-6.45-1.64-1.59-1.89-2.73.2-.6.55-1.69-.4-1.69.29-3.57,1.94-2.83,1.64-3.67-1.24-2.24-1.29-3.23.94-.94,2.83-2.33,2.38-1.29,3.82-.8a20.24,20.24,0,0,0,3.18.9c.84.15,2,2.33,2.33,2.23s.4-.74.55-1.69a2.15,2.15,0,0,1,.61-1.07A53.2,53.2,0,0,1,322,143.51C327.05,135.79,328,125.5,328.18,123.91Z"></path></g><path d="M320.16,145.88A53.15,53.15,0,1,1,279,59.13c1.46,0,2.9.06,4.33.17l1.19.11a48.7,48.7,0,1,0,35.65,86.47Z" style="fill:#fff;opacity:0.2"></path><path d="M332.13,112.27A52.84,52.84,0,0,1,322,143.51h0a53.31,53.31,0,0,1-19.09,16.23,53.75,53.75,0,0,0,16.77-15h0A53.47,53.47,0,0,0,321.77,85a51.87,51.87,0,0,0-3.34-4.74A53.35,53.35,0,0,0,280.77,60c-1.43-.11-2.89-.17-4.35-.17a53.24,53.24,0,0,0-12.84,1.55A53,53,0,0,1,279,59.13c1.46,0,2.9.06,4.33.17a53.16,53.16,0,0,1,37.45,20.12,51.85,51.85,0,0,1,3.31,4.72A52.81,52.81,0,0,1,332.13,112.27Z" style="opacity:0.1"></path></g><g id="freepik--Leaves--inject-23"><path d="M279,162.31s-2.74-12.63,9.33-18.95c5.24-2.75,13.33-4.16,18.59-6a73.48,73.48,0,0,0,13.75-6.75s-3.36,40.54-40.18,34.92c0,0,1-5.21,9.18-12.72,4.51-4.13,13.35-8.63,13.35-8.63C284.82,149.84,279,162.31,279,162.31Z" style="fill:#455a64"></path><path d="M279,162.31s2.75-12.63-9.33-18.95c-5.24-2.75-13.33-4.16-18.59-6a73.48,73.48,0,0,1-13.75-6.75s3.36,40.54,40.18,34.92c0,0-1-5.21-9.18-12.72-4.51-4.13-13.35-8.63-13.35-8.63C273.16,149.84,279,162.31,279,162.31Z" style="fill:#455a64"></path></g><g id="freepik--Floor--inject-23"><path d="M50.26,472.2c128-.62,271.52-.62,399.48,0-128,.61-271.52.61-399.48,0Z" style="fill:#263238"></path></g><g id="freepik--Character--inject-23"><path d="M311.68,472.73c2.52.79,76-.8,78.68-2.59,1-.66-5.26-70.27-5.26-70.27l-46.6.89,5.29,46.56s-27.11,12.85-29.85,15.13S309.16,472,311.68,472.73Z" style="fill: rgb(221, 106, 87);"></path><path d="M311.68,472.73c2.51.79,76-.8,78.68-2.59.33-.21.42-7.27-.74-16.48-13.33,2.24-60.89,9.54-64.6,7.36-2.58-1.52-.29-3.89,1.82-5.49-6.07,3-11.74,5.94-12.91,6.92C311.21,464.72,309.17,472,311.68,472.73Z" style="fill:#263238"></path><path d="M342.48,436.16l45.75-.64s-9.06-109.59-8.68-111.69c.48-2.7,32.94-130,32.94-130H368.83s-34.44,118.63-35.68,130.06C331.15,342.37,342.48,436.16,342.48,436.16Z" style="fill:#263238"></path><path d="M384.12,425.19c-2.7-.2-5.44-.16-8.14-.2s-5.43,0-8.15,0c-5.42.06-10.84.14-16.27.29-1.48,0-3,.09-4.45.16s-3.17.34-4.75.4a.1.1,0,0,0,0,.19c1.33,0,2.67.21,4,.25s2.77.05,4.15.05q4.08,0,8.14,0c5.42,0,10.85-.12,16.27-.34,3.07-.13,6.16-.17,9.21-.47A.14.14,0,0,0,384.12,425.19Z" style="fill:#37474f"></path><path d="M402.89,204.13c-3.91,13.83-7.48,27.79-11,41.74s-7,27.9-10.47,41.86q-2.6,10.47-5.2,20.94c-1.69,6.8-3.66,13.63-4.08,20.65s.49,14.34,1.09,21.44,1.2,14.29,1.83,21.43c1.25,14.29,2.45,28.6,4,42.86.2,1.78.39,3.57.57,5.35,0,.16.25.15.24,0-.95-14.3-1.93-28.59-3.07-42.88q-.87-10.72-1.75-21.43c-.59-7.13-1.42-14.29-1.64-21.44s1.09-14.13,2.83-21.1l5.13-20.49q5.25-20.94,10.46-41.87c3.87-15.63,7.75-31.29,11.17-47C403,204.08,402.91,204.05,402.89,204.13Z" style="fill:#37474f"></path><path d="M412.49,193.85s-13.92,54.61-23.67,93l-18.58-93Z" style="fill:#37474f"></path><path d="M366.56,472.9c2.51.79,76-.8,78.68-2.59,1-.66-2.81-70.31-2.81-70.31l-46,.89,2.22,46.6s-27.11,12.85-29.86,15.13S364,472.13,366.56,472.9Z" style="fill: rgb(221, 106, 87);"></path><path d="M366.56,472.9c2.51.79,76-.8,78.68-2.59.32-.21.25-7.09,0-16.49-13.32,2.24-61.63,9.55-65.33,7.37-2.58-1.52-.3-3.89,1.82-5.49-6.07,3-11.74,5.94-12.91,6.92C366.09,464.89,364,472.13,366.56,472.9Z" style="fill:#263238"></path><path d="M370.24,193.83s2.46,30.87,7.55,38.63a77.06,77.06,0,0,1,12.67,6.31s3.15,82.59,3.09,87.55c-.21,18.55,4.54,108.92,4.54,108.92l46.13-.44s-4.78-102.19-4.8-109c0-6.57-3.14-48-5.93-84,0,0,4.11-11.49,3.65-17.29-1.1-14.06-7.4-30.68-7.4-30.68Z" style="fill:#263238"></path><path d="M386.47,223.19c-.17-1.15-.35-2.31-.52-3.46-.33-2.12-.76-4.22-1.13-6.33-.84-4.79-1.72-9.59-2.78-14.33,0-.11-.22-.09-.21,0,.19,1.92.41,3.83.68,5.74s.46,3.82.73,5.72c.53,3.78,1.06,7.57,1.7,11.33.25,1.45,1.16,4.05-.93,4.5-1.65.36-2.87-1.27-3.35-2.63a32.73,32.73,0,0,1-1.11-5.22c-.34-1.9-.64-3.82-.91-5.74-.59-4.18-1.24-8.34-1.92-12.51,0-.12-.21-.08-.21,0a127.45,127.45,0,0,0,.93,12.8q.4,3,.91,6.08a21.9,21.9,0,0,0,1.4,5.67,4.59,4.59,0,0,0,3.46,2.77h.09a.16.16,0,0,0-.06.12c0,.67,0,1.36.08,2s.21,1.34.33,2a13.54,13.54,0,0,0,.52,2,9.11,9.11,0,0,0,.37.91,9.23,9.23,0,0,0,.54.84c.07.12.21,0,.22-.07h0c0-.11,0-.22,0-.33s0,0,0-.06h0a4,4,0,0,0,0-.59c-.05-.33-.13-.65-.2-1-.14-.64-.31-1.29-.49-1.92s-.31-1.28-.47-1.92-.39-1.3-.54-2a.43.43,0,0,0,0-.07,3,3,0,0,0,2.91-1.82A5.28,5.28,0,0,0,386.47,223.19Z" style="fill:#37474f"></path><path d="M394.19,239.78a35.73,35.73,0,0,0-4.34-2.86,41.43,41.43,0,0,0-5-2.57c-3.33-1.44-6.77-2.43-10.22-3.57-.1,0-.17.13-.07.17,3.34,1.33,6.54,3.09,9.76,4.67,1.58.78,3.19,1.51,4.8,2.23s3.23,1.55,4.9,2.16C394.19,240.05,394.29,239.86,394.19,239.78Z" style="fill:#37474f"></path><path d="M420.24,214c-2.35,0-10.47-.59-12.87-3.29a16.49,16.49,0,0,1-3-5.41,53.9,53.9,0,0,1-1.82-6.58c0-.11-.19-.07-.19,0a25.54,25.54,0,0,0,.95,7.47c.56,2.06,1.33,4.36,3,5.8a11.71,11.71,0,0,0,6.38,2.33,29.07,29.07,0,0,0,7.57-.1A.13.13,0,0,0,420.24,214Z" style="fill:#37474f"></path><path d="M364.72,214.63a7.91,7.91,0,0,0,3.11-1.88c1.77-2.67,2.2-11.16,2.35-13.4,0-.11.06-.07.06,0,0,2.51-.09,5.06-.29,7.47a26.66,26.66,0,0,1-.93,5.81c-.54,1.52-3.52,2.56-4.3,2.22C364.67,214.86,364.67,214.63,364.72,214.63Z" style="fill:#37474f"></path><path d="M442.18,425.86c-2.7-.19-5.44-.16-8.15-.19s-5.42-.05-8.14,0q-8.13.08-16.27.29c-1.48,0-3,.09-4.45.15s-3.17.35-4.75.41a.1.1,0,0,0,0,.19c1.33,0,2.67.21,4,.25s2.77.05,4.15.05c2.71,0,5.43,0,8.14,0,5.42,0,10.85-.12,16.27-.35,3.06-.12,6.16-.16,9.21-.47A.14.14,0,0,0,442.18,425.86Z" style="fill:#37474f"></path><path d="M436.55,419.86h0a.56.56,0,0,0,.53-.59L426.7,240.44c.13-.79,3.07-10.78,3.33-15.88.28-5.39-5.3-26.42-5.54-27.31a.57.57,0,0,0-.69-.4.57.57,0,0,0-.4.69c.06.22,5.77,21.74,5.5,27s-3.31,15.72-3.32,15.81,10.41,179,10.41,179A.56.56,0,0,0,436.55,419.86Z" style="fill:#37474f"></path><path d="M388.13,89.56c10.85,4.88,13.19,20.17,12.48,41.93-.11,3.31-28.1,9.06-41.63-1.15-2.18-1.64.92-28.26,6.29-35.93C371.93,84.9,381.42,86.54,388.13,89.56Z" style="fill:#263238"></path><path d="M388.43,89.78c5.67,2.89,9.32,8.63,11,14.65A92.21,92.21,0,0,1,401.64,118a53.51,53.51,0,0,1,.2,13.14.12.12,0,0,1-.24,0,113.07,113.07,0,0,0-2.55-24.52c-1.41-6.75-4.88-12.8-10.84-16.44C388,90.06,388.18,89.66,388.43,89.78Z" style="fill:#263238"></path><path d="M361.14,101.89c2-6.92,6.45-11.87,13.14-14.1,0,0,.06.06,0,.08C367.06,90.72,363,96.44,361.13,104c-2,8.25-2.83,16.63-3.52,25.07a.14.14,0,1,1-.28,0A106.13,106.13,0,0,1,361.14,101.89Z" style="fill:#263238"></path><path d="M384.14,142.94c-3.2,23.59-9.11,47.15-13,50.85-6,5.74-39.27,13.86-50,14.39-3.52.18-6.59-23.62-3.75-26.1S356,173.41,358,172.21c1.05-.64,9.75-18.79,16.44-30.94C380.61,130,385.11,135.78,384.14,142.94Z" style="fill: rgb(221, 106, 87);"></path><path d="M333.28,207.53l-4.28-30s25.32-5.72,28.37-6.68c1.29-.41,12.16-22.83,17.39-32.44,3.44-6.31,10.51-8.36,10.18,5.53-.19,8.14-6.73,46.37-13.07,51.64C366.83,199.74,333.28,207.53,333.28,207.53Z" style="fill:#FFC727"></path><path d="M338.63,204.74c0-2.19-1.33-11.15-1.7-13.37s-2.13-11.12-2.51-13.4c0-.13-.2-.13-.19,0,.34,2.27,1.41,11.31,1.76,13.54s1.81,11.15,2.52,13.26A.06.06,0,0,0,338.63,204.74Z" style="fill:#263238"></path><path d="M384.92,141.61c0,.34,0,.7,0,1.07s0,.81,0,1.22c0,1.4-.25,3.68-.63,6.55-.06.52-.14,1.05-.22,1.61,0,.33-.09.68-.15,1-.1.74-.22,1.5-.34,2.29,0,.13-.05.26-.07.41-.13.85-.27,1.74-.43,2.63-.11.65-.22,1.31-.34,2s-.23,1.34-.37,2c-.06.34-.12.69-.19,1-.71,3.78-1.53,7.72-2.44,11.52-.24,1-.5,2.05-.76,3.05-.17.67-.35,1.33-.53,2s-.34,1.3-.53,1.92c-1.89,6.6-4,11.88-6.07,13.61-3.41,2.85-19.9,7.34-30.18,9.94l37.65-71.7a4,4,0,0,1,.45-.15,3,3,0,0,1,2.65.46,4,4,0,0,1,.91,1,6.79,6.79,0,0,1,.52,1,9.63,9.63,0,0,1,.43,1.19A19.2,19.2,0,0,1,384.92,141.61Z" style="fill:#020100;opacity:0.1"></path><path d="M366.76,182.4l-2,18s2.46-.11,10.59-.56l1.92-6.58,3.77,6.36,51.41-4-7.87-14.12c-6.21-13.66-14.06-34.28-24.4-44.13-8.22-7.83-17.18-6.62-22.54-.42-1.36,1.57-14.58,23.74-15.83,32.61C360.68,177.37,366.76,182.4,366.76,182.4Z" style="fill:#FFC727"></path><g style="opacity:0.1"><path d="M379.87,179.67a24.57,24.57,0,0,0-6,.87c-1,.3-2,.67-3,1.08-.5.21-1,.38-1.49.56a4,4,0,0,1-1.56.28c-.05,0-.06.12,0,.13a6.27,6.27,0,0,0,1.43.16,6.1,6.1,0,0,0,1.43-.27c1-.28,2-.65,3-.95a53.72,53.72,0,0,1,6.14-1.57C379.94,179.94,380,179.67,379.87,179.67Z" style="fill:#020100"></path><path d="M389.19,181.78a59.43,59.43,0,0,0-7.66-.34,37.53,37.53,0,0,0-3.83.3c-.61.07-1.21.15-1.82.25s-1.32.31-2,.4c-.07,0-.07.13,0,.13.63-.07,1.28,0,1.91,0l1.92-.08c1.27,0,2.55-.08,3.82-.14,2.56-.12,5.1-.22,7.66-.24C389.34,182,389.32,181.79,389.19,181.78Z" style="fill:#020100"></path></g><path d="M381.17,142.18c-2.64,6.42-5.19,12.89-7.39,19.46-2.48,7.46-4.33,13.13,3.49,18l.12.07c0,2.28,0,4.56,0,6.84s-.08,4.47-.13,6.7c-.07-2.23-.16-4.47-.2-6.7s-.09-4.47-.1-6.71l.12.2c-8.1-5-6.32-10.88-3.69-18.57,2.25-6.58,5-13,7.81-19.33Z" style="fill:#263238"></path><path d="M377.6,152.57a.84.84,0,1,0,1.68,0,.84.84,0,1,0-1.68,0Z" style="fill:#263238"></path><path d="M375.4,162.08a.84.84,0,1,0,.83-.84A.83.83,0,0,0,375.4,162.08Z" style="fill:#263238"></path><path d="M373.44,170.79a.85.85,0,1,0,.84-.85A.85.85,0,0,0,373.44,170.79Z" style="fill:#263238"></path><path d="M378.8,178.58a.84.84,0,1,0,.83-.85A.84.84,0,0,0,378.8,178.58Z" style="fill:#263238"></path><path d="M379.2,187.25a.84.84,0,1,0,.84-.85A.85.85,0,0,0,379.2,187.25Z" style="fill:#263238"></path><path d="M390.43,134.37c-.13,1.16-4.63,9.16-9.83,9.55-1.69.13-2.78-9.09-2.78-9.09l-.24-.66-3.29-9.26,10.31-8.55,1.5-1.15s.73,2.6,1.62,5.84l.12.46c.06.18.11.35.15.52.14.48.28,1,.41,1.47s.19.74.28,1.14l.29,1.18A63.9,63.9,0,0,1,390.43,134.37Z" style="fill: rgb(221, 106, 87);"></path><path d="M387.72,121.05a19.76,19.76,0,0,1-10.14,13.12l-3.29-9.26,10.31-8.55,1.5-1.15S386.83,117.81,387.72,121.05Z" style="fill:#263238"></path><path d="M361.05,107c-3.87,16.82,5.76,21,9.39,21.87,3.3.75,14.6,2.9,20.19-13.42s-1-23.45-8.44-25.57S364.93,90.14,361.05,107Z" style="fill: rgb(221, 106, 87);"></path><path d="M364,106.1a11.71,11.71,0,0,0,1.19-.06,1.92,1.92,0,0,0,1.2-.29.61.61,0,0,0,.12-.74,1.52,1.52,0,0,0-1.43-.59,2.28,2.28,0,0,0-1.51.56A.66.66,0,0,0,364,106.1Z" style="fill:#263238"></path><path d="M375.46,107.48c-.39-.11-.74-.28-1.11-.42a2,2,0,0,1-1.06-.65.62.62,0,0,1,.12-.74,1.52,1.52,0,0,1,1.54-.12,2.2,2.2,0,0,1,1.26,1A.65.65,0,0,1,375.46,107.48Z" style="fill:#263238"></path><path d="M366.05,109.29c0-.05-.1,0-.11.09-.12,1.17-.45,2.49-1.56,2.73,0,0,0,.07,0,.07C365.7,112.17,366.12,110.41,366.05,109.29Z" style="fill:#263238"></path><path d="M365.17,107.93c-1.86-.39-2.51,3.35-.79,3.71S366.72,108.26,365.17,107.93Z" style="fill:#263238"></path><path d="M364.35,108c-.33.15-.69.46-1.05.42s-.64-.5-.83-.93c0,0-.06,0-.07,0-.14.71,0,1.49.63,1.75s1.17-.3,1.46-1C364.54,108.2,364.48,108,364.35,108Z" style="fill:#263238"></path><path d="M371.08,120.2c-.31.24-.63.59-1.05.59a3.05,3.05,0,0,1-1.23-.42s-.08,0-.06.06a1.58,1.58,0,0,0,1.42.78,1.25,1.25,0,0,0,1-.95C371.21,120.19,371.12,120.16,371.08,120.2Z" style="fill:#263238"></path><path d="M366.87,115.25s-.51,1.7-.64,2.52c0,.07.18.14.46.2h0a3.94,3.94,0,0,0,4-.88.08.08,0,0,0-.1-.13,5.88,5.88,0,0,1-3.71.47c0-.23,1-2.88.84-2.9a7.26,7.26,0,0,0-1.93.13c.95-3.57,2.47-7,3.37-10.52a.11.11,0,0,0-.21-.08,59,59,0,0,0-4.1,11.17C364.74,115.7,366.52,115.34,366.87,115.25Z" style="fill:#263238"></path><path d="M366.82,117.68a4.83,4.83,0,0,0,1.55,1.85,2.16,2.16,0,0,0,1.26.35c1,0,1.17-.88,1.16-1.64a5.33,5.33,0,0,0-.17-1.2A6.18,6.18,0,0,1,366.82,117.68Z" style="fill:#263238"></path><path d="M368.37,119.53a2.16,2.16,0,0,0,1.26.35c1,0,1.17-.88,1.16-1.64A2.22,2.22,0,0,0,368.37,119.53Z" style="fill:#ff9abb"></path><path d="M376.06,110.76a3.45,3.45,0,0,0-2-.35,2.91,2.91,0,0,0-1,.33,2.39,2.39,0,0,0-.81.77l-.38.56h.68a7.19,7.19,0,0,1,1.45.14,2.94,2.94,0,0,1,1.35.61,2.18,2.18,0,0,0-1.19-1.12,4.24,4.24,0,0,0-1.63-.34l.31.56a2.43,2.43,0,0,1,1.36-.91A7.82,7.82,0,0,1,376.06,110.76Z" style="fill:#263238"></path><path d="M373.88,113.27a6.22,6.22,0,0,1-1.42-.69c-.1-.07-.48-.41-.45-.5a2.94,2.94,0,0,1,.33-.7,2,2,0,0,0-.48.67,1,1,0,0,0,.47.73A3.1,3.1,0,0,0,373.88,113.27Z" style="fill:#263238"></path><path d="M390.5,116.34a7.16,7.16,0,0,1-3.53-6.11,18.4,18.4,0,0,1-7.08-6.68c.08.37.72,3,1.08,4.33-10.79-2.9-13.52-11.54-13.52-11.54a18.87,18.87,0,0,0-5.31,6.56s.44-6.72,4.25-11a10.88,10.88,0,0,1,10.34-3.68,15.54,15.54,0,0,1,14.75,5.84C398,102.41,390.5,116.34,390.5,116.34Z" style="fill:#263238"></path><path d="M372.79,105.42a20.29,20.29,0,0,0,5.46,2.5s0,0,0,0a17.23,17.23,0,0,1-7.65-5.49,16.56,16.56,0,0,1-2.11-3.49,11.28,11.28,0,0,1-1.12-4.29.09.09,0,0,0-.17,0,13,13,0,0,0,.53,4.39,12,12,0,0,0,2.15,3.81,13.82,13.82,0,0,0,2.91,2.59" style="fill:#263238"></path><path d="M372.84,117.18a5.46,5.46,0,0,1-3.21-7h0a5.46,5.46,0,1,1,4.53,7.33A5.19,5.19,0,0,1,372.84,117.18Zm-2.52-6.76a4.73,4.73,0,1,0,4.93-3A4.73,4.73,0,0,0,370.32,110.42Z" style="fill:#FFC727"></path><path d="M361.88,114.64c-2.21-.4-3.57-3.12-3-6.08a6.52,6.52,0,0,1,1.8-3.56,3.4,3.4,0,0,1,5.72,1,6.49,6.49,0,0,1,.47,4c-.5,2.8-2.51,4.82-4.6,4.7Zm-.74-9.11a5.82,5.82,0,0,0-1.59,3.15c-.45,2.57.65,4.92,2.45,5.24s3.66-1.5,4.11-4.07a5.79,5.79,0,0,0-.4-3.51,2.91,2.91,0,0,0-2-1.72l-.27,0A3.06,3.06,0,0,0,361.14,105.53Z" style="fill:#FFC727"></path><path d="M369.67,110.82l.58-.44c-.65-.86-2.3-2.2-3.92-1.1l.41.6C368.18,108.9,369.61,110.75,369.67,110.82Z" style="fill:#FFC727"></path><path d="M393.05,117.61l.71-.19c-.09-.33-.88-3.23-2.41-3.85s-11.16-1.86-11.57-1.92l-.1.73c2.79.36,10.3,1.42,11.4,1.86S392.84,116.81,393.05,117.61Z" style="fill:#FFC727"></path><path d="M387.66,116.08s4.49-4.81,6.72-3.14-1.66,9-4.65,9.67a2.93,2.93,0,0,1-3.66-2.1Z" style="fill: rgb(221, 106, 87);"></path><path d="M393.21,115c.05,0,.05.07,0,.08-2.1.52-3.41,2.22-4.41,4a1.59,1.59,0,0,1,2.44-.1c.05,0,0,.11-.07.09a1.78,1.78,0,0,0-2,.35,9.58,9.58,0,0,0-1.16,1.45c-.12.17-.43,0-.33-.17,0,0,0,0,0,0C388,118.17,390.45,114.89,393.21,115Z" style="fill:#263238"></path><path d="M377.55,134.21l3.42,7.71,9.37-10.25,2.86,3.08s-8.95,16.07-9,15.36l-3.47-6.63-4.48,4.86,0-11.8Z" style="fill:#ebebeb"></path><path d="M375.87,142.51c.06-1.95.06-3.91.21-5.85,0-.07.11-.11.13,0,.46,1.87.19,9.31.26,11.09l0,0c.19-.21,4.17-4.28,4.21-4.22.74,1,3.28,5.87,3.46,6.31,1.41-2.55,7.45-12.62,9.14-15,.05-.07.16,0,.12.06-1.23,2.69-9,16-9.14,15.95a78.3,78.3,0,0,1-3.62-7c-.67.88-4.67,5.45-4.69,5.17A59.43,59.43,0,0,1,375.87,142.51Z" style="fill:#263238"></path><path d="M403.72,144c9.28,17.21,19.72,46.49,16.79,52-7.36,13.69-24.71,28-32.77,32.66-4.7,2.73-20.35-21.38-16.29-24,6.4-4.16,23.24-18.49,25.26-20.43,1.08-1-2.16-21.72-3-35.41C392.7,133.82,399.19,135.56,403.72,144Z" style="fill: rgb(221, 106, 87);"></path><path d="M359.65,218.27c1-1.59.17-2.12-3-1s-14.6,8.2-16.73,4,14.18-14,19.55-15.43,14.56-2,14.56-2C371.26,206.42,365.07,213.22,359.65,218.27Z" style="fill: rgb(221, 106, 87);"></path><rect x="331.73" y="159.74" width="10.97" height="68.93" transform="translate(722.86 142.19) rotate(142.38)" style="fill:#c7c7c7"></rect><polygon points="369.21 249.31 382.35 239.19 382.35 239.19 355.06 203.78 355.06 203.78 341.93 213.91 341.93 213.91 369.21 249.31" style="fill:#263238"></polygon><g style="opacity:0.2"><path d="M263,170a59.92,59.92,0,1,1,45.47-5.57A59.93,59.93,0,0,1,263,170Z" style="fill:#fff"></path></g><path d="M260.26,179.69A70,70,0,1,1,346.41,131,70.05,70.05,0,0,1,260.26,179.69ZM262.4,172a62,62,0,1,0-43.09-76.28A62,62,0,0,0,262.4,172Z" style="fill:#37474f"></path><path d="M342.18,101.78a64.59,64.59,0,0,0-7.45-21,63.67,63.67,0,1,0,7.45,21Zm-5.51,26.53a59.93,59.93,0,1,1-5.57-45.47A59.93,59.93,0,0,1,336.67,128.31Zm5.51-26.53a64.59,64.59,0,0,0-7.45-21,63.67,63.67,0,1,0,7.45,21Zm-5.51,26.53a59.93,59.93,0,1,1-5.57-45.47A59.93,59.93,0,0,1,336.67,128.31Zm13.42-27.84a72,72,0,1,0-1.67,31.1A71.92,71.92,0,0,0,350.09,100.47Zm-5.68,30a67.91,67.91,0,1,1,1.56-29.3A67.5,67.5,0,0,1,344.41,130.46Zm-9.68-49.67a63.67,63.67,0,1,0,7.45,21A64.59,64.59,0,0,0,334.73,80.79Zm1.94,47.52a59.93,59.93,0,1,1-5.57-45.47A59.93,59.93,0,0,1,336.67,128.31Z" style="fill:#37474f"></path><path d="M234.66,134.29A46.11,46.11,0,0,1,229.53,116a49.06,49.06,0,0,1,.22-9.76A51.86,51.86,0,0,1,232,96.58a47.82,47.82,0,0,1,10.18-16.92,53,53,0,0,1,15.67-11.57,94.63,94.63,0,0,0-13.23,13.58,58.47,58.47,0,0,0-5,7.76,48.39,48.39,0,0,0-3.69,8.38,59.16,59.16,0,0,0-3.12,18A77.58,77.58,0,0,0,234.66,134.29Z" style="fill:#fff"></path><path d="M326,105.7a46.06,46.06,0,0,1-.07,19,48.59,48.59,0,0,1-2.88,9.33,51.77,51.77,0,0,1-4.75,8.66,47.88,47.88,0,0,1-14.42,13.5,53,53,0,0,1-18.24,6.84,94.64,94.64,0,0,0,16.44-9.45,58,58,0,0,0,7-6.09,48,48,0,0,0,5.84-7.05A59,59,0,0,0,322.83,124,77,77,0,0,0,326,105.7Z" style="fill:#fff"></path><path d="M390.37,226.39c-8.13,6.86-17.84,15.89-29.68,17.91a6,6,0,0,1-3.85-.54c-5.29,1-7.35-1.2-7.35-1.2-5.21-.58-7-3.12-7-3.12s-6.22,1.1-7.51-2.55c-1.46-4.09,7.56-4.84,12.27-8.28,10.8-7.9,23.93-22.14,26.82-24.73Z" style="fill: rgb(221, 106, 87);"></path><path d="M364.37,228.28a85.73,85.73,0,0,1-9.84,6.38,87,87,0,0,1-12,4.65.1.1,0,0,0,.05.2,45.58,45.58,0,0,0,21.88-11.08C364.62,228.3,364.53,228.17,364.37,228.28Z" style="fill:#263238"></path><path d="M370.08,234.1c-3.25,2-9,5.55-20.62,8.33,0,0,0,.08,0,.07a40.82,40.82,0,0,0,20.71-8.24C370.37,234.11,370.3,234,370.08,234.1Z" style="fill:#263238"></path><path d="M373.09,237.29c-5.67,3.23-9.65,4.55-16.23,6.43,0,0,0,.08,0,.07,7.71-1.35,10.35-2.71,16.36-6.32C373.44,237.34,373.32,237.16,373.09,237.29Z" style="fill:#263238"></path><path d="M393.88,229.89,373.24,201l22.12-17.32c-1.35-11.21-4.05-33.62-3.82-41.51.28-9.25,6.72-9.67,11.72-1.67,11.45,18.28,22.55,51.43,21.68,56.75C423.7,204.92,393.88,229.89,393.88,229.89Z" style="fill:#FFC727"></path><path d="M396,223c-.94-2-6.15-9.57-7.47-11.44s-6.86-9.19-8.22-11.11c-.07-.1-.24,0-.17.08,1.32,1.92,6.29,9.68,7.59,11.57s6.59,9.36,8.17,11C396,223.07,396.06,223,396,223Z" style="fill:#263238"></path><path d="M405.58,219.58c6.53-6.39,13.61-12.58,18.39-20.43,1.28-2.24.46-4.77,0-7.14q-.57-2.43-1.31-4.82c-4-12.78-9.3-25.12-14.3-37.55a292.93,292.93,0,0,1,12,27.72,115.21,115.21,0,0,1,4.42,14.48c.42,2.43,1.1,5.31-.27,7.58-4.9,7.86-12.18,14-18.92,20.16Z" style="fill:#263238"></path><path d="M410.58,154.47a30.67,30.67,0,0,1-.84-3.4,7.66,7.66,0,0,1,.84,3.4Z" style="fill:#263238"></path><path d="M392.59,157c1,7.54,2.25,16.29,3,23.87.09,1,.2,1.89.21,2.88a.75.75,0,0,1-.19.46c-5.11,4.56-11.28,8.78-16.78,12.88l-5.62,4V201l.5.82-.58-.76,0,0,0,0,5.38-4.29c5.26-4.25,11.35-8.66,16.33-13.11h0a.19.19,0,0,0,0,.13c0-.33,0-.67-.07-1-.75-8.38-2-17.27-2.22-25.67Z" style="fill:#263238"></path><path d="M391.88,158.48c.51,1.19.78,2.5,1.2,3.71a8.92,8.92,0,0,1-1.2-3.71Z" style="fill:#263238"></path><path d="M341.17,200.59c.11-3.65-4.25-1.69-4.25-1.69s5.6-4.34,4.25-8.14-6.49-1.11-6.86-.94c.29-.23,5.34-4.35,3.59-8s-6.58-.37-6.89-.15c.21-.3,2.91-4.4.95-6.9-3.37-4.29-12.06,6.76-16.44,7.35l-5.83-5.81a11,11,0,0,1,.18,6.22c-.68,3-1.16,5-.7,6.82a4,4,0,0,0,3.59,3.15s-2.61,2.85-1.33,5.8c.66,1.51,3.67,1.79,3.67,1.79s-2,2.38-.7,4.93c1,2,3.89,2,3.89,2s-.86,3.17.87,4.9C322.65,215.42,340.93,208.4,341.17,200.59Z" style="fill: rgb(221, 106, 87);"></path><path d="M314,181l-4.19-4.55c-.19-.13-.39-.27-.58-.38-6.72-4.18-16.28-.83-12.52,3.43,2.84,3.24,10.09,2.13,12.52,5.88h0Z" style="fill: rgb(221, 106, 87);"></path><path d="M318.74,207.06a.05.05,0,0,0,0,.1,34,34,0,0,0,18.4-8.34c.16-.15,0-.48-.22-.35A69.28,69.28,0,0,1,318.74,207.06Z" style="fill:#263238"></path><path d="M315,200.14c-.07,0,0,.14,0,.13,6.77-.9,14.53-4.43,19.51-10.35.18-.21.12-.56-.09-.34C330.87,193.27,321.1,198.38,315,200.14Z" style="fill:#263238"></path><path d="M331.22,181.11c-5,5.49-11.26,8.83-18.18,11.34-.09,0,0,.15,0,.15,3.72-.31,8-2.36,11.13-4.24a19.53,19.53,0,0,0,7.19-7.08C331.48,181.17,331.33,181,331.22,181.11Z" style="fill:#263238"></path></g><g id="freepik--speech-bubble--inject-23"><path d="M447.28,72.37A23,23,0,0,1,410.64,90.8l-11.25,2.87,4.68-10.47a23,23,0,1,1,43.21-10.83Z" style="fill:#fff"></path><path d="M447.28,72.37c.16,13.28-11.75,24.25-25,23.11a23.29,23.29,0,0,1-11.9-4.39l.3.06L399.5,94.1l-.88.23.37-.84L403.63,83l0,.43c-5.3-9.42-2.73-22.15,5.64-28.9,15.07-12.44,38-1.69,38,17.84Zm0,0c.06-14.67-14.29-25.87-28.48-22-14,3.48-21.23,19.92-14.31,32.58l.12.21-.1.22-4.72,10.45-.51-.6,11.27-2.79.17,0,.13.11A22.58,22.58,0,0,0,422.36,95a22.87,22.87,0,0,0,24.92-22.64Z" style="fill:#263238"></path><polygon points="420.6 86.03 410.31 75.61 413.76 72.2 419.77 78.28 432.26 58.71 436.36 61.32 420.6 86.03" style="fill:#FFC727"></polygon></g></svg>