<svg xmlns="http://www.w3.org/2000/svg" viewBox="0 0 500 500"><g id="freepik--background-complete--inject-213"><polygon points="452.3 390.7 450.69 390.7 450.69 389.63 451.23 389.63 451.23 389.09 452.3 389.09 452.3 390.7" style="fill:#ebebeb"></polygon><path d="M448.52,390.7h-2.18v-1.07h2.18Zm-4.35,0H442v-1.07h2.17Zm-4.35,0h-2.17v-1.07h2.17Zm-4.34,0H433.3v-1.07h2.18Zm-4.35,0H429v-1.07h2.17Zm-4.35,0h-2.17v-1.07h2.17Zm-4.34,0h-2.18v-1.07h2.18Zm-4.35,0h-2.17v-1.07h2.17Zm-4.34,0h-2.18v-1.07h2.18Zm-4.35,0h-2.17v-1.07h2.17Zm-4.35,0h-2.17v-1.07h2.17Zm-4.34,0h-2.18v-1.07h2.18Zm-4.35,0h-2.17v-1.07h2.17Z" style="fill:#ebebeb"></path><polygon points="392.01 390.7 390.4 390.7 390.4 389.09 391.48 389.09 391.48 389.63 392.01 389.63 392.01 390.7" style="fill:#ebebeb"></polygon><path d="M391.48,386.92H390.4v-2.18h1.08Zm0-4.35H390.4V380.4h1.08Zm0-4.34H390.4v-2.18h1.08Zm0-4.35H390.4v-2.17h1.08Zm0-4.35H390.4v-2.17h1.08Zm0-4.34H390.4V363h1.08Zm0-4.35H390.4v-2.17h1.08Zm0-4.35H390.4v-2.17h1.08Zm0-4.34H390.4V350h1.08Zm0-4.35H390.4v-2.17h1.08Zm0-4.34H390.4v-2.18h1.08Zm0-4.35H390.4v-2.17h1.08Zm0-4.35H390.4v-2.17h1.08Z" style="fill:#ebebeb"></path><polygon points="391.48 330.42 390.4 330.42 390.4 328.81 392.01 328.81 392.01 329.88 391.48 329.88 391.48 330.42" style="fill:#ebebeb"></polygon><path d="M448.52,329.88h-2.18v-1.07h2.18Zm-4.35,0H442v-1.07h2.17Zm-4.35,0h-2.17v-1.07h2.17Zm-4.34,0H433.3v-1.07h2.18Zm-4.35,0H429v-1.07h2.17Zm-4.35,0h-2.17v-1.07h2.17Zm-4.34,0h-2.18v-1.07h2.18Zm-4.35,0h-2.17v-1.07h2.17Zm-4.34,0h-2.18v-1.07h2.18Zm-4.35,0h-2.17v-1.07h2.17Zm-4.35,0h-2.17v-1.07h2.17Zm-4.34,0h-2.18v-1.07h2.18Zm-4.35,0h-2.17v-1.07h2.17Z" style="fill:#ebebeb"></path><polygon points="452.3 330.42 451.23 330.42 451.23 329.88 450.69 329.88 450.69 328.81 452.3 328.81 452.3 330.42" style="fill:#ebebeb"></polygon><path d="M452.3,386.92h-1.07v-2.18h1.07Zm0-4.35h-1.07V380.4h1.07Zm0-4.34h-1.07v-2.18h1.07Zm0-4.35h-1.07v-2.17h1.07Zm0-4.35h-1.07v-2.17h1.07Zm0-4.34h-1.07V363h1.07Zm0-4.35h-1.07v-2.17h1.07Zm0-4.35h-1.07v-2.17h1.07Zm0-4.34h-1.07V350h1.07Zm0-4.35h-1.07v-2.17h1.07Zm0-4.34h-1.07v-2.18h1.07Zm0-4.35h-1.07v-2.17h1.07Zm0-4.35h-1.07v-2.17h1.07Z" style="fill:#ebebeb"></path><rect x="387.15" y="386.38" width="7.58" height="7.58" style="fill:#ebebeb"></rect><path d="M395.27,394.49h-8.66v-8.65h8.66Zm-7.58-1.07h6.5v-6.51h-6.5Z" style="fill:#ebebeb"></path><rect x="387.15" y="355.96" width="7.58" height="7.58" style="fill:#ebebeb"></rect><path d="M395.27,364.08h-8.66v-8.65h8.66ZM387.69,363h6.5V356.5h-6.5Z" style="fill:#ebebeb"></path><rect x="387.15" y="325.55" width="7.58" height="7.58" style="fill:#ebebeb"></rect><path d="M395.27,333.67h-8.66V325h8.66Zm-7.58-1.07h6.5v-6.51h-6.5Z" style="fill:#ebebeb"></path><rect x="447.97" y="386.38" width="7.58" height="7.58" style="fill:#ebebeb"></rect><path d="M456.09,394.49h-8.65v-8.65h8.65Zm-7.58-1.07H455v-6.51h-6.5Z" style="fill:#ebebeb"></path><rect x="447.97" y="355.96" width="7.58" height="7.58" style="fill:#ebebeb"></rect><path d="M456.09,364.08h-8.65v-8.65h8.65ZM448.51,363H455V356.5h-6.5Z" style="fill:#ebebeb"></path><rect x="447.97" y="325.55" width="7.58" height="7.58" style="fill:#ebebeb"></rect><path d="M456.09,333.67h-8.65V325h8.65Zm-7.58-1.07H455v-6.51h-6.5Z" style="fill:#ebebeb"></path><rect x="417.56" y="325.55" width="7.58" height="7.58" style="fill:#ebebeb"></rect><path d="M425.68,333.67H417V325h8.66Zm-7.58-1.07h6.5v-6.51h-6.5Z" style="fill:#ebebeb"></path><rect x="417.56" y="386.38" width="7.58" height="7.58" style="fill:#ebebeb"></rect><path d="M425.68,394.49H417v-8.65h8.66Zm-7.58-1.07h6.5v-6.51h-6.5Z" style="fill:#ebebeb"></path><path d="M422.09,367H410l-4.72,13.24h4.6v1.16h-9.38v-1.16h2.88L419,338.12h5l15.44,42.11h2.82v1.16h-20v-1.16h4.35Zm-11.59-1.35h11.1l-5.34-16.06Z" style="fill:#ebebeb"></path><path d="M102.14,46.73H65.64V31.9h36.5ZM68.87,43.5H98.92V35.12h-30Z" style="fill:#ebebeb"></path><path d="M80.41,73H43.91V58.18h36.5ZM47.14,69.78H77.19V61.4h-30Z" style="fill:#ebebeb"></path><path d="M102.14,99.29H65.64V84.46h36.5ZM68.87,96.07H98.92V87.68h-30Z" style="fill:#ebebeb"></path><path d="M123.59,73H87.09V58.18h36.5ZM90.32,69.78h30.05V61.4H90.32Z" style="fill:#ebebeb"></path><polygon points="63.24 59.79 61.09 59.79 61.09 50.44 82.81 50.44 82.81 45.12 84.97 45.12 84.97 52.59 63.24 52.59 63.24 59.79" style="fill:#ebebeb"></polygon><polygon points="106.69 59.79 104.54 59.79 104.54 52.59 82.81 52.59 82.81 45.12 84.97 45.12 84.97 50.44 106.69 50.44 106.69 59.79" style="fill:#ebebeb"></polygon><polygon points="84.97 86.07 82.81 86.07 82.81 78.87 61.09 78.87 61.09 71.4 63.24 71.4 63.24 76.72 84.97 76.72 84.97 86.07" style="fill:#ebebeb"></polygon></g><g id="freepik--Floor--inject-213"><polygon points="45.95 478.55 96.96 478.31 147.97 478.22 250 478.05 352.03 478.22 403.04 478.31 454.05 478.55 403.04 478.8 352.03 478.88 250 479.05 147.97 478.88 96.96 478.79 45.95 478.55" style="fill:#263238"></polygon></g><g id="freepik--Plant--inject-213"><path d="M353.73,353.38a101.63,101.63,0,0,0-2.36-16.65c-1.17-4.92-2.84-10-5.95-14-2.83-3.72-6.91-6.68-11.65-7.26-4.56-.56-8.85,1.47-12.26,4.35-4.23,3.56-7.47,8.28-10.51,12.85a155.06,155.06,0,0,0-9.08,15.89.15.15,0,0,0,.27.15,99.2,99.2,0,0,1,8.12-13.29,82.58,82.58,0,0,1,9.35-11.32c3.13-3.06,7.11-5.92,11.65-6.07s8.69,2.39,11.41,5.88c3,3.89,4.59,8.75,5.74,13.48a99.67,99.67,0,0,1,2.34,15.85c.9,11,1.14,22,1.39,33,.14,6.22.22,12.44.28,18.66,0,3.15,0,6.31.07,9.46a59,59,0,0,0,.37,9.12c.1.61,1.1.55,1.21,0a54.14,54.14,0,0,0,.41-8.64q.06-4.49.11-9c.05-5.81.08-11.62.06-17.43C354.67,376.71,354.53,365,353.73,353.38Z" style="fill:#263238"></path><path d="M318,324.6c-1,.4.36-11.29-4.24-12.78-6.51-2.11-21.43,1.71-29.7,12.78a24.73,24.73,0,0,0-3.6,7.45c4.11-2,17.68-8.27,21.09-6.35,3.09,1.76-16.36,7.86-22.34,11.78a42.69,42.69,0,0,0-.54,4.9c3.5-2.41,13-8.66,17.3-8.66,4.74,0-11,8.31-17.33,14.28a49.77,49.77,0,0,0,3.67,16.85c1.62-3.08,5.21-9.08,9.84-12.31,6.42-4.49,9.24,2.72,1.15,8.44-4.32,3-7.43,5.56-9.4,7.25a33,33,0,0,0,7.2,9.31,26.29,26.29,0,0,1,10.55-7.21c1.57-.55,4.13-1.26,7.22-2.3.53-2,2.05-8.07,2.18-12,.18-4.75,5.81-2.12,3.53,6.32-.44,1.59-.83,2.9-1.2,4a31.45,31.45,0,0,0,6.88-3.37c.31-2.76-.16-9.13-1.29-15.12-1.4-7.48,4.29-8,5.53,1.4.57,4.35-.26,8.86-.53,11.79,6.43-3.76,11.77-11.38,11.77-11.38a28.62,28.62,0,0,0-4.46-11.78c-3.16-4.78.26-6.66,3.44-2.34,1.76,2.4,2.81,6.44,3.39,9.54C344.87,322.42,336.46,317.16,318,324.6ZM287.1,349.46c-1.76-2.55,4.31-7.22,5.63-5.63C294.42,345.86,288.85,352,287.1,349.46ZM327.67,339c-2.46,1.78-4.82-4.12-3.22-5.13S329.77,337.47,327.67,339Z" style="fill:#FFC727"></path><path d="M322,335.67c-.84-1.65-1.71-3.29-2.66-4.87a29.42,29.42,0,0,0-3.06-4.44c.26-.32.52-.65.79-1,.11-.13-.08-.31-.19-.18-.31.35-.61.71-.91,1.07a.28.28,0,0,0-.13.15q-1.71,2.06-3.24,4.22a50.13,50.13,0,0,0-5.38,1.56c-1.81.61-3.61,1.24-5.37,2-.19.08-.1.38.09.3,1.74-.77,3.52-1.52,5.33-2.13s3.45-1,5.19-1.52c-.57.8-1.12,1.6-1.65,2.42a63.75,63.75,0,0,0-9.5,3.88c-3.21,1.52-6.3,3.29-9.38,5.07-.17.1,0,.37.17.27,3-1.8,6.15-3.34,9.32-4.83,3-1.39,6.06-2.53,9.06-3.86-7.56,11.79-12.09,25.39-18.14,38-.09.19.19.34.27.16,1.85-4.42,4-8.72,6-13.07,1.81-3.9,3.58-7.82,5.39-11.72q.8-1.71,1.62-3.42c-.33,6.3-.19,12.7-1.22,18.93a.15.15,0,1,0,.3,0c.44-6.73,1.63-13.35,1.58-20.12,0,0,0-.05,0-.09,1.28-2.57,2.65-5.11,4.12-7.58,2.51,5.9,5.14,11.88,6.31,18.21,0,.19.35.1.3-.09-1.71-6.35-3.28-12.7-6.34-18.56a72.73,72.73,0,0,1,5.32-7.67c.84,1.57,1.92,3.05,2.87,4.54s1.85,2.94,2.71,4.44a64.69,64.69,0,0,1,4.73,10c.07.19.37.09.3-.09C325.14,342.3,323.68,338.93,322,335.67Z" style="fill:#263238"></path><path d="M381.57,350c-4.85-4.86-10.48-11.24-18-11.23-7.23,0-12.55,5.83-15.61,11.84-3.2,6.28-4.35,13.39-5.25,20.31a248.41,248.41,0,0,0-1.92,25c-.13,4.64-.11,9.28,0,13.92a90.36,90.36,0,0,0,1.06,14,.7.7,0,0,0,1.38,0c.22-3.9.06-7.82,0-11.73s0-7.7.18-11.54c.28-7.78.85-15.55,1.76-23.28.8-6.75,1.43-13.7,3.46-20.22,1.82-5.89,5.24-12.62,11.2-15.2,8.14-3.53,16.09,2.92,21.42,8.36C381.47,350.35,381.71,350.15,381.57,350Z" style="fill:#263238"></path><path d="M396.33,357.61c-6.51-.66-4.72-4.2,1.2-2.64a26.84,26.84,0,0,1,8.82,4.23c0-5.36-.62-10.8-2.61-15.39-5.43-1.36-10.36,1-15.43,3.4s-8.45-3.78-2.5-6.74a18.9,18.9,0,0,1,16.08-.29,26.24,26.24,0,0,0-1.45-2.28,26.77,26.77,0,0,0-5-5.49c-4.43.36-6.89,3.09-8.2,4-1.87,1.22-4.81-.22-2.94-2.87,1.45-2.08,5.07-3,8.07-3.28-5.34-3.15-10.67-3.16-13.69-1.79-5.24,2.39-3.77,16.19-3.77,16.19s-13.73-7.34-18.23-1.57a17.13,17.13,0,0,0-2.86,6.76c4.86-1.79,10.84-2.22,11.4.69.59,3.07-7.63,2.17-11.9,2.67-.51,6.14.92,13.34,5.83,18.42,4.17-8,13.44-14.11,14.77-9.69s-8.64,5.55-12.72,11.54a26.61,26.61,0,0,0,5.71,3.18c2.23-3.33,5.94-7.93,7.73-6.53s-2.89,4.65-5.92,7.27A88.23,88.23,0,0,0,382,381c1.1-4.63,3.23-9,5.26-8.55s-1.91,5.23-3.62,8.88a134.78,134.78,0,0,0,18.18,2.3c.37-.1,2.87-7.41,4-16.49a26.08,26.08,0,0,0-9.44-1.89c-4.59-.22-5-5.45,1.85-4.72a17.5,17.5,0,0,1,7.94,3.29c.07-1,.13-1.94.16-2.94h0A26,26,0,0,0,396.33,357.61Zm-1.72-7.16c.7-1.55,4.9-1,4.49.92S394,351.78,394.61,350.45Zm-34.38,13c-.25-1.31,2.56-2.5,2.95-1.45S360.58,365.18,360.23,363.44ZM380,374.16c-2.23-1.17,1-6.26,3-5.44C384.69,369.39,382.23,375.32,380,374.16Z" style="fill:#FFC727"></path><path d="M401,382.58c-3.08-5.16-6.13-10.35-9.37-15.41q-2.26-3.54-4.73-6.94l.74-.17c.4-.09.81-.17,1.22-.24.95-.16,1.91-.3,2.86-.4s1.81-.14,2.71-.15a14.07,14.07,0,0,1,2.9.15c.11,0,.13-.15,0-.15-1,0-1.95-.09-2.92-.1s-1.87,0-2.81.07a25.55,25.55,0,0,0-2.62.27c-.48.07-1,.16-1.44.25-.28.06-.58.1-.87.18-1.67-2.29-3.4-4.55-5.19-6.75a61.71,61.71,0,0,1,16.88-5.39.08.08,0,1,0,0-.15,57.27,57.27,0,0,0-17.14,5.19q-1.47-1.81-3-3.61c-1.12-1.34-2.31-2.66-3.32-4.08-.07-.09-.2,0-.13.09A60.54,60.54,0,0,1,378.7,350h0a59.72,59.72,0,0,0-6.28,5c-2.05,1.82-4.06,3.7-6,5.63-.07.08,0,.19.11.12,1.92-1.91,3.92-3.74,6-5.47s4.28-3.33,6.38-5c0,0,0,0,0,0l1.44,1.89.72.95a.34.34,0,0,0,.06.06l2.39,3.15a25,25,0,0,0-2.38,4.3c-.69,1.45-1.29,3-1.85,4.47a64.37,64.37,0,0,0-2.57,9.67c0,.1.13.14.15,0a56,56,0,0,1,2.81-9.47c.6-1.58,1.28-3.12,2-4.65s1.42-2.74,2-4.15c.69.92,1.38,1.84,2.06,2.77.19.27.38.55.58.82,0,.06,0,.14.06.14s0,0,0,0c2.12,3,4.13,6,6.1,9.06a2.48,2.48,0,0,0-.27.67c-.13.37-.25.74-.36,1.12-.22.76-.39,1.52-.54,2.3s-.23,1.46-.3,2.19a20.72,20.72,0,0,1-.19,2.5c0,.13.17.13.15,0a7.91,7.91,0,0,1,.18-2.32c.11-.8.26-1.59.44-2.38s.36-1.41.57-2.11c.1-.35.22-.7.33-1,.07-.18.16-.38.22-.57q1.38,2.16,2.72,4.34c1.78,2.88,3.54,5.78,5.31,8.67C400.85,382.85,401.08,382.72,401,382.58Z" style="fill:#263238"></path><path d="M353.41,422.19c-.08-2.92-.54-5.87-.85-8.77s-.65-5.84-1-8.77c-.61-5.63-.94-11.38-2.27-16.9a24.54,24.54,0,0,0-6.87-12.64,11.26,11.26,0,0,0-6.75-3.22,11.6,11.6,0,0,0-7.16,2.21,24.87,24.87,0,0,0-6,6.34,61.46,61.46,0,0,0-4.69,7.63c-.06.1.1.16.16.07a39,39,0,0,1,10.15-11.39,12.08,12.08,0,0,1,6.41-2.67,8.7,8.7,0,0,1,6.21,2.48c3.41,3,5.38,7.32,6.56,11.6,1.39,5.08,1.84,10.42,2.53,15.62.42,3.09.81,6.19,1.22,9.28s.66,6.23,1.32,9.27A.51.51,0,0,0,353.41,422.19Z" style="fill:#263238"></path><path d="M335.25,378.24c-6.71-.13-13.83,4.88-13.83,4.88s3.78-13.07-6.72-12.65c-6.25.25-14,6.8-15.61,17,2.41-1.28,7.49-3.74,11.5-3.81,5.44-.1,5.81,4.16-1.7,4.81a47,47,0,0,0-10.05,1.66,27.87,27.87,0,0,0,1.26,9.44c4.18-2.54,11.34-5.24,11.55-1.74.15,2.61-7.23,2.82-10.88,3.73A44.16,44.16,0,0,0,307,412.72a101.07,101.07,0,0,0,15.13-3.41,28.26,28.26,0,0,0-.47-5.48c-.89-4.66,2.54-4.74,3-.26a16.51,16.51,0,0,1-.32,5,45.44,45.44,0,0,0,9.71-4.58,29.4,29.4,0,0,0-2.16-10.33c-1.33-3.65,1.32-5.74,3.56-1.55,1.44,2.7.85,7.77.37,10.62a16.47,16.47,0,0,0,3.18-3.24C346.21,389.5,342,378.38,335.25,378.24Zm-29,2.42c.24-1.89,4.93-1.54,4.69-.07S306,382.77,306.29,380.66ZM301.06,396c.45-1.21,2.48-1.05,2.38-.08S300.75,396.8,301.06,396Zm27.84,6.58c-2.72.11-1.82-5.55-.24-5.77C330,396.63,331,402.5,328.9,402.59Z" style="fill:#FFC727"></path><path d="M326.47,403.11c-.26-.71-.49-1.42-.72-2.14a20.5,20.5,0,0,1,.52,2.19C326.3,403.3,326.52,403.25,326.47,403.11Z" style="fill:#263238"></path><path d="M323.7,394c-.5-1.45-1.05-2.89-1.61-4.31-.3-.76-.61-1.51-.95-2.26a9.3,9.3,0,0,0-.93-1.9,15.09,15.09,0,0,0,.85-1.83.06.06,0,0,0-.1-.06,23,23,0,0,0-2,3.18c-.29.49-.56,1-.85,1.49a15.15,15.15,0,0,0-1.77.28c-.63.11-1.26.24-1.88.38l-1.87.44c-.62.15-1.24.35-1.86.45a.1.1,0,1,0,.05.19,12,12,0,0,1,2-.51c.61-.13,1.21-.24,1.82-.32s1.22-.17,1.84-.23l1.39-.11-.76,1.32-.11.21a6,6,0,0,0-1.51.18c-.54.1-1.08.2-1.62.32-1.1.24-2.19.5-3.27.8-2.27.64-4.52,1.36-6.76,2.1-.12,0,0,.23.08.18a67,67,0,0,1,6.79-1.88c1.08-.24,2.15-.49,3.23-.71l1.62-.35a10.7,10.7,0,0,0,1.25-.27q-1.74,3.19-3.24,6.51c-2.18,4.82-4,9.79-5.88,14.73-.05.12.14.2.18.08a137.06,137.06,0,0,1,6.26-14.4c.42-.85.85-1.7,1.28-2.55,0,.17.07.34.11.52.11.58.21,1.17.31,1.75.19,1.17.39,2.34.57,3.52a41.89,41.89,0,0,1,.85,7.3c0,.15.22.14.2,0a35.29,35.29,0,0,1-.26-3.56c-.08-1.23-.17-2.45-.31-3.68s-.29-2.36-.49-3.53c-.09-.58-.2-1.17-.3-1.75a3.56,3.56,0,0,0-.33-1.27c.61-1.24,1.22-2.47,1.84-3.7s1.18-2.31,1.78-3.46c.25-.48.53-1,.8-1.46a14.72,14.72,0,0,0,.69,1.77l.81,2c.61,1.47,1.17,3,1.73,4.43.79,2.1,1.67,4.25,2.32,6.44C325,398.31,324.42,396.13,323.7,394Z" style="fill:#263238"></path><path d="M325.75,401c0-.17-.1-.34-.15-.51Z" style="fill:#263238"></path><polygon points="370.97 416.5 370.24 432.14 368.33 472.43 326.76 472.43 324.86 432.14 324.12 416.5 370.97 416.5" style="fill:#455a64"></polygon><polygon points="370.97 416.5 370.48 426.96 324.54 425.28 324.12 416.5 370.97 416.5" style="fill:#263238"></polygon><rect x="321.17" y="410.18" width="52.76" height="12.64" style="fill:#455a64"></rect><rect x="330.13" y="472.43" width="7.3" height="6.62" style="fill:#455a64"></rect><rect x="330.13" y="472.43" width="7.3" height="3.31" style="fill:#263238"></rect><rect x="357.68" y="472.43" width="7.29" height="6.62" style="fill:#455a64"></rect><rect x="357.68" y="472.43" width="7.29" height="3.31" style="fill:#263238"></rect></g><g id="freepik--Window--inject-213"><rect x="79.51" y="41.84" width="340.98" height="265.52" style="fill:#fff"></rect><path d="M420.49,307.35c-.22.12-341.11.29-341.35.38S79.26,42,79,41.84v-.5h.5c.24-.07,341,.24,341.28.2.26.18-.49,265.58-.3,265.81Zm0,0s-.63-266.76,0-265.22l-341,.2.5-.49c-.1-.18.39,267.15-.5,265.14l341,.37Z" style="fill:#c7c7c7"></path><rect x="79.51" y="41.84" width="340.98" height="5.82" style="fill:#263238"></rect><path d="M84.14,44.75a1.45,1.45,0,1,1-1.45-1.45A1.45,1.45,0,0,1,84.14,44.75Z" style="fill:#c7c7c7"></path><path d="M90,44.75a1.44,1.44,0,1,1-1.44-1.45A1.44,1.44,0,0,1,90,44.75Z" style="fill:#fff"></path><path d="M95.93,44.75a1.45,1.45,0,1,1-1.45-1.45A1.45,1.45,0,0,1,95.93,44.75Z" style="fill:#FFC727"></path><rect x="414.1" y="47.66" width="6.39" height="259.7" style="fill:#dbdbdb"></rect><path d="M417.29,113.7h0a1.55,1.55,0,0,1-1.65-1.42V50.94a1.54,1.54,0,0,1,1.65-1.41h0a1.54,1.54,0,0,1,1.65,1.41v61.34A1.55,1.55,0,0,1,417.29,113.7Z" style="fill:#a6a6a6"></path><rect x="100.73" y="70.36" width="103.18" height="65.74" transform="translate(304.64 206.45) rotate(180)" style="fill:#FFC727"></rect><path d="M165.33,89.78a7.61,7.61,0,1,1-7.6-7.6A7.6,7.6,0,0,1,165.33,89.78Z" style="opacity:0.1"></path><polygon points="108.12 128.25 196.52 128.25 170.72 104.61 157.26 115.4 135.98 88.27 108.12 128.25" style="opacity:0.1"></polygon><rect x="100.73" y="222.04" width="103.18" height="3.34" transform="translate(304.64 447.42) rotate(180)" style="fill:#dbdbdb"></rect><rect x="100.73" y="229.4" width="103.18" height="3.34" transform="translate(304.64 462.14) rotate(180)" style="fill:#dbdbdb"></rect><rect x="100.73" y="236.75" width="103.18" height="3.34" transform="translate(304.64 476.85) rotate(180)" style="fill:#dbdbdb"></rect><rect x="100.73" y="244.11" width="103.18" height="3.34" transform="translate(304.64 491.57) rotate(180)" style="fill:#dbdbdb"></rect><rect x="100.73" y="269.75" width="103.18" height="3.34" transform="translate(304.64 542.84) rotate(180)" style="fill:#dbdbdb"></rect><rect x="100.73" y="277.1" width="103.18" height="3.34" transform="translate(304.64 557.55) rotate(180)" style="fill:#dbdbdb"></rect><rect x="100.73" y="253.9" width="103.18" height="3.34" transform="translate(304.64 511.14) rotate(180)" style="fill:#dbdbdb"></rect><rect x="100.73" y="261.26" width="103.18" height="3.34" transform="translate(304.64 525.86) rotate(180)" style="fill:#dbdbdb"></rect><rect x="157.05" y="156.73" width="46.94" height="46.83" transform="translate(360.95 360.37) rotate(-179.97)" style="fill:#fff"></rect><path d="M157,203.67H157V156.6l47,0h.08v47.07Zm.09-46.83v46.59l46.78,0V156.86Z" style="fill:#dbdbdb"></path><path d="M203.91,156.86q-5.92,5.65-11.79,11.43L180.4,179.87l-11.67,11.71-5.82,5.9-5.79,6,5.91-5.69,5.88-5.74,11.73-11.58,11.67-11.71Q198.13,162.83,203.91,156.86Z" style="fill:#dbdbdb"></path><path d="M157.12,156.86q5.77,6,11.61,11.85l11.67,11.71L192.12,192l5.88,5.74,5.91,5.69-5.79-6-5.81-5.9-11.67-11.71-11.73-11.58Q163,162.53,157.12,156.86Z" style="fill:#dbdbdb"></path><rect x="100.81" y="156.73" width="46.94" height="46.83" transform="translate(248.48 360.34) rotate(-179.97)" style="fill:#fff"></rect><path d="M100.81,203.67h-.08V156.6l47,0h.08v47.07Zm.09-46.83v46.59l46.78,0V156.86Z" style="fill:#dbdbdb"></path><path d="M147.68,156.86q-5.93,5.65-11.79,11.43l-11.73,11.58-11.67,11.71-5.81,5.9-5.79,6,5.9-5.69,5.89-5.74,11.72-11.58,11.67-11.71Q141.89,162.83,147.68,156.86Z" style="fill:#dbdbdb"></path><path d="M100.89,156.86q5.77,6,11.6,11.85l11.67,11.71L135.89,192l5.88,5.74,5.91,5.69-5.79-6-5.82-5.9L124.4,179.87l-11.72-11.58Q106.8,162.53,100.89,156.86Z" style="fill:#dbdbdb"></path><path d="M395.38,127.05h-.8v-.5h.3v-2.19h.5Zm-3.8,0h-3v-.5h3Zm-6,0h-3v-.5h3Zm-6,0h-3v-.5h3Zm-6,0h-3v-.5h3Zm-6,0h-3v-.5h3Zm-6,0h-3v-.5h3Zm-6,0h-3v-.5h3Zm-6,0h-3v-.5h3Zm-6,0h-3v-.5h3Zm-4.64-1.36h-.5v-3h.5Zm56.44-4.33h-.5v-3h.5Zm-56.44-1.67h-.5v-3h.5Zm56.44-4.33h-.5v-3h.5Zm-56.44-1.67h-.5v-3h.5Zm56.44-4.33h-.5v-3h.5Zm-56.44-1.67h-.5v-3h.5Zm56.44-4.33h-.5v-3h.5Zm-56.44-1.67h-.5v-3h.5Zm56.44-4.33h-.5v-3h.5Zm-56.44-1.67h-.5v-3h.5Zm56.44-4.33h-.5v-3h.5Zm-56.44-1.67h-.5v-3h.5Zm56.44-4.33h-.5v-3h.5Zm-56.44-1.67h-.5v-3h.5Zm56.44-4.33h-.5v-3h.5Zm-56.44-1.67h-.5v-3h.5Zm56.44-4.33h-.5v-3h.5Zm-56.44-1.67h-.5V70.11h1.91v.5h-1.41Zm55.41-1.08h-3v-.5h3Zm-6,0h-3v-.5h3Zm-6,0h-3v-.5h3Zm-6,0h-3v-.5h3Zm-6,0h-3v-.5h3Zm-6,0h-3v-.5h3Zm-6,0h-3v-.5h3Zm-6,0h-3v-.5h3Zm-6,0h-3v-.5h3Z" style="fill:#a6a6a6"></path><path d="M395.38,280.7h-.8v-.5h.3V278h.5Zm-3.8,0h-3v-.5h3Zm-6,0h-3v-.5h3Zm-6,0h-3v-.5h3Zm-6,0h-3v-.5h3Zm-6,0h-3v-.5h3Zm-6,0h-3v-.5h3Zm-6,0h-3v-.5h3Zm-6,0h-3v-.5h3Zm-6,0h-3v-.5h3Zm-4.64-1.36h-.5v-3h.5ZM395.38,275h-.5v-3h.5Zm-56.44-1.66h-.5v-3h.5ZM395.38,269h-.5v-3h.5Zm-56.44-1.66h-.5v-3h.5ZM395.38,263h-.5v-3h.5Zm-56.44-1.66h-.5v-3h.5ZM395.38,257h-.5v-3h.5Zm-56.44-1.66h-.5v-3h.5ZM395.38,251h-.5v-3h.5Zm-56.44-1.66h-.5v-3h.5ZM395.38,245h-.5v-3h.5Zm-56.44-1.66h-.5v-3h.5ZM395.38,239h-.5v-3h.5Zm-56.44-1.66h-.5v-3h.5ZM395.38,233h-.5v-3h.5Zm-56.44-1.66h-.5v-3h.5ZM395.38,227h-.5v-3h.5Zm-56.44-1.66h-.5v-1.59h1.91v.5h-1.41Zm55.41-1.09h-3v-.5h3Zm-6,0h-3v-.5h3Zm-6,0h-3v-.5h3Zm-6,0h-3v-.5h3Zm-6,0h-3v-.5h3Zm-6,0h-3v-.5h3Zm-6,0h-3v-.5h3Zm-6,0h-3v-.5h3Zm-6,0h-3v-.5h3Z" style="fill:#a6a6a6"></path><path d="M395.38,203.87h-.8v-.5h.3v-2.19h.5Zm-3.8,0h-3v-.5h3Zm-6,0h-3v-.5h3Zm-6,0h-3v-.5h3Zm-6,0h-3v-.5h3Zm-6,0h-3v-.5h3Zm-6,0h-3v-.5h3Zm-6,0h-3v-.5h3Zm-6,0h-3v-.5h3Zm-6,0h-3v-.5h3Zm-4.64-1.35h-.5v-3h.5Zm56.44-4.34h-.5v-3h.5Zm-56.44-1.66h-.5v-3h.5Zm56.44-4.34h-.5v-3h.5Zm-56.44-1.66h-.5v-3h.5Zm56.44-4.34h-.5v-3h.5Zm-56.44-1.66h-.5v-3h.5Zm56.44-4.34h-.5v-3h.5Zm-56.44-1.66h-.5v-3h.5Zm56.44-4.34h-.5v-3h.5Zm-56.44-1.66h-.5v-3h.5Zm56.44-4.34h-.5v-3h.5Zm-56.44-1.66h-.5v-3h.5Zm56.44-4.34h-.5v-3h.5Zm-56.44-1.66h-.5v-3h.5Zm56.44-4.34h-.5v-3h.5Zm-56.44-1.66h-.5v-3h.5Zm56.44-4.34h-.5v-3h.5Zm-56.44-1.66h-.5v-1.59h1.91v.5h-1.41Zm55.41-1.09h-3v-.5h3Zm-6,0h-3v-.5h3Zm-6,0h-3v-.5h3Zm-6,0h-3v-.5h3Zm-6,0h-3v-.5h3Zm-6,0h-3v-.5h3Zm-6,0h-3v-.5h3Zm-6,0h-3v-.5h3Zm-6,0h-3v-.5h3Z" style="fill:#a6a6a6"></path><rect x="217.43" y="70.36" width="106.04" height="11.03" style="fill:#455a64"></rect><rect x="217.73" y="81.52" width="105.47" height="198.6" style="fill:#fff"></rect><path d="M323.49,280.45H217.43V81.19H323.49ZM218,279.79H322.91V81.85H218Z" style="fill:#dbdbdb"></path><polygon points="218 280.24 217.45 280 322.93 81.4 323.47 81.64 218 280.24" style="fill:#dbdbdb"></polygon><polygon points="322.93 280.24 217.45 81.64 218 81.4 323.47 280 322.93 280.24" style="fill:#dbdbdb"></polygon></g><g id="freepik--character-1--inject-213"><path d="M175.52,478.94c-2.5.81-73.85-.1-76.54-1.86-1-.65-1.51-11.06-1.72-23.64V453c-.05-2.59-.08-5.26-.09-8,0-.37,0-.74,0-1.12l3.45-37,46.06.47-3,36.67,0,1.45-.29,7.59,0,.78s27.15,12.56,29.9,14.81S178,478.14,175.52,478.94Z" style="fill: rgb(119, 68, 66);"></path><path d="M175.52,478.94c-2.5.81-73.85-.1-76.54-1.86-1-.65-1.51-11.06-1.72-23.64V453c-.05-2.59-.08-5.26-.09-8,0-.37,0-.74,0-1.12l46.47.13,0,1.45-.29,7.59,0,.78s27.15,12.56,29.9,14.81S178,478.14,175.52,478.94Z" style="fill:#ebebeb"></path><path d="M175.52,478.94c-1.28.41-20.67.37-39.61,0-3.81-.07-7.6-.16-11.21-.26-13.51-.36-24.67-.92-25.71-1.59s-1.5-10.76-1.71-23.12c0-.17,0-.35,0-.52s0-.27,0-.41h0l46,.08,0,.79s27.16,12.55,29.91,14.8S178,478.14,175.52,478.94Z" style="fill:#FFC727"></path><path d="M174.75,476.16c-12-.44-60.56-1.12-72.48-.65-.09,0-.09.07,0,.08,11.91.7,60.44,1,72.47.77C175,476.36,175,476.17,174.75,476.16Z" style="fill:#263238"></path><path d="M148.41,453.31c-4.72-.94-10.51-.29-14.17,3-.14.13,0,.33.19.28a66.82,66.82,0,0,1,14-2.72A.3.3,0,0,0,148.41,453.31Z" style="fill:#263238"></path><path d="M151.8,455.41c-4.72-.94-10.51-.29-14.17,3-.15.13,0,.33.19.28a66.82,66.82,0,0,1,14-2.72A.3.3,0,0,0,151.8,455.41Z" style="fill:#263238"></path><path d="M155.19,457.52c-4.72-.95-10.51-.29-14.17,3-.15.13,0,.33.19.28a66.82,66.82,0,0,1,14-2.72A.3.3,0,0,0,155.19,457.52Z" style="fill:#263238"></path><path d="M135.91,478.93c-3.81-.07-7.6-.16-11.21-.26-13.51-.36-24.67-.92-25.71-1.59s-1.5-10.76-1.71-23.12c0-.17,0-.35,0-.52s0-.27,0-.41h0C103.61,457.45,125.81,472.22,135.91,478.93Z" style="opacity:0.1"></path><path d="M146,453.15H94.66S105,331.73,104.57,329.64c-.51-2.69-3.55-14.83-7.59-30.7-1.26-5-2.63-10.29-4-15.81-3.83-14.93-8.06-31.25-11.74-45.44-5.53-21.27-9.84-32.23-9.84-32.23h43.54s35.8,102.48,37.22,123.66C153.36,347.58,146,453.15,146,453.15Z" style="fill:#FFC727"></path><path d="M146,453.15H94.66S105,331.73,104.57,329.64c-.51-2.69-3.55-14.83-7.59-30.7-1.26-5-2.63-10.29-4-15.81-3.83-14.93-8.06-31.25-11.74-45.44-5.53-21.27-9.84-32.23-9.84-32.23h43.54s35.8,102.48,37.22,123.66C153.36,347.58,146,453.15,146,453.15Z" style="opacity:0.7000000000000001"></path><path d="M143.76,444.38c-7.84-.16-5.59-.22-13.44-.3-3.84,0-29.08-.25-32.66.35-.08,0-.08.14,0,.16,3.58.59,28.82.37,32.66.33,7.85-.08,5.6-.14,13.44-.31A.12.12,0,0,0,143.76,444.38Z" style="fill:#263238"></path><path d="M114.24,322.3c-1.69-7.43-4.2-14.71-6.4-22q-6.68-22.21-13.45-44.41c-2.25-7.4-12.69-35.08-13.73-38.76-.42-1.49-.65-.67-.11,1.23,1.09,3.83,18.94,58.71,23.45,73.75q3.39,11.31,6.81,22.61a93.57,93.57,0,0,1,2.78,10.93,50.34,50.34,0,0,1,.45,11.7c-.49,7.87-1.4,15.71-2.12,23.56s-1.45,15.72-2.18,23.58c-1.44,15.64-2.89,32.7-4.29,48.34q-.27,3-.5,5.95c-.06.67,1,.62,1,0,1.69-15.47,3-32.41,4.43-47.9l4.32-46.24c.36-3.87.77-7.74.77-11.63A47.53,47.53,0,0,0,114.24,322.3Z" style="fill:#263238"></path><path d="M110,205.45c-3,23.39-8.77,61.68-13,93.49-9.83-38.55-25.63-93.48-25.63-93.48Z" style="fill:#263238"></path><path d="M122.38,478.09c-2.5.82-73.84.17-76.54-1.58-1-.65-1.55-11.05-1.8-23.64,0-.13,0-.26,0-.39-.06-2.59-.1-5.26-.11-8,0-.37,0-.75,0-1.12-.17-18.16,1.13-37,1.13-37l46.64.29-1.3,36.67-.05,1.45-.26,7.59,0,.79s27.2,12.46,30,14.7S124.88,477.28,122.38,478.09Z" style="fill: rgb(119, 68, 66);"></path><path d="M122.38,478.09c-2.5.82-73.84.17-76.54-1.58-1-.65-1.55-11.05-1.8-23.64,0-.13,0-.26,0-.39-.06-2.59-.1-5.26-.11-8,0-.37,0-.75,0-1.12l46.47-.05-.05,1.45-.26,7.59,0,.79s27.2,12.46,30,14.7S124.88,477.28,122.38,478.09Z" style="fill:#ebebeb"></path><path d="M122.38,478.09c-2.5.82-73.84.17-76.54-1.58-1-.65-1.55-11.05-1.8-23.64,0-.13,0-.26,0-.39l46-.1,0,.79s27.2,12.46,30,14.7S124.88,477.28,122.38,478.09Z" style="fill:#FFC727"></path><path d="M121.6,475.32c-12-.41-60.56-.9-72.47-.39-.1,0-.1.07,0,.07,11.91.67,60.44.77,72.47.51C121.85,475.51,121.86,475.33,121.6,475.32Z" style="fill:#263238"></path><path d="M95.19,452.56c-4.73-.92-10.52-.25-14.17,3.09-.14.13,0,.33.2.28a66.73,66.73,0,0,1,13.94-2.77A.3.3,0,0,0,95.19,452.56Z" style="fill:#263238"></path><path d="M98.58,454.65c-4.72-.92-10.52-.25-14.16,3.09-.14.13,0,.33.2.28a66.73,66.73,0,0,1,13.94-2.77A.3.3,0,0,0,98.58,454.65Z" style="fill:#263238"></path><path d="M102,456.74c-4.72-.92-10.52-.25-14.16,3.09-.15.13,0,.33.19.28A66.31,66.31,0,0,1,102,457.34.3.3,0,0,0,102,456.74Z" style="fill:#263238"></path><path d="M114.6,205.45a168.27,168.27,0,0,1-5.77,31.77c-.38,1.37-.79,2.71-1.24,4,0,0-3.85,1.8-11.44,6.45,0,0-.5,16.76-1,35.46-.56,20.9-1.13,44.21-1,49.15.44,18.5-2.28,120.21-2.28,120.21l-51.37.22s9.26-113.59,9.19-120.37c-.1-10.89,2.23-54.61,4.22-89.72,0,0-2.42-8.05-2.26-10.68,1-16,4.72-26.48,4.72-26.48Z" style="fill:#FFC727"></path><path d="M114.6,205.45a168.27,168.27,0,0,1-5.77,31.77c-.38,1.37-.79,2.71-1.24,4,0,0-3.85,1.8-11.44,6.45,0,0-.5,16.76-1,35.46-.56,20.9-1.13,44.21-1,49.15.44,18.5-2.28,120.21-2.28,120.21l-51.37.22s9.26-113.59,9.19-120.37c-.1-10.89,2.23-54.61,4.22-89.72,0,0-2.42-8.05-2.26-10.68,1-16,4.72-26.48,4.72-26.48Z" style="opacity:0.7000000000000001"></path><path d="M90.1,443.35c-7.84-.12-5.59-.2-13.44-.24-3.84,0-29.08-.13-32.66.48-.08,0-.08.15,0,.16,3.59.58,28.82.25,32.66.2,7.85-.12,5.6-.17,13.44-.37A.12.12,0,0,0,90.1,443.35Z" style="fill:#263238"></path><path d="M60.69,212.9c-.94,28.66-1.93,51.76-3.21,80.41s-3,57.48-5.4,86.16c-1.34,16-2.61,38.55-4.33,54.54,0,.1.15.14.17,0,3.73-28.43,5.81-63.58,7.64-92.19s3.07-57.26,4-85.91c.55-16.2,1-26.85,1.45-43.06C61.06,212.65,60.7,212.67,60.69,212.9Z" style="fill:#263238"></path><path d="M62.67,231.53c1.26-.33,2.61-.43,3.9-.64,1-.16,2.08-.34,3.11-.57A13.57,13.57,0,0,0,75.17,228c2.56-2,5.5-12.15,5.86-12.8.61-1.11.8-.13.8,0,0,1.18-2.7,10.06-3.74,11.72-1.91,3-5.31,4.26-8.72,4.69-1,.12-2,.19-2.94.25a21.12,21.12,0,0,1-3.73,0A.17.17,0,0,1,62.67,231.53Z" style="fill:#263238"></path><path d="M107.42,241.46A91.41,91.41,0,0,0,93,248.2a.17.17,0,0,0,.14.3c4.87-2.1,9.84-4.1,14.59-6.46A.32.32,0,0,0,107.42,241.46Z" style="fill:#263238"></path><path d="M108.89,208.08c0-.17-.31-.21-.31,0a161.75,161.75,0,0,1-.82,16.29c-.22,2.51-2.24,16.38-6.6,15.37-.72-.17-1.1-.89-1.21-2a17.21,17.21,0,0,1,.58-4.26c.48-2.9.87-5.82,1.12-8.75a79.65,79.65,0,0,0-.18-16.41.14.14,0,0,0-.28,0A149.29,149.29,0,0,1,99.86,231c-.54,3.61-2.36,9,1.42,9.6s6.33-8.54,6.8-11A83,83,0,0,0,108.89,208.08Z" style="fill:#263238"></path><path d="M101.28,240.08a25,25,0,0,0-1,2.88,6.63,6.63,0,0,0-.41,2.36c0,.16.22.17.31.07a8.47,8.47,0,0,0,1-2.3c.33-.89.68-1.77,1-2.67A.49.49,0,0,0,101.28,240.08Z" style="fill:#263238"></path><path d="M50,222.72c.18.18,72.1-5.09,72.7-5.88.84-1.11-24-74.52-32.1-83.58-1.74-1.94-7-2.11-11.38-1.22a18.91,18.91,0,0,0-3.35,1,.4.4,0,0,1-.12,0,8.33,8.33,0,0,0-2.41,1.42C61.73,145.22,56.63,177.13,55,187.64,52.29,205,49.31,222.09,50,222.72Z" style="fill:#FFC727"></path><path d="M75.2,149.06c5,8.86,27.32,37.62,37,37.55,15.23-.09,31.72-6.29,40.84-9.43,2.9-1-7.58-28.77-12.93-26.21-6.9,3.29-20.95,7.74-25,8-2.74.2-19.78-11.47-31.69-19.5C73.56,132.8,68.8,137.84,75.2,149.06Z" style="fill: rgb(119, 68, 66);"></path><path d="M149.74,129.68H177a2.64,2.64,0,0,1,2.64,2.64v4.91a0,0,0,0,1,0,0H147.1a0,0,0,0,1,0,0v-4.91A2.64,2.64,0,0,1,149.74,129.68Z" transform="translate(300.19 294.02) rotate(-169.68)" style="fill:#37474f"></path><rect x="156.53" y="136.96" width="7.65" height="26.11" transform="translate(291.24 326.33) rotate(-169.68)" style="fill:#37474f"></rect><rect x="147.19" y="127.11" width="34.18" height="2.65" transform="matrix(-0.98, -0.18, 0.18, -0.98, 302.9, 284.22)" style="fill:#c7c7c7"></rect><rect x="147.72" y="124.23" width="34.18" height="2.65" transform="matrix(-0.98, -0.18, 0.18, -0.98, 304.46, 278.59)" style="fill:#c7c7c7"></rect><polygon points="183.14 105.54 184.07 105.03 184.77 105.84 180.89 127.13 179.26 126.84 183.14 105.54" style="fill:#FFC727"></polygon><polygon points="181.37 105.22 182.31 104.71 183 105.52 179.12 126.81 177.5 126.51 181.37 105.22" style="fill:#FFC727"></polygon><polygon points="179.61 104.9 180.54 104.39 181.23 105.19 177.35 126.49 175.73 126.19 179.61 104.9" style="fill:#FFC727"></polygon><polygon points="177.84 104.58 178.77 104.06 179.46 104.87 175.59 126.17 173.96 125.87 177.84 104.58" style="fill:#FFC727"></polygon><polygon points="176.07 104.25 177 103.74 177.69 104.55 173.82 125.84 172.19 125.55 176.07 104.25" style="fill:#FFC727"></polygon><polygon points="174.3 103.93 175.23 103.42 175.93 104.23 172.05 125.52 170.42 125.23 174.3 103.93" style="fill:#FFC727"></polygon><polygon points="172.53 103.61 173.47 103.1 174.16 103.91 170.28 125.2 168.66 124.9 172.53 103.61" style="fill:#FFC727"></polygon><polygon points="170.76 103.29 171.7 102.78 172.39 103.58 168.51 124.88 166.89 124.58 170.76 103.29" style="fill:#FFC727"></polygon><polygon points="169 102.97 169.93 102.45 170.62 103.26 166.74 124.56 165.12 124.26 169 102.97" style="fill:#FFC727"></polygon><polygon points="167.23 102.64 168.16 102.13 168.85 102.94 164.98 124.23 163.35 123.94 167.23 102.64" style="fill:#FFC727"></polygon><polygon points="165.46 102.32 166.39 101.81 167.09 102.62 163.21 123.91 161.58 123.62 165.46 102.32" style="fill:#FFC727"></polygon><polygon points="163.69 102 164.62 101.49 165.32 102.3 161.44 123.59 159.81 123.3 163.69 102" style="fill:#FFC727"></polygon><polygon points="161.92 101.68 162.85 101.17 163.55 101.97 159.67 123.27 158.04 122.97 161.92 101.68" style="fill:#FFC727"></polygon><polygon points="160.15 101.36 161.09 100.84 161.78 101.65 157.9 122.95 156.28 122.65 160.15 101.36" style="fill:#FFC727"></polygon><polygon points="158.38 101.03 159.32 100.52 160.01 101.33 156.13 122.63 154.51 122.33 158.38 101.03" style="fill:#FFC727"></polygon><polygon points="156.62 100.71 157.55 100.2 158.24 101.01 154.37 122.3 152.74 122.01 156.62 100.71" style="fill:#FFC727"></polygon><polygon points="154.85 100.39 155.78 99.88 156.47 100.69 152.6 121.98 150.97 121.69 154.85 100.39" style="fill:#FFC727"></polygon><polygon points="153.08 100.07 154.01 99.56 154.71 100.36 150.83 121.66 149.2 121.36 153.08 100.07" style="fill:#FFC727"></polygon><g style="opacity:0.30000000000000004"><polygon points="183.14 105.54 184.07 105.03 184.77 105.84 180.89 127.13 179.26 126.84 183.14 105.54"></polygon><polygon points="181.37 105.22 182.31 104.71 183 105.52 179.12 126.81 177.5 126.51 181.37 105.22"></polygon><polygon points="179.61 104.9 180.54 104.39 181.23 105.19 177.35 126.49 175.73 126.19 179.61 104.9"></polygon><polygon points="177.84 104.58 178.77 104.06 179.46 104.87 175.59 126.17 173.96 125.87 177.84 104.58"></polygon><polygon points="176.07 104.25 177 103.74 177.69 104.55 173.82 125.84 172.19 125.55 176.07 104.25"></polygon><polygon points="174.3 103.93 175.23 103.42 175.93 104.23 172.05 125.52 170.42 125.23 174.3 103.93"></polygon><polygon points="172.53 103.61 173.47 103.1 174.16 103.91 170.28 125.2 168.66 124.9 172.53 103.61"></polygon><polygon points="170.76 103.29 171.7 102.78 172.39 103.58 168.51 124.88 166.89 124.58 170.76 103.29"></polygon><polygon points="169 102.97 169.93 102.45 170.62 103.26 166.74 124.56 165.12 124.26 169 102.97"></polygon><polygon points="167.23 102.64 168.16 102.13 168.85 102.94 164.98 124.23 163.35 123.94 167.23 102.64"></polygon><polygon points="165.46 102.32 166.39 101.81 167.09 102.62 163.21 123.91 161.58 123.62 165.46 102.32"></polygon><polygon points="163.69 102 164.62 101.49 165.32 102.3 161.44 123.59 159.81 123.3 163.69 102"></polygon><polygon points="161.92 101.68 162.85 101.17 163.55 101.97 159.67 123.27 158.04 122.97 161.92 101.68"></polygon><polygon points="160.15 101.36 161.09 100.84 161.78 101.65 157.9 122.95 156.28 122.65 160.15 101.36"></polygon><polygon points="158.38 101.03 159.32 100.52 160.01 101.33 156.13 122.63 154.51 122.33 158.38 101.03"></polygon><polygon points="156.62 100.71 157.55 100.2 158.24 101.01 154.37 122.3 152.74 122.01 156.62 100.71"></polygon><polygon points="154.85 100.39 155.78 99.88 156.47 100.69 152.6 121.98 150.97 121.69 154.85 100.39"></polygon><polygon points="153.08 100.07 154.01 99.56 154.71 100.36 150.83 121.66 149.2 121.36 153.08 100.07"></polygon></g><path d="M153.08,100.07c-2,4.65,3.12,9.27,7.87,9.71s7.52-.48,8.94,2.22.7,7.66,4.19,7,3.06-5.33,5.63-6.14,2.87-.55,4.2-2,2.93-4.65,1.76-6.1-8.39-1.84-12.94-2.78S154.09,97.7,153.08,100.07Z" style="fill:#FFC727"></path><path d="M153.08,100.07c-1.84,4.58,2.86,8.76,7.06,9.52,2.57.49,5.59-.13,8.1.7,3.29,1.39,2,5.94,4.11,8.18,1,.78,2.6.19,3.43-.65,1.29-1.29,1.5-3.27,2.83-4.6a5.77,5.77,0,0,1,2.57-1.08c2.62-.45,4.25-3.3,4.67-5.74a1.72,1.72,0,0,0-1-2c-3.34-1.23-7.08-1.34-10.58-2-3.75-.51-19-4.92-21.14-2.31Zm0,0c.5-.8,1.63-.77,2.46-.84a44.74,44.74,0,0,1,8.08.83c3.57.59,7.09,1.44,10.64,2.07s7.23.7,10.69,1.93c2.92,1.32.38,5.71-1.17,7.27-1.22,1.47-3.46,1.11-4.85,2.23s-1.53,3.28-2.86,4.55a3.81,3.81,0,0,1-2.57,1.1c-4-.28-1.76-7.35-5.35-8.69-2.46-.83-5.5-.26-8-.78-4.22-.81-8.94-5.07-7-9.67Z" style="fill:#263238"></path><path d="M173.53,147a4.29,4.29,0,0,1-.24,4.88,6.39,6.39,0,0,1,3.12,3c1.05,2.39-2.25,5.09-2.25,5.09a7.76,7.76,0,0,1,2.78,3.67c.78,2.39-2.16,5.59-2.16,5.59a6.84,6.84,0,0,1,.41,4.77c-1.34,4.2-7.86,5.85-12,7s-19.37-1.5-20.88-2.72l-14-20.19S146,145,158.79,144.08C163.06,143.78,171.65,144.23,173.53,147Z" style="fill: rgb(119, 68, 66);"></path><path d="M173,151.49c-4.65-.54-9.2.31-13.8.9-.1,0-.08.18,0,.16,4.57-.64,9.2-.37,13.78-.83A.12.12,0,0,0,173,151.49Z" style="fill:#263238"></path><path d="M174,159.62a12.53,12.53,0,0,0-3.17.35q-1.67.3-3.33.66c-2.21.48-4.42,1-6.6,1.59-.1,0-.08.18,0,.16,2.21-.47,4.42-.91,6.65-1.28,1.11-.19,2.22-.37,3.34-.54a14.36,14.36,0,0,0,3.13-.63A.16.16,0,0,0,174,159.62Z" style="fill:#263238"></path><path d="M174.69,169.22a8.63,8.63,0,0,0-2.84.47l-3,.7c-2,.45-4,.9-6.05,1.28-.1,0-.08.18,0,.16,2.06-.38,4.13-.73,6.19-1.12l3-.6a8,8,0,0,0,2.69-.79S174.73,169.23,174.69,169.22Z" style="fill:#263238"></path><path d="M108.23,155.26,96.12,179.18s-14.75-17.71-21.83-29.66-2.11-17.08,9.5-11.06S108.23,155.26,108.23,155.26Z" style="fill:#FFC727"></path><path d="M102.83,153.45c-.4.82-.92,1.59-1.38,2.38s-.89,1.6-1.32,2.4q-1.26,2.34-2.53,4.67c-1.72,3.15-3.51,6.25-5.06,9.51,0,0,0,.1.08.06a85.17,85.17,0,0,0,5.51-9.16c.86-1.58,1.69-3.18,2.51-4.78.41-.82.82-1.65,1.19-2.48s.69-1.74,1.11-2.54C103,153.44,102.86,153.38,102.83,153.45Z" style="fill:#263238"></path><path d="M76.59,153.21c4.83,6.15,10,13.13,14.71,19.43,1.6,2.18,3.27,4.31,4.91,6.47l-.2,0c.43-.77.86-1.54,1.3-2.3-.38.86-.77,1.71-1.16,2.56a225.9,225.9,0,0,1-19.56-26.18Z" style="fill:#263238"></path><path d="M77,155.41a26.34,26.34,0,0,1,2.8,2.58,4.34,4.34,0,0,1-2.8-2.58Z" style="fill:#263238"></path><path d="M91.22,142.17c-3.35.9-11.69-3.76-14.23-8.5-.18-.33.66-11.48.69-14.07,0-.53,16.24,4.09,16.24,4.09a41.42,41.42,0,0,0-1.65,9.95,5.87,5.87,0,0,0,.1,1.06.9.9,0,0,1,0,.18C92.71,136.91,94.8,141.21,91.22,142.17Z" style="fill: rgb(119, 68, 66);"></path><path d="M92.38,134.7c0,.06,0,.12,0,.18a9.89,9.89,0,0,1-1.67.07c-9.58-.29-12-12.3-12.47-15.34,2.89.44,15.67,4.07,15.67,4.07a41.66,41.66,0,0,0-1.65,10A5.07,5.07,0,0,0,92.38,134.7Z" style="fill:#263238"></path><path d="M71.4,101.23c-.86,6,4.68,22,9.31,25,6.7,4.43,16.41,3.45,19.85-4.31,3.33-7.53-4.26-28.28-9.31-30.92C83.82,87.15,72.68,92.41,71.4,101.23Z" style="fill: rgb(119, 68, 66);"></path><path d="M100.56,122c-3.44,7.76-13.15,8.74-19.85,4.31-1.87-1.24-3.9-4.61-5.59-8.57l2.52-7.09s2.74,4.5,5.12,5.59c4.27,2,10.31.21,11.57-3.42l1.88-.32s3.45,1.87,4.48-1.6C101.56,115.28,101.7,119.39,100.56,122Z" style="fill:#263238;opacity:0.30000000000000004"></path><path d="M74.54,115.33c2.53,0,3.32-2.32,3.54-4s-2.66-10.47-2.09-13,2.7-4.38,4.79-4.32,6.21,1.4,7.61.89,0-3.14,1-3.4c2.19-.58,5.94,4.22,7,6.53,0,0-2.42-10.69-14.11-8.37C71.79,91.81,71,99.3,70.9,102.63,70.75,109,74.54,115.33,74.54,115.33Z" style="fill:#263238"></path><path d="M77.87,113.61s-4.64-4.67-6.82-2.92,2,9,5,9.52A2.92,2.92,0,0,0,79.61,118Z" style="fill: rgb(119, 68, 66);"></path><path d="M72.29,112.73c-.05,0,0,.07,0,.08,2.12.45,3.49,2.11,4.55,3.89a1.61,1.61,0,0,0-2.45,0s0,.12.07.1a1.79,1.79,0,0,1,2.06.28,8.52,8.52,0,0,1,1.2,1.41c.13.16.43,0,.33-.18l0-.05C77.63,115.71,75.05,112.51,72.29,112.73Z" style="fill:#263238"></path><path d="M88.63,108.22s-.07.08,0,.12c.4,1.07.68,2.36-.18,3,0,0,0,.08,0,.06C89.57,110.88,89.18,109.16,88.63,108.22Z" style="fill:#263238"></path><path d="M87.28,107.42c-1.79.46-.74,4,.92,3.56S88.77,107,87.28,107.42Z" style="fill:#263238"></path><path d="M95,106.51c0-.05.1,0,.12.07.29,1.11.81,2.32,1.9,2.39,0,0,0,.06,0,.06C95.79,109.22,95.11,107.6,95,106.51Z" style="fill:#263238"></path><path d="M95.65,105.08c1.72-.66,2.91,2.83,1.32,3.44S94.21,105.63,95.65,105.08Z" style="fill:#263238"></path><path d="M85.71,106.43c.47-.23.86-.51,1.3-.78s.92-.5,1.17-1.05a.78.78,0,0,0-.31-.9,1.94,1.94,0,0,0-2,.2,2.87,2.87,0,0,0-1.36,1.53A.83.83,0,0,0,85.71,106.43Z" style="fill:#263238"></path><path d="M96.12,102.29c-.51.07-1,0-1.51.06a2.5,2.5,0,0,1-1.55-.24.78.78,0,0,1-.23-.93,1.93,1.93,0,0,1,1.74-.9,2.83,2.83,0,0,1,2,.55A.83.83,0,0,1,96.12,102.29Z" style="fill:#263238"></path><path d="M90.46,118.68a1.75,1.75,0,0,0,1.11.37,3.05,3.05,0,0,0,1.09-.63s.08,0,.07,0a1.53,1.53,0,0,1-1.21,1,1.21,1.21,0,0,1-1.15-.71C90.33,118.7,90.41,118.65,90.46,118.68Z" style="fill:#263238"></path><path d="M90.85,115a3.9,3.9,0,0,0,3,.92,4.54,4.54,0,0,0,1.35-.34,1.45,1.45,0,0,0,.25-.1l.23-.11a.3.3,0,0,0,.15-.31h0a.49.49,0,0,0,0-.11h0l0-.09c-.23-.85-.69-2.11-.69-2.11.35.06,2.13.3,2-.13a58.57,58.57,0,0,0-4.8-10.85.11.11,0,0,0-.19.09c1.12,3.49,2.84,6.76,4,10.25a6.8,6.8,0,0,0-1.91,0c-.11.07.93,2.41,1,2.8v0a5.31,5.31,0,0,1-4.21,0C90.83,114.84,90.76,114.94,90.85,115Z" style="fill:#263238"></path><path d="M94.6,115.66a4.37,4.37,0,0,1-1.45,1.75,2.05,2.05,0,0,1-1.18.35c-.92,0-1.12-.83-1.11-1.54a4.77,4.77,0,0,1,.15-1.13A5.84,5.84,0,0,0,94.6,115.66Z" style="fill:#263238"></path><path d="M93.15,117.41a2.05,2.05,0,0,1-1.18.35c-.92,0-1.12-.83-1.11-1.54A2.08,2.08,0,0,1,93.15,117.41Z" style="fill:#f291b8"></path><polygon points="92.42 134.07 91.64 141.1 77.05 129.28 76.37 133.27 90.96 147.16 91.95 141.89 95.52 144.68 94.34 136.96 92.42 134.07" style="fill:#ebebeb"></polygon><path d="M76.37,133.27c5,4.48,9.9,9.08,14.76,13.71l-.41.13,1-5.26.07-.36.28.23,3.54,2.83-.26.15c-.37-2.58-.69-5.16-1-7.74.48,2.69,1,5.39,1.41,8.1l-.33-.26-3.61-2.74.35-.13-1,5.27-.08.44c-5-4.72-9.92-9.49-14.75-14.37Z" style="fill:#263238"></path></g><g id="freepik--character-2--inject-213"><rect x="189.28" y="422.17" width="53.8" height="3.95" style="fill:#c7c7c7"></rect><polygon points="193.77 291.72 193.49 313.16 191.67 414.02 191.61 418.55 190.81 478.22 187.77 478.22 186.97 418.55 186.91 414.02 185.09 313.16 184.8 291.72 193.77 291.72" style="fill:#c7c7c7"></polygon><polygon points="184.8 291.72 193.77 291.72 193.49 313.16 185.09 313.16 184.8 291.72" style="fill:#a6a6a6"></polygon><polygon points="247.57 291.72 247.28 313.16 244.6 478.22 241.56 478.22 240.76 418.55 240.7 414.02 238.88 313.16 238.6 291.72 247.57 291.72" style="fill:#c7c7c7"></polygon><polygon points="247.57 291.72 247.28 313.16 238.88 313.16 238.6 291.72 247.57 291.72" style="fill:#a6a6a6"></polygon><rect x="162.42" y="422.17" width="52.81" height="3.95" style="fill:#c7c7c7"></rect><polygon points="166.9 291.72 166.62 313.16 164.8 414.02 164.74 418.55 163.94 478.22 160.9 478.22 158.22 313.16 157.93 291.72 166.9 291.72" style="fill:#c7c7c7"></polygon><polygon points="157.93 291.72 166.9 291.72 166.62 313.16 158.22 313.16 157.93 291.72" style="fill:#a6a6a6"></polygon><polygon points="219.72 291.72 219.43 313.16 217.61 414.02 217.55 418.55 216.75 478.22 213.71 478.22 212.91 418.55 212.85 414.02 211.03 313.16 210.75 291.72 219.72 291.72" style="fill:#c7c7c7"></polygon><polygon points="210.75 291.72 219.72 291.72 219.43 313.16 211.03 313.16 210.75 291.72" style="fill:#a6a6a6"></polygon><rect x="154.36" y="270.26" width="97.87" height="23.23" style="fill:#FFC727"></rect><rect x="154.37" y="270.26" width="77.43" height="23.23" style="fill:#263238;opacity:0.1"></rect><path d="M285.88,489.76c-2.6-.34-66.42-31.51-68.1-34.24-.65-1,3.35-10.59,8.51-22,1.12-2.46,5.57-42.06,5.57-42.06l43.26,16.32-7.62,45.72s19.09,22.87,20.62,26.06S288.47,490.11,285.88,489.76Z" style="fill: rgb(221, 106, 87);"></path><path d="M217.78,455.52c1.68,2.73,65.5,33.9,68.09,34.24s3.76-7,2.25-10.21-20.62-26.06-20.62-26.06l1.58-9.5-41.49-17.82a54.69,54.69,0,0,1-1.3,7.34C221.13,444.93,217.14,454.49,217.78,455.52Z" style="fill:#ebebeb"></path><path d="M285.88,489.76c-2.6-.34-66.42-31.51-68.1-34.24-.65-1,3.35-10.59,8.51-22l41.21,20s19.09,22.87,20.62,26.06S288.47,490.11,285.88,489.76Z" style="fill:#FFC727"></path><path d="M286.21,486.76c-10.57-5.48-53.72-26.62-64.59-31.25-.09,0-.12,0,0,.07,10.36,5.67,53.68,26.46,64.53,31.36C286.35,487,286.43,486.88,286.21,486.76Z" style="fill:#263238"></path><path d="M285.14,475.25a9.61,9.61,0,0,0-7.68-.52,9.28,9.28,0,0,0-5.18,4.55c0,.06.09.12.13.06a11.05,11.05,0,0,1,12.66-4C285.16,475.42,285.22,475.29,285.14,475.25Z" style="fill:#263238"></path><path d="M271.13,456.59c-4.26-2.16-10-3.07-14.33-.87-.17.09-.05.33.11.32a66,66,0,0,1,14,1.11A.3.3,0,0,0,271.13,456.59Z" style="fill:#263238"></path><path d="M273.8,459.49c-4.25-2.15-9.95-3.07-14.32-.86-.17.08-.05.32.11.32a65.4,65.4,0,0,1,14,1.1A.3.3,0,0,0,273.8,459.49Z" style="fill:#263238"></path><path d="M276.48,462.39c-4.25-2.15-10-3.06-14.33-.86-.17.08,0,.32.12.32a66.11,66.11,0,0,1,14,1.11A.3.3,0,0,0,276.48,462.39Z" style="fill:#263238"></path><path d="M279.16,465.3c-4.26-2.16-10-3.07-14.33-.87-.17.09-.05.33.11.32a66.05,66.05,0,0,1,14,1.11A.3.3,0,0,0,279.16,465.3Z" style="fill:#263238"></path><path d="M229.31,446.68c-4.81-2.33-8.45,5.14-3.63,7.48S234.13,449,229.31,446.68Z" style="fill:#263238"></path><path d="M281.34,447.42c-1.29-2.86-4.88-2.43-7.13-1.22a24.92,24.92,0,0,0-9.24,9.05.13.13,0,0,0,.07.19.59.59,0,0,0,.61.72c4.07-.62,8.51-.78,12.28-2.63C280.13,452.45,282.56,450.12,281.34,447.42Zm-9.7,6.53c-2,.36-4,.61-6,1,1.81-1.76,3.53-3.59,5.51-5.17a26.85,26.85,0,0,1,3-2.12c1.62-1,7.57-2.49,5.72,2.38C278.84,452.76,274,453.53,271.64,454Z" style="fill:#263238"></path><path d="M253.56,451.64c3.44,2.39,7.81,3.21,11.75,4.43.41.13.71-.27.7-.62a.13.13,0,0,0,.1-.18A24.93,24.93,0,0,0,258.33,445c-2.05-1.54-5.53-2.49-7.23.14S251.54,450.24,253.56,451.64Zm-1.4-3.7c-1.1-5.09,4.56-2.69,6-1.5A27.31,27.31,0,0,1,260.8,449a73.84,73.84,0,0,1,4.68,5.93c-1.9-.72-3.84-1.26-5.77-1.91C257.42,452.23,252.77,450.74,252.16,447.94Z" style="fill:#263238"></path><path d="M222.86,428l51.79,22.47s14.18-91,10.84-128c-2.28-25.09-34.49-58.86-50-81.39-.9-1.31-3.55-16-3.55-16H189.24l.67,32.16c1,19.55,45,59.25,45.35,70.95C235.7,341.26,222.86,428,222.86,428Z" style="fill:#263238"></path><path d="M273.76,437.41c-11.82-6.15-43.88-19.67-45.61-20.09-.1,0-.19.14-.1.2,1.26.88,31.57,15.31,45.62,20.05C273.78,437.61,273.86,437.46,273.76,437.41Z" style="fill:#37474f"></path><path d="M200,264.78c.4.78.83,1.54,1.3,2.29a89.61,89.61,0,0,0,5.46,7.57l6.19,8c4.12,5.36,8.2,10.77,12.34,16.12,4,5.18,8.08,10.33,11.93,15.62a36.1,36.1,0,0,1,4.47,7.6,26.4,26.4,0,0,1,1.84,8.72c.32,6.36-.88,12.82-1.66,19.11q-1.26,10-2.68,19.89t-3,19.86c-1.05,6.5-1.94,13.08-3.36,19.51-.37,1.66-.66,3.33-1,5,0,.09-.17.07-.15,0q3-19.81,5.77-39.67c.92-6.63,1.78-13.26,2.63-19.9.83-6.44,1.86-12.93,2.22-19.42a33.76,33.76,0,0,0-.6-9.36,25,25,0,0,0-3.78-8.22c-1.76-2.62-3.75-5.11-5.69-7.6-2.07-2.67-4.11-5.38-6.17-8.06q-6.19-8-12.36-16.1c-3.93-5.15-8-10.21-11.75-15.5a35.92,35.92,0,0,1-4.32-7.87,34.63,34.63,0,0,1-1.88-8.59c-.65-6.42-.3-13-.17-19.39,0-1.64.06-3.28.11-4.92a.11.11,0,0,1,.21,0c.3,6.54.37,13.09.63,19.63a48.1,48.1,0,0,0,1.17,9.48,28.64,28.64,0,0,0,2.31,6.17" style="fill:#37474f"></path><path d="M233.78,343.69c.35-2.6-13-72.37-15.15-74.71-.83-.89-11.1.46-23.47,2.44-2.67.42-42-5.68-42-5.68l4.38,46,46.12,4.65s17,24.44,19.72,26.75S233.43,346.28,233.78,343.69Z" style="fill: rgb(221, 106, 87);"></path><path d="M218.63,269c2.19,2.33,15.5,72.1,15.15,74.69s-7.77,1.77-10.44-.51-19.73-26.75-19.73-26.75l-9.58-1-6.3-44.71a54.23,54.23,0,0,0,7.43.67C207.53,269.44,217.8,268.09,218.63,269Z" style="fill:#ebebeb"></path><path d="M233.78,343.69c.35-2.6-13-72.37-15.15-74.71-.83-.89-11.1.46-23.47,2.44l8.45,45s17,24.44,19.72,26.75S233.43,346.28,233.78,343.69Z" style="fill:#FFC727"></path><path d="M233.78,343.69c.35-2.6-13-72.37-15.15-74.71-.83-.89-11.1.46-23.47,2.44l8.45,45s17,24.44,19.72,26.75S233.43,346.28,233.78,343.69Z" style="fill:#fff;opacity:0.5"></path><path d="M230.8,343.22c-2.52-11.64-11.58-58.83-13.19-70.53,0-.1,0-.11.08,0,2.74,11.49,11.42,58.75,13.3,70.51C231,343.43,230.85,343.46,230.8,343.22Z" style="fill:#263238"></path><path d="M220,339.16a9.57,9.57,0,0,1,1.52-7.54,9.24,9.24,0,0,1,5.74-3.81c.07,0,.1.12,0,.14a11.06,11.06,0,0,0-7.15,11.18A.07.07,0,0,1,220,339.16Z" style="fill:#263238"></path><path d="M205.64,320.74c-1-4.67-.34-10.41,2.93-14.05.13-.14.33,0,.28.19a66.23,66.23,0,0,0-2.62,13.83A.3.3,0,0,1,205.64,320.74Z" style="fill:#263238"></path><path d="M207.74,324.08c-1-4.67-.34-10.41,2.93-14.05.13-.14.33,0,.28.2a66.13,66.13,0,0,0-2.62,13.82A.3.3,0,0,1,207.74,324.08Z" style="fill:#263238"></path><path d="M209.84,327.43c-1-4.67-.34-10.41,2.93-14.05.13-.14.32,0,.28.19a66.23,66.23,0,0,0-2.62,13.83A.3.3,0,0,1,209.84,327.43Z" style="fill:#263238"></path><path d="M211.94,330.77c-1-4.67-.35-10.41,2.93-14,.12-.14.32,0,.28.2a65.49,65.49,0,0,0-2.62,13.82A.3.3,0,0,1,211.94,330.77Z" style="fill:#263238"></path><path d="M207.07,277.79c-1-5.26,7.18-6.8,8.17-1.54S208.06,283.05,207.07,277.79Z" style="fill:#263238"></path><path d="M200.9,326.5c2.78-3.15,4.1-7.39,5.77-11.16a.58.58,0,0,0-.54-.77c0-.08-.06-.15-.16-.12A25,25,0,0,0,194.81,321c-1.76,1.85-3.11,5.21-.7,7.2S199.28,328.34,200.9,326.5Zm-3.83,1c-5.18.5-2.15-4.84-.8-6.15a25.13,25.13,0,0,1,2.84-2.31,74.55,74.55,0,0,1,6.43-4c-.94,1.81-1.71,3.67-2.57,5.51C201.94,322.73,199.93,327.18,197.07,327.46Z" style="fill:#263238"></path><path d="M199.81,298.39c-3,.95-3,4.57-2,6.94a25.13,25.13,0,0,0,7.92,10.23.13.13,0,0,0,.2-.06.57.57,0,0,0,.78-.51c-.14-4.12.22-8.55-1.19-12.51C204.66,300.17,202.63,297.49,199.81,298.39Zm5.37,10.39c.12,2,.14,4.05.33,6.07a73.69,73.69,0,0,1-4.49-6.07,27,27,0,0,1-1.77-3.2c-.76-1.73-1.59-7.81,3-5.41C204.83,301.49,205,306.37,205.18,308.78Z" style="fill:#263238"></path><path d="M208,225.07h-31.1s-1.79,11.89-4.73,13.28c-8.73,4.11-46.28,9.21-68.34,20.88-19,10-21.3,33.77,4.49,43.67,35.37,13.57,83.15,15.91,83.15,15.91l-2.82-51.87s-34.9-4-61.37-3.32c0,0,27,7.4,56.84,2.27,6.83-1.18,14.43-4.57,21.2-7.08Z" style="fill:#263238"></path><path d="M182.05,313.5c-.26-2.92-.25-5.88-.36-8.81s-.23-5.88-.35-8.82c-.24-5.86-1.62-25.87-2-27.4,0-.1-.18-.08-.19,0-.17,1.41.39,14.48.56,17.42.34,5.87.85,11.72,1.31,17.58.13,1.67.29,3.34.44,5s.35,3.35.41,5A.08.08,0,0,0,182.05,313.5Z" style="fill:#37474f"></path><path d="M114.52,263.24a144.48,144.48,0,0,1,16.76-.94c-2.15-.48-4.32-.85-6.47-1.19-.12,0-.13-.21,0-.2a41.84,41.84,0,0,1,7.5,1.38c3.7,0,7.41.13,11.1.32,9.68.5,19.32,1.41,29,2.36,5.48.54,10.95,1.11,16.42,1.67a.47.47,0,0,1,.45.48c0,1.43-.11,2.87-.16,4.3a.28.28,0,0,1-.56,0c-.06-1.3-.15-2.58-.19-3.87q-14.28-1.19-28.56-2.44c-9.64-.83-19.29-1.44-29-1.66-5.43-.13-10.83-.15-16.26,0C114.43,263.44,114.41,263.25,114.52,263.24Z" style="fill:#37474f"></path><path d="M112.49,266.75c8.44,0,16.86.22,25.28.82s16.65,1.38,24.92,2.52c2.29.32,4.57.65,6.85,1s4.62.86,6.94,1.26c.09,0,.06.17,0,.16-4.16-.57-8.35-1-12.53-1.48s-8.2-1-12.31-1.36q-12.47-1.23-25-2c-4.72-.28-9.43-.58-14.15-.75A.1.1,0,0,1,112.49,266.75Z" style="fill:#37474f"></path><path d="M212,255.63a82.75,82.75,0,0,0-13.32,5.44.15.15,0,0,0,.11.28c4.48-1.68,9-3.26,13.42-5.18A.29.29,0,0,0,212,255.63Z" style="fill:#37474f"></path><path d="M214.9,225.33c0-.15-.26-.2-.27,0-.24,5.25-.81,9.86-1.5,14.75-.32,2.27-2.78,14.77-6.65,13.65-.64-.19-.94-.86-1-1.86a16,16,0,0,1,.72-3.84c.57-2.62,1.06-5.24,1.42-7.9a73.62,73.62,0,0,0,.61-14.91.13.13,0,0,0-.26,0,138.22,138.22,0,0,1-2.25,20.51c-.66,3.26-2.54,8.1.82,8.79s6.09-7.46,6.63-9.69A76.23,76.23,0,0,0,214.9,225.33Z" style="fill:#37474f"></path><path d="M206.57,254a19.58,19.58,0,0,0-1,2.57,5.79,5.79,0,0,0-.48,2.12.16.16,0,0,0,.27.08,7.62,7.62,0,0,0,1-2c.34-.8.7-1.58,1-2.38A.44.44,0,0,0,206.57,254Z" style="fill:#37474f"></path><path d="M213.54,127.6s-3.41-4.21-7.54-3.57-4.51,3.34-7,3.92-7.92.18-10.43,2.88-1.2,7.78-2.33,9.4-5.2,2.12-5.89,6c-.8,4.52,2.14,7,2.17,9.29,0,3.84-2.41,7.11,0,11.44,2.58,4.66,6.77,4.27,9.63,5.65s3.61,6.36,9.56,6.3,7.25-3.92,10.63-5.51,8.53.4,12.07-2.37,2.13-6.28,3-8.25,3.89-2.24,4.82-5.65-2.22-6.21-2.54-7.51c-.54-2.21.91-3.53.15-6.67s-4.77-5.11-5.6-6c-2-2.21-.5-7.22-3.62-9.14A6.48,6.48,0,0,0,213.54,127.6Z" style="fill:#263238"></path><path d="M187.18,133.65c-.11,2.33,0,5.15-2.17,6.62-3.27,1.83-6.42,4.77-5.35,8.83.39,2.3,2.44,4.08,2.7,6.53-.24,2.31-1.3,4.45-1.17,7A8,8,0,0,0,182.5,167c-2.21-2.44-2.06-6.09-1.38-9.1.08-.4.28-1.34.34-1.71a3.78,3.78,0,0,0-.73-2.47c-3.17-4.46-3.22-9.77,1.89-12.77,1.29-.82,2.81-1.33,3.53-2.76a18.89,18.89,0,0,0,1-4.51Z" style="fill:#263238"></path><path d="M221.32,172.39c5.83-1.58,6-3.1,6.46-8.69a2.93,2.93,0,0,1,1.14-1.69c1.82-1.46,3.56-3,3.56-5.43.28-2.3-1.32-4.3-2.5-6.33a27.82,27.82,0,0,1,2.22,2.82,6.44,6.44,0,0,1,0,7.13c-.93,1.4-2.42,2.12-3.34,3.37-.86,5.75-.89,8-7.52,8.82Z" style="fill:#263238"></path><path d="M211.6,184c5.14,19.79,24.12,48,35.89,46.56,10.49-1.27,27.77-27.95,33.06-37.47,3-5.34-23.08-19.47-25.72-14.62-3.76,6.89-7.93,19.73-10.58,21.5-1.4.94-13.56-15.4-22-22.19C211.45,169,210,177.66,211.6,184Z" style="fill: rgb(221, 106, 87);"></path><path d="M289.21,181c-2.36,5.7-11.73,15.45-14.9,16.93S253.86,184.57,254.13,181s9.86-22.67,15.36-25.7S291.66,175.11,289.21,181Z" style="fill: rgb(221, 106, 87);"></path><path d="M255.34,177a51,51,0,0,0-2-14.72c-1.84-5.64-5.21-13.82-2.22-14.92,6.16-2.27,14.56,18.12,14.56,18.12s2.27,9.58-3.63,12.37A6.48,6.48,0,0,1,255.34,177Z" style="fill: rgb(221, 106, 87);"></path><path d="M262,161.65c.49,3.23,4,.8,4,.8s-4.23,4.72-2.44,7.85,5.89-.07,6.19-.29c-.22.25-4,4.69-1.86,7.65s5.84-.73,6.08-1c-.14.3-1.85,4.34.28,6.22,3.65,3.23,8.32-7,12.07-8.19,0,0,2.8,6.13,2.92,6.29,0,0,4.64-9.61,2.71-14.59a3.42,3.42,0,0,0-3.67-2.19s1.84-2.93.24-5.32c-.83-1.22-3.51-1-3.51-1a4.26,4.26,0,0,0-.19-4.44c-1.23-1.62-3.74-1.14-3.74-1.14s.25-2.93-1.56-4.18C275.86,145.62,260.91,154.74,262,161.65Z" style="fill: rgb(221, 106, 87);"></path><path d="M280.64,152.35c.06,0,0-.11,0-.09a30.34,30.34,0,0,0-14.84,10.3c-.12.16.08.42.25.27A62,62,0,0,1,280.64,152.35Z" style="fill:#263238"></path><path d="M285,157.84c.06,0,0-.13-.06-.11A28.41,28.41,0,0,0,269.48,170c-.12.21,0,.51.13.29C272.2,166.43,280,160.36,285,157.84Z" style="fill:#263238"></path><path d="M273.84,177.18c3.52-5.64,8.48-9.58,14.17-12.9.07,0,0-.14-.07-.12-3.22.86-6.63,3.36-9.11,5.52a17.41,17.41,0,0,0-5.18,7.38C273.6,177.17,273.77,177.3,273.84,177.18Z" style="fill:#263238"></path><path d="M265.86,162.45c-.14.19.29.18.16.38-.56.81-3.52,6-2.06,7.55,1.17,1.24,3.65.54,4.49-.11l2.13-1.62-1.43,2.26a10.88,10.88,0,0,0-1.42,3.26,3.94,3.94,0,0,0,.37,3.18,2.26,2.26,0,0,0,2.66.94,6.76,6.76,0,0,0,2.77-1.95l2.14-2.35-1.25,2.91a9.85,9.85,0,0,0-.72,2.52,4.2,4.2,0,0,0,.25,2.43,2,2,0,0,0,1.78,1.16,4.45,4.45,0,0,0,2.29-1,35.36,35.36,0,0,0,4-3.77c.64-.67,1.29-1.34,2-2a6.78,6.78,0,0,1,2.3-1.57,7.1,7.1,0,0,0-2.11,1.75c-.63.68-1.22,1.39-1.82,2.1a29.77,29.77,0,0,1-3.88,4.07,5.16,5.16,0,0,1-2.71,1.28,2.87,2.87,0,0,1-2.69-1.61,5.21,5.21,0,0,1-.39-3,11.62,11.62,0,0,1,.76-2.83l.89.56a7.72,7.72,0,0,1-3.25,2.34,3.32,3.32,0,0,1-2.2,0,3.61,3.61,0,0,1-1.67-1.38,5,5,0,0,1-.48-4,12,12,0,0,1,1.62-3.56l.69.65c-1.1.78-3.79,1.87-5.84.17C260.86,168.58,265,163.35,265.86,162.45Z" style="fill:#263238"></path><path d="M266,162.45A6.42,6.42,0,0,1,264,163a1.54,1.54,0,0,1-1.41-.6,3.07,3.07,0,0,1-.36-1.72c0-.66.07-1.35.15-2.06a5.41,5.41,0,0,0-.86,2,3.08,3.08,0,0,0,.32,2.32,2.19,2.19,0,0,0,1,.77,2.34,2.34,0,0,0,1.23,0A3.49,3.49,0,0,0,266,162.45Z" style="fill:#263238"></path><path d="M245.82,197.54,219,205.92s-8.48-15.74-11-26.42c-1.88-8.14,2.54-9.81,7.29-6.94C231.18,182.12,245.82,197.54,245.82,197.54Z" style="fill:#455a64"></path><path d="M218.59,201.27c4-1.58,15.11-5.56,22.64-7.2,0,0,.1.16.06.17-6.06,2.32-18.45,6.06-22.61,7.28C218.6,201.55,218.52,201.3,218.59,201.27Z" style="fill:#263238"></path><path d="M208.06,179.5c2.47,10.68,11,26.42,11,26.42l17.85-5.58L210,171.47C208,172.2,207,174.74,208.06,179.5Z" style="opacity:0.1"></path><path d="M230.66,213.29l5.16,21-62.41-.32s8.44-44.71,18.52-57c6.83-8.34,15.42-8.25,21.2-3,1.46,1.32,16.3,21,19,29.09C233.78,208.07,230.66,213.29,230.66,213.29Z" style="fill:#455a64"></path><path d="M221,210.48a53.55,53.55,0,0,0-7.79.89c-1.27.26-2.53.57-3.78.92-.63.17-1.25.32-1.88.47a8.53,8.53,0,0,1-2,.27c-.06,0-.06.09,0,.1a15.4,15.4,0,0,0,1.92.06,14.45,14.45,0,0,0,1.85-.26c1.29-.25,2.58-.56,3.87-.82,2.6-.54,5.21-1.07,7.85-1.41A.11.11,0,0,0,221,210.48Z" style="fill:#263238"></path><path d="M227.26,213.11a57.83,57.83,0,0,0-6.43-.63c-1.08,0-2.16,0-3.24,0l-1.54.09c-.56.05-1.13.17-1.69.2-.06,0-.06.1,0,.1.53,0,1.07,0,1.61.06l1.61,0c1.07,0,2.15.07,3.23.09,2.15,0,4.3.09,6.45.2C227.37,213.29,227.37,213.13,227.26,213.11Z" style="fill:#263238"></path><path d="M183.83,295.49s-7.68,15.08,5.9,20.33,18-11.08,18-11.08Z" style="fill:#ff99ba"></path><rect x="205.44" y="178.71" width="25.67" height="126.44" transform="translate(101.85 -62.4) rotate(21.12)" style="fill:#FFC727"></rect><rect x="181.29" y="295.9" width="29.97" height="5.95" transform="translate(120.89 -50.65) rotate(21.12)" style="fill:#a6a6a6"></rect><rect x="183.66" y="289.77" width="29.97" height="5.95" transform="translate(118.84 -51.92) rotate(21.12)" style="fill:#a6a6a6"></rect><path d="M253.05,187.59l-2.35-20.71-.75-6.83-5.2,4.53-15.67,13.75,1.08,4.41s3.64-2.53,3.72-2.56L235,184.6l3.71-2.57,1,4.4s3.69-2.51,3.77-2.54l1,4.39s3.7-2.51,3.77-2.54l1,4.39S253,187.62,253.05,187.59Z" style="fill:#FFC727"></path><path d="M253.05,187.59l-2.35-20.71-.75-6.83-5.2,4.53-15.67,13.75,1.08,4.41s3.64-2.53,3.72-2.56L235,184.6l3.71-2.57,1,4.4s3.69-2.51,3.77-2.54l1,4.39s3.7-2.51,3.77-2.54l1,4.39S253,187.62,253.05,187.59Z" style="fill:#fff;opacity:0.8"></path><polygon points="250.7 166.88 249.95 160.05 244.75 164.58 250.7 166.88" style="fill:#263238"></polygon><g style="opacity:0.1"><path d="M198.16,278.22q4.68-11.66,9.2-23.36l9-23.43,8.86-23.49,4.37-11.77,4.3-11.79L229.27,196l-4.56,11.69-9,23.43-8.85,23.49Q202.45,266.43,198.16,278.22Z"></path><path d="M203.52,280.83q4.68-11.64,9.2-23.35l9-23.43,8.85-23.49L235,198.79l4.3-11.8-4.64,11.67-4.56,11.69-9,23.43-8.86,23.49C209.27,265.11,206.36,273,203.52,280.83Z"></path><path d="M208.88,283.45c3.12-7.77,6.16-15.56,9.2-23.36l9-23.43L236,213.17l4.37-11.77,4.31-11.79L240,201.27,235.42,213l-9,23.43-8.86,23.49C214.63,267.73,211.71,275.57,208.88,283.45Z"></path></g><path d="M190.68,177.16c-15.55,13.7-42,45.18-38.38,56.33,3.93,12,36,19.71,44.75,24.68,3.78,2.15,7.72-29.34,6.19-29.94-3.86-1.52-20.43-4-20.24-5.5s10.26-20,15.73-35.52C205.51,168,197.16,171.45,190.68,177.16Z" style="fill: rgb(221, 106, 87);"></path><path d="M242.8,238.31c-.11,2.26-3.9,2.8-3.9,2.8a6.85,6.85,0,0,1,1.86,4.3c.05,2.83-4.38,4.13-4.38,4.13a8.56,8.56,0,0,1,1.24,4.85c-.23,2.71-4.51,4.67-4.51,4.67a6.5,6.5,0,0,1-1.6,4.94c-2.82,2.86-9.71,2.58-14.43,1.39-4.5-1.13-17.54-6.29-20-7.22L196.63,230s20-6.51,31-2.81C232.07,228.69,243,234.07,242.8,238.31Z" style="fill: rgb(221, 106, 87);"></path><path d="M238.85,241c-4.42-2.51-9.43-4-14.28-5.3a.09.09,0,0,0,0,.17c4.84,1.28,9.45,3.88,14.23,5.35A.12.12,0,0,0,238.85,241Z" style="fill:#263238"></path><path d="M236.44,249.34a13.51,13.51,0,0,0-3.32-1c-1.2-.27-2.4-.52-3.6-.74-2.42-.46-4.84-.86-7.28-1.2-.11,0-.16.15,0,.17,2.4.46,4.8,1,7.19,1.52q1.79.42,3.57.87a15.82,15.82,0,0,0,3.39.69A.18.18,0,0,0,236.44,249.34Z" style="fill:#263238"></path><path d="M233,259a8.91,8.91,0,0,0-3-.73l-3.31-.58c-2.21-.39-4.41-.79-6.6-1.26a.09.09,0,0,0,0,.17c2.22.49,4.43,1,6.66,1.48l3.28.68a8.93,8.93,0,0,0,3,.35A.06.06,0,0,0,233,259Z" style="fill:#263238"></path><path d="M164.81,197.72l26.77,8.49s8.54-15.72,11.06-26.38c1.92-8.14-2.5-9.82-7.26-7C179.51,182.36,164.81,197.72,164.81,197.72Z" style="fill:#455a64"></path><path d="M192,201.56c-4-1.6-15.08-5.62-22.6-7.29,0,0-.11.16-.06.17,6,2.34,18.42,6.13,22.58,7.37C192,201.83,192.1,201.59,192,201.56Z" style="fill:#263238"></path><path d="M191.85,206.33c1.09-2,2-4.13,3-6.22.39-.53.77-1.06,1.12-1.61a12.51,12.51,0,0,0,1.18-2.23s0-.07-.06,0c-.21.35-.39.71-.6,1.06l-.64,1c-.22.35-.45.71-.69,1.05.93-2,1.8-4.12,2.57-6.22,0-.06-.06-.11-.09-.05-1.16,2.1-2.23,4.24-3.23,6.42s-2,4.25-2.85,6.43c-.38-.09-.75-.19-1.14-.26-.1,0-.16.13-.06.17.4.21.81.37,1.23.54A.22.22,0,0,0,191.85,206.33Z" style="fill:#263238"></path><path d="M201.67,173.05c.41,1.59,4.77,8.59,9.66,8,2.52-.28,1.89-9.11,1.89-9.11l.08-.66,1-9.21-12.93-6.38S201.55,172.6,201.67,173.05Z" style="fill: rgb(221, 106, 87);"></path><path d="M201.47,162a18.61,18.61,0,0,0,11.83,9.3l1-9.22-12.94-6.38S201.43,158.61,201.47,162Z" style="fill:#263238"></path><path d="M226,147.2c2.66,16.07-6.66,19.47-10.13,20-3.14.52-13.92,1.87-18.22-13.83s2.33-22,9.46-23.58S223.37,131.14,226,147.2Z" style="fill: rgb(221, 106, 87);"></path><path d="M223,143.91a8.34,8.34,0,0,1-1.12-.12,1.76,1.76,0,0,1-1.12-.33.57.57,0,0,1-.07-.7,1.45,1.45,0,0,1,1.37-.49,2.11,2.11,0,0,1,1.4.61A.62.62,0,0,1,223,143.91Z" style="fill:#263238"></path><path d="M212.09,145.1a9.52,9.52,0,0,0,1.07-.34,1.86,1.86,0,0,0,1-.57.58.58,0,0,0-.08-.7,1.43,1.43,0,0,0-1.44-.18,2.06,2.06,0,0,0-1.24.88A.61.61,0,0,0,212.09,145.1Z" style="fill:#263238"></path><path d="M214.68,149s-.08.06-.07.11c.18,1.09.2,2.38-.75,2.87,0,0,0,.07,0,.06C215.07,151.67,215,150,214.68,149Z" style="fill:#263238"></path><path d="M213.55,147.94c-1.78.09-1.46,3.66.19,3.57S215.05,147.86,213.55,147.94Z" style="fill:#263238"></path><path d="M212.87,148.19c-.29.23-.57.61-.94.68s-.79-.26-1.11-.59c0,0-.06,0,0,0,0,.69.37,1.37,1.11,1.4s1.11-.61,1.21-1.32C213.11,148.27,213,148.1,212.87,148.19Z" style="fill:#263238"></path><path d="M221.25,148.17s.09.05.09.09c.06,1.11.31,2.37,1.34,2.65,0,0,0,.07,0,.07C221.44,150.9,221.12,149.23,221.25,148.17Z" style="fill:#263238"></path><path d="M222.14,146.94c1.77-.28,2.2,3.27.56,3.53S220.66,147.17,222.14,146.94Z" style="fill:#263238"></path><path d="M222.91,147.08c.3.15.62.46,1,.44s.63-.44.84-.84c0,0,0,0,.06,0,.1.67,0,1.41-.68,1.62s-1.08-.34-1.33-1C222.72,147.22,222.79,147,222.91,147.08Z" style="fill:#263238"></path><path d="M215.4,157.62c.23.29.44.68.83.77a3.15,3.15,0,0,0,1.22-.11s.07,0,0,.06a1.49,1.49,0,0,1-1.47.4,1.15,1.15,0,0,1-.73-1.09C215.28,157.59,215.36,157.58,215.4,157.62Z" style="fill:#263238"></path><path d="M220,153.22s.39,1.62.47,2.4a4.21,4.21,0,0,1-4.2-.84c-.07-.07,0-.16.11-.12a5.6,5.6,0,0,0,3.47.62c0-.22-.77-2.76-.65-2.78a6.67,6.67,0,0,1,1.81.22c-.73-3.41-2-6.67-2.67-10.07,0-.12.16-.18.2-.07a56.32,56.32,0,0,1,3.33,10.72C222,153.74,220.35,153.32,220,153.22Z" style="fill:#263238"></path><path d="M219.43,155.64a4,4,0,0,1-1.51,1.39,1.82,1.82,0,0,1-1.09.16c-.81-.15-.89-.87-.8-1.51a4.69,4.69,0,0,1,.28-1A5.22,5.22,0,0,0,219.43,155.64Z" style="fill:#263238"></path><path d="M217.92,157a1.82,1.82,0,0,1-1.09.16c-.81-.15-.89-.87-.8-1.51A1.87,1.87,0,0,1,217.92,157Z" style="fill:#ff9abb"></path><path d="M198.55,152.89c3,.2,3.42-6.79,3.42-6.79s12.79-3,13.26-13.56a17.85,17.85,0,0,0,9.57,9.21s-1.14-11.51-10.43-13.21c0,0-11.59-3.45-17.44,5.94S196.49,152.76,198.55,152.89Z" style="fill:#263238"></path><path d="M215.23,131.76a11.49,11.49,0,0,1-.29,4.84,11.9,11.9,0,0,1-2.19,4.4,10.17,10.17,0,0,1-.82.92l-.42.45c-.15.14-.31.27-.47.4-.32.26-.63.53-1,.77s-.7.44-1.05.65a5.64,5.64,0,0,1-.53.31l-.55.26-1.11.5c-.77.27-1.55.49-2.32.7.72-.37,1.46-.66,2.17-1l1-.58.52-.29.48-.35,1-.68c.31-.25.59-.52.89-.78l.44-.38.39-.44c.25-.3.55-.56.77-.88a13.87,13.87,0,0,0,2.22-4.11,14.63,14.63,0,0,0,.59-2.3A14.44,14.44,0,0,0,215.23,131.76Z" style="fill:#263238"></path><path d="M200.43,152.17s-3.94-4.79-6.14-3.35,1,8.58,3.81,9.37a2.74,2.74,0,0,0,3.56-1.76Z" style="fill: rgb(221, 106, 87);"></path><path d="M195.27,150.84s-.05.06,0,.08c2,.62,3.09,2.29,3.92,4.06a1.52,1.52,0,0,0-2.3-.24s0,.11.06.1a1.69,1.69,0,0,1,1.91.44,8,8,0,0,1,1,1.44c.11.16.4,0,.32-.15v0C200,154.12,197.88,150.88,195.27,150.84Z" style="fill:#263238"></path><path d="M198.36,157.57a.7.7,0,1,0,.43-.89A.69.69,0,0,0,198.36,157.57Z" style="fill:#455a64"></path><path d="M198.71,157.44a.33.33,0,0,0,.42.21.34.34,0,0,0,.2-.43.33.33,0,1,0-.62.22Z" style="fill:#263238"></path><path d="M197.08,156.81a.49.49,0,0,0,.63.3.49.49,0,1,0-.63-.3Z" style="fill:#455a64"></path></g><g id="freepik--character-3--inject-213"><path d="M427.68,380.13l23.65,39.1c3.84,7.9,7.07,14.91,8.41,18.68a.14.14,0,0,1,0,.06,6.19,6.19,0,0,1,.6,2.73.64.64,0,0,1,0,.07c-1.58,2.74-63.87,35.3-66.43,35.71s-3.9-6.85-2.5-10,19.7-26.33,19.7-26.33l-23.23-39.25Z" style="fill: rgb(247, 169, 160);"></path><path d="M391.41,466.44c-1.4,3.19-.06,10.46,2.5,10s64.85-33,66.43-35.7c0,0,0,0,0-.08a6.13,6.13,0,0,0-.6-2.72.15.15,0,0,0,0-.07c-1.33-3.77-4.56-10.78-8.4-18.69,0,0-3.76-6.22-8.29-13.7l-15.36-25.4-39.81,20.74,15.62,26.39,7.61,12.86S392.85,463.24,391.41,466.44Z" style="fill: rgb(247, 169, 160);"></path><path d="M393.91,476.48c2.56-.41,64.85-33,66.43-35.7,0,0,0,0,0-.08a6.13,6.13,0,0,0-.6-2.72.15.15,0,0,0,0-.07c-1.33-3.77-4.56-10.78-8.4-18.69,0,0-3.76-6.22-8.29-13.7l-39.8,21.3,7.86,13.29s-18.25,23.13-19.69,26.33S391.35,476.9,393.91,476.48Z" style="fill:#ebebeb"></path><path d="M393.34,477c1.68-.28,28.37-14.13,47.56-24.68,4.44-2.45,8.48-4.72,11.72-6.6,4.45-2.6,7.38-4.45,7.72-5,.73-1.28-5.75-14.93-12.89-29.18l-40.93,21.42,4.08,7.27s-18.38,23.43-19.81,26.66S390.77,477.36,393.34,477Z" style="fill:#FFC727"></path><path d="M392.92,474c10.39-5.8,52.86-28.25,63.57-33.2.09,0,.12,0,0,.07-10.18,6-52.82,28.08-63.52,33.31C392.79,474.25,392.7,474.09,392.92,474Z" style="fill:#263238"></path><path d="M407.88,438.59c3.73-2.95,9.14-5,13.86-3.71.18.05.11.31-.05.34a65.71,65.71,0,0,0-13.52,3.89A.3.3,0,0,1,407.88,438.59Z" style="fill:#263238"></path><path d="M405.84,442c3.73-3,9.13-5,13.86-3.71.18.05.11.31-.05.34a65.71,65.71,0,0,0-13.52,3.89A.3.3,0,0,1,405.84,442Z" style="fill:#263238"></path><path d="M403.8,445.35c3.73-3,9.13-5,13.86-3.71.18.05.11.31-.05.34a65.71,65.71,0,0,0-13.52,3.89A.3.3,0,0,1,403.8,445.35Z" style="fill:#263238"></path><path d="M401.76,448.73c3.73-3,9.13-5,13.86-3.71.18.05.11.31-.05.34a65.69,65.69,0,0,0-13.52,3.88A.3.3,0,0,1,401.76,448.73Z" style="fill:#263238"></path><path d="M400.14,438c4.13.73,8.44-.35,12.53-.88a.58.58,0,0,0,.37-.86.13.13,0,0,0,0-.21,25,25,0,0,0-11.38-6.12c-2.5-.54-6.06.05-6.5,3.15C394.75,436,397.73,437.54,400.14,438Zm-2.81-2.78c-3.13-4.16,3-4.35,4.84-3.87a26.49,26.49,0,0,1,3.44,1.21,73.37,73.37,0,0,1,6.73,3.43c-2,.14-4,.46-6,.67C403.9,436.89,399.05,437.48,397.33,435.19Z" style="fill:#263238"></path><path d="M423.57,422.42c-2.37-2.05-5.45-.17-7,1.87A25,25,0,0,0,412,436.36a.12.12,0,0,0,.15.14.58.58,0,0,0,.85.41c3.44-2.27,7.41-4.26,10-7.52C424.57,427.49,425.8,424.37,423.57,422.42Zm-6.08,10c-1.67,1.15-3.38,2.22-5,3.43.91-2.35,1.71-4.73,2.85-7a26.82,26.82,0,0,1,1.82-3.17c1.07-1.55,5.83-5.42,6.19-.23C423.53,428.32,419.47,431,417.49,432.41Z" style="fill:#263238"></path><path d="M393.35,477c.84-.14,7.85-3.64,17-8.41L401,452.6c-4.7,6.15-9.49,12.63-10.2,14.21C389.38,470,390.77,477.36,393.35,477Z" style="opacity:0.1"></path><path d="M448.13,407.18l-45.3,24.19s-57.19-81.49-58.33-102.91c-1.58-29.57,24.18-123.54,24.18-123.54l39.76-.18s-16.37,96.55-15,113C394.1,326.38,448.13,407.18,448.13,407.18Z" style="fill:#37474f"></path><path d="M398.87,422c2.33-1.68,23.81-14.13,40.16-22.07.11-.06.18.1.09.16-5,3.28-37,20.84-40.13,22.08C398.89,422.22,398.77,422.08,398.87,422Z" style="fill:#263238"></path><path d="M387.81,297.13c1.87-14.13,3.93-28.23,6.27-42.29s4.85-28.23,7.8-42.24c.36-1.71.74-3.42,1.11-5.13a.21.21,0,0,1,.41.08c-2.48,13.9-5,27.79-7.31,41.72s-4.42,27.89-6.33,41.88q-.7,5.19-1.38,10.4a92.9,92.9,0,0,0-1,10.79,27.6,27.6,0,0,0,1.73,10.1,58.58,58.58,0,0,0,4.64,9.1c7.28,12.32,39.92,66.19,40.76,67.76.06.1-.08.21-.15.1-7.83-12.15-32.12-51-39.51-63.48-3.33-5.65-7.15-11.37-8.24-18C385.45,311.1,386.91,303.93,387.81,297.13Z" style="fill:#263238"></path><path d="M399,406.74s1,45.94,1,46c-.14,8.79-.42,16.5-.94,20.47a.13.13,0,0,1,0,.06,6.15,6.15,0,0,1-.69,2.71l0,.05c-2.65,1.73-72.93,2.64-75.39,1.85s-.4-7.88,2.3-10.09,29.47-14.59,29.47-14.59l-.55-45.91Z" style="fill: rgb(247, 169, 160);"></path><path d="M322.89,477.84c2.47.81,72.75-.11,75.39-1.83,0,0,0,0,.06-.06a6.46,6.46,0,0,0,.7-2.71v-.07c.52-4,.81-11.67.95-20.46,0,0-.14-6.34-.31-14.3l-45.19-.06.17,14.82s-26.74,12.38-29.46,14.59S320.43,477.06,322.89,477.84Z" style="fill:#ebebeb"></path><path d="M322.36,478.13c1.62.51,31.69.37,53.58-.27,5.07-.15,9.7-.33,13.44-.52,5.15-.28,8.6-.59,9.16-.95,1.24-.81,1.7-15.92,1.85-31.86l-46.19.39.31,8.33s-27,12.47-29.79,14.69S319.88,477.32,322.36,478.13Z" style="fill:#FFC727"></path><path d="M323.35,475.28c11.9-.43,59.92-1,71.72-.55.09,0,.09.07,0,.08-11.78.68-59.82.89-71.72.66C323.1,475.47,323.1,475.29,323.35,475.28Z" style="fill:#263238"></path><path d="M352.8,450.63c4.67-.93,10.41-.28,14,3,.14.13,0,.32-.19.28a65.56,65.56,0,0,0-13.81-2.71A.3.3,0,0,1,352.8,450.63Z" style="fill:#263238"></path><path d="M349.44,452.7c4.67-.93,10.41-.27,14,3,.13.13-.05.33-.2.28a66.07,66.07,0,0,0-13.81-2.71A.3.3,0,0,1,349.44,452.7Z" style="fill:#263238"></path><path d="M346.08,454.78c4.68-.93,10.41-.28,14,3,.14.13-.05.33-.2.28a66,66,0,0,0-13.8-2.71A.3.3,0,0,1,346.08,454.78Z" style="fill:#263238"></path><path d="M342.73,456.85c4.67-.92,10.4-.27,14,3,.14.12,0,.32-.2.27a66,66,0,0,0-13.8-2.71A.3.3,0,0,1,342.73,456.85Z" style="fill:#263238"></path><path d="M346.2,446.54c3.34,2.54,7.66,3.54,11.55,4.93a.59.59,0,0,0,.73-.59c.07,0,.14-.08.1-.17a25,25,0,0,0-7.33-10.65c-2-1.62-5.41-2.72-7.23-.17S344.25,445.06,346.2,446.54ZM345,442.79c-.88-5.13,4.67-2.5,6.07-1.25a27.53,27.53,0,0,1,2.52,2.66c1.64,1.92,3,4.05,4.42,6.12-1.87-.8-3.79-1.43-5.68-2.16C350,447.29,345.45,445.61,345,442.79Z" style="fill:#263238"></path><path d="M374.14,443.39c-1.17-2.9-4.77-2.64-7.07-1.52a25,25,0,0,0-9.61,8.64.12.12,0,0,0,.06.19c-.07.35.15.8.57.75,4.1-.45,8.54-.41,12.38-2.1C372.72,448.36,375.24,446.14,374.14,443.39Zm-10,6.11c-2,.27-4,.44-6,.78a74.49,74.49,0,0,1,5.72-4.92,26.92,26.92,0,0,1,3.07-2c1.66-.89,7.66-2.16,5.61,2.63C371.42,448.62,366.57,449.19,364.17,449.5Z" style="fill:#263238"></path><path d="M368.68,204.92a.28.28,0,0,0,0,.05c.27.83,14.74,40.49,16.1,41.12,1.55.71-32,57-34,83.17-1.27,16.73,1.22,111.39,1.22,111.39h49s-2.36-85.11-3.48-112.07c-.43-10.46,33.65-62.53,34.06-94.95.14-10.22-7.21-28.89-7.21-28.89Z" style="fill:#37474f"></path><path d="M397.3,327.85c0-.44.34-.57.38-.13,1.1,14.59,1.36,29.11,2.06,43.73s.3,18.09.95,32.66c.37,8.25,0,16.52.21,24.78,0,.13-.19.15-.2,0C399.17,414.36,397.31,336.11,397.3,327.85Z" style="fill:#263238"></path><path d="M350.84,329.83a71.6,71.6,0,0,1,1-10.74,53.75,53.75,0,0,1,3-10.09c2.71-6.83,5.91-13.48,9-20.16s6.26-13.49,9.53-20.17q2.76-5.64,5.54-11.25c1.89-3.79,3.91-7.51,5.89-11.25a.13.13,0,0,1,.23.11c-3.14,6.75-6.24,13.51-9.38,20.25s-6.22,13.52-9.31,20.28-6.07,13.32-8.93,20.06a64.8,64.8,0,0,0-3.5,9.91,58.13,58.13,0,0,0-1.44,10.67c-.47,8.37-.7,16.77-1.52,25.12,0,.1-.19.09-.19,0C350.49,345,350.61,337.39,350.84,329.83Z" style="fill:#263238"></path><path d="M355.6,431c2.86-.37,24.56-1.12,42.73-.35a.1.1,0,0,1,0,.19c-5.92.53-39.36.75-42.69.37C355.52,431.17,355.48,431,355.6,431Z" style="fill:#263238"></path><path d="M378,243.89a93.49,93.49,0,0,1,15.32,5.31.17.17,0,0,1-.1.32c-5.15-1.62-10.38-3.13-15.42-5A.32.32,0,0,1,378,243.89Z" style="fill:#263238"></path><path d="M373.08,210.3c0-.17.29-.24.31-.06.56,5.85,1.46,11,2.51,16.38.49,2.51,4,16.32,8.26,14.85.72-.25,1-1,1-2.13a17.62,17.62,0,0,0-1-4.24c-.79-2.89-1.48-5.79-2-8.73a80.55,80.55,0,0,1-1.52-16.61.15.15,0,0,1,.29,0,153.53,153.53,0,0,0,3.68,22.76c.93,3.59,3.33,8.89-.43,9.85s-7.28-8-8-10.44A84.45,84.45,0,0,1,373.08,210.3Z" style="fill:#263238"></path><path d="M384.09,241.86a23.73,23.73,0,0,1,1.28,2.81A6.73,6.73,0,0,1,386,247a.17.17,0,0,1-.3.1,8.51,8.51,0,0,1-1.26-2.22c-.43-.87-.87-1.72-1.27-2.6A.49.49,0,0,1,384.09,241.86Z" style="fill:#263238"></path><path d="M392.28,342.25c-.25-7-1-14.28,1.26-21a72,72,0,0,1,4.47-9.54q2.55-4.9,5-9.87c6.54-13.22,12.71-26.66,18.22-40.35,2.66-6.59,5-13.36,6-20.43a63,63,0,0,0-1.37-22.23c-.42-1.81-.85-3.62-1.35-5.41,0-.13.16-.2.2-.07a72.94,72.94,0,0,1,3.82,21.26,60,60,0,0,1-3.68,20.31c-2.35,6.84-5.3,13.49-8.19,20.11q-4.48,10.25-9.31,20.32c-3.21,6.68-6.63,13.25-10,19.84a35.7,35.7,0,0,0-3.76,10,51.49,51.49,0,0,0-.41,11c.58,15.41,1.91,66.7,2.11,82.07,0,2,0,3.91.07,5.86,0,.17-.26.19-.27,0C394.09,408.78,392.84,357.61,392.28,342.25Z" style="fill:#263238"></path><path d="M403.28,214.91c0-.11.17-.09.18,0,.58,4.24.91,8.64,3,12.48,1.88,3.53,5.15,5.81,8.72,7.4a65.69,65.69,0,0,0,6.37,2.35c.15,0,.12.29-.05.26-4.06-.85-8.18-1.79-11.7-4.07-3.77-2.43-5.71-6.33-6.33-10.7A36.34,36.34,0,0,1,403.28,214.91Z" style="fill:#263238"></path><path d="M404.06,148.29c0,3.63,1.89,4.86,2,6.8,0,0-8.27,3.91-22.29,3.91s-22.29-3.91-22.29-3.91c.11-1.94,2-3.17,2-6.8,0-4.18-2.8-4.49-2.14-10.84.5-4.73,4.05-5.31,4.61-14.6.58-9.61,4.23-13.48,7.05-15.66a15.9,15.9,0,0,1,10.77-3.58s5-1,10.49,3.24c2.83,2.18,6.75,6.39,7.33,16,.56,9.29,4.12,9.87,4.61,14.6C406.86,143.8,404.06,144.11,404.06,148.29Z" style="fill:#263238"></path><path d="M365.76,128c1.21-2.66,1.16-5.82.93-8.71,0-.14-.2-.15-.2,0,0,2.77.09,5.63-1,8.2-1,2.22-2.75,3.82-4.11,5.71a10,10,0,0,0-2,6.06,9.71,9.71,0,0,0,.61,3.31,23.14,23.14,0,0,0,1.69,3c1.71,3.07-.35,6.35-2,8.77,0,0,0,.06,0,0,1.39-1.83,2.89-3.85,3-6.34a5.68,5.68,0,0,0-.93-3.32,11.13,11.13,0,0,1-1.62-3.51,9.36,9.36,0,0,1,1.52-7.45C363,131.84,364.75,130.24,365.76,128Z" style="fill:#263238"></path><path d="M407.59,137.16c-.49-2.69-1.91-4.71-3.35-6.86a16,16,0,0,1-1.82-3.35,21.13,21.13,0,0,1-1-4.25c-.24-1.59-.44-3.17-.83-4.72a29.22,29.22,0,0,0-1.6-4.49c0-.07-.12,0-.09.06a31.67,31.67,0,0,1,2.1,8.68,17.72,17.72,0,0,0,2.28,7.46c1.36,2.18,3,4.12,3.67,6.73.7,2.78.91,6.23-.5,8.77-1.15,2.08-3.4,4.5-2.2,7.14a.08.08,0,0,0,.14-.06c-1-3,1.61-5.17,2.72-7.57S408,139.58,407.59,137.16Z" style="fill:#263238"></path><path d="M424.43,204.74l-55.63.93L370.33,185s-4.93-4.06-4.57-9.88c.31-5,13-25.64,13.76-26.93,3.06-5.26,9.85-4.88,13.75-2.47,13.93,8.58,18.15,29.54,23.52,42.75Z" style="fill:#FFC727"></path><path d="M383.71,181.65a28.69,28.69,0,0,0-6.16,1.45c-1,.38-2,.82-3,1.3-.49.24-1,.46-1.49.66a4.62,4.62,0,0,1-1.59.44s-.05.11,0,.11a7,7,0,0,0,1.52,0,7.69,7.69,0,0,0,1.46-.39c1-.37,2-.81,3.06-1.19a60.42,60.42,0,0,1,6.21-2.09C383.83,181.89,383.81,181.64,383.71,181.65Z" style="fill:#263238"></path><path d="M388.74,184.55a30.15,30.15,0,0,0-5.11-.46,20.18,20.18,0,0,0-2.56.19c-.4.05-.81.12-1.22.19s-.89.25-1.34.32c0,0-.05.12,0,.12.42,0,.85,0,1.28,0l1.28,0c.85,0,1.7,0,2.55,0,1.71-.06,3.41-.09,5.12-.06C388.83,184.77,388.83,184.57,388.74,184.55Z" style="fill:#263238"></path><path d="M389.62,148.32c-.32,1.05-5.82,7.66-10.68,7.13-1.58-.17-1-8.85-1-8.85l-.1-.65-1.46-9.1,10.95-6.12,1.58-.8s.23,2.51.5,5.65q0,.21,0,.45c0,.17,0,.34.05.51,0,.46.09.94.13,1.42s0,.71.07,1.1l.06,1.13A57.94,57.94,0,0,1,389.62,148.32Z" style="fill: rgb(247, 169, 160);"></path><path d="M389.39,135.58A18.47,18.47,0,0,1,377.82,146l-1.46-9.1,10.95-6.12,1.58-.8S389.12,132.44,389.39,135.58Z" style="fill:#263238"></path><path d="M363.7,123.62c-1.47,16.1,8,18.8,11.48,19.11,3.15.29,13.92.86,17.05-15s-3.9-21.64-11.07-22.67S365.17,107.51,363.7,123.62Z" style="fill: rgb(247, 169, 160);"></path><path d="M366.59,120.28a10.43,10.43,0,0,0,1.12-.17,1.81,1.81,0,0,0,1.1-.4.56.56,0,0,0,0-.7,1.44,1.44,0,0,0-1.4-.42,2.12,2.12,0,0,0-1.37.68A.62.62,0,0,0,366.59,120.28Z" style="fill:#263238"></path><path d="M377.65,122.21a9.77,9.77,0,0,1-1.1-.25,1.78,1.78,0,0,1-1.08-.47.56.56,0,0,1,0-.7,1.43,1.43,0,0,1,1.43-.32,2.13,2.13,0,0,1,1.32.76A.63.63,0,0,1,377.65,122.21Z" style="fill:#263238"></path><path d="M375.42,124.9s.08.06.08.1c-.16,1.11-.15,2.4.81,2.87,0,0,0,.07,0,.06C375.09,127.63,375.1,125.92,375.42,124.9Z" style="fill:#263238"></path><path d="M376.54,123.85c1.79.06,1.54,3.64-.12,3.59S375,123.8,376.54,123.85Z" style="fill:#263238"></path><path d="M377.23,124.09c.3.22.58.6.95.67s.79-.28,1.1-.62c0,0,.06,0,.06,0,0,.69-.35,1.38-1.09,1.43s-1.12-.6-1.24-1.3C377,124.18,377.11,124,377.23,124.09Z" style="fill:#263238"></path><path d="M368.65,124.37s-.09,0-.09.1c0,1.11-.19,2.39-1.21,2.72,0,0,0,.07,0,.07C368.6,127.12,368.83,125.43,368.65,124.37Z" style="fill:#263238"></path><path d="M367.69,123.18c-1.78-.19-2,3.39-.38,3.57S369.19,123.34,367.69,123.18Z" style="fill:#263238"></path><path d="M366.93,123.36c-.3.17-.6.5-.94.5s-.66-.41-.88-.8c0,0-.06,0-.06,0-.07.68.11,1.41.75,1.59s1.08-.39,1.29-1.06C367.13,123.49,367.05,123.29,366.93,123.36Z" style="fill:#263238"></path><path d="M374.81,133.9c-.25.28-.49.65-.89.71a2.85,2.85,0,0,1-1.22-.2,0,0,0,0,0,0,.06,1.48,1.48,0,0,0,1.45.51,1.18,1.18,0,0,0,.81-1C374.93,133.88,374.84,133.86,374.81,133.9Z" style="fill:#263238"></path><path d="M370.11,130.1a24.55,24.55,0,0,0-.21,2.45c0,.07.19.1.46.12,0,0,0,0,0,0a3.72,3.72,0,0,0,3.6-1.43.08.08,0,0,0-.11-.11,5.62,5.62,0,0,1-3.4,1c-.05-.21.46-2.84.34-2.84a6.34,6.34,0,0,0-1.78.42c.35-3.48,1.25-6.88,1.54-10.35a.11.11,0,0,0-.21-.05,56.34,56.34,0,0,0-2.12,11.07C368.19,130.84,369.79,130.24,370.11,130.1Z" style="fill:#263238"></path><path d="M370.9,132.22a3.94,3.94,0,0,0,1.49,1.34,1.84,1.84,0,0,0,1.07.14c.79-.15.86-.87.76-1.49a4.32,4.32,0,0,0-.28-1A5.07,5.07,0,0,1,370.9,132.22Z" style="fill:#263238"></path><path d="M372.39,133.56a1.84,1.84,0,0,0,1.07.14c.79-.15.86-.87.76-1.49A1.84,1.84,0,0,0,372.39,133.56Z" style="fill:#ff99ba"></path><path d="M391.34,129.62c-2.69-.06-2.76-5.72-2.76-5.72s-5.43-.51-6.46-8.5a12.07,12.07,0,0,0,1.77,6.69s-9.48-2-12.73-10.35c0,0,1.21,4.24,2.58,5.83a11.27,11.27,0,0,1-5.55-5s-2.26,4.59-3.67,5.74c0,0,0-18.54,17.5-13.55,0,0,9.66,1.59,12.4,9.63S391.34,129.62,391.34,129.62Z" style="fill:#263238"></path><path d="M388.59,127.64s3.55-5,5.84-3.76-.4,8.57-3.1,9.56a2.73,2.73,0,0,1-3.65-1.49Z" style="fill: rgb(247, 169, 160);"></path><path d="M393.61,126a0,0,0,0,1,0,.07c-1.89.76-2.89,2.5-3.59,4.31a1.51,1.51,0,0,1,2.26-.4s0,.11-.05.1a1.69,1.69,0,0,0-1.86.58,8.63,8.63,0,0,0-.89,1.49c-.09.17-.39.08-.33-.11l0-.05C389.14,129.54,391,126.18,393.61,126Z" style="fill:#263238"></path><rect x="325.37" y="157.1" width="54.8" height="54.8" transform="matrix(0.99, -0.16, 0.16, 0.99, -25.54, 60.52)" style="fill:#a6a6a6"></rect><circle cx="352.2" cy="181.04" r="10.43" transform="translate(34.2 417.04) rotate(-63.79)" style="fill:#fff"></circle><path d="M373.7,205.1l.6,3.59-34,5.67-.46-2.76c-.05-.27-.08-.55-.12-.83a17.26,17.26,0,0,1,34-5.67Z" style="fill:#fff"></path><path d="M402.73,158c2.85,9.29,7.3,48.12,3.16,52.74-10.38,11.59-33,14.79-41.6,16-2,.27-5.64-26.33-.91-27.36,7.46-1.64,22.35-3.16,23.46-4.32,1.93-2,4-21.67,6.63-35C395.85,148,401.05,152.54,402.73,158Z" style="fill: rgb(247, 169, 160);"></path><path d="M324.62,205c-.07,2.07,3.34,2.86,3.34,2.86a6.29,6.29,0,0,0-2,3.78c-.25,2.59,3.7,4.11,3.7,4.11a7.75,7.75,0,0,0-1.5,4.33c0,2.5,3.77,4.61,3.77,4.61a6,6,0,0,0,1.08,4.63c2.36,2.83,8.68,3.09,13.08,2.36,4.2-.69,16.5-4.42,18.84-5.09l2.5-25.67s-17.75-7.46-28.14-4.91C335.14,197,324.75,201.07,324.62,205Z" style="fill: rgb(247, 169, 160);"></path><path d="M328,207.7c4.23-2,8.91-2.9,13.44-3.76a.08.08,0,0,1,0,.16c-4.52.8-8.93,2.83-13.4,3.81A.11.11,0,0,1,328,207.7Z" style="fill:#263238"></path><path d="M329.59,215.51a12.57,12.57,0,0,1,3.11-.65c1.11-.15,2.23-.29,3.35-.41,2.24-.23,4.48-.42,6.73-.54.1,0,.14.15,0,.16-2.23.24-4.46.51-6.68.85-1.11.16-2.22.34-3.33.52a14.59,14.59,0,0,1-3.15.38A.16.16,0,0,1,329.59,215.51Z" style="fill:#263238"></path><path d="M332,224.62a8.42,8.42,0,0,1,2.83-.43l3.07-.28c2-.19,4.08-.39,6.12-.66.1,0,.13.15,0,.16-2.07.28-4.13.59-6.2.85-1,.13-2,.26-3.05.37a8,8,0,0,1-2.79.1A.06.06,0,0,1,332,224.62Z" style="fill:#263238"></path><path d="M385.61,191.93,411,199.45s-1.49-24.23-7.25-40.5c-4.49-12.7-9.09-12.24-11.51-1.12S385.61,191.93,385.61,191.93Z" style="fill:#FFC727"></path><path d="M392.2,157.83c2.42-11.12,7-11.58,11.51,1.12,5.76,16.27,7.25,40.5,7.25,40.5l-25.35-7.52S389.77,169,392.2,157.83Z" style="fill:#FFC727"></path><path d="M410.66,196.23c-2-9.18-3-18.56-4.3-27.84,2.68,9,3.69,18.48,4.3,27.84Z" style="fill:#263238"></path><path d="M407.64,169.46a5.17,5.17,0,0,1-.21,4,19.24,19.24,0,0,1,.21-4Z" style="fill:#263238"></path><path d="M386,190c.8-8.59,2-17.26,4.81-25.46C389.38,173,388.14,181.6,386,190Z" style="fill:#263238"></path><path d="M389.67,165.45a13.82,13.82,0,0,1,0,3.69,4.56,4.56,0,0,1,0-3.69Z" style="fill:#263238"></path><polygon points="383.14 193.43 411.47 202.48 411.08 201.34 412.87 200.5 412.57 199.64 413.29 197.21 384.68 189.15 385.08 190.35 383.67 191.37 384.18 192.41 383.14 193.43" style="fill:#FFC727"></polygon><polygon points="383.14 193.43 411.47 202.48 411.08 201.34 412.87 200.5 412.57 199.64 413.29 197.21 384.68 189.15 385.08 190.35 383.67 191.37 384.18 192.41 383.14 193.43" style="opacity:0.1"></polygon></g><g id="freepik--speech-bubble-1--inject-213"><path d="M277.41,108.45a24.14,24.14,0,0,1-38.53,19.39l-11.83,3,4.93-11a24.14,24.14,0,1,1,45.43-11.39Z" style="fill:#fff"></path><path d="M277.41,108.45c.16,14-12.36,25.49-26.25,24.29a24.28,24.28,0,0,1-12.49-4.62l.3.06-11.81,3.1-.88.23.37-.83,4.89-11v.42c-5.56-9.89-2.86-23.26,5.93-30.36,15.83-13.09,39.91-1.78,39.93,18.74Zm0,0c.07-15.43-15-27.21-30-23.12-14.74,3.65-22.35,21-15.06,34.28l.11.21-.09.22-5,11-.51-.6,11.85-2.94.17,0a23.59,23.59,0,0,0,15.54,4.88c12.57-.31,23-11.35,22.91-23.88Z" style="fill:#263238"></path><path d="M244.83,108.45a2,2,0,1,1-2-2A2,2,0,0,1,244.83,108.45Z" style="fill:#263238"></path><path d="M255.29,108.45a2,2,0,1,1-2-2A2,2,0,0,1,255.29,108.45Z" style="fill:#263238"></path><path d="M265.75,108.45a2,2,0,1,1-2-2A2,2,0,0,1,265.75,108.45Z" style="fill:#263238"></path></g></svg>