<svg xmlns="http://www.w3.org/2000/svg" viewBox="0 0 500 500"><g id="freepik--background-complete--inject-2"><path d="M263.6,89.39c0-18.56.68-37.22,2-55.73,0,18.56-.68,37.22-2,55.73Z" style="fill:#a6a6a6"></path><path d="M431.27,303.1c-11.52-9.32-22.68-19.23-33.3-29.57,11.52,9.32,22.68,19.23,33.3,29.57Z" style="fill:#a6a6a6"></path><path d="M171.82,75.63C165.35,62.49,159.45,49,154.23,35.29c6.47,13.14,12.37,26.65,17.59,40.34Z" style="fill:#a6a6a6"></path><path d="M90.35,155.49a359.61,359.61,0,0,1-37.58-8,359.61,359.61,0,0,1,37.58,8Z" style="fill:#a6a6a6"></path><path d="M94.44,279.74A169.48,169.48,0,0,1,71.62,292.9a170.72,170.72,0,0,1,22.82-13.16Z" style="fill:#a6a6a6"></path><path d="M402.12,241.35a245,245,0,0,1,30.58,8.21,244.5,244.5,0,0,1-30.58-8.21Z" style="fill:#a6a6a6"></path><path d="M371,135.49c13.57-12.22,27.67-24,42.1-35.2-13.57,12.23-27.67,24-42.1,35.2Z" style="fill:#a6a6a6"></path><path d="M86.28,169.3A149.9,149.9,0,0,1,61.51,171a148.82,148.82,0,0,1,24.77-1.67Z" style="fill:#a6a6a6"></path><path d="M328.13,39.72A284.28,284.28,0,0,1,312.8,70.17a283.34,283.34,0,0,1,15.33-30.45Z" style="fill:#a6a6a6"></path><path d="M410.62,147.91c-14.24,5.67-28.81,10.75-43.49,15.16,14.24-5.68,28.81-10.76,43.49-15.16Z" style="fill:#a6a6a6"></path><path d="M398,163.44c18.42-3.31,37.07-6,55.68-7.95-18.42,3.31-37.07,6-55.68,7.95Z" style="fill:#a6a6a6"></path><path d="M86.87,270c-13.24,5.48-26.82,10.36-40.52,14.56C59.59,279.1,73.17,274.22,86.87,270Z" style="fill:#a6a6a6"></path></g><g id="freepik--Plants--inject-2"><path d="M394.78,333.18a28.26,28.26,0,0,0-.86,12.3c1.29,8.61,7.78,15.44,9.18,23.92-.17,1-.39,2.05-.66,3.08a.43.43,0,0,0,0,0s0,0,0,0h0v0a.14.14,0,0,0,.08.09c.06-.12.11-.24.16-.35s.2-.42.29-.64.25-.6.36-.92c0,0,.07-.13.08-.18,3.16-8.71.25-18.38-1.22-27.22-.84-5.06-.49-10.16-1.24-15.2-.19-1.2-.17-3.48-1.91-3C397.08,325.66,395.27,331.56,394.78,333.18Z" style="fill:#FFC727"></path><path d="M396.05,340.61c-.54,10.49,9.13,19.65,6.88,30.13-.07.29-.14.58-.22.88l-.18.6h0l-.09.25a.43.43,0,0,0,0,0s0,0,0,0h0v0a.14.14,0,0,0,.08.09h0a.08.08,0,0,0,.08-.06c.13-.31.23-.63.33-.94a12.94,12.94,0,0,0,.53-2.32h0a33.62,33.62,0,0,0-.21-14c-1.2-5.95-2.72-11.72-3.81-17.73-.13-.75-.13-3.67-1.33-3.29C396.63,334.8,396.12,339.4,396.05,340.61Zm.52-1.56c.09-.59.85-4.53,1.83-4.12.59.25.66,3.23.75,3.65.35,1.62.69,3.24,1,4.86.75,3.41,1.51,6.81,2.25,10.22a44.62,44.62,0,0,1,1.16,12.6C403.07,357.08,395,348.57,396.57,339.05Z" style="fill:#fff"></path><path d="M392.27,433.83c0,.14.11.33.3.21,7.94-5.11,17.85-1,26.07-5.51a42,42,0,0,0,8.83-7.06,33.16,33.16,0,0,0,5.38-6.39c.19-.32,1.2-1.62,1-2.26-1.26-4.9-14,3.38-16.11,4.55-8.32,4.54-15.93,8.68-23.22,14.5-.76.59-1.52,1.22-2.27,1.86A.11.11,0,0,0,392.27,433.83Z" style="fill:#FFC727"></path><path d="M392.27,433.83l.87-.54c5.46-2.62,11.53-3.55,17.4-5A32.74,32.74,0,0,0,425.93,420c.78-.76,4-3.67,3.05-5.13s-4.1,1.22-4.89,1.67c-5.91,3.31-11.69,6.67-17.85,9.52-3.94,1.82-7.93,3.64-11.68,5.85-.76.59-1.52,1.22-2.27,1.86A.11.11,0,0,0,392.27,433.83Zm3.71-2.21c4.34-2.43,8.91-4.46,13.43-6.6,3.11-1.47,6.14-3.06,9.12-4.78,1.62-.95,3.24-1.92,4.88-2.85.83-.47,1.65-.93,2.48-1.37.41-.23,1.77-1,2.12-.38.93,1.7-8.19,10.36-19.5,12.6A70.2,70.2,0,0,0,396,431.62Z" style="fill:#fff"></path><path d="M405.48,418.79a.08.08,0,0,0,0,.11.08.08,0,0,0,.12,0c.17-.16.33-.31.49-.48.61-.59,1.19-1.19,1.75-1.8.1-.12.21-.22.31-.34a.12.12,0,0,0,.09,0c6.35-6.49,16-8.47,21.37-16a36.36,36.36,0,0,0,5.09-11.17c.5-1.7,2.94-6.89.8-8.24-1.67-1-4.27,1.23-5.36,2.2-3.46,3.07-5.91,7.36-8.31,11.25s-4.51,7.73-6.75,11.59a74.43,74.43,0,0,1-7.1,9.93C407.17,416.8,406.33,417.8,405.48,418.79Z" style="fill:#FFC727"></path><path d="M405.48,418.79a.08.08,0,0,0,0,.11c.52-.55,1-1.09,1.57-1.62l-1,1.13c.61-.59,1.19-1.19,1.75-1.8.28-.32.56-.65.85-1A101.54,101.54,0,0,1,420.39,406a21.46,21.46,0,0,0,5.27-5.23c2.66-3.81,6.78-12.78,6-14.14s-2.46,1.51-2.92,2.13c-3.69,5-6.69,10.51-10.66,15.36-2.67,3.25-5.38,6.48-8.09,9.72-.68.66-1.35,1.33-2,2C407.17,416.8,406.33,417.8,405.48,418.79ZM431,386.91c.7.29-.36,2.7-.64,3.34a100.4,100.4,0,0,1-4.46,9.08c-1.75,3.1-4.25,5.14-7.11,7.16a74.83,74.83,0,0,0-6.87,5.44c2.69-3,5.35-6.1,7.83-9.29,2-2.66,3.84-5.49,5.66-8.3.91-1.41,1.82-2.82,2.78-4.18.26-.38,2.18-3.51,2.81-3.25" style="fill:#fff"></path><path d="M358.19,458.83a.07.07,0,0,0,.07.07s.07,0,.08-.07l.12-.6c.15-.74.27-1.47.38-2.21,0-.13,0-.26.06-.4a.18.18,0,0,0,.05-.07c1.39-8,7.47-14.28,7.66-22.54a32.52,32.52,0,0,0-1.88-10.78c-.49-1.51-1.31-6.56-3.57-6.47-1.75.07-2.52,3.06-2.84,4.32-1,4-.63,8.39-.44,12.47s.58,8,.87,11.93a67,67,0,0,1-.21,10.89C358.43,456.51,358.32,457.66,358.19,458.83Z" style="fill:#FFC727"></path><path d="M358.19,458.83a.07.07,0,0,0,.07.07c.1-.66.21-1.33.33-2,0,.45-.09.89-.13,1.32.15-.74.27-1.47.38-2.21,0-.38.08-.75.13-1.13a90.88,90.88,0,0,1,3.72-13,19.24,19.24,0,0,0,1.24-6.51c0-4.14-1.45-12.82-2.72-13.42s-1,2.34-1.07,3c-.18,5.57.37,11.11-.11,16.68-.32,3.74-.69,7.49-1,11.23-.16.83-.32,1.66-.44,2.5C358.43,456.51,358.32,457.66,358.19,458.83Zm1.32-8.32c.44-3.59.85-7.19,1.07-10.79.17-3,.06-6,0-9,0-1.5-.08-3-.06-4.48,0-.4-.16-3.68.43-3.8s1.09,2.17,1.21,2.77c.55,2.93,1,6,1.3,8.94a19.69,19.69,0,0,1-1.63,8.85A65.38,65.38,0,0,0,359.51,450.51Z" style="fill:#fff"></path><path d="M357.27,465.44a1.21,1.21,0,0,0,.62-.21c8.12-3.11,17-3.25,25.17-6.36a23.75,23.75,0,0,0,9.49-6.25c1.09-1.23,4.86-5.49,4-7.46-2.49-5.94-29.9,12.77-38.91,19.49a1.69,1.69,0,0,0-.41.28C357,465.19,357,465.42,357.27,465.44Z" style="fill:#FFC727"></path><path d="M357.27,465.44l1.82-1c2-.79,4-1.54,6-2.18,3.22-1,6.53-1.62,9.8-2.44a31.17,31.17,0,0,0,13.7-7.32c.84-.77,3.34-2.84,2.8-4.28s-2.55,0-3.27.32c-10.31,4.92-20.34,10.57-30.33,16.13-.18.09-.36.17-.52.26C357,465.19,357,465.42,357.27,465.44Zm4.79-2.62q5.87-3.19,11.75-6.34c3.08-1.65,6.15-3.27,9.25-4.89,1.52-.8,3-1.62,4.58-2.39.6-.31,2.95-1.5,3.17-.66s-1.4,2.43-1.69,2.73c-4.64,4.77-10.58,7.22-16.94,8.64A74.21,74.21,0,0,0,362.06,462.82Z" style="fill:#fff"></path><path d="M396.19,396.8a.37.37,0,0,0,0,.32.41.41,0,0,0,.36.25.6.6,0,0,0,.23,0,.19.19,0,0,0,.14-.05c3.84-3.75,9.69-7.25,13.64-10.85a41.56,41.56,0,0,0,7.61-9.59,56.06,56.06,0,0,0,5.61-12.49c.62-2.07,2.41-7,.72-9C421,351.13,414,366.44,413,368.15,407.35,377.68,401.72,387.21,396.19,396.8Z" style="fill:#FFC727"></path><path d="M396.15,397.12a.41.41,0,0,0,.36.25l.67-1c1.5-1.76,3-3.52,4.61-5.2,2.6-2.74,5.57-5.11,8.09-7.93,4.37-4.92,12.58-20.59,10.22-22.15-1.23-.82-2.75,2.41-3.2,3.17-1.76,3-3.14,6.24-4.94,9.24-1.89,3.15-4,6.19-6,9.22-3.19,4.68-6.39,9.33-9.52,14.05C396.33,396.9,396.25,397,396.15,397.12Zm3.15-3.8q4.24-6.19,8.43-12.43c1.94-2.87,3.85-5.77,5.57-8.77,1-1.68,1.83-3.41,2.69-5.15.42-.84.85-1.69,1.33-2.5s1.94-3.63,2.63-2.56-1.38,5.66-1.87,6.74c-.8,1.74-1.62,3.47-2.5,5.17a45.11,45.11,0,0,1-6.3,9.41c-2.54,2.8-5.51,5.17-8.07,8C400.57,391.89,399.93,392.6,399.3,393.32Z" style="fill:#fff"></path><path d="M350.2,404.43c7.06,7.67,18.44,9.8,22.6,23.24,0,.05.07.05.1,0a0,0,0,0,0,0-.05c-.26-1.36-.56-2.71-.93-4.05a58.59,58.59,0,0,0-9.75-20.14,44.19,44.19,0,0,0-9.53-9.34c-1.86-1.31-5.88-4.67-8.2-4.15C339.5,391.08,348.92,403,350.2,404.43Z" style="fill:#FFC727"></path><path d="M350.62,399.71c2.85,5.58,8.49,9.19,12.8,13.53a50.75,50.75,0,0,1,7.8,9.87c.59,1.51,1.14,3,1.68,4.58a0,0,0,0,0,0-.05c-.26-1.36-.56-2.71-.93-4.05a2.25,2.25,0,0,0-.12-.21A62.38,62.38,0,0,0,366,411.65a64.59,64.59,0,0,0-11.63-13.79c-.78-.7-3.34-3.74-4.67-3S350.23,398.94,350.62,399.71Zm-.47-4.33c1-.36,5.5,4.14,7.27,6a64.57,64.57,0,0,1,9.83,13.17,62.9,62.9,0,0,1,3.1,6.41,51.29,51.29,0,0,0-5.11-6.39c-3.89-4.17-8.75-7.51-12.28-12a18.14,18.14,0,0,1-2.34-3.81C350.38,398.2,349.26,395.72,350.15,395.38Z" style="fill:#fff"></path><path d="M359,362.59a46.73,46.73,0,0,0,7.29,31.63c.07.1.14.22.22.33.06.35.13.71.22,1.06a2.21,2.21,0,0,0,.05.25l0,.05h0a.09.09,0,0,0,.16-.07c0-.44,0-.89,0-1.33.14-9.08,1.82-18,.6-27.07-.27-2-1.56-15-6.1-12.76C359.32,355.72,359.18,360.7,359,362.59Z" style="fill:#FFC727"></path><path d="M360.77,364.42c-.32,5.6,1.15,11.61,2.3,17.06a130.28,130.28,0,0,0,3.18,12.74l.33,1c0,.12.07.25.11.37a1.63,1.63,0,0,0,.07.3h0a.09.09,0,0,0,.16-.07c0-.44,0-.89,0-1.33s-.19-.66-.27-1a105.82,105.82,0,0,1-.56-14.91c0-2.71,0-5.4-.26-8.1a36.47,36.47,0,0,0-1.15-7.86c-.35-1.09-1.09-3.24-2.61-2.44C360.8,360.87,360.84,363.24,360.77,364.42Zm3.33-1.89a39.68,39.68,0,0,1,1.31,9.47c.21,2.95.18,5.91.15,8.86a92.83,92.83,0,0,0,.22,9.43c-1.07-3.93-2.11-7.88-2.88-11.92-.6-3.16-1.12-6.34-1.49-9.53a23.58,23.58,0,0,1-.16-5,12.55,12.55,0,0,1,.23-1.74C361.88,360.3,363.67,361.2,364.1,362.53Z" style="fill:#fff"></path><path d="M414.72,339l-.09.44a.27.27,0,0,0,.34.3.26.26,0,0,0,.19-.21c.06-.26.13-.53.19-.79h0l.15-.63a10.91,10.91,0,0,1,.63-1c2.41-3.65,6.58-6.73,9.41-9.84a57.58,57.58,0,0,0,7-9.09,28.18,28.18,0,0,0,4-10.84c.13-1,.63-3.67-.68-4.33-1.64-.83-4.15,2.33-5,3.15a47.62,47.62,0,0,0-7.86,9.75C418.61,323,416.35,330.84,414.72,339Z" style="fill:#FFC727"></path><path d="M415.45,337.2a15.42,15.42,0,0,0-.73,1.8l-.09.44a.27.27,0,0,0,.34.3,2.81,2.81,0,0,1,.1-.31c.09-.23.18-.46.28-.69h0c.24-.56.5-1.11.78-1.66a37.23,37.23,0,0,1,3.53-5.62c2.31-3.08,4.74-6.08,6.94-9.26,1.1-1.59,9.56-13.83,6.23-15-.62-.23-1.23.61-1.57,1a25.91,25.91,0,0,0-3,4.1c-2.12,3.32-4.12,6.73-6,10.18A109.93,109.93,0,0,0,415.45,337.2Zm6.06-12.65c1.61-3.06,3.33-6.07,5.12-9,.87-1.44,1.74-2.9,2.69-4.29.47-.69,2.85-3.8,3.5-3.39,1,.6-1.31,5.43-2,6.74-.79,1.48-1.65,2.93-2.54,4.35-1.81,2.86-3.81,5.6-5.86,8.28-1.82,2.39-4,4.91-5.68,7.65A109.28,109.28,0,0,1,421.51,324.55Z" style="fill:#fff"></path><path d="M385.63,381.61c.05.15.1.28.14.42a.27.27,0,0,0,.45.09.25.25,0,0,0,.06-.28l-.24-.77h0c-.06-.21-.12-.41-.19-.62,0-.4,0-.81,0-1.21.26-4.36,2.32-9.12,3.21-13.23a58.17,58.17,0,0,0,1.49-11.37,28.29,28.29,0,0,0-1.93-11.41c-.41-1-1.31-3.49-2.76-3.41-1.84.11-2.43,4.1-2.79,5.26a47.53,47.53,0,0,0-1.9,12.37C381,365.85,383,373.74,385.63,381.61Z" style="fill:#FFC727"></path><path d="M385.36,379.68a17.57,17.57,0,0,0,.27,1.93c.05.15.1.28.14.42a.27.27,0,0,0,.45.09,1.65,1.65,0,0,1-.07-.32c0-.24-.07-.48-.11-.73h0c-.07-.61-.12-1.22-.16-1.83a37.2,37.2,0,0,1,.24-6.63c.45-3.83,1-7.64,1.35-11.49.15-1.92,1.33-16.76-2.14-16.1-.65.11-.75,1.14-.87,1.61a26.27,26.27,0,0,0-.57,5.08c-.17,3.93-.19,7.88-.09,11.82A108.1,108.1,0,0,0,385.36,379.68Zm-1.11-14c-.14-3.46-.16-6.92-.1-10.38,0-1.68.05-3.38.17-5.06.06-.83.56-4.72,1.33-4.69,1.13,0,1.6,5.36,1.65,6.83.06,1.68.05,3.37,0,5-.13,3.39-.49,6.76-.92,10.11-.37,3-1,6.24-1.06,9.47A110,110,0,0,1,384.25,365.7Z" style="fill:#fff"></path><path d="M365.81,387.71A210.32,210.32,0,0,0,370.6,411c1.61,5.94,3.23,12,3.46,18.15a46.43,46.43,0,0,1-5.61,22.69q3.24-3.63,6.43-7.37c4.32-5.07,8.62-10.28,11.69-16.23.3-.59.58-1.19.85-1.78a.24.24,0,0,1,0-.15,80,80,0,0,0,1.55-23.93,66.46,66.46,0,0,0-5.21-12,53.43,53.43,0,0,1-5.4-12.14c-.06-.25.29-.4.39-.15,2.2,5.79,6.75,11.43,9.42,17.43-.16-1-.32-2-.5-3-1.74-9.5-5-19.05-1.55-28.55.12-.32.57-.1.47.21-3.27,10.58,1.88,22.24,3.41,32.76,1.13,7.82,1.51,16.24-.38,24a126.58,126.58,0,0,0,3.48-13.15c6-26.67,12.9-53.2,25.87-77.44.13-.24.51-.07.38.17-13.27,26.31-18.53,54.9-25.45,83.25l-.24,1A53.93,53.93,0,0,1,402,404.75c.16-.15.4,0,.27.21-3.81,4.88-6.71,10.21-10.14,15.3a56,56,0,0,1-4.95,11.41,90.71,90.71,0,0,1-8.83,12.08c5.41-4.55,10.88-9,16-14A243.24,243.24,0,0,0,415.94,406c.09-.12.27,0,.18.16a202,202,0,0,1-21.55,25.71c-6.74,6.7-14,13.53-22.05,18.68-7.73,8.9-16,17.85-25.78,24.37a.43.43,0,0,1-.5-.7c1.79-1.59,3.55-3.22,5.28-4.86,1.69-3.77,4-7.23,5.53-11.13A62,62,0,0,0,360.64,444c0-.36.56-.27.54.08-.4,6.64-1.89,14.82-5.44,21.16q3.72-3.68,7.28-7.46c6.35-9.7,10.49-21.23,9.1-32.84-.71-6-2.42-11.73-3.82-17.55a129.91,129.91,0,0,1-2.93-19.62A.22.22,0,0,1,365.81,387.71Z" style="fill:#FFC727"></path><path d="M147.69,350.1c1.37,3.78,1.09,8.43.92,12.37A97.94,97.94,0,0,1,147,375.91c-.75,4.13-1.7,8.23-2.72,12.3l0,.11c-.06.27-.13.54-.2.8s-.08.67-.14,1a.23.23,0,0,1-.17.18c-.11,0-.23-.05-.21-.19s0-.37.05-.55c.66-7.64-3.74-14.61-4-22.18-.14-4.14.85-8.3,1.63-12.35.42-2.24.53-5.15,1.4-7.26.23-.56.29-1.16.91-1.46C145.48,345.4,147.21,348.78,147.69,350.1Z" style="fill:#FFC727"></path><path d="M145.88,352.93c-1.2-1-1.91,1.75-2.14,2.5-1.58,5-2.46,11.05-1.56,16.27,1,5.74,2,11.48,1.6,17.3-.06.18-.11.37-.17.56s0,.37-.05.55.1.2.21.19,0-.23,0-.35c.17-.54.32-1.08.46-1.63l0-.11a110.06,110.06,0,0,0,2-11.91,77.3,77.3,0,0,0,.89-16.85,37,37,0,0,0-.51-4.05C146.59,354.73,146.47,353.41,145.88,352.93Zm.67,3.4c.22,1.42.36,2.85.44,4.29a78.88,78.88,0,0,1-.86,14.8A108.17,108.17,0,0,1,144,388.1a44.65,44.65,0,0,0-.42-9.93c-.34-2.48-.86-4.92-1.23-7.4a27.8,27.8,0,0,1,.3-8.34,35.1,35.1,0,0,1,1.67-7.72c.19-.49.75-1.58,1.18-1.5C146.27,353.34,146.47,355.77,146.55,356.33Z" style="fill:#fff"></path><path d="M113.38,408.44s0,0,0,0" style="fill:#FFC727"></path><path d="M144,461.21a.19.19,0,0,1,.08.23h0a.19.19,0,0,1-.15.15.3.3,0,0,1-.16,0c-4.67-2.37-9.14-6.13-14.55-6.4-4.24-.22-7.88.3-11.9-1.43A32,32,0,0,1,106.52,446a32.86,32.86,0,0,1-3.67-4.85c-.51-.82-2.18-2.89-1.95-3.95,1.09-5,15.84,3.87,17.8,5.06,8.67,5.28,17.49,11.21,24.73,18.37a.1.1,0,0,1,0,.09.16.16,0,0,1-.06.08Z" style="fill:#FFC727"></path><path d="M144,461.21l-.58-.39a.16.16,0,0,0,.06-.08c-4.8-3.64-9.88-6.94-15-10.11a148.52,148.52,0,0,0-17-9.56c-.8-.36-4.15-2.37-4.85-1.07s2.78,4.28,3.52,4.94c4.37,3.91,10.08,5.7,15.59,7.32,3.58,1.05,7.1,2.06,10.31,4,2.69,1.66,5.19,3.62,7.86,5.3a.19.19,0,0,0,.15-.15c-1.36-.87-2.69-1.83-4-2.77l4,2.76A.19.19,0,0,0,144,461.21Zm-12.08-7.38c-5.37-2.09-11.12-3-16.3-5.65a23,23,0,0,1-6.67-5c-.36-.39-2.11-2.14-1.71-2.84.26-.47,1.66,0,1.86,0a40.4,40.4,0,0,1,4.46,2c5,2.57,10,5.49,14.77,8.48,2.67,1.66,5.29,3.38,7.89,5.15A25.65,25.65,0,0,0,131.89,453.83Z" style="fill:#fff"></path><path d="M122.64,358.37c.59,4.48-.32,9.16-1.54,13.47-2.83,10-8.3,19.24-10,29.54-.07.4-.13.81-.18,1.21s0,.4-.15-.23h0c-.75-2.73-3.35-14.8-2.16-23.46.75-5.4,2.61-10.5,4.47-15.59,1.07-2.91,2.11-5.82,3.2-8.72.35-.93.85-3.58,2.25-3.78C121.2,350.4,122.41,356.61,122.64,358.37Z" style="fill:#FFC727"></path><path d="M117.93,359.27a.91.91,0,0,0-1.21.31,4.69,4.69,0,0,0-.59,1.77c-.27,1.06-.55,2.11-.82,3.17-1.89,7.31-4.43,14.77-5.13,22.31a62.66,62.66,0,0,0,.53,15c0,.16,0,.33,0,.49h0c.17.63.24.76.15.23s.11-.81.18-1.21c0-.57,0-1.13,0-1.69a46.13,46.13,0,0,1,2.56-11.34,114.67,114.67,0,0,0,5.14-21.52,21.6,21.6,0,0,0,.17-4.95C118.9,361.14,118.72,359.66,117.93,359.27Zm.66,2.36a7.89,7.89,0,0,1,.1,1.08,20.31,20.31,0,0,1,0,2.34,55.59,55.59,0,0,1-.76,5.59,155.46,155.46,0,0,1-5.1,19.34,40.75,40.75,0,0,0-2,9.69,79.92,79.92,0,0,1-.42-8.32c0-7.12,2-13.86,3.77-20.7.43-1.69.87-3.39,1.31-5.08.21-.85.43-1.69.65-2.53l.32-1.28c.22-.85.09-1.2,1-1.46C118.61,360,118.43,360.64,118.59,361.63Z" style="fill:#fff"></path><path d="M129.75,400.07a56,56,0,0,1,2.72,10.24c1.16,7,.09,15.09,1.93,22.06.16.46.31.93.43,1.39a5.18,5.18,0,0,1,.14.53c0,.09-.12.14-.17.06-.14-.3-.28-.6-.44-.89v0l-.24-.46c-3.47-6.79-7.92-13-9.4-20.62-.91-4.7-2.36-17.63.74-18.61C126.83,393.31,129,398.06,129.75,400.07Z" style="fill:#FFC727"></path><path d="M126.93,400.76c-.74.35-.71,1.8-.76,2.4a30,30,0,0,0,.18,4.83,48,48,0,0,0,1.74,8.79,95.7,95.7,0,0,0,6,16.2l.24.46v0c.16.29.3.59.44.89,0,.08.2,0,.17-.06a5.18,5.18,0,0,0-.14-.53c-2.28-6-3.23-12.26-4-18.63C130.63,413.7,129.47,399.56,126.93,400.76Zm2.31,5.74c.23,1.33.41,2.67.59,4,.42,3.13.77,6.27,1.23,9.39a72.2,72.2,0,0,0,2.12,10.1,121.2,121.2,0,0,1-4.24-11.53,63.12,63.12,0,0,1-1.92-7.87,33.86,33.86,0,0,1-.45-4.38c0-.7-.32-4.75.51-5.1C128.13,400.7,129.15,405.92,129.24,406.5Z" style="fill:#fff"></path><path d="M159.33,386.26c1.71,2.1.9,6.3,0,8.51a19.93,19.93,0,0,1-6.4,7.74c-3.85,3.05-8.15,5.4-11.4,9.17s-2.18,2.6-4.44,7.38c0,.09-.13.09-.21,0a.91.91,0,0,1-.14-.76.59.59,0,0,0,0-.13c2.08-7.85,6.11-14,11.45-20.17,3-3.47,4.86-7.88,8-11.22C157.37,385.55,158.15,384.81,159.33,386.26Z" style="fill:#FFC727"></path><path d="M157.51,390.39c-1.15-.55-2.61,1.8-3.2,2.65a49.15,49.15,0,0,1-5.52,7,61.13,61.13,0,0,0-5.39,5.76,39.05,39.05,0,0,0-5.85,10.52,20.45,20.45,0,0,0-.84,2,.91.91,0,0,0,.14.76l.09-.26a26.92,26.92,0,0,1,9.52-12.27c4.4-3.34,8.54-7,10.9-12.16C157.78,393.47,158.58,390.9,157.51,390.39Zm-.18,3.34a22.86,22.86,0,0,1-1.31,2.56,26.52,26.52,0,0,1-3.11,4.18,48.57,48.57,0,0,1-6.94,6,29.53,29.53,0,0,0-7.26,7.72,40.36,40.36,0,0,1,5.46-8.93c2-2.43,4.41-4.4,6.45-6.76.94-1.09,1.77-2.26,2.6-3.43l1.34-1.9c.39-.57,1.65-2.57,2.5-2.4C158.15,391,157.48,393.38,157.33,393.73Z" style="fill:#fff"></path><path d="M87.37,366.43c6.94,7.85,13.4,16.09,19.54,24.57a.26.26,0,0,1,0,.33l0,.05a1.63,1.63,0,0,1,.11.17.11.11,0,0,1,0,.16h-.06a.12.12,0,0,1-.12,0c-4.33-4.24-8.4-8.21-13.85-11-5-2.57-9.9-4.7-14.24-8.34-3.69-3.13-14.18-18.52-12.47-22.2C67.38,347.66,81.84,360.2,87.37,366.43Z" style="fill:#FFC727"></path><path d="M78.77,361.2c-.91-.88-3.57-4.32-5.26-3.62s1,4.18,1.51,4.92a50.25,50.25,0,0,0,6.17,7.63c2.35,2.29,5.13,3.8,7.84,5.59,6.65,4.4,12.53,10.13,17.88,16H107a.11.11,0,0,0,0-.16,1.63,1.63,0,0,0-.11-.17l0-.05C98.54,380.42,88.6,370.76,78.77,361.2ZM106.33,391a113.48,113.48,0,0,0-11.82-11.49c-4.9-4.1-10.81-6.74-15-11.62a37.8,37.8,0,0,1-5.56-7.7c-.18-.37-.88-1.63-.41-2.12s1.61.11,3.11,1.48c1.23,1.13,2.41,2.35,3.61,3.52,4.74,4.63,9.45,9.28,14,14.09Q100.54,383.83,106.33,391Z" style="fill:#fff"></path><path d="M116.26,423.92a.15.15,0,0,1,0,.11.19.19,0,0,1-.23.12l-.66-.21-.06,0c-5-.64-9,.2-13.78,1.42a22,22,0,0,1-10.75,0,36.49,36.49,0,0,1-10.83-4.89c-1.37-.88-5.73-2.83-5-5.23,1.17-3.93,14.41,1.19,16.7,1.93A104.51,104.51,0,0,0,104,420.5c4.15.8,8.31,1.48,12.17,3.28A.13.13,0,0,1,116.26,423.92Z" style="fill:#FFC727"></path><path d="M113.63,423.31h0c-2.4-.54-4.79-1.19-7.21-1.61-2.71-.48-5.48-.42-8.2-.88-5.09-.89-9.94-2.74-15-3.86-.65-.14-2-.4-1.6.72.14.49.84.88,1.21,1.14a22.9,22.9,0,0,0,3.55,2.08,29.93,29.93,0,0,0,13.75,3.26c5.43-.25,10.71-1.27,16.08-.12a.15.15,0,0,0,0-.11A17,17,0,0,0,113.63,423.31Zm-11.76.33a29.89,29.89,0,0,1-17.09-4c-.48-.29-1.75-1.1-2.19-1.46s-1-1.1.57-.9a8.51,8.51,0,0,1,1.11.26c1.3.33,2.59.69,3.89,1.06,2.75.78,5.5,1.61,8.31,2.2a51.56,51.56,0,0,0,7.54.9,61.23,61.23,0,0,1,9.09,1.55C109.39,422.78,105.56,423.35,101.87,423.64Z" style="fill:#fff"></path><path d="M102,413.15a.45.45,0,0,1,0,.23.21.21,0,0,1,0,.11.38.38,0,0,1-.09.13l0,0a.31.31,0,0,1-.35,0,15.68,15.68,0,0,1-2.12-.95c-8.23-3.14-16.66-6.45-23.35-12.27a54,54,0,0,1-9-10.14c-1.26-1.83-4.73-5.66-3.58-8.21s3.39-.91,4.93.13a116,116,0,0,1,11.53,8.7,63.71,63.71,0,0,1,9.63,10.47c3.37,4.6,6.6,9.36,12.15,11.45A.38.38,0,0,1,102,413.15Z" style="fill:#FFC727"></path><path d="M86.75,401.52a137.66,137.66,0,0,0-15-13.62c-.68-.55-2.66-2-3-.38-.36,1.86,2.39,4.06,3.44,5.16a105.6,105.6,0,0,0,12.87,11.69,59.3,59.3,0,0,0,16.86,9.12.21.21,0,0,0,0-.11c-10-3.7-18.6-10.17-26.13-17.55-1.82-1.79-3.66-3.58-5.32-5.51-.26-.31-1.79-2.39-1.2-2.95s2.67,1.2,2.93,1.42c1.19,1,2.39,2,3.58,3a164.76,164.76,0,0,1,12.68,12.11A40.28,40.28,0,0,0,102,413.38a.45.45,0,0,0,0-.23C95.92,410.49,91.26,406.31,86.75,401.52Z" style="fill:#fff"></path><path d="M86.82,327.57a40.09,40.09,0,0,1,6.5,12.33c2,7,1.89,14.22,2.89,21.33a.25.25,0,0,0,0,.08,47.71,47.71,0,0,0,1.13,5.74c.1.4.21.8.33,1.21a.24.24,0,0,1,0,.24.26.26,0,0,1-.16.09.33.33,0,0,1-.17,0h0a.32.32,0,0,1-.19-.19c-.2-.57-.38-1.15-.55-1.73a.13.13,0,0,1-.09-.07c-4.24-8.88-9.06-17.85-13.89-26.62a71.54,71.54,0,0,1-5.48-12.14c-.82-2.5-1.81-6.36,0-8.67a.56.56,0,0,1,.48-.27C81.62,319.58,84.63,324.57,86.82,327.57Z" style="fill:#FFC727"></path><path d="M82.39,328.13c-1.92-.62-1.53,1.66-1.22,2.81a77.65,77.65,0,0,0,3.39,9q2,5,4.18,9.87c2.73,6.17,6.54,12.31,8.56,18.78v0h0a.33.33,0,0,0,.17,0,.26.26,0,0,0,.16-.09c-.1-.49-.2-1-.29-1.45-.39-1.91-.76-3.83-1.13-5.74a.25.25,0,0,1,0-.08c-1.82-9.21-3.82-18.34-8.66-26.78C86.42,332.48,84.75,328.89,82.39,328.13Zm5.74,8.06a66.3,66.3,0,0,1,6.11,16.86C95.3,357.71,96,362.43,97,367.1c-1.34-3.75-3.3-7.32-5-11q-4-8.56-7.5-17.3c-.57-1.4-1.12-2.81-1.66-4.22-.49-1.25-1.52-3.2-1.53-4.57,0-2.65,2.2-.85,2.92-.07a16.33,16.33,0,0,1,1.62,2.26Q87.07,334.19,88.13,336.19Z" style="fill:#fff"></path><path d="M145.52,375.45a194.76,194.76,0,0,1-5.25,25.63c-2.16,7.73-4.41,15.45-5.46,23.42-1.39,10.58-.43,22.18,5,31.39a124.9,124.9,0,0,1-21.25-35.53c-8.69-21.83-16.57-44.27-27.13-65.3-.17-.35-.65-.08-.52.27,4.32,11.48,9.4,22.68,13.83,34.13s8.48,22.89,13.08,34.18c.5,1.22,1,2.42,1.55,3.62-6.74-8.35-16.63-14.51-26.32-18.07-.13-.05-.18.14-.06.19a68.32,68.32,0,0,1,18.7,12.43c4.83,4.45,8.5,9.61,12.39,14.82a105.06,105.06,0,0,0,36.69,38.29c.16.11.32-.14.16-.25a105.49,105.49,0,0,1-17-14.24c-8.68-11.48-9.08-26.81-6.5-40.74,1.36-7.31,3.29-14.48,5-21.7s3.67-14.95,3.49-22.52A.21.21,0,0,0,145.52,375.45Z" style="fill:#FFC727"></path></g><g id="freepik--character-hand-1--inject-2"><path d="M96.84,94.49c29-14.34,63.46,104.4,65.42,103.48,0,0-31.27-131.91-15.31-134.55,31.51-5.21,63,132.66,63,132.66s-19.86-124.49-4.6-124.36c34.33.29,48.93,126.33,48.93,126.33s-7.58-91.48,5.58-91c35.83,1.41,40.8,162.43,44,185.7C311.57,348,277.94,380,277.94,380l-42.52,95H68.71l72-97.48C127.85,361,128.2,301.33,121.85,249.19,118.92,225.11,86.52,99.6,96.84,94.49Z" style="fill:#f7a9a0"></path><path d="M162.26,198a81.55,81.55,0,0,1,8.19,30.56A81.12,81.12,0,0,1,162.26,198Z" style="fill:#263238"></path><path d="M208.08,187.05a66.06,66.06,0,0,1,4.86,14.64,60.53,60.53,0,0,1,1.65,15.36,84.43,84.43,0,0,1-6.51-30Z" style="fill:#263238"></path><path d="M252.1,182.49a69.26,69.26,0,0,1,5.56,30.3,87.62,87.62,0,0,1-5.56-30.3Z" style="fill:#263238"></path><path d="M159.57,231.7c33.41-14,70.2-22.87,106.57-18.91-36.4.24-71.81,8.8-106.57,18.91Z" style="fill:#263238"></path><path d="M140.66,377.47c-37.53-29.09-31.11-83.4-40.88-106.13-8.08-18.83-30.63-67.56-23.84-70.86C107.7,185,140.39,249,140.39,249s45,17.3,56.84,50.38S140.66,377.47,140.66,377.47Z" style="fill:#f7a9a0"></path><path d="M202.51,325.87c-5-33.21-27-58.53-56.77-72.91a69.58,69.58,0,0,0-6.56-2.85,60.23,60.23,0,0,0-4.86-11.39c-5.66-10.49-13.43-19.74-22.07-27.92,1.55,1.26,3.13,2.5,4.65,3.8a97,97,0,0,1,19.56,22.9,58.72,58.72,0,0,1,5.36,11.07l-1-1a96.09,96.09,0,0,1,23.65,11.94c22.1,14.73,37.8,39.43,38,66.35Z" style="fill:#263238"></path><polygon points="62.06 474.95 109.71 402.79 293.29 430.61 268.46 474.95 62.06 474.95" style="fill:#455a64"></polygon><path d="M180.58,455.21c12.89,1.38,64.52,6.55,77.43,6.85.21,0,.29-.33.07-.38C245.81,459,195,452.4,182.1,451c-25.75-2.81-51.59-6.16-77.53-6.13-.45,0-.64.74-.14.84C129.56,450.57,155.16,452.49,180.58,455.21Z" style="fill:#263238"></path></g><g id="freepik--character-hand-2--inject-2"><path d="M359.09,362.6C394.64,331.12,384.69,277.34,393,254c6.84-19.31,26.16-69.41,19.17-72.26C379.42,168.42,351,234.37,351,234.37s-43.73,20.19-53.43,54S359.09,362.6,359.09,362.6Z" style="fill:#d3766a"></path><path d="M359.09,362.6C394.64,331.12,384.69,277.34,393,254c6.84-19.31,26.16-69.41,19.17-72.26C379.42,168.42,351,234.37,351,234.37s-43.73,20.19-53.43,54S359.09,362.6,359.09,362.6Z" style="fill:#ad6359"></path><path d="M382.25,189,345.74,354.16c-20.12-13.63-55.19-41.45-48.2-65.81,9.69-33.79,53.42-54,53.42-54S363.85,204.5,382.25,189Z" style="opacity:0.1"></path><path d="M353.29,74.62c-31-9-37.13,113.92-39.22,113.36,0,0,.61-135.36-15.56-135.15-31.94.41-32.71,141.66-32.71,141.66s-8.33-126-23.33-123.23c-33.73,6.32-20,133-20,133S207.89,112.84,195,115.66c-35,7.68-11.63,167.06-10.73,190.55,2.14,55.71,40.87,81.25,40.87,81.25L260.23,475H445.34L359.87,360.88c9.71-18.51-1.12-77.14-4-129.58C354.5,207.08,364.35,77.83,353.29,74.62Z" style="fill:#ad6359"></path><path d="M314,182.78a81.42,81.42,0,0,1,1.54,31.59A81.42,81.42,0,0,1,314,182.78Z" style="fill:#263238"></path><path d="M265.79,185.6a84.7,84.7,0,0,1,2.33,30.62,60.57,60.57,0,0,1-2.8-15.19,65.89,65.89,0,0,1,.47-15.43Z" style="fill:#263238"></path><path d="M220.86,194.61a60.5,60.5,0,0,1,3.66,14.65,52.83,52.83,0,0,1,.18,15.12,88.31,88.31,0,0,1-3.84-29.77Z" style="fill:#263238"></path><path d="M356.52,194.61c1.5,15.51,1.62,31,2,46.59.62,15.47,2.28,30.94,2.22,46.48a302.61,302.61,0,0,1-6.21-46.39,393.25,393.25,0,0,1,2-46.68Z" style="fill:#263238"></path><g style="opacity:0.2"><path d="M192.07,120.79a41.4,41.4,0,0,0-1.5,9.87c0,3,0,6.7,1.47,9.23.85,1.16,2.4,1.18,3.74,1.27,1.83,0,3.88-.35,5.15-1.65,1.4-2.41,1.21-5.47,1.26-8.24,1.59,6.37,1.45,11.37-6.39,11.79-3.45.09-5.8-1.17-6.49-4.68a26.22,26.22,0,0,1,2.76-17.59Z"></path><path d="M237.41,77.76a41.4,41.4,0,0,0-1.5,9.86c0,3,0,6.71,1.47,9.24.86,1.16,2.4,1.18,3.74,1.27,1.83,0,3.88-.35,5.15-1.65,1.4-2.41,1.21-5.48,1.26-8.24,1.6,6.37,1.45,11.37-6.39,11.79-3.45.09-5.8-1.18-6.49-4.68a26.28,26.28,0,0,1,2.76-17.59Z"></path><path d="M294.42,58.23A41.7,41.7,0,0,0,292.5,68c-.15,3-.32,6.69,1.07,9.29.8,1.19,2.34,1.28,3.68,1.43,1.83.06,3.89-.18,5.21-1.43,1.5-2.35,1.45-5.42,1.62-8.17,1.32,6.43,1,11.42-6.9,11.5-3.45-.06-5.74-1.43-6.27-5a26.24,26.24,0,0,1,3.51-17.45Z"></path><path d="M345.49,79.71a41.21,41.21,0,0,0-1.93,9.79c-.15,3-.32,6.69,1.07,9.29.8,1.19,2.35,1.28,3.68,1.43,1.83.07,3.89-.18,5.21-1.42,1.51-2.35,1.46-5.42,1.62-8.18,1.32,6.43,1,11.42-6.89,11.5-3.45-.06-5.75-1.43-6.28-5a26.2,26.2,0,0,1,3.52-17.45Z"></path></g><path d="M258.23,470c-8.07,5.06-17.29,2.28-19-7.66-2.35-15.72,9.49-32.12,19.28-43.35,16.13-17.88,36-31.8,56.6-44.08,9.21-5.36,35-19.4,44.8-14-1.77-.89-3.85-.54-5.74-.27-11.5,2.53-21.71,9-31.73,14.95-15,9.38-29.81,19.25-43.52,30.37-14.7,12.36-29.64,26.4-36.25,44.84-1.64,5.32-2.63,11.47.29,16.44,3.07,5.36,10.3,5.28,15.31,2.74Z" style="fill:#FFC727"></path></g><g id="freepik--Table--inject-2"><path d="M45.31,475c131.14-.61,278.24-.62,409.38,0-131.14.62-278.24.61-409.38,0Z" style="fill:#263238"></path></g></svg>
