<svg xmlns="http://www.w3.org/2000/svg" viewBox="0 0 500 500"><g id="freepik--background-complete--inject-2"><path d="M372.31,144.73l87.61-.13s-4.37-5.67-9.17-6.37c0,0-9.38-27.79-25-28-14.54-.17-20.34,17.13-20.34,17.13s-6.75-7.74-13.18-4.19-10,13.71-10,13.71S374.93,140.83,372.31,144.73Z" style="fill:#ebebeb"></path><path d="M179.68,164.53l-110.79.17s0-7.08,15.25-8.49c0,0,13.89-31,35.17-26.84,13.25,2.57,20.05,20.75,20.05,20.75s10-14.33,18-11.57,12.79,18,12.79,18S178.42,160.53,179.68,164.53Z" style="fill:#ebebeb"></path><path d="M382,68.05l-75.33.12s7.1-6.63,10.26-6.63,12.34-22.24,24.13-21.31,18.06,17.46,18.06,17.46S373.43,53.18,382,68.05Z" style="fill:#ebebeb"></path><path d="M174.08,90.14l-64.42.1s3.19-4.17,6.72-4.7c0,0,6.84-20.46,18.34-20.62,10.69-.15,15,12.55,15,12.55s4.95-5.71,9.68-3.11,7.43,10.06,7.43,10.06S172.14,87.28,174.08,90.14Z" style="fill:#ebebeb"></path><polygon points="93.43 427.96 77.86 427.89 82.08 309.41 84.9 230.5 88.25 230.51 90.33 309.44 93.43 427.96" style="fill:#ebebeb"></polygon><polygon points="89.47 276.6 83.25 276.57 84.9 230.5 88.25 230.51 89.47 276.6" style="fill:#dbdbdb"></polygon><path d="M92.53,230.57a6.33,6.33,0,1,0-6.12,6.53A6.41,6.41,0,0,0,92.53,230.57Z" style="fill:#c7c7c7"></path><path d="M90.49,230.63a4.29,4.29,0,1,0-4.15,4.44A4.34,4.34,0,0,0,90.49,230.63Z" style="fill:#fff"></path><path d="M92.35,228.68s66-3.94,70-1c2.62,1.94-58,9.07-60.94,8.9s-9.15-6-9.15-6Z" style="fill:#ebebeb"></path><path d="M81.64,226.37s-36.43-55.21-35.86-60.16C46.15,163,82.62,211.89,84,214.54s-.59,10.91-.59,10.91Z" style="fill:#ebebeb"></path><path d="M85,236.8S55.39,296,50.83,297.94c-3,1.3,21.14-54.74,22.77-57.23s9.74-4.94,9.74-4.94Z" style="fill:#ebebeb"></path><polygon points="396.25 427.96 381.62 427.9 385.59 316.55 388.24 242.39 391.38 242.41 393.33 316.58 396.25 427.96" style="fill:#ebebeb"></polygon><polygon points="392.53 285.72 386.69 285.69 388.23 242.39 391.38 242.41 392.53 285.72" style="fill:#dbdbdb"></polygon><path d="M394.78,245.2a5.95,5.95,0,1,0-7.94,2.78A6,6,0,0,0,394.78,245.2Z" style="fill:#c7c7c7"></path><path d="M393.06,244.37a4,4,0,1,0-5.39,1.89A4.08,4.08,0,0,0,393.06,244.37Z" style="fill:#fff"></path><path d="M395.46,243.55s56.7,25.47,58.74,29.68c1.34,2.76-52.23-17.69-54.62-19.13s-5-8.95-5-8.95Z" style="fill:#ebebeb"></path><path d="M387.54,237s-6.29-61.85-3.67-65.72c1.72-2.53,10.79,54.08,10.75,56.87s-5.24,8.83-5.24,8.83Z" style="fill:#ebebeb"></path><path d="M385.8,247.11s-50.41,36.38-55.08,36c-3.06-.22,41.44-36.38,43.88-37.74s10.26.13,10.26.13Z" style="fill:#ebebeb"></path></g><g id="freepik--solar-panels--inject-2"><rect x="372.2" y="392.55" width="6.05" height="35.4" style="fill:#dbdbdb"></rect><rect x="418.69" y="392.55" width="6.05" height="35.4" style="fill:#dbdbdb"></rect><rect x="443.39" y="369.88" width="6.07" height="58.09" style="fill:#dbdbdb"></rect><rect x="372.2" y="392.55" width="6.05" height="19.2" style="fill:#c7c7c7"></rect><rect x="418.69" y="392.55" width="6.05" height="19.2" style="fill:#c7c7c7"></rect><rect x="443.39" y="369.88" width="6.07" height="41.88" style="fill:#c7c7c7"></rect><polygon points="434.13 404.25 359.46 404.24 385.67 366.08 460.35 366.09 434.13 404.25" style="fill:#dbdbdb"></polygon><polygon points="453.03 369.88 447.44 378.01 444.48 382.34 439.61 389.44 438.87 390.52 432.06 400.46 366.78 400.45 376.88 385.71 377.63 384.63 381.81 378.53 384.77 374.2 386.33 371.92 387.08 370.85 387.75 369.87 453.03 369.88" style="fill:#455a64"></polygon><rect x="375.88" y="384.48" width="42.43" height="1.31" transform="translate(-145.23 494.19) rotate(-55.49)" style="fill:#dbdbdb"></rect><rect x="400.18" y="384.48" width="42.43" height="1.31" transform="translate(-134.7 514.21) rotate(-55.49)" style="fill:#dbdbdb"></rect><rect x="374.82" y="384.48" width="68.57" height="1.31" style="fill:#dbdbdb"></rect><g style="opacity:0.2"><polygon points="399.9 400.45 397.62 400.45 376.88 385.71 377.63 384.63 399.9 400.45" style="fill:#fff"></polygon><polygon points="439.61 389.44 438.87 390.52 409.81 369.87 412.07 369.87 439.61 389.44" style="fill:#fff"></polygon><polygon points="428.74 400.46 426.49 400.45 386.33 371.92 387.08 370.85 428.74 400.46" style="fill:#fff"></polygon><polygon points="421.72 400.45 412.66 400.45 381.81 378.53 384.77 374.2 421.72 400.45" style="fill:#fff"></polygon><polygon points="447.44 378.01 444.48 382.34 426.95 369.87 435.99 369.87 447.44 378.01" style="fill:#fff"></polygon></g><rect x="52.4" y="392.55" width="6.05" height="35.4" style="fill:#dbdbdb"></rect><rect x="98.89" y="392.55" width="6.05" height="35.4" style="fill:#dbdbdb"></rect><rect x="123.59" y="369.88" width="6.07" height="58.09" style="fill:#dbdbdb"></rect><rect x="52.4" y="392.55" width="6.05" height="19.2" style="fill:#c7c7c7"></rect><rect x="98.89" y="392.55" width="6.05" height="19.2" style="fill:#c7c7c7"></rect><rect x="123.59" y="369.88" width="6.07" height="41.88" style="fill:#c7c7c7"></rect><polygon points="114.33 404.25 39.65 404.24 65.87 366.08 140.54 366.09 114.33 404.25" style="fill:#dbdbdb"></polygon><polygon points="133.22 369.88 127.64 378.01 124.68 382.34 119.8 389.44 119.07 390.52 112.25 400.46 46.97 400.45 57.08 385.71 57.83 384.63 62.01 378.53 64.97 374.2 66.53 371.92 67.27 370.85 67.94 369.87 133.22 369.88" style="fill:#455a64"></polygon><rect x="56.08" y="384.48" width="42.43" height="1.31" transform="translate(-283.87 230.65) rotate(-55.49)" style="fill:#dbdbdb"></rect><rect x="80.38" y="384.48" width="42.43" height="1.31" transform="translate(-273.34 250.67) rotate(-55.49)" style="fill:#dbdbdb"></rect><rect x="55.02" y="384.48" width="68.57" height="1.31" style="fill:#dbdbdb"></rect><g style="opacity:0.2"><polygon points="80.1 400.45 77.82 400.45 57.08 385.71 57.83 384.63 80.1 400.45" style="fill:#fff"></polygon><polygon points="119.8 389.44 119.07 390.52 90.01 369.87 92.26 369.87 119.8 389.44" style="fill:#fff"></polygon><polygon points="108.94 400.46 106.68 400.45 66.53 371.92 67.27 370.85 108.94 400.46" style="fill:#fff"></polygon><polygon points="101.91 400.45 92.86 400.45 62.01 378.53 64.97 374.2 101.91 400.45" style="fill:#fff"></polygon><polygon points="127.64 378.01 124.68 382.34 107.15 369.87 116.19 369.87 127.64 378.01" style="fill:#fff"></polygon></g><rect x="132.55" y="392.55" width="6.05" height="35.4" style="fill:#dbdbdb"></rect><rect x="179.03" y="392.55" width="6.05" height="35.4" style="fill:#dbdbdb"></rect><rect x="203.74" y="369.88" width="6.07" height="58.09" style="fill:#dbdbdb"></rect><rect x="132.55" y="392.55" width="6.05" height="19.2" style="fill:#c7c7c7"></rect><rect x="179.04" y="392.55" width="6.05" height="19.2" style="fill:#c7c7c7"></rect><rect x="203.74" y="369.88" width="6.07" height="41.88" style="fill:#c7c7c7"></rect><polygon points="194.48 404.25 119.8 404.24 146.01 366.08 220.69 366.09 194.48 404.25" style="fill:#dbdbdb"></polygon><polygon points="213.37 369.88 207.79 378.01 204.82 382.34 199.95 389.44 199.22 390.52 192.4 400.46 127.12 400.45 137.23 385.71 137.97 384.63 142.15 378.53 145.12 374.2 146.68 371.92 147.42 370.85 148.09 369.87 213.37 369.88" style="fill:#455a64"></polygon><rect x="136.23" y="384.48" width="42.43" height="1.31" transform="translate(-249.12 296.7) rotate(-55.49)" style="fill:#dbdbdb"></rect><rect x="160.52" y="384.48" width="42.43" height="1.31" transform="translate(-238.59 316.72) rotate(-55.49)" style="fill:#dbdbdb"></rect><rect x="135.17" y="384.48" width="68.57" height="1.31" style="fill:#dbdbdb"></rect><g style="opacity:0.2"><polygon points="160.25 400.45 157.97 400.45 137.23 385.71 137.97 384.63 160.25 400.45" style="fill:#fff"></polygon><polygon points="199.95 389.44 199.22 390.52 170.16 369.87 172.41 369.87 199.95 389.44" style="fill:#fff"></polygon><polygon points="189.09 400.46 186.83 400.45 146.68 371.92 147.42 370.85 189.09 400.46" style="fill:#fff"></polygon><polygon points="182.06 400.45 173.01 400.45 142.15 378.53 145.12 374.2 182.06 400.45" style="fill:#fff"></polygon><polygon points="207.79 378.01 204.82 382.34 187.29 369.87 196.34 369.87 207.79 378.01" style="fill:#fff"></polygon></g><rect x="291.87" y="392.55" width="6.05" height="35.4" style="fill:#dbdbdb"></rect><rect x="338.36" y="392.55" width="6.05" height="35.4" style="fill:#dbdbdb"></rect><rect x="363.06" y="369.88" width="6.07" height="58.09" style="fill:#dbdbdb"></rect><rect x="291.87" y="392.55" width="6.05" height="19.2" style="fill:#c7c7c7"></rect><rect x="338.36" y="392.55" width="6.05" height="19.2" style="fill:#c7c7c7"></rect><rect x="363.06" y="369.88" width="6.07" height="41.88" style="fill:#c7c7c7"></rect><polygon points="353.8 404.25 279.12 404.24 305.34 366.08 380.01 366.09 353.8 404.25" style="fill:#dbdbdb"></polygon><polygon points="372.69 369.88 367.11 378.01 364.15 382.34 359.27 389.44 358.54 390.52 351.72 400.46 286.44 400.45 296.55 385.71 297.3 384.63 301.48 378.53 304.44 374.2 306 371.92 306.74 370.85 307.41 369.87 372.69 369.88" style="fill:#455a64"></polygon><rect x="295.55" y="384.48" width="42.43" height="1.31" transform="translate(-180.06 427.99) rotate(-55.49)" style="fill:#dbdbdb"></rect><rect x="319.85" y="384.48" width="42.43" height="1.31" transform="translate(-169.53 447.99) rotate(-55.49)" style="fill:#dbdbdb"></rect><rect x="294.49" y="384.48" width="68.57" height="1.31" style="fill:#dbdbdb"></rect><g style="opacity:0.2"><polygon points="319.57 400.45 317.29 400.45 296.55 385.71 297.3 384.63 319.57 400.45" style="fill:#fff"></polygon><polygon points="359.27 389.44 358.54 390.52 329.48 369.87 331.73 369.87 359.27 389.44" style="fill:#fff"></polygon><polygon points="348.41 400.46 346.15 400.45 306 371.92 306.74 370.85 348.41 400.46" style="fill:#fff"></polygon><polygon points="341.38 400.45 332.33 400.45 301.48 378.53 304.44 374.2 341.38 400.45" style="fill:#fff"></polygon><polygon points="367.11 378.01 364.15 382.34 346.62 369.87 355.66 369.87 367.11 378.01" style="fill:#fff"></polygon></g></g><g id="freepik--Floor--inject-2"><polygon points="459.98 427.98 407.49 428.23 354.99 428.31 250 428.48 145.01 428.32 92.52 428.23 40.02 427.98 92.52 427.74 145.01 427.65 250 427.49 354.99 427.65 407.49 427.74 459.98 427.98" style="fill:#263238"></polygon></g><g id="freepik--Shadow--inject-2"><ellipse cx="250" cy="449.65" rx="75.57" ry="9.23" style="fill:#ebebeb"></ellipse></g><g id="freepik--World--inject-2"><path d="M381.06,314.43a130.09,130.09,0,0,1-25,76.86v0A130.75,130.75,0,1,1,250.32,183.69q5.38,0,10.65.43a130.6,130.6,0,0,1,92.13,49.5,132.57,132.57,0,0,1,8.16,11.59A130.16,130.16,0,0,1,381.06,314.43Z" style="fill:#FFC727"></path><g style="opacity:0.1"><path d="M278.55,376.14c-1.65,4.4,1.1,4.58,1.28,6.41s0,5.31-5.31,10.62-14.1,4.21-15.93,6.41-4.94,11.54-9.34,14.65-5.12,1.28-11.35,2.56-11,9.34-12.82,13.19.37,10.25-4,10.44-6.4-9.34-10.43-14.47-5.31-9.71-6.59-15.75.73-18.68,0-23.62-13.92-13.73-18.68-19.78-11.36-18.12-11-22.15a16.41,16.41,0,0,1,5.49-10.07c2.2-1.65,1.29-2.57,1.65-4s2.2-1.83,2.57-3.66-1.1-7.33-2.93-8.24-3.12,2.19-4.22,1.64-4.39-4.39-5.67-4.76-.92,2.38-2.75-1.1-2.75-12.26-4.21-13.73-2.56,2.56-6,0-4.95-7.51-6.41-8.24-3.48.18-5-2.75,1.33-8.24,0-7.69-4.17,4.76-4.9.74,3.66-17.58,2.93-24.91,1.83-15,7-21.24c0,0,.73-4,1.46-6.59s16.48-12.82,18.31-15.75c.77-1.22,1-3.14,1.3-5.21a130.13,130.13,0,0,1,77.41-25.37q5.38,0,10.65.43c.12.17.25.33.37.49,1.59,2,3.3,3.29,7.94,5s5.73,3.91,4.76,5.74-2.57,2.2-4.4,2.32-3.54-.86-5.49.37-3.91,7.81-6.47,8.17-7.08-5.86-8.06-7.69,2.2-5.74.7-7.57-4.12-1.46-8.27-1.83-13.79,1.23-13.43,2.81,14.16-.24,14.53,2.93-10.13,8.55-12,8.06-4.28-3.66-7-4-4.89,1.83-6.57,2.08-3.68-1.84-6.25-1.35-3.17,2.69-4.52,3.54S202.38,204,202,206s4,3.05,5.13,4.27-1.35,5.37-.25,6.23,7.94-5.13,9.65-6.59,3.17-7.82,6.83-7.69,4.89,6.34,6.11,6.95,3.91-1.46,7.93-.61,6.84,9.65,7.57,12.33,2.44,5.38,1,6.47-8.06-.73-8.91-2.44,4.39-4.27,4-4.88-3.42-1.47-5-.51-2.32,2.95-4,3.44-6.22-4.64-7.44-3.18,1.22,6.11,2.44,7.21,5.73,1.7,6.1,2.93-3,3.9-7.2,3.66-7.57-3.42-9.16-2.08-.73,4.89-1.83,6.11-7.08.36-10,3.54-4.27,7.93-7.2,10.62-4.27-.74-8.18,3.05S185,267,184.92,269.94s0,5.25-1,4.88-2.33-2.93-2.69-4.52.85-4.27.85-5.24-5.61-6-8.91-6.48-6.23,2.2-8.66,4.15-6.84,1.59-8.43,3.18-2.81,15.63-1.59,18.92,2.81,3.3,6.72,1.59,1.71-5,4-4.28a5.47,5.47,0,0,1,3.54,5.13c0,2-4.64,6.59-4,7.94s4.64-.25,6.59.36,2.93,1.83,2.32,6.84-.24,8.91,2.69,10.56,4.57-2.38,5.86-1.83,3.11,3.48,4.94,3.29.91-1.83,4.39-2.93,2.2-1.83,2.93-4,2.93-4,5.31-2.93.74,2.74.92,4.57,4.39,2,7.69,3.12,5.13,0,11.72,2.19,7,8.79,9.7,9.89,11.91-.73,18.5,4,4.76,13.55,8.06,16.11,15.56,6.05,20.32,7,5.49-2.38,9.34-1.46,6,2,7.32,7.32C294.51,362,280.2,371.75,278.55,376.14Z"></path><path d="M180.16,282.51c.12,1,3.17,1.47,6.84,3.54s5,8.18,6.95,8.06,1.35-2.93,2.08-3.66,1.95-2.32,0-3.91-3.85-5-7.42-5.49-4.18-2-5.76-1.83A2.76,2.76,0,0,0,180.16,282.51Z"></path><path d="M200.3,292.77c-.54,1.49,0,2.56,3.91,3.54s7.57-1,6.35-1.77-3.06-.43-2.32-1.77.48-3.3-2.69-2.93S200.79,291.42,200.3,292.77Z"></path><path d="M214,293.18c-1.33.19-2.07,2.52-.73,4s1.35,1.22,2.93,0,4-1.83,3.42-3.05S215.32,293,214,293.18Z"></path><path d="M224.6,298.17c.59-1.83,3.66,0,5,1.92s.73,4.76,0,6.84-1.22,4.51-2.93,3.54.12-3.91-.12-5.62S224.11,299.67,224.6,298.17Z"></path><path d="M277.21,196.33c-.64,1.53,2.32,2.07,4,3s3.05,1.58,4,0-.37-3.42-1.71-3.79S277.82,194.86,277.21,196.33Z"></path><path d="M300.28,210.61c1.13,1.19,3.05,1,4.4,2.68s.85,4.64,2.56,5.5,2.93,0,3.05-1.22-2.44-4.28-2.2-4.89,3.54.86,4.28,2.69-.74,4.39,1,4.88,1.35-1.71,2.08-2.19,2.32-.25,2.2-1.71-2.08-4.64-3.67-5.74-2.8-2.32-5.49-2.93-5.25-.12-6.59,1S299.59,209.88,300.28,210.61Z"></path><path d="M353.1,233.62a2.2,2.2,0,0,1-.69,1.28c-2.56,1.83-5.62-4.52-9.16-5.73s-5.12-5.74-5.86-4.77-.49,2.32-1.59,3.91-2.68,1.22-3.41,4.27,3.41,8.67,2.44,10.5-2.2,1.22-4.15,1.1-1.59,1.59-4.15.85-.37-3.9-4.4-7.69-5.37-4.51-4.51-6.22-.37-4.15,1.46-4.4,3.3,2.45,4.52,3.18,2.81-1.47,2.93-3.42-4.28-4.64-5.86-6.16-1.71-7-1.1-8.13,2.44-.73,2.93-3.41c.29-1.58-2.21-4.22-4.32-6.12A131.19,131.19,0,0,1,353.1,233.62Z"></path><path d="M371.33,343.06c.36-3.91-1.59-4.15.36-11.35s-2.07-14.9-3.53-16.48-4.64-1.1-7.21.49-.73,2.8-2.44,3.41-3.42-.36-5-.24-3.06,4.15-6.47,4-5.62-5-8.18-8.49-7.82-5.67-9.52-9.95,1.58-10.86.85-15.87-4-3.9-4.64-6.71.49-1.46,1.34-4.15-1-4.15.74-8.79,4.76-7,4-9-3.06-5.5-3.18-7.93,2.32-2.33,7-5.75,5.86-3.17,9.4-1.95a51.17,51.17,0,0,0,7.81,2.2c2.08.36,4.89,5.74,5.74,5.49s1-1.83,1.34-4.15a5.25,5.25,0,0,1,1.53-2.63,130.83,130.83,0,0,1-5.17,146.08C368.55,372.29,371,347,371.33,343.06Z"></path></g><path d="M351.61,397.11A130.75,130.75,0,1,1,250.32,183.69c3.59,0,7.14.15,10.66.43q1.45.1,2.91.27a119.8,119.8,0,1,0,87.72,212.72Z" style="opacity:0.1"></path><path d="M381.06,314.43a130.09,130.09,0,0,1-25,76.86v0a131.38,131.38,0,0,1-47,39.93,132.15,132.15,0,0,0,41.24-36.95s0,0,0,0A131.48,131.48,0,0,0,254.7,185.9c-3.53-.29-7.11-.44-10.71-.44a131.49,131.49,0,0,0-31.58,3.82,130.36,130.36,0,0,1,37.91-5.59c3.59,0,7.14.15,10.66.43a129.92,129.92,0,0,1,57.2,18.54,131.35,131.35,0,0,1,34.92,31,127.07,127.07,0,0,1,8.15,11.6A130,130,0,0,1,381.06,314.43Z" style="fill:#fff;opacity:0.30000000000000004"></path><g style="opacity:0.5"><path d="M137.85,268.35a2.87,2.87,0,0,0-3.92-1.13c-2.26,1-3.26,3.47-3.55,5.85a4.48,4.48,0,0,0,0,3.15,2.39,2.39,0,0,0,3.4.84c1.4-.84,2.34-2.7,3-4.11S138.54,269.81,137.85,268.35Z" style="fill:#fff"></path><path d="M141.79,258.19a2.14,2.14,0,0,0-2.41-.9,2.47,2.47,0,0,0-1.64,1.9,1.42,1.42,0,0,0,0,.29,2.72,2.72,0,0,0-.57,2.22,2.16,2.16,0,0,0,3.78.85C141.88,261.52,142.54,259.48,141.79,258.19Z" style="fill:#fff"></path><path d="M143,265.11a2,2,0,0,0-1.45.59,1.4,1.4,0,0,0-.46,1.12,2.45,2.45,0,0,0-.31.78,1.46,1.46,0,0,0,.64,1.57,1.78,1.78,0,0,0,2.47-.5,3.35,3.35,0,0,0,.7-2A1.62,1.62,0,0,0,143,265.11Z" style="fill:#fff"></path><path d="M147.87,250.32c-.43.33-1,.62-1.2,1.13a1.94,1.94,0,0,0-.17.69,2.77,2.77,0,0,0-.32,1.19,1.36,1.36,0,0,0,1.7,1.3,3.12,3.12,0,0,0,2.17-3.06C150,250.58,148.79,249.64,147.87,250.32Z" style="fill:#fff"></path><path d="M176.05,219.05a4.62,4.62,0,0,0-3.36,1.28,5.35,5.35,0,0,0-.7.72,4.35,4.35,0,0,0-.64.57c-.8.9-1.19,2.45-.23,3.4s2.42.17,3.4-.5a7.51,7.51,0,0,0,2.67-2.73C177.78,220.63,177.5,219.27,176.05,219.05Z" style="fill:#fff"></path><path d="M188.47,212a10.73,10.73,0,0,0-5.17,1.87l-.75.55-.07,0c-1,.71-2.7,1.9-2.48,3.37a2.08,2.08,0,0,0,2.69,1.45,23.71,23.71,0,0,0,5.77-2.37c1.14-.64,2.59-1.7,2.56-3.15S189.71,211.89,188.47,212Z" style="fill:#fff"></path><path d="M182.54,221.64a2.71,2.71,0,0,0-2.7.68,1.79,1.79,0,0,0-.91,1.14,1.55,1.55,0,0,0,1,1.73,2.15,2.15,0,0,0,2-.32c.55-.36,1.32-.78,1.51-1.45A1.5,1.5,0,0,0,182.54,221.64Z" style="fill:#fff"></path><path d="M170.61,229.41a2.55,2.55,0,0,0-1.43-.21,2,2,0,0,0-1.8,2.83,1.79,1.79,0,0,0,2.05.87,3.13,3.13,0,0,0,1.68-1.58A1.4,1.4,0,0,0,170.61,229.41Z" style="fill:#fff"></path><path d="M171.33,406.39a1.82,1.82,0,0,0-2.47.62,1.88,1.88,0,0,0,.45,2.31,3.41,3.41,0,0,0,.37.48,2.74,2.74,0,0,0,1.8,1,1.84,1.84,0,0,0,1.88-1.29C173.77,408.07,172.5,407,171.33,406.39Z" style="fill:#fff"></path><path d="M181,408.25c-1.2-1.31-3.93-2.67-5.15-.72l0,.07a1.67,1.67,0,0,0-.18.28,1.51,1.51,0,0,0-.1.69,3.07,3.07,0,0,0,.75,2.06,3.3,3.3,0,0,0,1.45,1.05,3.06,3.06,0,0,0,1,.58,2.2,2.2,0,0,0,2.73-1A2.58,2.58,0,0,0,181,408.25Z" style="fill:#fff"></path><path d="M178.89,414.86a1.59,1.59,0,0,0-2.37-1.35,1.25,1.25,0,0,0-.45,1.72,4.92,4.92,0,0,0,.5.61,1.42,1.42,0,0,0,2.32-1Z" style="fill:#fff"></path><path d="M184.23,416v0a1,1,0,0,0-.72-.71l-.06,0,.08,0a1,1,0,0,0-1.1.22h0a1.08,1.08,0,0,0,.75,1.82h0A1.08,1.08,0,0,0,184.23,416Z" style="fill:#fff"></path><path d="M369.49,294.05c-.2-2.83-.68-7.41-3.38-9a1.58,1.58,0,0,0-1.72.2c-2.09,1.22-1.38,4.94-1.19,6.69.24,2.32.13,6.37,3.1,7S369.63,296.07,369.49,294.05Z" style="fill:#fff"></path><path d="M365.77,278.58a3,3,0,0,0-.91-2.2,1.76,1.76,0,0,0-2.37.08c-1.14,1.11-.86,3.22,0,4.42a1.53,1.53,0,0,0,2.22.42,1.43,1.43,0,0,0,.25-.24,1.55,1.55,0,0,0,.27-.24A3.06,3.06,0,0,0,365.77,278.58Z" style="fill:#fff"></path><path d="M368.17,301.8c-1.43-.34-2.25.65-2.58,1.92a8.33,8.33,0,0,0,.09,4.75c.38,1.09,1.07,2.21,2.38,2.18a2.54,2.54,0,0,0,2.28-2.26C370.74,306.41,370.72,302.41,368.17,301.8Z" style="fill:#fff"></path><path d="M363.66,299.64a1.64,1.64,0,0,0-1.37-.42.72.72,0,0,0-.58.13c-2.07.52-1.65,4.38.26,5C364.56,305.22,365.15,301,363.66,299.64Z" style="fill:#fff"></path><path d="M362,362.24c-1.18.27-1.79,1.42-2.26,2.43a15.68,15.68,0,0,0-.63,1.48c-.53,1.09-.75,2.22,0,3.1a2.51,2.51,0,0,0,2.94.61,4.42,4.42,0,0,0,2.09-2.67C364.73,365.5,364.86,361.59,362,362.24Z" style="fill:#fff"></path><path d="M357.94,372.21a2.58,2.58,0,0,0-2.27,1.65c-.13.24-.25.48-.36.74a2.38,2.38,0,0,0-.47,1.89,1.49,1.49,0,0,0,.72,1.22,2.07,2.07,0,0,0,1.42.49,2.59,2.59,0,0,0,2.1-1.59,5.85,5.85,0,0,0,.72-2.28A2,2,0,0,0,357.94,372.21Z" style="fill:#fff"></path><path d="M354.66,367.12a4.33,4.33,0,0,0-1.21,2.45,1.54,1.54,0,0,0,.71,1.85c2,1,3-1.78,3-3.25A1.51,1.51,0,0,0,354.66,367.12Z" style="fill:#fff"></path><path d="M366.42,357a1.45,1.45,0,0,0-1.39,1.18,2.66,2.66,0,0,0-.34.51,1.56,1.56,0,0,0,.55,2.05,1.42,1.42,0,0,0,1.37,0,2.83,2.83,0,0,0,1.22-2.33A1.41,1.41,0,0,0,366.42,357Z" style="fill:#fff"></path></g><path d="M276.84,284A282.71,282.71,0,0,0,338,271.53a9.35,9.35,0,0,0-6.28-1.48s-6.4-12.92-17.29-10.51c-10.13,2.18-14.25,12-14.24,12.08s-4.73-3.33-9.27-.79-7.11,8.27-7.11,8.27S278.7,281.77,276.84,284Z" style="fill:#fff;opacity:0.7000000000000001"></path><path d="M189.51,303.43a282.65,282.65,0,0,1-74.58-28.18c0-.05-.05-3.69,9.88.63,0-.05,9-11.89,23.33-4,8.92,4.85,13.57,16.06,13.57,16.08s6.83-5.42,12.36-2.39,8.83,12,8.83,12S188.64,301.1,189.51,303.43Z" style="fill:#fff"></path><path d="M387.45,290.54a282.74,282.74,0,0,1-74.59,28.19c0-.05,0-3.69,10.6-7.14,0,0,9.7-19,24.12-21.94,9-1.89,13.46,5.87,13.47,5.9S367.72,285,373,284s8.32,5.53,8.33,5.54S386.65,288.85,387.45,290.54Z" style="fill:#fff"></path><path d="M261,252a283.09,283.09,0,0,1-53.37-3.2s5-2.8,7.23-2.52,8.74-10.82,17.1-9.75,12.8,10,12.8,10S254.94,244.24,261,252Z" style="fill:#fff"></path><path d="M235.54,437.09a283.6,283.6,0,0,1-53-8s4.93-2.35,7.14-1.87,8.63-10,16.92-8.21,12.73,11.12,12.72,11.14S229.47,428.82,235.54,437.09Z" style="fill:#fff"></path><path d="M181.84,368.24a281.74,281.74,0,0,1-43.81-15,6,6,0,0,1,4.48-.61s4.57-9,12.36-6.26c7.25,2.53,10.2,10.21,10.2,10.23a6.35,6.35,0,0,1,6.64.37c3.26,2.36,5.11,6.86,5.11,6.86S180.5,366.37,181.84,368.24Z" style="fill:#fff;opacity:0.7000000000000001"></path><path d="M287.54,418a282.56,282.56,0,0,0,60.76-14.84,8.92,8.92,0,0,0-6.22-1.24s-6.34-12.67-17.14-9.83c-10.06,2.57-14.16,12.58-14.15,12.62s-4.7-3.15-9.22-.44-7.08,8.55-7.08,8.55S289.39,415.69,287.54,418Z" style="fill:#fff;opacity:0.7000000000000001"></path></g><g id="freepik--Character--inject-2"><path d="M335.16,243.45c-.55-2.4-36.63-60.88-39.35-62.2-.31-.17-20,11.21-20,11.21-.86.94-35.23-9.81-35.23-9.81l-4.38,42.28,64,4.73s8.15,5.89,15.65,10.78h0a95.66,95.66,0,0,0,9.9,6C328.91,247.59,335.73,245.84,335.16,243.45Z" style="fill: rgb(201, 95, 80);"></path><path d="M325.79,246.47c-1.2-.43-5.29-3-9.9-6h0c-7.49-4.89-15.64-10.79-15.64-10.79L286,228.6l-18.84-38c4.8,1.33,8.4,2.2,8.67,1.9,0,0,19.7-11.38,20-11.2,2.72,1.31,38.8,59.78,39.35,62.19S328.91,247.6,325.79,246.47Z" style="fill:#fff"></path><path d="M335.53,243.56c-.58-2.47-36.86-60.93-39.65-62.28-1.05-.52-10.61,4.19-20.08,11.18l23.43,37.66s23.45,15.44,26.68,16.6S336.12,246,335.53,243.56Z" style="fill:#a6a6a6"></path><path d="M332.67,244.17c-6.32-9.65-30.9-49.17-36.42-59.19,0-.08,0-.11.06,0,6.48,9.43,30.74,49.15,36.52,59.13C333,244.28,332.81,244.37,332.67,244.17Z" style="fill:#263238"></path><path d="M321.47,244.26a9.24,9.24,0,0,1-1.24-7.35,8.92,8.92,0,0,1,3.87-5.43c.06,0,.13.07.07.12a10.69,10.69,0,0,0-2.58,12.58A.07.07,0,1,1,321.47,244.26Z" style="fill:#263238"></path><path d="M302.12,232.58c-2.49-3.88-3.93-9.29-2.23-13.72.06-.17.31-.07.32.08a63.69,63.69,0,0,0,2.43,13.41A.29.29,0,0,1,302.12,232.58Z" style="fill:#263238"></path><path d="M305.18,234.88c-2.49-3.89-3.93-9.3-2.23-13.72.06-.17.31-.08.32.08a63.92,63.92,0,0,0,2.43,13.41A.29.29,0,0,1,305.18,234.88Z" style="fill:#263238"></path><path d="M308.24,237.18c-2.49-3.89-3.93-9.3-2.23-13.73.06-.17.31-.07.32.08a63.69,63.69,0,0,0,2.43,13.41A.29.29,0,0,1,308.24,237.18Z" style="fill:#263238"></path><path d="M311.3,239.47c-2.49-3.89-3.93-9.29-2.23-13.72.06-.17.3-.08.32.08a63.8,63.8,0,0,0,2.43,13.41A.29.29,0,0,1,311.3,239.47Z" style="fill:#263238"></path><path d="M288.49,193.25c-2.71-4.41,4.13-8.64,6.85-4.22S291.22,197.67,288.49,193.25Z" style="fill:#263238"></path><path d="M299.84,239.44c1.42-3.81,1.13-8.11,1.33-12.1a.56.56,0,0,0-.75-.51c0-.06-.11-.11-.19-.05a24.23,24.23,0,0,0-7.82,9.79c-1,2.28-1,5.78,1.87,6.75C297,244.23,299,241.66,299.84,239.44Zm-3.14,2.19c-4.51,2.26-3.62-3.62-2.85-5.28a25.84,25.84,0,0,1,1.75-3.07c1.33-2.07,2.93-3.91,4.44-5.82-.21,2-.26,3.91-.41,5.87C299.46,235.67,299.19,240.39,296.7,241.63Z" style="fill:#263238"></path><path d="M289.09,214.41c-2.37,1.89-1.12,5.16.56,7a24.3,24.3,0,0,0,10.71,6.49.12.12,0,0,0,.16-.11.57.57,0,0,0,.54-.74c-1.57-3.68-2.78-7.81-5.42-10.9C294.09,214.33,291.33,212.61,289.09,214.41Zm8.46,7.53c.81,1.79,1.53,3.61,2.41,5.37a72.55,72.55,0,0,1-6.18-3.94,25.44,25.44,0,0,1-2.7-2.28c-1.29-1.29-4.16-6.5.86-5.94C294.7,215.46,296.58,219.8,297.55,221.94Z" style="fill:#263238"></path><path d="M251.54,174s-53.16-26.31-77.2-26.75c-28.62-.52-51.87,32.77-17.54,58.3,30.35,22.57,128.11,23.93,128.11,23.93l-21.6-41.69a208.52,208.52,0,0,0-62-13.45l49,11.5Z" style="fill:#37474f"></path><path d="M250.3,182.11c-4.2-1.2-8.48-2.06-12.75-3s-8.62-1.73-13-2.51a263,263,0,0,0-26.09-3.44c-.82-.06-1.64-.1-2.46-.15a4.6,4.6,0,0,0-.52-.19c-.41-.14-.82-.28-1.23-.4-.78-.23-1.56-.42-2.34-.62-1.63-.41-3.27-.74-4.88-1.2-.1,0-.16.12-.06.15,1.62.52,3.2,1.15,4.82,1.67l1.4.44c-3.22-.14-6.44-.19-9.66-.21-.1,0-.12.16,0,.16,4.37.16,8.75.55,13.1,1s8.63,1,12.92,1.65c8.69,1.34,17.34,2.95,26,4.69,4.83,1,9.67,2.05,14.55,2.72C250.57,183,250.77,182.24,250.3,182.11Z" style="fill:#263238"></path><path d="M275,227.29c-1.32-2.65-2.4-5.44-3.58-8.16L267.88,211c-2.38-5.43-11-23.73-11.94-25-.06-.09-.2,0-.18.08.36,1.39,5.7,13.47,6.94,16.17,2.47,5.4,5.11,10.71,7.69,16.06.74,1.52,1.51,3,2.26,4.55s1.57,3,2.24,4.57C274.93,227.45,275.08,227.38,275,227.29Z" style="fill:#263238"></path><path d="M147.35,237.68c.77-2.34,42.24-57.13,45.07-58.18.33-.14,18.86,13.05,18.86,13.05.77,1,36-6.43,36-6.43l.35,42.51-64.18-1.37s-8.67,5.1-16.6,9.25c0,0,0,0,0,0a94.1,94.1,0,0,1-10.43,5.06C153.18,242.4,146.56,240,147.35,237.68Z" style="fill: rgb(201, 95, 80);"></path><path d="M156.39,241.57c1.24-.31,5.55-2.48,10.43-5.06,0,0,0,0,0,0,7.93-4.15,16.6-9.25,16.6-9.25l14.28.31,22.36-36.09c-4.91.87-8.57,1.39-8.81,1.07,0,0-18.53-13.2-18.86-13.05-2.83,1.05-44.29,55.84-45.07,58.18S153.18,242.4,156.39,241.57Z" style="fill:#fff"></path><path d="M147,237.75c.82-2.4,42.47-57.15,45.38-58.24,1.1-.41,10.17,5.19,18.93,13l-26.89,35.27s-24.82,13.14-28.14,14S146.16,240.15,147,237.75Z" style="fill:#a6a6a6"></path><path d="M149.76,238.63c7.21-9,35.43-46,41.87-55.46.05-.08,0-.12-.06,0-7.34,8.77-35.26,46-42,55.4C149.47,238.72,149.61,238.82,149.76,238.63Z" style="fill:#263238"></path><path d="M160.9,239.79a9.27,9.27,0,0,0,1.94-7.2,9,9,0,0,0-3.34-5.78c-.06,0-.14.06-.09.11a10.7,10.7,0,0,1,1.38,12.78A.07.07,0,0,0,160.9,239.79Z" style="fill:#263238"></path><path d="M181.28,230c2.84-3.64,4.78-8.88,3.52-13.45-.05-.18-.3-.11-.33,0a63.25,63.25,0,0,1-3.7,13.12A.3.3,0,0,0,181.28,230Z" style="fill:#263238"></path><path d="M178,232c2.85-3.63,4.79-8.88,3.52-13.45-.05-.17-.3-.1-.32.05a63.87,63.87,0,0,1-3.7,13.12A.29.29,0,0,0,178,232Z" style="fill:#263238"></path><path d="M174.75,234c2.84-3.64,4.79-8.88,3.52-13.45-.05-.18-.3-.11-.33.05a63.84,63.84,0,0,1-3.69,13.12A.29.29,0,0,0,174.75,234Z" style="fill:#263238"></path><path d="M171.49,236c2.84-3.63,4.78-8.88,3.52-13.45,0-.17-.3-.1-.33.05A63.84,63.84,0,0,1,171,235.7.29.29,0,0,0,171.49,236Z" style="fill:#263238"></path><path d="M198.57,192.14c3.12-4.14-3.29-9-6.42-4.86S195.44,196.27,198.57,192.14Z" style="fill:#263238"></path><path d="M188.06,241.42c2.95-.68,3.23-4.17,2.5-6.54a24.17,24.17,0,0,0-6.85-10.48.13.13,0,0,0-.2,0,.57.57,0,0,0-.8.44c-.18,4-.86,8.24.19,12.17C183.51,239.33,185.26,242.07,188.06,241.42ZM183.68,231c0-2,.18-3.92.15-5.89a70.86,70.86,0,0,1,3.86,6.22,25.85,25.85,0,0,1,1.46,3.22c.61,1.72.94,7.67-3.34,5C183.45,238.05,183.63,233.32,183.68,231Z" style="fill:#263238"></path><path d="M189.29,214.24c-2.93,2.82-4.53,6.81-6.43,10.33a.56.56,0,0,0,.46.78.12.12,0,0,0,.15.13A24.28,24.28,0,0,0,194.75,220c1.84-1.65,3.4-4.78,1.22-6.89S191,212.59,189.29,214.24Zm3.78-.63c5-.09,1.69,4.83.29,6a28.94,28.94,0,0,1-2.91,2c-2.09,1.29-4.33,2.26-6.52,3.33,1-1.67,1.93-3.41,2.91-5.12C188,217.8,190.29,213.66,193.07,213.61Z" style="fill:#263238"></path><path d="M249.22,173.09S304,158,332.88,162.16c28.33,4.06,39.14,40,11,58.61-30.75,20.36-144.47,10.29-144.47,10.29l25.35-43s39-8.21,74.36-7l-49.89,6.8Z" style="fill:#37474f"></path><path d="M223.07,190.87a1.42,1.42,0,0,0,.05-.22l0-.18c0-.14.08-.28.11-.41.09-.29.19-.57.3-.85s.23-.54.35-.81a6.52,6.52,0,0,1,.48-.76s0,0,.07,0l0,0,.07,0,.06,0c4.29-.8,33.43-5,37.76-5.47s8.75-.9,13.13-1.27a259.41,259.41,0,0,1,26.3-.94c.82,0,1.64,0,2.46.07a4.72,4.72,0,0,1,.54-.13c.42-.1.84-.21,1.27-.29.79-.15,1.58-.27,2.38-.39,1.66-.25,3.32-.43,5-.74a.08.08,0,0,1,0,.16c-1.66.37-3.29.85-4.95,1.21l-1.44.3c3.22.17,6.43.42,9.64.71.1,0,.1.17,0,.16-4.37-.26-8.77-.29-13.14-.21s-8.69.17-13,.41c-8.78.51-17.55,1.29-26.28,2.21-4.91.51-34.62,4.85-39.54,5h-.06a2,2,0,0,1-.14.34c-.14.27-.27.53-.42.79s-.28.5-.44.75l-.24.35-.12.18a.8.8,0,0,0-.13.19C223.18,191.05,223,191,223.07,190.87Z" style="fill:#263238"></path><path d="M208.55,228.45c1.57-2.51,2.91-5.19,4.34-7.78s2.88-5.19,4.33-7.78c2.89-5.18,13.24-22.59,14.26-23.8.07-.08.2,0,.17.1-.49,1.34-7,12.87-8.44,15.44-3,5.14-6.1,10.18-9.18,15.25-.88,1.45-1.79,2.88-2.69,4.32s-1.84,2.86-2.66,4.34C208.63,228.63,208.49,228.54,208.55,228.45Z" style="fill:#263238"></path><path d="M220.66,100.86a.5.5,0,0,0,.4.52l1.94,0c1.59-4.92,3.34-8.85,2.89-7.32a26.8,26.8,0,0,0-1,7.35l3.83,0c1.25-8.58,3-15,2.92-13-.24,7.87.27,10.38.86,13,9.23,0,21.34-.11,30.09-.4.87-4.75,1.6-9.88,1.76-9.54,1.28,2.61,1.72,6.45,1.83,9.42,2.79-.12,5-.26,6.37-.42,0,0,.53-4,.58-5.3a28.84,28.84,0,0,0-1.27-9.86,49.75,49.75,0,0,0-4.33-9l0-.07,0,0a28.57,28.57,0,0,1-2.51-6l0,0a29.7,29.7,0,0,1-.86-4.68c-.58-5.79-3.79-10.67-8.93-12C247,46.38,234.38,50.8,232.29,59v0c-.88,3.4-1.63,7.8-2.35,11.21a0,0,0,0,1,0,0,.08.08,0,0,1,0,0h0a35.71,35.71,0,0,1-1,3.94C226.64,80.41,221.18,84.12,220.66,100.86Z" style="fill:#263238"></path><path d="M257.44,55.08a10.73,10.73,0,0,1,6.18,8.56,29.72,29.72,0,0,0,1.56,7.15,25.4,25.4,0,0,0,4,6.17,19.11,19.11,0,0,1,4.7,10.21,34.33,34.33,0,0,1-.75,13.22s0,0,0,0a36.34,36.34,0,0,0,0-13.75c-.87-4.56-3.38-7.34-6-10.72a19.66,19.66,0,0,1-3.94-9.22c-.31-2.08-.35-4.26-1.2-6.2-1-2.31-2.93-3.73-4.83-5C257,55.35,257.18,55,257.44,55.08Z" style="fill:#263238"></path><path d="M223.48,81c2.26-3.41,4.63-6.33,5.89-10.49,1.15-3.78,1.75-7.75,2.92-11.53,0-.06.11,0,.09,0-1.78,6.7-2,13.39-5.78,19.13-2.07,3.12-4.15,6-5.47,9.71a34.64,34.64,0,0,0-1.88,12c0,.15-.17.15-.19,0A28.44,28.44,0,0,1,223.48,81Z" style="fill:#263238"></path><path d="M254.48,53.71C255,55,262.59,56,265.94,50.89s-1-11.22-7-8.3C255.11,44.43,253.3,50.91,254.48,53.71Z" style="fill:#263238"></path><path d="M266.08,44a8.35,8.35,0,0,0-4.87-2.63,5.05,5.05,0,0,0-4.77,1.71,10.21,10.21,0,0,0-2.17,5,15.56,15.56,0,0,0-.23,2.82,7.8,7.8,0,0,0,.44,2.83,7,7,0,0,1-1-2.78,12.39,12.39,0,0,1-.08-3,9.86,9.86,0,0,1,2.2-5.6,5.8,5.8,0,0,1,2.62-1.74,5.94,5.94,0,0,1,3.1-.08A7.39,7.39,0,0,1,266.08,44Z" style="fill:#263238"></path><path d="M233.62,98.84c-15.85,10.06-44.51,31.93-47.9,46.26-1.94,8.2,10.18,13.41,11.6,13.19,15.05-2.3,33.88-36.51,42.73-51.78S238.77,95.58,233.62,98.84Z" style="fill: rgb(201, 95, 80);"></path><path d="M198.85,124.08l20.93,15.6s17.86-24.05,22.85-35.67.07-12-12-4.1S198.85,124.08,198.85,124.08Z" style="fill:#FFC727"></path><path d="M244.18,95.5a.72.72,0,0,1-.46-.51A1.51,1.51,0,0,1,244.18,95.5Zm-23.9,16.21a.71.71,0,1,0,.71.71A.71.71,0,0,0,220.28,111.71Zm12.07,0a.71.71,0,1,0,.71.71A.71.71,0,0,0,232.35,111.71Zm-5.91-8.92-.83.58a.49.49,0,0,0,0,.12.72.72,0,1,0,.84-.7Zm11.95,0a.72.72,0,1,0,.71.71A.71.71,0,0,0,238.39,102.78ZM208.21,129.3a.71.71,0,1,0,.71.71A.71.71,0,0,0,208.21,129.3Zm12.07,0a.71.71,0,1,0,.71.71A.71.71,0,0,0,220.28,129.3Zm-17.45-8.46-1,.85a.7.7,0,0,0,.38.11.71.71,0,0,0,.71-.72A.52.52,0,0,0,202.83,120.84Zm11.41-.47a.72.72,0,1,0,.71.71A.71.71,0,0,0,214.24,120.37Zm12.08,0a.72.72,0,1,0,.71.71A.71.71,0,0,0,226.32,120.37Z" style="fill:#fff"></path><path d="M242.62,104c-5,11.62-22.84,35.67-22.84,35.67l-9.64-7.19,34.36-36C244.74,98,244.14,100.48,242.62,104Z" style="opacity:0.1"></path><path d="M204,121.27a182.51,182.51,0,0,0,17.39,13.47c.08,0,.16-.07.09-.13-1.6-1.12-10.08-8.25-17.39-13.48C204,121.07,203.94,121.2,204,121.27Z" style="fill:#263238"></path><path d="M225.08,139.39,217,171.84a224.72,224.72,0,0,0,71.07.91s-12-59.49-26.49-75.28c-7.27-7.89-15.81-7.3-21.25-1.78C239,97.08,224.61,116.75,222.88,125,221.37,132.36,225.08,139.39,225.08,139.39Z" style="fill:#FFC727"></path><path d="M245.14,94.83a.72.72,0,1,1-.72-.71A.71.71,0,0,1,245.14,94.83Zm11.36-.71a.71.71,0,1,0,.71.71A.71.71,0,0,0,256.5,94.12Zm-24.15,17.59a.71.71,0,1,0,.71.71A.71.71,0,0,0,232.35,111.71Zm12.07,0a.71.71,0,1,0,.72.71A.71.71,0,0,0,244.42,111.71Zm12.08,0a.71.71,0,1,0,.71.71A.71.71,0,0,0,256.5,111.71Zm12.07,0a.71.71,0,1,0,.71.71A.71.71,0,0,0,268.57,111.71Zm-30.18-8.93a.72.72,0,1,0,.71.71A.71.71,0,0,0,238.39,102.78Zm12.07,0a.72.72,0,1,0,.71.71A.71.71,0,0,0,250.46,102.78Zm12.07,0a.72.72,0,1,0,.72.71A.71.71,0,0,0,262.53,102.78ZM232.35,129.3a.71.71,0,1,0,.71.71A.71.71,0,0,0,232.35,129.3Zm12.07,0a.71.71,0,1,0,.72.71A.71.71,0,0,0,244.42,129.3Zm12.08,0a.71.71,0,1,0,.71.71A.71.71,0,0,0,256.5,129.3Zm12.07,0a.71.71,0,1,0,.71.71A.71.71,0,0,0,268.57,129.3Zm-42.25-8.93a.72.72,0,1,0,.71.71A.71.71,0,0,0,226.32,120.37Zm12.07,0a.72.72,0,1,0,.71.71A.71.71,0,0,0,238.39,120.37Zm12.07,0a.72.72,0,1,0,.71.71A.71.71,0,0,0,250.46,120.37Zm12.07,0a.72.72,0,1,0,.72.71A.71.71,0,0,0,262.53,120.37Zm11.37.75a.78.78,0,0,0,.15.41Zm-41.55,25.77a.71.71,0,1,0,.71.71A.71.71,0,0,0,232.35,146.89Zm12.07,0a.71.71,0,1,0,.72.71A.71.71,0,0,0,244.42,146.89Zm12.08,0a.71.71,0,1,0,.71.71A.71.71,0,0,0,256.5,146.89Zm12.07,0a.71.71,0,1,0,.71.71A.71.71,0,0,0,268.57,146.89Zm12.07,0a.71.71,0,1,0,.72.71A.71.71,0,0,0,280.64,146.89ZM226.32,138a.72.72,0,1,0,.71.71A.71.71,0,0,0,226.32,138Zm12.07,0a.72.72,0,1,0,.71.71A.71.71,0,0,0,238.39,138Zm12.07,0a.72.72,0,1,0,.71.71A.71.71,0,0,0,250.46,138Zm12.07,0a.72.72,0,1,0,.72.71A.71.71,0,0,0,262.53,138Zm12.08,0a.72.72,0,0,0,0,1.43.72.72,0,0,0,0-1.43Zm-54.33,26.52a.71.71,0,1,0,.71.71A.71.71,0,0,0,220.28,164.48Zm12.07,0a.71.71,0,1,0,.71.71A.71.71,0,0,0,232.35,164.48Zm12.07,0a.71.71,0,1,0,.72.71A.71.71,0,0,0,244.42,164.48Zm12.08,0a.71.71,0,1,0,.71.71A.71.71,0,0,0,256.5,164.48Zm12.07,0a.71.71,0,1,0,.71.71A.71.71,0,0,0,268.57,164.48Zm12.07,0a.71.71,0,1,0,.72.71A.71.71,0,0,0,280.64,164.48Zm-54.32-8.93a.72.72,0,1,0,.71.71A.71.71,0,0,0,226.32,155.55Zm12.07,0a.72.72,0,1,0,.71.71A.71.71,0,0,0,238.39,155.55Zm12.07,0a.72.72,0,1,0,.71.71A.71.71,0,0,0,250.46,155.55Zm12.07,0a.72.72,0,1,0,.72.71A.71.71,0,0,0,262.53,155.55Zm12.08,0a.72.72,0,0,0,0,1.43.72.72,0,0,0,0-1.43Zm-48.29,17.59a.65.65,0,0,0-.37.11l.88.11A.69.69,0,0,0,226.32,173.14Zm12.07,0a.72.72,0,0,0-.36,1.33l.61.05h0a.72.72,0,0,0-.26-1.38Zm12.07,0a.72.72,0,1,0,.71.71A.71.71,0,0,0,250.46,173.14Zm12.07,0a.72.72,0,1,0,.72.71A.71.71,0,0,0,262.53,173.14Zm12.08,0a.71.71,0,0,0-.71.71.74.74,0,0,0,.21.52l1.06-.09h0a.72.72,0,0,0-.57-1.14Z" style="fill:#fff"></path><path d="M250.27,137.42a71.72,71.72,0,0,0-10.53,1.36c-1.72.38-3.41.84-5.1,1.33-.85.25-1.69.47-2.54.68a11.49,11.49,0,0,1-2.72.42.06.06,0,0,0,0,.12,17.36,17.36,0,0,0,2.6,0,19.2,19.2,0,0,0,2.49-.38c1.75-.37,3.48-.82,5.23-1.2,3.52-.78,7-1.56,10.61-2.08C250.47,137.68,250.44,137.4,250.27,137.42Z" style="fill:#263238"></path><path d="M258.88,140.84a75,75,0,0,0-8.73-.72c-1.46,0-2.92,0-4.38.11-.7.05-1.39.1-2.09.17s-1.52.24-2.29.3c-.08,0-.08.13,0,.13.73,0,1.46,0,2.18.06h2.19c1.46,0,2.91,0,4.37,0,2.92,0,5.83,0,8.75.13C259,141.08,259,140.86,258.88,140.84Z" style="fill:#263238"></path><path d="M265.5,98.84c20.12,13.23,44.51,31.93,47.9,46.26,1.94,8.2-10.18,13.41-11.6,13.19-15.05-2.3-33.87-36.51-42.73-51.78S260.4,95.49,265.5,98.84Z" style="fill: rgb(201, 95, 80);"></path><path d="M300.27,124.08l-20.93,15.6S261.48,115.63,256.5,104s-.08-12,11.95-4.1S300.27,124.08,300.27,124.08Z" style="fill:#FFC727"></path><path d="M257.21,94.83a.71.71,0,1,1-1.42,0v-.07a2.9,2.9,0,0,1,1.37-.19A.75.75,0,0,1,257.21,94.83Zm11.36,16.88a.71.71,0,1,0,.71.71A.71.71,0,0,0,268.57,111.71Zm12.07,0a.71.71,0,1,0,.72.71A.71.71,0,0,0,280.64,111.71Zm-18.11-8.93a.72.72,0,1,0,.72.71A.71.71,0,0,0,262.53,102.78Zm11.39.89a.71.71,0,0,0,.69.54h.05C274.41,104,274.17,103.84,273.92,103.67Zm6.72,25.63a.71.71,0,1,0,.72.71A.71.71,0,0,0,280.64,129.3Zm12.08,0a.71.71,0,0,0-.71.71.76.76,0,0,0,0,.21l1.07-.8A.67.67,0,0,0,292.72,129.3Zm-18.11-8.93a.72.72,0,0,0,0,1.43.72.72,0,0,0,0-1.43Zm12.07,0a.72.72,0,1,0,.71.71A.71.71,0,0,0,286.68,120.37Z" style="fill:#fff"></path><path d="M295.1,121.27a181.17,181.17,0,0,1-17.39,13.47c-.08,0-.16-.07-.09-.13,1.6-1.12,10.08-8.25,17.39-13.48C295.1,121.07,295.18,121.2,295.1,121.27Z" style="fill:#263238"></path><path d="M280.47,138.49c-.14,0-1.07.67-1.26.8-2.79-4-2.25-3-5.07-7L270,126.47c-1.44-2-2.77-4.14-4.31-6.08a.06.06,0,0,0-.09.07,64.75,64.75,0,0,0,3.48,5.67c-.25-.28-.48-.56-.75-.83-.59-.59-1.18-1.19-1.72-1.83-.08-.1-.25,0-.17.12.52.61,1,1.24,1.47,1.89s1,1.26,1.49,1.88,1,1.15,1.57,1.7l.2.21c.77,1.16,1.52,2.33,2.32,3.47a59,59,0,0,0,5.58,7,11.58,11.58,0,0,0,1.49-1.19C280.61,138.55,280.53,138.48,280.47,138.49Z" style="fill:#263238"></path><path d="M311.52,147.43c-.48,4-5.75,12.53-23,24.46-3,2.05-22.25-18.15-18.85-19.95,4.28-2.27,12.77-9,14.1-9.42C295,139,312.63,138.26,311.52,147.43Z" style="fill: rgb(201, 95, 80);"></path><path d="M277.68,146.76a36.29,36.29,0,0,1,4.78-3.45A18.27,18.27,0,0,1,288,141.1a31.8,31.8,0,0,1,5.9-.58,22.17,22.17,0,0,1,5.86.62,39.06,39.06,0,0,0-5.83.12,49.52,49.52,0,0,0-5.72.81C284.48,142.85,281.16,145,277.68,146.76Z" style="fill:#263238"></path><path d="M288.06,164.86c-1.41,2.55-8.94,13.87-11.72,16.5s-18.45-12-15.59-15.11c.4-.45,3-8.11,6.67-12.33a22.5,22.5,0,0,1,5-4.13Z" style="fill: rgb(201, 95, 80);"></path><path d="M274.93,162.13c-2.49,3.71-7.89,9.47-13.07,11.65-4.06,1.7-13.45.85-14.36-1.73-1.2-3.36,2.44-3.54,6-3,1.3.18,6.3-1,7.24-2.77,1.26-2.36,5.44-8.91,5.44-8.91Z" style="fill: rgb(201, 95, 80);"></path><path d="M277.14,168.21c-2.33,3.81-7.49,9.79-12.58,12.17-4,1.87-15.71-1.4-16.73-3.94-1.34-3.31,2.29-3.63,5.87-3.27,1.31.13,7.82,0,9-1.47,1.65-2.11,6.07-7.56,6.07-7.56Z" style="fill: rgb(201, 95, 80);"></path><path d="M267.18,166.06a36.25,36.25,0,0,1-3.28,4.63,12,12,0,0,1-1,1.07,4.42,4.42,0,0,1-1.23.93,17.75,17.75,0,0,1-2.85.57c-.94.13-1.88.23-2.84.28a15.82,15.82,0,0,1-2.87-.22,15.2,15.2,0,0,0-2.78-.15,3.32,3.32,0,0,0-2.5,1,3.25,3.25,0,0,1,2.47-1.33,15.22,15.22,0,0,1,2.86-.07,18.67,18.67,0,0,0,2.78.09c.92-.07,1.85-.17,2.78-.31a21.11,21.11,0,0,0,2.69-.49,3.59,3.59,0,0,0,1-.75c.34-.31.67-.64,1-1C264.76,169,266,167.49,267.18,166.06Z" style="fill:#263238"></path><path d="M281.58,170.37c-2.19,3.89-7.14,10-12.15,12.6-3.92,2-15.75-.86-16.86-3.36-1.45-3.26,2.17-3.71,5.76-3.47,1.31.08,7.81-.27,8.91-1.78,1.57-2.16,5.8-7.76,5.8-7.76Z" style="fill: rgb(201, 95, 80);"></path><path d="M271.56,168.56c-1.28,1.6-2.51,3.24-3.88,4.73-.34.36-.68.73-1.05,1.05a3.16,3.16,0,0,1-.56.39,5.1,5.1,0,0,1-.65.18c-1,.23-2,.4-3,.56a19.2,19.2,0,0,1-3,.31,26.36,26.36,0,0,0-3.09-.07,6,6,0,0,0-3,.84,2.4,2.4,0,0,0-1,1.19,2.23,2.23,0,0,0,.1,1.53,1.92,1.92,0,0,1,1.09-2.46,6,6,0,0,1,2.88-.58c1,0,2,.13,3,.22a16.85,16.85,0,0,0,3.12-.25,29.11,29.11,0,0,0,3-.59,3.26,3.26,0,0,0,.81-.26,3.66,3.66,0,0,0,.68-.51,10.39,10.39,0,0,0,1.06-1.15A36.91,36.91,0,0,0,271.56,168.56Z" style="fill:#263238"></path><path d="M212.67,168.26c1.7,2.37,10.47,12.76,13.54,15.05s16.95-14,13.76-16.79c-.46-.4-3.92-7.72-8.05-11.49a22.71,22.71,0,0,0-5.43-3.53Z" style="fill: rgb(201, 95, 80);"></path><path d="M225.41,164.05c2.89,3.4,8.92,8.5,14.31,10.07,4.23,1.23,13.46-.69,14.07-3.36.8-3.48-2.83-3.23-6.31-2.32-1.27.33-6.38-.28-7.51-1.92-1.53-2.21-6.43-8.23-6.43-8.23Z" style="fill: rgb(201, 95, 80);"></path><path d="M223.9,170.34c2.76,3.52,8.56,8.87,13.89,10.65,4.18,1.4,15.46-3.19,16.18-5.83.94-3.44-2.69-3.35-6.21-2.58-1.29.28-7.77.9-9.07-.43-1.89-1.9-6.9-6.81-6.9-6.81Z" style="fill: rgb(201, 95, 80);"></path><path d="M233.55,167.06c1.38,1.29,2.74,2.6,4.17,3.8.36.3.73.59,1.1.85a4,4,0,0,0,1.11.63,21.45,21.45,0,0,0,2.73.18c.93,0,1.87,0,2.8,0a17.8,17.8,0,0,0,2.74-.41,15.14,15.14,0,0,1,2.86-.26,3.28,3.28,0,0,1,2.6,1,3.31,3.31,0,0,0-2.6-.68,15.25,15.25,0,0,0-2.74.47,14.36,14.36,0,0,1-2.82.54c-1,.07-1.91.07-2.86.06a18.31,18.31,0,0,1-2.89-.25,4.49,4.49,0,0,1-1.33-.78,14.1,14.1,0,0,1-1.08-1A37.92,37.92,0,0,1,233.55,167.06Z" style="fill:#263238"></path><path d="M219.74,173c2.63,3.61,8.25,9.15,13.51,11.12,4.13,1.55,15.56-2.65,16.37-5.27,1.06-3.41-2.58-3.44-6.12-2.79-1.29.24-7.79.63-9.05-.74-1.82-2-6.65-7-6.65-7Z" style="fill: rgb(201, 95, 80);"></path><path d="M229.49,170.05c1.45,1.45,2.87,2.93,4.39,4.25.39.32.77.65,1.17.92a2.77,2.77,0,0,0,.6.33,5.83,5.83,0,0,0,.67.11c1,.11,2,.16,3,.21a21.22,21.22,0,0,0,3,0,23.48,23.48,0,0,1,3.06-.42,5.88,5.88,0,0,1,3.09.48,2.46,2.46,0,0,1,1.17,1.06,2.21,2.21,0,0,1,.07,1.54,2.26,2.26,0,0,0-.22-1.46,2.22,2.22,0,0,0-1.15-.86,5.88,5.88,0,0,0-2.92-.25c-1,.12-2,.36-3,.57a17.38,17.38,0,0,1-3.13.11c-1,0-2.05-.11-3.08-.24a3.64,3.64,0,0,1-.83-.16,3.51,3.51,0,0,1-.74-.43,11.89,11.89,0,0,1-1.19-1A37.06,37.06,0,0,1,229.49,170.05Z" style="fill:#263238"></path><path d="M242.64,152.09c-4.23,4-14.11,4.32-14.11,4.32a8.22,8.22,0,0,0,3.28-3.95c1-2.7,2-7.61,3.87-9,4.25-3.28,8.77-.49,9.8.23l.22.16s0,.14,0,.37A10.81,10.81,0,0,1,242.64,152.09Z" style="fill:#455a64"></path><path d="M245.72,144.18a9,9,0,0,0-4.34.39,6.31,6.31,0,0,0-2.78,2.77c-1.29,2.21-2.09,4.71-4.3,6.2a0,0,0,1,1-.06-.07c2.55-2.12,2.7-5.71,4.87-8.11a6.44,6.44,0,0,1,6.37-1.71l.22.16S245.71,144,245.72,144.18Z" style="fill:#263238"></path><path d="M244.6,146.93a.64.64,0,0,0-.76-.37c-.65.17-.75,1.19-.75,1.73a.43.43,0,0,0,0,.05.53.53,0,0,0,.15.35c.58.63,1.19-.36,1.34-.84A1.27,1.27,0,0,0,244.6,146.93Z" style="fill:#263238"></path><path d="M243.41,149.89a.47.47,0,0,0-.44-.43.63.63,0,0,0-.62.57.27.27,0,0,0,0,.18s0,0,0,0v0a.14.14,0,0,1,0,.06,0,0,0,0,1,0,0,.42.42,0,0,0,.34.23h.05a.62.62,0,0,0,.47-.24A.64.64,0,0,0,243.41,149.89Z" style="fill:#263238"></path><path d="M242.79,148.55a.33.33,0,0,0-.37-.25.37.37,0,0,0-.27.18.32.32,0,0,0,.12.46.11.11,0,0,0,.08,0,.37.37,0,0,0,.19,0,.28.28,0,0,0,.22-.2A.63.63,0,0,0,242.79,148.55Z" style="fill:#263238"></path><path d="M244.72,145.5a.43.43,0,0,0-.18.33.34.34,0,0,0,.52.31.31.31,0,0,0,.18-.19.85.85,0,0,0,0-.17C245.33,145.47,244.93,145.33,244.72,145.5Z" style="fill:#263238"></path><path d="M270.63,136.69s-3.37,6.38-7.13,7.62c-4.28,1.42-6.72-1.61-8.41-1.33a5,5,0,0,0-3.48,2.93,6.89,6.89,0,0,0-.39,1,4.91,4.91,0,0,1-.15-.8,8.45,8.45,0,0,1,4.92-8.82C262.29,134,270.63,136.69,270.63,136.69Z" style="fill:#455a64"></path><path d="M268.53,136.93c-3.75.44-7.57.52-11.07,2.12a10,10,0,0,0-4.37,3.36,11.94,11.94,0,0,0-1.48,3.5,6.89,6.89,0,0,0-.39,1,4.91,4.91,0,0,1-.15-.8,11.57,11.57,0,0,1,1.25-3.58A8.59,8.59,0,0,1,256.2,139c3.74-1.9,8.19-2.32,12.32-2.21A.05.05,0,0,1,268.53,136.93Z" style="fill:#263238"></path><path d="M266.08,140.66a.76.76,0,0,0-.95.21c-.29.29-.6.56-.87.86a.38.38,0,0,0-.11.23s0,.09,0,.14a.59.59,0,0,0,.62.65,1.85,1.85,0,0,0,.91-.47C266.07,142,266.75,141.12,266.08,140.66Z" style="fill:#263238"></path><path d="M267.49,139.64a.51.51,0,0,0-.87.15.34.34,0,0,0-.09.21.48.48,0,0,0,.71.48A.56.56,0,0,0,267.49,139.64Z" style="fill:#263238"></path><path d="M265.89,139.57a.24.24,0,0,0-.06.48A.24.24,0,0,0,265.89,139.57Z" style="fill:#263238"></path><path d="M263.55,142.77a5.65,5.65,0,0,0-.6.29.42.42,0,0,0,.31.75.53.53,0,0,0,.18,0l.18-.07.15-.08a.63.63,0,0,0,.28-.47A.37.37,0,0,0,263.55,142.77Z" style="fill:#263238"></path><path d="M242.67,142.45a.08.08,0,1,0,0,.15c3.85,1.74,6.07,5.66,7.09,9.61,1.15,4.49.61,8.7-.65,13.08-.07.27.3.5.46.23C253.78,158.31,251.81,144.94,242.67,142.45Z" style="fill:#455a64"></path><path d="M260.1,136.19c-4.27,1-8.47,2.55-9.47,7.35a30.08,30.08,0,0,0-.35,7.7,53.39,53.39,0,0,0,.77,7.79.2.2,0,0,0,.39,0c.48-4.42-.16-8.93.12-13.37.15-2.35.58-4.55,2.39-6.21a16.05,16.05,0,0,1,6.17-3.1C260.21,136.3,260.19,136.16,260.1,136.19Z" style="fill:#455a64"></path><path d="M229.8,173.61c2.54-2.7,10-6.06,11-6.7s3.66-4.61,5.64-5,4-1.51,5.88-.56,5.62,5.61,8,6.82,8.26,2.64,9.56,6.53c.34,1-11,6.26-21.61,6.35-4.73,0-9.17-2.54-12.65-2.78C232,178,229.8,173.61,229.8,173.61Z" style="fill:#FFC727"></path><path d="M229.8,173.61c2.54-2.7,10-6.06,11-6.7s3.66-4.61,5.64-5,4-1.51,5.88-.56,5.62,5.61,8,6.82,8.26,2.64,9.56,6.53c.34,1-11,6.26-21.61,6.35-4.73,0-9.17-2.54-12.65-2.78C232,178,229.8,173.61,229.8,173.61Z" style="opacity:0.4"></path><path d="M259.13,179.48a44.78,44.78,0,0,1-10.82,1.57c-4.73,0-9.17-2.54-12.65-2.78-3.66-.24-5.86-4.66-5.86-4.66,2.54-2.7,10-6.06,11-6.7s3.66-4.61,5.64-5c1.57-.32,3.14-1.07,4.66-.91-1.85,1.06-4.7,5.61-5.42,6.41-1.44,1.6-7.45,3.66-8.59,6-.36.74.4,3.63,4,4.51,3.38.83,5.22,2.7,12.66,2.15A43.6,43.6,0,0,0,259.13,179.48Z" style="opacity:0.1"></path><g style="opacity:0.30000000000000004"><path d="M233.67,174.94a.66.66,0,0,0,.33-.78c-.21-.63-1.24-.68-1.78-.65h-.05a.54.54,0,0,0-.34.16c-.59.62.42,1.17.92,1.3A1.27,1.27,0,0,0,233.67,174.94Z"></path><path d="M234.17,173.15a.47.47,0,0,0,.41-.46.64.64,0,0,0-.6-.59.36.36,0,0,0-.18,0l-.06,0h0l-.06,0h0a.46.46,0,0,0-.22.35s0,0,0,0,0,0,0,0a.67.67,0,0,0,.27.46A.65.65,0,0,0,234.17,173.15Z"></path><path d="M256.51,171.55a.47.47,0,0,0,.41-.46.65.65,0,0,0-.6-.59.37.37,0,0,0-.18,0l-.06,0h0l-.06,0h0a.41.41,0,0,0-.22.35v.05a.64.64,0,0,0,.27.46A.65.65,0,0,0,256.51,171.55Z"></path><path d="M246.18,164.33a.46.46,0,0,0,0-.61.64.64,0,0,0-.84-.1.3.3,0,0,0-.15.09.13.13,0,0,0,0,0h0a.21.21,0,0,0,0,.06v0a.43.43,0,0,0,0,.41s0,0,0,0v0a.76.76,0,0,0,1,0Z"></path><path d="M266.74,173.13a.47.47,0,0,0,.61,0,.64.64,0,0,0,.08-.84.31.31,0,0,0-.1-.15l-.05,0h0s0,0-.06,0l0,0a.46.46,0,0,0-.41.05l0,0s0,0,0,0a.76.76,0,0,0,0,1Z"></path><path d="M235.71,173.67a.32.32,0,0,0,.22-.38.34.34,0,0,0-.19-.26.33.33,0,0,0-.46.14s0,.05,0,.08a.41.41,0,0,0,0,.19.3.3,0,0,0,.2.22A.7.7,0,0,0,235.71,173.67Z"></path><path d="M247.23,163.5a.32.32,0,0,0,.23-.38.42.42,0,0,0-.19-.26.33.33,0,0,0-.46.15.19.19,0,0,0,0,.07.4.4,0,0,0,0,.19.29.29,0,0,0,.21.22A.48.48,0,0,0,247.23,163.5Z"></path><path d="M267.84,174.06a.41.41,0,0,0-.33-.15.34.34,0,0,0-.29.53.31.31,0,0,0,.2.17l.17,0C267.9,174.68,268,174.26,267.84,174.06Z"></path><path d="M266,173.19a.45.45,0,0,0-.34-.15.34.34,0,0,0-.29.53.31.31,0,0,0,.2.17l.17,0C266,173.81,266.15,173.39,266,173.19Z"></path></g><path d="M249.74,178.32v.09a.19.19,0,0,0,0,.08c0,.12-.06.24-.1.37-.81,2.61-12.25,6.81-16.37,5.26a20.81,20.81,0,0,1-3.09-1.5l4.65-6.76.13-.19c2,1,7.39.61,8.56.39,2.36-.42,4.75-.56,5.78.42a1,1,0,0,1,.31.4l.08.16a1.29,1.29,0,0,1,.07.21A2.26,2.26,0,0,1,249.74,178.32Z" style="fill: rgb(201, 95, 80);"></path><path d="M249.73,178.41v-.09a2.14,2.14,0,0,0-.24-1.28,2.22,2.22,0,0,0-1.15-.86,5.89,5.89,0,0,0-2.92-.25c-1,.12-2,.36-3,.57a16.51,16.51,0,0,1-3.13.11c-1,0-2.05-.11-3.08-.23a4.37,4.37,0,0,1-.83-.17,2.14,2.14,0,0,1-.59-.35l.13-.19.26-.36a1.92,1.92,0,0,0,.45.23,3.21,3.21,0,0,0,.67.11c1,.12,2,.17,3,.22a19.83,19.83,0,0,0,3,0,27.64,27.64,0,0,1,3-.43,6,6,0,0,1,3.1.49,2.6,2.6,0,0,1,.8.58,1,1,0,0,1,.31.4.42.42,0,0,1,.06.08.24.24,0,0,1,0,.08,1.29,1.29,0,0,1,.07.21A2.08,2.08,0,0,1,249.73,178.41Z" style="fill:#263238"></path><path d="M214,173.56c2.44,3.87,8.69,10.88,14.91,13.32,4.21,1.64,15.75-7.32,15.35-10.1s-4-3-7.91-1.68c-1.28.44-5.56,3.41-6.76,1.92-1.72-2.14-5.91-7.46-5.91-7.46Z" style="fill: rgb(201, 95, 80);"></path><path d="M226.11,172.85c.39.61.52.83.93,1.43s.81,1.2,1.25,1.78a5.46,5.46,0,0,0,1.29,1.38,2.85,2.85,0,0,0,1.74.35,10,10,0,0,0,3.77-1.63c1.29-.73,4-1.92,6-1.69a3.92,3.92,0,0,1,1.62.45,2.53,2.53,0,0,1,1,.78c.88,1.52-.25,3.24-1.39,4.45a26.44,26.44,0,0,1-7.77,5.23c-.68.33-1.37.64-2.06,1a6.08,6.08,0,0,1-2.5.7c-1.43,0-3.75-1.47-4.48-1.91,0,0-.09,0,0,.09.87.55,3,2.34,5.34,2.24a7,7,0,0,0,2.4-.79c.8-.34,1.6-.71,2.38-1.09A32.31,32.31,0,0,0,240,183a13.76,13.76,0,0,0,3.61-3.36,4,4,0,0,0,.28-4.11,3.5,3.5,0,0,0-2.58-1.39,6.53,6.53,0,0,0-1.82,0,27.39,27.39,0,0,0-4,1.13c-1.25.49-2.38,1.32-3.67,1.7a2.4,2.4,0,0,1-1.86-.13,6.74,6.74,0,0,1-1.39-1.28,20.25,20.25,0,0,1-2.3-2.77C226.13,172.51,225.94,172.59,226.11,172.85Z" style="fill:#263238"></path><path d="M207.92,168.18s2.52,7.18,4.32,10.09,12.5,11.28,14.44,9.08c2.51-2.86-2.72-8.91-5.67-11.54,0,0,5.8-6.59,3-11.74S207.92,168.18,207.92,168.18Z" style="fill: rgb(201, 95, 80);"></path><path d="M227.11,186.34c.41-4.25-3.68-7.45-6.35-10.22a.35.35,0,0,1,.09-.57c2.25-2.93,4.56-7.71,3.39-11.42a.09.09,0,1,1,.16-.06c1.8,3.8-.09,8.69-2.76,11.73,2.78,2.79,6.74,6.19,5.51,10.54C227.15,186.37,227.11,186.36,227.11,186.34Z" style="fill:#263238"></path><path d="M252.39,179.09v.09a.16.16,0,0,1,0,.09c0,.11.09.22.14.35,1.1,2.5,12.95,5.36,16.87,3.35a20.51,20.51,0,0,0,2.89-1.84L266.94,175l-.16-.19c-1.83,1.17-7.26,1.46-8.45,1.37-2.39-.15-4.78,0-5.69,1.08a1.16,1.16,0,0,0-.27.44l-.06.16c0,.08,0,.14-.05.23A2.26,2.26,0,0,0,252.39,179.09Z" style="fill: rgb(201, 95, 80);"></path><path d="M252.4,179.18v-.09a2.17,2.17,0,0,1,.09-1.29,2.24,2.24,0,0,1,1.05-1,6,6,0,0,1,2.87-.58c1,0,2,.13,3,.22a16.85,16.85,0,0,0,3.12-.25c1-.14,2-.35,3-.58a3.59,3.59,0,0,0,.8-.27,2.11,2.11,0,0,0,.55-.4l-.16-.19-.29-.32a2.11,2.11,0,0,1-.42.29,5.32,5.32,0,0,1-.66.18c-1,.23-2,.4-3,.56a20.52,20.52,0,0,1-3,.31,26.36,26.36,0,0,0-3.09-.07,6,6,0,0,0-3,.84,2.64,2.64,0,0,0-.72.66,1.16,1.16,0,0,0-.27.44.25.25,0,0,0,0,.09.19.19,0,0,0,0,.07c0,.08,0,.14-.05.23A2.21,2.21,0,0,0,252.4,179.18Z" style="fill:#263238"></path><path d="M287.33,170.27c-2,4.13-7.38,11.81-13.28,14.94-4,2.12-16.48-5.46-16.4-8.27s3.59-3.45,7.67-2.57c1.31.28,5.91,2.75,6.93,1.13,1.46-2.33,5-8.09,5-8.09Z" style="fill: rgb(201, 95, 80);"></path><path d="M275.24,171c-.32.65-.43.88-.76,1.53s-.67,1.28-1,1.9a5.29,5.29,0,0,1-1.13,1.52,2.79,2.79,0,0,1-1.68.55,9.86,9.86,0,0,1-3.93-1.19c-1.37-.58-4.18-1.45-6.19-1a3.81,3.81,0,0,0-1.56.63,2.53,2.53,0,0,0-.87.88c-.7,1.61.61,3.19,1.89,4.26a26.07,26.07,0,0,0,8.32,4.31c.72.25,1.44.48,2.16.71a6.17,6.17,0,0,0,2.56.4c1.41-.16,3.56-1.88,4.23-2.4.05,0,.1,0,.05.08-.81.65-2.75,2.68-5.05,2.84a7.08,7.08,0,0,1-2.47-.51c-.84-.25-1.67-.52-2.5-.81a32.27,32.27,0,0,1-4.67-2.05,13.51,13.51,0,0,1-4-2.93,4,4,0,0,1-.75-4,3.53,3.53,0,0,1,2.41-1.68,6.81,6.81,0,0,1,1.8-.2,28.86,28.86,0,0,1,4.06.67c1.3.34,2.51,1,3.84,1.27a2.37,2.37,0,0,0,1.83-.35,6,6,0,0,0,1.23-1.43,19.24,19.24,0,0,0,2-3C275.17,170.62,275.37,170.68,275.24,171Z" style="fill:#263238"></path><path d="M293,164.42s-1.83,7.38-3.35,10.45-11.39,12.4-13.53,10.39c-2.76-2.61,1.87-9.12,4.56-12,0,0-6.39-6-4.08-11.41S293,164.42,293,164.42Z" style="fill: rgb(201, 95, 80);"></path><path d="M275.54,184.29c-.8-4.19,3-7.76,5.37-10.76a.35.35,0,0,0-.14-.56c-2.51-2.71-5.27-7.25-4.44-11.05a.09.09,0,0,0-.17-.06c-1.44,4,.9,8.65,3.84,11.43-2.5,3-6.13,6.79-4.5,11C275.51,184.33,275.55,184.32,275.54,184.29Z" style="fill:#263238"></path><path d="M185.56,147.43c.48,4,5.75,12.53,23,24.46,3,2.05,22.24-18.15,18.84-19.95-4.28-2.27-12.77-9-14.1-9.42C202.12,139,184.45,138.26,185.56,147.43Z" style="fill: rgb(201, 95, 80);"></path><path d="M219.4,146.76c-3.48-1.8-6.8-3.91-10.53-4.69a49.52,49.52,0,0,0-5.72-.81,39.06,39.06,0,0,0-5.83-.12,22.26,22.26,0,0,1,5.86-.62,31.72,31.72,0,0,1,5.9.58,18.16,18.16,0,0,1,5.54,2.21A36.29,36.29,0,0,1,219.4,146.76Z" style="fill:#263238"></path><path d="M265.89,98.29s-14.14,10.12-22.31,9.21S232.12,99,232.12,99s10.73-9.18,20.91-7.14C259.09,93.1,265.89,98.29,265.89,98.29Z" style="fill: rgb(201, 95, 80);"></path><path d="M254.71,93.49c-.25,1.61-3.86,9-8.75,9-2.52,0-2.8-8.83-2.8-8.83L243,93l-2-9,12.16-7.63S254.78,93,254.71,93.49Z" style="fill: rgb(201, 95, 80);"></path><path d="M253.79,82.55A18.57,18.57,0,0,1,243,93l-2-9,12.17-7.63S253.48,79.16,253.79,82.55Z" style="fill:#263238"></path><path d="M229.07,71c.4,16.21,10.15,17.8,13.65,17.71,3.17-.09,14-.77,15.24-16.93s-6.39-21.11-13.65-21.3S228.67,54.8,229.07,71Z" style="fill: rgb(201, 95, 80);"></path><path d="M234.45,69.59c.38-.06.72-.18,1.09-.27a1.8,1.8,0,0,0,1.06-.49.57.57,0,0,0,0-.7,1.43,1.43,0,0,0-1.42-.29,2.09,2.09,0,0,0-1.29.79A.62.62,0,0,0,234.45,69.59Z" style="fill:#263238"></path><path d="M245.41,69a8.42,8.42,0,0,1-1.11-.14,1.78,1.78,0,0,1-1.1-.35.59.59,0,0,1-.06-.71,1.45,1.45,0,0,1,1.38-.45,2.14,2.14,0,0,1,1.37.63A.61.61,0,0,1,245.41,69Z" style="fill:#263238"></path><path d="M243.6,73.21s.09.05.09.09c0,1.11.26,2.37,1.28,2.67,0,0,0,.07,0,.06C243.73,75.94,243.46,74.26,243.6,73.21Z" style="fill:#263238"></path><path d="M244.52,72c1.76-.24,2.12,3.31.48,3.53S243,72.2,244.52,72Z" style="fill:#263238"></path><path d="M245.23,72.12c.33.17.67.49,1.05.49s.72-.4,1-.79c0,0,.06,0,.07,0,.07.68-.12,1.4-.84,1.57s-1.19-.39-1.43-1.06C245,72.25,245.1,72.05,245.23,72.12Z" style="fill:#263238"></path><path d="M236.73,73.55s-.08.06-.08.1c.1,1.1,0,2.38-1,2.8a0,0,0,0,0,0,.07C236.92,76.27,237,74.58,236.73,73.55Z" style="fill:#263238"></path><path d="M235.68,72.46c-1.78,0-1.71,3.53-.06,3.56S237.17,72.48,235.68,72.46Z" style="fill:#263238"></path><path d="M234.94,72.71c-.28.19-.55.54-.88.57s-.69-.35-.95-.71c0,0-.05,0-.05,0,0,.68.23,1.38.89,1.5s1-.49,1.18-1.17C235.15,72.82,235.05,72.63,234.94,72.71Z" style="fill:#263238"></path><path d="M243.82,81.93c-.17.33-.31.75-.68.91a2.89,2.89,0,0,1-1.21.11s-.06,0,0,.07a1.49,1.49,0,0,0,1.52.12,1.15,1.15,0,0,0,.51-1.2C243.93,81.87,243.84,81.88,243.82,81.93Z" style="fill:#263238"></path><path d="M239,78.49s-.09,1.66,0,2.43a4.17,4.17,0,0,0,4-1.6c.06-.08-.06-.16-.13-.1a5.56,5.56,0,0,1-3.27,1.26c-.08-.21.23-2.85.11-2.84a6.76,6.76,0,0,0-1.73.55c.08-3.47.71-6.9.73-10.35a.11.11,0,0,0-.21,0,56.64,56.64,0,0,0-1.25,11.12C237.12,79.37,238.67,78.65,239,78.49Z" style="fill:#263238"></path><path d="M257.73,73.87c-3,.68-5.25-5.9-5.25-5.9s-13.11-.91-15.24-11.3c0,0-1.74,9-8.19,12.66,0,0-2.05-13.43,8.4-17.42,0,0,10.65-5.7,17.9,2.65S259.74,73.41,257.73,73.87Z" style="fill:#263238"></path><path d="M237.13,55.9a11.36,11.36,0,0,0,1.05,4.74,12,12,0,0,0,2.85,4,9.16,9.16,0,0,0,1,.79l.49.38.52.32c.36.2.71.42,1.08.61l1.13.47.57.23.59.16,1.18.32c.8.14,1.6.24,2.4.33-.77-.25-1.56-.42-2.31-.67l-1.12-.42L246,67c-.18-.08-.35-.18-.53-.27l-1.06-.52c-.34-.2-.66-.42-1-.63l-.5-.31-.46-.37a9.05,9.05,0,0,1-.89-.75,13.81,13.81,0,0,1-2.85-3.71,15,15,0,0,1-.94-2.17A13.88,13.88,0,0,1,237.13,55.9Z" style="fill:#263238"></path><path d="M255.42,73.1s3-5.43,5.37-4.43.6,8.59-2,9.88a2.74,2.74,0,0,1-3.82-1Z" style="fill: rgb(201, 95, 80);"></path><path d="M260.21,70.83a0,0,0,0,1,0,.07c-1.8,1-2.59,2.83-3.08,4.71a1.51,1.51,0,0,1,2.2-.66c.06,0,0,.11,0,.1a1.7,1.7,0,0,0-1.78.8,7.34,7.34,0,0,0-.71,1.59c-.07.17-.39.12-.34-.08v0C256.18,74.92,257.67,71.36,260.21,70.83Z" style="fill:#263238"></path><path d="M258.45,78a.7.7,0,0,1-.8.58.69.69,0,0,1,.21-1.37A.7.7,0,0,1,258.45,78Z" style="fill:#fff"></path></g></svg>